M48
INCH
T01C0.0433
T02C0.1575
%
T01
X+009464Y+006770
X+009464Y+005770
X+009464Y+004770
X+010464Y+004770
X+010464Y+005770
X+010464Y+006770
X+008022Y+006770
X+008022Y+005770
X+008022Y+004770
X+007022Y+004770
X+007022Y+005770
X+007022Y+006770
X+014758Y+005686
X+014758Y+004686
X+015991Y+004695
X+015991Y+005695
X+015991Y+006695
X+016991Y+006695
X+016991Y+005695
X+016991Y+004695
T02
X+019449Y+005906
X+012483Y+005906
X+005512Y+005906
T00
M30
