G04 DipTrace 3.3.1.3*
G04 Top.gbr*
%MOIN*%
G04 #@! TF.FileFunction,Copper,L1,Top*
G04 #@! TF.Part,Single*
G04 #@! TA.AperFunction,Conductor*
%ADD14C,0.012992*%
G04 #@! TA.AperFunction,ComponentPad*
%ADD17R,0.066929X0.066929*%
%ADD19C,0.066929*%
%FSLAX26Y26*%
G04*
G70*
G90*
G75*
G01*
G04 Top*
%LPD*%
X1475822Y468564D2*
D14*
X1599144D1*
Y469504D1*
Y669504D2*
Y569504D1*
X702178Y677019D2*
X752178Y627019D1*
X896410D1*
X946410Y677019D1*
X971410D1*
X1021410Y627019D1*
X1083910D1*
X1146410Y689519D1*
X1354867D1*
X1475822Y568564D1*
X1699144Y469504D2*
Y486785D1*
X1670380Y515549D1*
X1570380D1*
X1517365Y568564D1*
X1475822D1*
X1699144Y669504D2*
Y569504D1*
Y469504D1*
X702178Y477019D2*
X752178Y527019D1*
X896410D1*
X946410Y477019D1*
X802178D2*
X871410D1*
X921410Y427019D1*
X996410D1*
X1046410Y477019D1*
D17*
X946410Y677019D3*
D19*
X1046410D3*
X946410Y577019D3*
X1046410D3*
X946410Y477019D3*
X1046410D3*
D17*
X1699144Y469504D3*
D19*
X1599144D3*
X1699144Y569504D3*
X1599144D3*
X1699144Y669504D3*
X1599144D3*
D17*
X1475822Y468564D3*
D19*
Y568564D3*
D17*
X702178Y677019D3*
D19*
X802178D3*
X702178Y577019D3*
X802178D3*
X702178Y477019D3*
X802178D3*
M02*
