G04 DipTrace 3.3.1.3*
G04 TopDimension.gbr*
%MOIN*%
G04 #@! TF.FileFunction,Drawing,Top*
G04 #@! TF.Part,Single*
%ADD13C,0.001378*%
%ADD30C,0.006176*%
%FSLAX26Y26*%
G04*
G70*
G90*
G75*
G01*
G04 TopDimension*
%LPD*%
X393700Y787402D2*
D13*
Y1006771D1*
X2102518Y787397D2*
Y1006771D1*
X1248109Y987086D2*
X433070D1*
G36*
X393700D2*
X433070Y994960D1*
Y979212D1*
X393700Y987086D1*
G37*
X1248109D2*
D13*
X2063148D1*
G36*
X2102518D2*
X2063148Y979212D1*
Y994960D1*
X2102518Y987086D1*
G37*
Y787397D2*
D13*
X2222170D1*
X2102536Y393700D2*
X2222170D1*
X2202485Y590548D2*
Y748027D1*
G36*
Y787397D2*
X2210359Y748027D1*
X2194611D1*
X2202485Y787397D1*
G37*
Y590548D2*
D13*
Y433070D1*
G36*
Y393700D2*
X2194611Y433070D1*
X2210359D1*
X2202485Y393700D1*
G37*
X551180Y590552D2*
D13*
Y930207D1*
X393700Y787402D2*
Y930207D1*
Y910522D2*
X551180D1*
X334645D2*
X354330D1*
G36*
X393700D2*
X354330Y902648D1*
Y918396D1*
X393700Y910522D1*
G37*
X610235D2*
D13*
X590550D1*
G36*
X551180D2*
X590550Y918396D1*
Y902648D1*
X551180Y910522D1*
G37*
X393700Y393701D2*
D13*
X340609D1*
X551180Y590552D2*
X340609D1*
X360294D2*
Y393701D1*
Y649607D2*
Y629922D1*
G36*
Y590552D2*
X352420Y629922D1*
X368169D1*
X360294Y590552D1*
G37*
Y334646D2*
D13*
Y354331D1*
G36*
Y393701D2*
X368169Y354331D1*
X352420D1*
X360294Y393701D1*
G37*
X1944902Y590552D2*
D13*
Y838527D1*
X1248327Y590552D2*
Y838527D1*
X1596615Y818842D2*
X1905532D1*
G36*
X1944902D2*
X1905532Y810968D1*
Y826716D1*
X1944902Y818842D1*
G37*
X1596615D2*
D13*
X1287697D1*
G36*
X1248327D2*
X1287697Y826716D1*
Y810968D1*
X1248327Y818842D1*
G37*
Y590552D2*
D13*
X277130D1*
X393700Y393701D2*
X277130D1*
X296815Y590552D2*
Y393701D1*
Y649607D2*
Y629922D1*
G36*
Y590552D2*
X288941Y629922D1*
X304690D1*
X296815Y590552D1*
G37*
Y334646D2*
D13*
Y354331D1*
G36*
Y393701D2*
X304690Y354331D1*
X288941D1*
X296815Y393701D1*
G37*
X1749144Y419504D2*
D13*
Y222772D1*
X2102536Y393700D2*
Y222772D1*
X1925840Y242457D2*
X1788514D1*
G36*
X1749144D2*
X1788514Y250331D1*
Y234583D1*
X1749144Y242457D1*
G37*
X1925840D2*
D13*
X2063166D1*
G36*
X2102536D2*
X2063166Y234583D1*
Y250331D1*
X2102536Y242457D1*
G37*
X1750924Y416258D2*
D13*
Y222772D1*
X1425822Y418564D2*
Y222772D1*
X1588373Y242457D2*
X1711554D1*
G36*
X1750924D2*
X1711554Y234583D1*
Y250331D1*
X1750924Y242457D1*
G37*
X1588373D2*
D13*
X1465192D1*
G36*
X1425822D2*
X1465192Y250331D1*
Y234583D1*
X1425822Y242457D1*
G37*
X551180Y590552D2*
D13*
Y839419D1*
X1248327Y590552D2*
Y839419D1*
X899754Y819734D2*
X590550D1*
G36*
X551180D2*
X590550Y827608D1*
Y811860D1*
X551180Y819734D1*
G37*
X899754D2*
D13*
X1208957D1*
G36*
X1248327D2*
X1208957Y811860D1*
Y827608D1*
X1248327Y819734D1*
G37*
X393700Y787402D2*
D13*
X177165D1*
X393700Y393701D2*
X177165D1*
X196850Y590552D2*
Y748032D1*
G36*
Y787402D2*
X204724Y748032D1*
X188976D1*
X196850Y787402D1*
G37*
Y590552D2*
D13*
Y433071D1*
G36*
Y393701D2*
X188976Y433071D1*
X204724D1*
X196850Y393701D1*
G37*
X393700D2*
D13*
Y-19685D1*
X2102536Y393700D2*
Y-19685D1*
X1248118Y1D2*
X433070D1*
G36*
X393700D2*
X433070Y7875D1*
Y-7873D1*
X393700Y1D1*
G37*
X1248118D2*
D13*
X2063166D1*
G36*
X2102536D2*
X2063166Y-7873D1*
Y7875D1*
X2102536Y1D1*
G37*
X551180Y590552D2*
D13*
Y59056D1*
X1944902Y590552D2*
Y59056D1*
X1248041Y78741D2*
X590550D1*
G36*
X551180D2*
X590550Y86615D1*
Y70867D1*
X551180Y78741D1*
G37*
X1248041D2*
D13*
X1905532D1*
G36*
X1944902D2*
X1905532Y70867D1*
Y86615D1*
X1944902Y78741D1*
G37*
X2102536Y393700D2*
D13*
X2145669D1*
X1944902Y590552D2*
X2145669D1*
X2125983D2*
Y393700D1*
Y649607D2*
Y629922D1*
G36*
Y590552D2*
X2118109Y629922D1*
X2133857D1*
X2125983Y590552D1*
G37*
Y334645D2*
D13*
Y354330D1*
G36*
Y393700D2*
X2133857Y354330D1*
X2118109D1*
X2125983Y393700D1*
G37*
X551180Y590552D2*
D13*
Y203595D1*
X1248327Y590552D2*
Y203595D1*
X899754Y223280D2*
X590550D1*
G36*
X551180D2*
X590550Y231154D1*
Y215406D1*
X551180Y223280D1*
G37*
X899754D2*
D13*
X1208957D1*
G36*
X1248327D2*
X1208957Y215406D1*
Y231154D1*
X1248327Y223280D1*
G37*
X1096410Y427019D2*
D13*
Y310749D1*
X652178Y427019D2*
Y310749D1*
X874294Y330434D2*
X1057040D1*
G36*
X1096410D2*
X1057040Y322560D1*
Y338308D1*
X1096410Y330434D1*
G37*
X874294D2*
D13*
X691548D1*
G36*
X652178D2*
X691548Y338308D1*
Y322560D1*
X652178Y330434D1*
G37*
X1248327Y590552D2*
D13*
Y307096D1*
X1096410Y427019D2*
Y307096D1*
Y326781D2*
X1248327D1*
X1037355D2*
X1057040D1*
G36*
X1096410D2*
X1057040Y318907D1*
Y334655D1*
X1096410Y326781D1*
G37*
X1307382D2*
D13*
X1287697D1*
G36*
X1248327D2*
X1287697Y334655D1*
Y318907D1*
X1248327Y326781D1*
G37*
X1160052Y1031795D2*
D30*
X1163899Y1033741D1*
X1169647Y1039444D1*
Y999297D1*
X1189648D2*
X1208793Y1039444D1*
X1181998D1*
X1232641D2*
X1226893Y1037543D1*
X1223046Y1031795D1*
X1221145Y1022244D1*
Y1016496D1*
X1223046Y1006946D1*
X1226893Y1001198D1*
X1232641Y999297D1*
X1236443D1*
X1242191Y1001198D1*
X1245994Y1006946D1*
X1247939Y1016496D1*
Y1022244D1*
X1245994Y1031795D1*
X1242191Y1037543D1*
X1236443Y1039444D1*
X1232641D1*
X1245994Y1031795D2*
X1223046Y1006946D1*
X1269841Y1039444D2*
X1264137Y1037543D1*
X1262192Y1033741D1*
Y1029894D1*
X1264137Y1026091D1*
X1267940Y1024146D1*
X1275589Y1022244D1*
X1281337Y1020343D1*
X1285140Y1016496D1*
X1287041Y1012694D1*
Y1006946D1*
X1285140Y1003143D1*
X1283238Y1001198D1*
X1277490Y999297D1*
X1269841D1*
X1264137Y1001198D1*
X1262192Y1003143D1*
X1260291Y1006946D1*
Y1012694D1*
X1262192Y1016496D1*
X1266039Y1020343D1*
X1271742Y1022244D1*
X1279392Y1024146D1*
X1283238Y1026091D1*
X1285140Y1029894D1*
Y1033741D1*
X1283238Y1037543D1*
X1277490Y1039444D1*
X1269841D1*
X1301294Y1003143D2*
X1299392Y1001198D1*
X1301294Y999297D1*
X1303239Y1001198D1*
X1301294Y1003143D1*
X1325141Y1039444D2*
X1319437Y1037543D1*
X1317492Y1033741D1*
Y1029894D1*
X1319437Y1026091D1*
X1323240Y1024146D1*
X1330889Y1022244D1*
X1336637Y1020343D1*
X1340440Y1016496D1*
X1342341Y1012694D1*
Y1006946D1*
X1340440Y1003143D1*
X1338538Y1001198D1*
X1332790Y999297D1*
X1325141D1*
X1319437Y1001198D1*
X1317492Y1003143D1*
X1315591Y1006946D1*
Y1012694D1*
X1317492Y1016496D1*
X1321339Y1020343D1*
X1327042Y1022244D1*
X1334692Y1024146D1*
X1338538Y1026091D1*
X1340440Y1029894D1*
Y1033741D1*
X1338538Y1037543D1*
X1332790Y1039444D1*
X1325141D1*
X2254843Y662879D2*
Y641876D1*
X2239545Y653328D1*
Y647580D1*
X2237643Y643778D1*
X2235742Y641876D1*
X2229994Y639931D1*
X2226192D1*
X2220444Y641876D1*
X2216597Y645679D1*
X2214696Y651427D1*
Y657175D1*
X2216597Y662879D1*
X2218542Y664780D1*
X2222345Y666725D1*
X2241490Y602686D2*
X2235742Y604631D1*
X2231895Y608434D1*
X2229994Y614182D1*
Y616083D1*
X2231895Y621831D1*
X2235742Y625634D1*
X2241490Y627579D1*
X2243391D1*
X2249140Y625634D1*
X2252942Y621831D1*
X2254843Y616083D1*
Y614182D1*
X2252942Y608434D1*
X2249140Y604631D1*
X2241490Y602686D1*
X2231895D1*
X2222345Y604631D1*
X2216597Y608434D1*
X2214696Y614182D1*
Y617985D1*
X2216597Y623733D1*
X2220444Y625634D1*
X2254843Y586488D2*
Y565485D1*
X2239545Y576937D1*
Y571189D1*
X2237643Y567387D1*
X2235742Y565485D1*
X2229994Y563540D1*
X2226192D1*
X2220444Y565485D1*
X2216597Y569288D1*
X2214696Y575036D1*
Y580784D1*
X2216597Y586488D1*
X2218542Y588389D1*
X2222345Y590335D1*
X2218542Y549287D2*
X2216597Y551189D1*
X2214696Y549287D1*
X2216597Y547342D1*
X2218542Y549287D1*
X2214696Y527341D2*
X2254843Y508196D1*
Y534990D1*
X403912Y955231D2*
X407759Y957176D1*
X413507Y962880D1*
Y922732D1*
X448807Y962880D2*
X429705D1*
X427804Y945680D1*
X429705Y947581D1*
X435453Y949527D1*
X441157D1*
X446905Y947581D1*
X450752Y943779D1*
X452653Y938031D1*
Y934228D1*
X450752Y928480D1*
X446905Y924634D1*
X441157Y922732D1*
X435453D1*
X429705Y924634D1*
X427804Y926579D1*
X425859Y930382D1*
X472654Y922732D2*
X491799Y962880D1*
X465005D1*
X506052Y926579D2*
X504151Y924634D1*
X506052Y922732D1*
X507998Y924634D1*
X506052Y926579D1*
X543297Y962880D2*
X524196D1*
X522294Y945680D1*
X524196Y947581D1*
X529944Y949527D1*
X535648D1*
X541396Y947581D1*
X545242Y943779D1*
X547144Y938031D1*
Y934228D1*
X545242Y928480D1*
X541396Y924634D1*
X535648Y922732D1*
X529944D1*
X524196Y924634D1*
X522294Y926579D1*
X520349Y930382D1*
X315585Y426473D2*
X313640Y430320D1*
X307936Y436068D1*
X348084D1*
X321289Y473312D2*
X327037Y471367D1*
X330884Y467564D1*
X332785Y461816D1*
Y459915D1*
X330884Y454167D1*
X327037Y450364D1*
X321289Y448419D1*
X319388D1*
X313640Y450364D1*
X309837Y454167D1*
X307936Y459915D1*
Y461816D1*
X309837Y467564D1*
X313640Y471367D1*
X321289Y473312D1*
X330884D1*
X340434Y471367D1*
X346182Y467564D1*
X348084Y461816D1*
Y458014D1*
X346182Y452266D1*
X342336Y450364D1*
X313640Y508612D2*
X309837Y506710D1*
X307936Y500962D1*
Y497160D1*
X309837Y491412D1*
X315585Y487565D1*
X325136Y485664D1*
X334686D1*
X342336Y487565D1*
X346182Y491412D1*
X348084Y497160D1*
Y499061D1*
X346182Y504765D1*
X342336Y508612D1*
X336588Y510513D1*
X334686D1*
X328938Y508612D1*
X325136Y504765D1*
X323235Y499061D1*
Y497160D1*
X325136Y491412D1*
X328938Y487565D1*
X334686Y485664D1*
X344237Y524766D2*
X346182Y522864D1*
X348084Y524766D1*
X346182Y526711D1*
X344237Y524766D1*
X321289Y563956D2*
X327037Y562010D1*
X330884Y558208D1*
X332785Y552460D1*
Y550559D1*
X330884Y544811D1*
X327037Y541008D1*
X321289Y539063D1*
X319388D1*
X313640Y541008D1*
X309837Y544811D1*
X307936Y550559D1*
Y552460D1*
X309837Y558208D1*
X313640Y562010D1*
X321289Y563956D1*
X330884D1*
X340434Y562010D1*
X346182Y558208D1*
X348084Y552460D1*
Y548657D1*
X346182Y542909D1*
X342336Y541008D1*
X1546304Y865496D2*
X1544403Y869299D1*
X1538655Y871200D1*
X1534852D1*
X1529104Y869299D1*
X1525257Y863551D1*
X1523356Y854000D1*
Y844450D1*
X1525257Y836801D1*
X1529104Y832954D1*
X1534852Y831052D1*
X1536753D1*
X1542457Y832954D1*
X1546304Y836801D1*
X1548205Y842549D1*
Y844450D1*
X1546304Y850198D1*
X1542457Y854000D1*
X1536753Y855902D1*
X1534852D1*
X1529104Y854000D1*
X1525257Y850198D1*
X1523356Y844450D1*
X1585450Y857847D2*
X1583504Y852099D1*
X1579702Y848252D1*
X1573954Y846351D1*
X1572053D1*
X1566305Y848252D1*
X1562502Y852099D1*
X1560556Y857847D1*
Y859748D1*
X1562502Y865496D1*
X1566305Y869299D1*
X1572053Y871200D1*
X1573954D1*
X1579702Y869299D1*
X1583504Y865496D1*
X1585450Y857847D1*
Y848252D1*
X1583504Y838702D1*
X1579702Y832954D1*
X1573954Y831052D1*
X1570151D1*
X1564403Y832954D1*
X1562502Y836801D1*
X1620749Y865496D2*
X1618848Y869299D1*
X1613100Y871200D1*
X1609297D1*
X1603549Y869299D1*
X1599703Y863551D1*
X1597801Y854000D1*
Y844450D1*
X1599703Y836801D1*
X1603549Y832954D1*
X1609297Y831052D1*
X1611199D1*
X1616902Y832954D1*
X1620749Y836801D1*
X1622650Y842549D1*
Y844450D1*
X1620749Y850198D1*
X1616902Y854000D1*
X1611199Y855902D1*
X1609297D1*
X1603549Y854000D1*
X1599703Y850198D1*
X1597801Y844450D1*
X1636903Y834899D2*
X1635002Y832954D1*
X1636903Y831052D1*
X1638849Y832954D1*
X1636903Y834899D1*
X1674148Y865496D2*
X1672247Y869299D1*
X1666499Y871200D1*
X1662696D1*
X1656948Y869299D1*
X1653101Y863551D1*
X1651200Y854000D1*
Y844450D1*
X1653101Y836801D1*
X1656948Y832954D1*
X1662696Y831052D1*
X1664597D1*
X1670301Y832954D1*
X1674148Y836801D1*
X1676049Y842549D1*
Y844450D1*
X1674148Y850198D1*
X1670301Y854000D1*
X1664597Y855902D1*
X1662696D1*
X1656948Y854000D1*
X1653101Y850198D1*
X1651200Y844450D1*
X252106Y426473D2*
X250161Y430320D1*
X244457Y436068D1*
X284605D1*
X257810Y473312D2*
X263558Y471367D1*
X267405Y467564D1*
X269306Y461816D1*
Y459915D1*
X267405Y454167D1*
X263558Y450364D1*
X257810Y448419D1*
X255909D1*
X250161Y450364D1*
X246358Y454167D1*
X244457Y459915D1*
Y461816D1*
X246358Y467564D1*
X250161Y471367D1*
X257810Y473312D1*
X267405D1*
X276955Y471367D1*
X282703Y467564D1*
X284605Y461816D1*
Y458014D1*
X282703Y452266D1*
X278857Y450364D1*
X250161Y508612D2*
X246358Y506710D1*
X244457Y500962D1*
Y497160D1*
X246358Y491412D1*
X252106Y487565D1*
X261657Y485664D1*
X271207D1*
X278857Y487565D1*
X282703Y491412D1*
X284605Y497160D1*
Y499061D1*
X282703Y504765D1*
X278857Y508612D1*
X273109Y510513D1*
X271207D1*
X265459Y508612D1*
X261657Y504765D1*
X259756Y499061D1*
Y497160D1*
X261657Y491412D1*
X265459Y487565D1*
X271207Y485664D1*
X280758Y524766D2*
X282703Y522864D1*
X284605Y524766D1*
X282703Y526711D1*
X280758Y524766D1*
X257810Y563956D2*
X263558Y562010D1*
X267405Y558208D1*
X269306Y552460D1*
Y550559D1*
X267405Y544811D1*
X263558Y541008D1*
X257810Y539063D1*
X255909D1*
X250161Y541008D1*
X246358Y544811D1*
X244457Y550559D1*
Y552460D1*
X246358Y558208D1*
X250161Y562010D1*
X257810Y563956D1*
X267405D1*
X276955Y562010D1*
X282703Y558208D1*
X284605Y552460D1*
Y548657D1*
X282703Y542909D1*
X278857Y541008D1*
X1851608Y294816D2*
X1872611D1*
X1861159Y279517D1*
X1866907D1*
X1870709Y277616D1*
X1872611Y275715D1*
X1874556Y269967D1*
Y266164D1*
X1872611Y260416D1*
X1868808Y256569D1*
X1863060Y254668D1*
X1857312D1*
X1851608Y256569D1*
X1849707Y258515D1*
X1847761Y262317D1*
X1909855Y294816D2*
X1890754D1*
X1888853Y277616D1*
X1890754Y279517D1*
X1896502Y281463D1*
X1902206D1*
X1907954Y279517D1*
X1911801Y275715D1*
X1913702Y269967D1*
Y266164D1*
X1911801Y260416D1*
X1907954Y256569D1*
X1902206Y254668D1*
X1896502D1*
X1890754Y256569D1*
X1888853Y258515D1*
X1886908Y262317D1*
X1929900Y294816D2*
X1950903D1*
X1939451Y279517D1*
X1945199D1*
X1949002Y277616D1*
X1950903Y275715D1*
X1952848Y269967D1*
Y266164D1*
X1950903Y260416D1*
X1947100Y256569D1*
X1941352Y254668D1*
X1935604D1*
X1929900Y256569D1*
X1927999Y258515D1*
X1926054Y262317D1*
X1967101Y258515D2*
X1965200Y256569D1*
X1967101Y254668D1*
X1969046Y256569D1*
X1967101Y258515D1*
X2000543Y254668D2*
Y294816D1*
X1981398Y268065D1*
X2010094D1*
X1523692Y294816D2*
X1544695D1*
X1533243Y279517D1*
X1538991D1*
X1542793Y277616D1*
X1544695Y275715D1*
X1546640Y269967D1*
Y266164D1*
X1544695Y260416D1*
X1540892Y256569D1*
X1535144Y254668D1*
X1529396D1*
X1523692Y256569D1*
X1521791Y258515D1*
X1519846Y262317D1*
X1560937Y285265D2*
Y287166D1*
X1562838Y291013D1*
X1564740Y292914D1*
X1568586Y294816D1*
X1576236D1*
X1580038Y292914D1*
X1581939Y291013D1*
X1583885Y287166D1*
Y283364D1*
X1581939Y279517D1*
X1578137Y273813D1*
X1558992Y254668D1*
X1585786D1*
X1621086Y294816D2*
X1601984D1*
X1600083Y277616D1*
X1601984Y279517D1*
X1607732Y281463D1*
X1613436D1*
X1619184Y279517D1*
X1623031Y275715D1*
X1624932Y269967D1*
Y266164D1*
X1623031Y260416D1*
X1619184Y256569D1*
X1613436Y254668D1*
X1607732D1*
X1601984Y256569D1*
X1600083Y258515D1*
X1598138Y262317D1*
X1639185Y258515D2*
X1637284Y256569D1*
X1639185Y254668D1*
X1641130Y256569D1*
X1639185Y258515D1*
X1653482Y287166D2*
X1657329Y289112D1*
X1663077Y294816D1*
Y254668D1*
X856097Y866389D2*
X854196Y870191D1*
X848448Y872093D1*
X844646D1*
X838897Y870191D1*
X835051Y864443D1*
X833149Y854893D1*
Y845342D1*
X835051Y837693D1*
X838897Y833846D1*
X844646Y831945D1*
X846547D1*
X852251Y833846D1*
X856097Y837693D1*
X857999Y843441D1*
Y845342D1*
X856097Y851090D1*
X852251Y854893D1*
X846547Y856794D1*
X844646D1*
X838897Y854893D1*
X835051Y851090D1*
X833149Y845342D1*
X895243Y858740D2*
X893298Y852992D1*
X889495Y849145D1*
X883747Y847243D1*
X881846D1*
X876098Y849145D1*
X872296Y852992D1*
X870350Y858740D1*
Y860641D1*
X872296Y866389D1*
X876098Y870191D1*
X881846Y872093D1*
X883747D1*
X889495Y870191D1*
X893298Y866389D1*
X895243Y858740D1*
Y849145D1*
X893298Y839594D1*
X889495Y833846D1*
X883747Y831945D1*
X879945D1*
X874197Y833846D1*
X872296Y837693D1*
X915244Y831945D2*
X934390Y872093D1*
X907595D1*
X948642Y835792D2*
X946741Y833846D1*
X948642Y831945D1*
X950588Y833846D1*
X948642Y835792D1*
X962939Y864443D2*
X966786Y866389D1*
X972534Y872093D1*
Y831945D1*
X144491Y518221D2*
Y539224D1*
X159790Y527772D1*
Y533520D1*
X161691Y537323D1*
X163592Y539224D1*
X169340Y541169D1*
X173143D1*
X178891Y539224D1*
X182738Y535421D1*
X184639Y529673D1*
Y523925D1*
X182738Y518221D1*
X180792Y516320D1*
X176990Y514375D1*
X157844Y578414D2*
X163592Y576469D1*
X167439Y572666D1*
X169340Y566918D1*
Y565017D1*
X167439Y559269D1*
X163592Y555466D1*
X157844Y553521D1*
X155943D1*
X150195Y555466D1*
X146392Y559269D1*
X144491Y565017D1*
Y566918D1*
X146392Y572666D1*
X150195Y576469D1*
X157844Y578414D1*
X167439D1*
X176990Y576469D1*
X182738Y572666D1*
X184639Y566918D1*
Y563116D1*
X182738Y557368D1*
X178891Y555466D1*
X144491Y594612D2*
Y615615D1*
X159790Y604163D1*
Y609911D1*
X161691Y613713D1*
X163592Y615615D1*
X169340Y617560D1*
X173143D1*
X178891Y615615D1*
X182738Y611812D1*
X184639Y606064D1*
Y600316D1*
X182738Y594612D1*
X180792Y592711D1*
X176990Y590766D1*
X180792Y631813D2*
X182738Y629912D1*
X184639Y631813D1*
X182738Y633758D1*
X180792Y631813D1*
X184639Y653759D2*
X144491Y672904D1*
Y646110D1*
X1160061Y44710D2*
X1163908Y46655D1*
X1169656Y52359D1*
Y12211D1*
X1189657D2*
X1208802Y52359D1*
X1182008D1*
X1232650D2*
X1226902Y50458D1*
X1223055Y44710D1*
X1221154Y35159D1*
Y29411D1*
X1223055Y19861D1*
X1226902Y14113D1*
X1232650Y12211D1*
X1236452D1*
X1242200Y14113D1*
X1246003Y19861D1*
X1247948Y29411D1*
Y35159D1*
X1246003Y44710D1*
X1242200Y50458D1*
X1236452Y52359D1*
X1232650D1*
X1246003Y44710D2*
X1223055Y19861D1*
X1269850Y52359D2*
X1264147Y50458D1*
X1262201Y46655D1*
Y42808D1*
X1264147Y39006D1*
X1267949Y37060D1*
X1275598Y35159D1*
X1281346Y33258D1*
X1285149Y29411D1*
X1287050Y25609D1*
Y19861D1*
X1285149Y16058D1*
X1283248Y14113D1*
X1277500Y12211D1*
X1269850D1*
X1264147Y14113D1*
X1262201Y16058D1*
X1260300Y19861D1*
Y25609D1*
X1262201Y29411D1*
X1266048Y33258D1*
X1271752Y35159D1*
X1279401Y37060D1*
X1283248Y39006D1*
X1285149Y42808D1*
Y46655D1*
X1283248Y50458D1*
X1277500Y52359D1*
X1269850D1*
X1301303Y16058D2*
X1299402Y14113D1*
X1301303Y12211D1*
X1303248Y14113D1*
X1301303Y16058D1*
X1325150Y52359D2*
X1319447Y50458D1*
X1317501Y46655D1*
Y42808D1*
X1319447Y39006D1*
X1323249Y37060D1*
X1330898Y35159D1*
X1336646Y33258D1*
X1340449Y29411D1*
X1342350Y25609D1*
Y19861D1*
X1340449Y16058D1*
X1338548Y14113D1*
X1332800Y12211D1*
X1325150D1*
X1319447Y14113D1*
X1317501Y16058D1*
X1315600Y19861D1*
Y25609D1*
X1317501Y29411D1*
X1321348Y33258D1*
X1327052Y35159D1*
X1334701Y37060D1*
X1338548Y39006D1*
X1340449Y42808D1*
Y46655D1*
X1338548Y50458D1*
X1332800Y52359D1*
X1325150D1*
X1160891Y123450D2*
X1164738Y125395D1*
X1170486Y131099D1*
Y90951D1*
X1186684Y131099D2*
X1207686D1*
X1196235Y115801D1*
X1201983D1*
X1205785Y113899D1*
X1207686Y111998D1*
X1209632Y106250D1*
Y102448D1*
X1207686Y96699D1*
X1203884Y92853D1*
X1198136Y90951D1*
X1192388D1*
X1186684Y92853D1*
X1184783Y94798D1*
X1182837Y98601D1*
X1246877Y117746D2*
X1244931Y111998D1*
X1241129Y108151D1*
X1235381Y106250D1*
X1233479D1*
X1227731Y108151D1*
X1223929Y111998D1*
X1221983Y117746D1*
Y119647D1*
X1223929Y125395D1*
X1227731Y129198D1*
X1233479Y131099D1*
X1235381D1*
X1241129Y129198D1*
X1244931Y125395D1*
X1246877Y117746D1*
Y108151D1*
X1244931Y98601D1*
X1241129Y92853D1*
X1235381Y90951D1*
X1231578D1*
X1225830Y92853D1*
X1223929Y96699D1*
X1263075Y131099D2*
X1284077D1*
X1272625Y115801D1*
X1278374D1*
X1282176Y113899D1*
X1284077Y111998D1*
X1286023Y106250D1*
Y102448D1*
X1284077Y96699D1*
X1280275Y92853D1*
X1274527Y90951D1*
X1268779D1*
X1263075Y92853D1*
X1261174Y94798D1*
X1259228Y98601D1*
X1300275Y94798D2*
X1298374Y92853D1*
X1300275Y90951D1*
X1302221Y92853D1*
X1300275Y94798D1*
X1322222Y90951D2*
X1341367Y131099D1*
X1314572D1*
X2170693Y557780D2*
X2172638Y553933D1*
X2178342Y548185D1*
X2138194D1*
X2164989Y510940D2*
X2159241Y512885D1*
X2155394Y516688D1*
X2153493Y522436D1*
Y524337D1*
X2155394Y530085D1*
X2159241Y533888D1*
X2164989Y535833D1*
X2166890D1*
X2172638Y533888D1*
X2176441Y530085D1*
X2178342Y524337D1*
Y522436D1*
X2176441Y516688D1*
X2172638Y512885D1*
X2164989Y510940D1*
X2155394D1*
X2145844Y512885D1*
X2140095Y516688D1*
X2138194Y522436D1*
Y526239D1*
X2140095Y531987D1*
X2143942Y533888D1*
X2172638Y475641D2*
X2176441Y477542D1*
X2178342Y483290D1*
Y487093D1*
X2176441Y492841D1*
X2170693Y496687D1*
X2161142Y498589D1*
X2151592D1*
X2143942Y496687D1*
X2140095Y492841D1*
X2138194Y487093D1*
Y485191D1*
X2140095Y479487D1*
X2143942Y475641D1*
X2149690Y473739D1*
X2151592D1*
X2157340Y475641D1*
X2161142Y479487D1*
X2163043Y485191D1*
Y487093D1*
X2161142Y492841D1*
X2157340Y496687D1*
X2151592Y498589D1*
X2142041Y459487D2*
X2140095Y461388D1*
X2138194Y459487D1*
X2140095Y457541D1*
X2142041Y459487D1*
X2164989Y420296D2*
X2159241Y422242D1*
X2155394Y426044D1*
X2153493Y431793D1*
Y433694D1*
X2155394Y439442D1*
X2159241Y443244D1*
X2164989Y445190D1*
X2166890D1*
X2172638Y443244D1*
X2176441Y439442D1*
X2178342Y433694D1*
Y431793D1*
X2176441Y426044D1*
X2172638Y422242D1*
X2164989Y420296D1*
X2155394D1*
X2145844Y422242D1*
X2140095Y426044D1*
X2138194Y431793D1*
Y435595D1*
X2140095Y441343D1*
X2143942Y443244D1*
X856097Y269935D2*
X854196Y273737D1*
X848448Y275639D1*
X844646D1*
X838897Y273737D1*
X835051Y267989D1*
X833149Y258439D1*
Y248888D1*
X835051Y241239D1*
X838897Y237392D1*
X844646Y235491D1*
X846547D1*
X852251Y237392D1*
X856097Y241239D1*
X857999Y246987D1*
Y248888D1*
X856097Y254636D1*
X852251Y258439D1*
X846547Y260340D1*
X844646D1*
X838897Y258439D1*
X835051Y254636D1*
X833149Y248888D1*
X895243Y262285D2*
X893298Y256537D1*
X889495Y252691D1*
X883747Y250789D1*
X881846D1*
X876098Y252691D1*
X872296Y256537D1*
X870350Y262285D1*
Y264187D1*
X872296Y269935D1*
X876098Y273737D1*
X881846Y275639D1*
X883747D1*
X889495Y273737D1*
X893298Y269935D1*
X895243Y262285D1*
Y252691D1*
X893298Y243140D1*
X889495Y237392D1*
X883747Y235491D1*
X879945D1*
X874197Y237392D1*
X872296Y241239D1*
X915244Y235491D2*
X934390Y275639D1*
X907595D1*
X948642Y239338D2*
X946741Y237392D1*
X948642Y235491D1*
X950588Y237392D1*
X948642Y239338D1*
X962939Y267989D2*
X966786Y269935D1*
X972534Y275639D1*
Y235491D1*
X813460Y342644D2*
Y382792D1*
X794314Y356042D1*
X823010D1*
X854507Y342644D2*
Y382792D1*
X835362Y356042D1*
X864058D1*
X895554Y342644D2*
Y382792D1*
X876409Y356042D1*
X905105D1*
X919358Y346491D2*
X917456Y344546D1*
X919358Y342644D1*
X921303Y344546D1*
X919358Y346491D1*
X935600Y373242D2*
Y375143D1*
X937501Y378990D1*
X939402Y380891D1*
X943249Y382792D1*
X950899D1*
X954701Y380891D1*
X956602Y378990D1*
X958548Y375143D1*
Y371340D1*
X956602Y367494D1*
X952800Y361790D1*
X933654Y342644D1*
X960449D1*
X1113391Y371491D2*
X1117238Y373436D1*
X1122986Y379140D1*
Y338992D1*
X1158286Y379140D2*
X1139184D1*
X1137283Y361940D1*
X1139184Y363841D1*
X1144932Y365787D1*
X1150636D1*
X1156384Y363841D1*
X1160231Y360039D1*
X1162132Y354291D1*
Y350488D1*
X1160231Y344740D1*
X1156384Y340893D1*
X1150636Y338992D1*
X1144932D1*
X1139184Y340893D1*
X1137283Y342839D1*
X1135338Y346641D1*
X1174484Y371491D2*
X1178331Y373436D1*
X1184079Y379140D1*
Y338992D1*
X1198331Y342839D2*
X1196430Y340893D1*
X1198331Y338992D1*
X1200277Y340893D1*
X1198331Y342839D1*
X1237521Y365787D2*
X1235576Y360039D1*
X1231773Y356192D1*
X1226025Y354291D1*
X1224124D1*
X1218376Y356192D1*
X1214574Y360039D1*
X1212628Y365787D1*
Y367688D1*
X1214574Y373436D1*
X1218376Y377239D1*
X1224124Y379140D1*
X1226025D1*
X1231773Y377239D1*
X1235576Y373436D1*
X1237521Y365787D1*
Y356192D1*
X1235576Y346641D1*
X1231773Y340893D1*
X1226025Y338992D1*
X1222223D1*
X1216475Y340893D1*
X1214574Y344740D1*
M02*
