G04 DipTrace 3.3.1.3*
G04 TopSilk.gbr*
%MOIN*%
G04 #@! TF.FileFunction,Legend,Top*
G04 #@! TF.Part,Single*
%ADD10C,0.009843*%
%ADD29C,0.004632*%
%ADD30C,0.006176*%
%FSLAX26Y26*%
G04*
G70*
G90*
G75*
G01*
G04 TopSilk*
%LPD*%
X1096410Y727019D2*
D10*
X896410D1*
Y427019D1*
X1096410D1*
Y727019D1*
X1549144Y419504D2*
X1749144D1*
Y719504D1*
X1549144D1*
Y419504D1*
X1425822Y618564D2*
X1525822D1*
Y418564D1*
X1425822D1*
Y618564D1*
X852178Y727019D2*
X652178D1*
Y427019D1*
X852178D1*
Y727019D1*
X870360Y720953D2*
D29*
Y698005D1*
X868934Y693694D1*
X867475Y692268D1*
X864623Y690809D1*
X861738D1*
X858886Y692268D1*
X857460Y693694D1*
X856001Y698005D1*
Y700857D1*
X879623Y715183D2*
X882508Y716642D1*
X886819Y720920D1*
Y690809D1*
X1779143Y713438D2*
Y690490D1*
X1777717Y686179D1*
X1776258Y684753D1*
X1773406Y683294D1*
X1770521D1*
X1767669Y684753D1*
X1766243Y686179D1*
X1764784Y690490D1*
Y693342D1*
X1789866Y706242D2*
Y707668D1*
X1791292Y710553D1*
X1792718Y711979D1*
X1795603Y713405D1*
X1801340D1*
X1804192Y711979D1*
X1805618Y710553D1*
X1807077Y707668D1*
Y704816D1*
X1805618Y701931D1*
X1802766Y697653D1*
X1788407Y683294D1*
X1808503D1*
X1380822Y612497D2*
Y589549D1*
X1379396Y585238D1*
X1377937Y583812D1*
X1375085Y582353D1*
X1372200D1*
X1369348Y583812D1*
X1367922Y585238D1*
X1366463Y589549D1*
Y592401D1*
X1392970Y612464D2*
X1408722D1*
X1400133Y600990D1*
X1404444D1*
X1407296Y599564D1*
X1408722Y598138D1*
X1410181Y593827D1*
Y590975D1*
X1408722Y586664D1*
X1405870Y583779D1*
X1401559Y582353D1*
X1397248D1*
X1392970Y583779D1*
X1391544Y585238D1*
X1390085Y588090D1*
X607177Y720953D2*
Y698005D1*
X605751Y693694D1*
X604292Y692268D1*
X601440Y690809D1*
X598555D1*
X595703Y692268D1*
X594278Y693694D1*
X592818Y698005D1*
Y700857D1*
X633652Y720920D2*
X619326D1*
X617900Y708020D1*
X619326Y709446D1*
X623637Y710905D1*
X627915D1*
X632226Y709446D1*
X635111Y706594D1*
X636537Y702283D1*
Y699431D1*
X635111Y695120D1*
X632226Y692235D1*
X627915Y690809D1*
X623637D1*
X619326Y692235D1*
X617900Y693694D1*
X616441Y696546D1*
X1117126Y724391D2*
X1130059D1*
X1134337Y725817D1*
X1135796Y727276D1*
X1137222Y730128D1*
Y734439D1*
X1135796Y737291D1*
X1134337Y738750D1*
X1130059Y740176D1*
X1117126D1*
Y710032D1*
X1153649Y730128D2*
X1150797Y728702D1*
X1147912Y725817D1*
X1146486Y721506D1*
Y718654D1*
X1147912Y714343D1*
X1150797Y711491D1*
X1153649Y710032D1*
X1157960D1*
X1160845Y711491D1*
X1163697Y714343D1*
X1165156Y718654D1*
Y721506D1*
X1163697Y725817D1*
X1160845Y728702D1*
X1157960Y730128D1*
X1153649D1*
X1174419D2*
X1180156Y710032D1*
X1185893Y730128D1*
X1191630Y710032D1*
X1197367Y730128D1*
X1206631Y721506D2*
X1223842D1*
Y724391D1*
X1222416Y727276D1*
X1220990Y728702D1*
X1218105Y730128D1*
X1213794D1*
X1210942Y728702D1*
X1208057Y725817D1*
X1206631Y721506D1*
Y718654D1*
X1208057Y714343D1*
X1210942Y711491D1*
X1213794Y710032D1*
X1218105D1*
X1220990Y711491D1*
X1223842Y714343D1*
X1233105Y730128D2*
Y710032D1*
Y721506D2*
X1234564Y725817D1*
X1237416Y728702D1*
X1240301Y730128D1*
X1244612D1*
X1283036Y740176D2*
Y710032D1*
Y725817D2*
X1285922Y728702D1*
X1288773Y730128D1*
X1293084D1*
X1295936Y728702D1*
X1298821Y725817D1*
X1300247Y721506D1*
Y718654D1*
X1298821Y714343D1*
X1295936Y711491D1*
X1293084Y710032D1*
X1288773D1*
X1285922Y711491D1*
X1283036Y714343D1*
X1316674Y730128D2*
X1313822Y728702D1*
X1310937Y725817D1*
X1309511Y721506D1*
Y718654D1*
X1310937Y714343D1*
X1313822Y711491D1*
X1316674Y710032D1*
X1320985D1*
X1323870Y711491D1*
X1326722Y714343D1*
X1328181Y718654D1*
Y721506D1*
X1326722Y725817D1*
X1323870Y728702D1*
X1320985Y730128D1*
X1316674D1*
X1354655D2*
Y710032D1*
Y725817D2*
X1351804Y728702D1*
X1348918Y730128D1*
X1344641D1*
X1341756Y728702D1*
X1338904Y725817D1*
X1337445Y721506D1*
Y718654D1*
X1338904Y714343D1*
X1341756Y711491D1*
X1344641Y710032D1*
X1348918D1*
X1351804Y711491D1*
X1354655Y714343D1*
X1363919Y730128D2*
Y710032D1*
Y721506D2*
X1365378Y725817D1*
X1368230Y728702D1*
X1371115Y730128D1*
X1375426D1*
X1401901Y740176D2*
Y710032D1*
Y725817D2*
X1399049Y728702D1*
X1396164Y730128D1*
X1391853D1*
X1389001Y728702D1*
X1386116Y725817D1*
X1384690Y721506D1*
Y718654D1*
X1386116Y714343D1*
X1389001Y711491D1*
X1391853Y710032D1*
X1396164D1*
X1399049Y711491D1*
X1401901Y714343D1*
X1440325Y740176D2*
X1451799Y710032D1*
X1463273Y740176D1*
X1473962Y712917D2*
X1472536Y711458D1*
X1473962Y710032D1*
X1475421Y711458D1*
X1473962Y712917D1*
X1486144Y732980D2*
Y734406D1*
X1487570Y737291D1*
X1488996Y738717D1*
X1491881Y740143D1*
X1497618D1*
X1500470Y738717D1*
X1501896Y737291D1*
X1503355Y734406D1*
Y731554D1*
X1501896Y728669D1*
X1499044Y724391D1*
X1484685Y710032D1*
X1504781D1*
X1515470Y712917D2*
X1514044Y711458D1*
X1515470Y710032D1*
X1516929Y711458D1*
X1515470Y712917D1*
X1534815Y740143D2*
X1530504Y738717D1*
X1527619Y734406D1*
X1526193Y727243D1*
Y722932D1*
X1527619Y715769D1*
X1530504Y711458D1*
X1534815Y710032D1*
X1537667D1*
X1541978Y711458D1*
X1544830Y715769D1*
X1546289Y722932D1*
Y727243D1*
X1544830Y734406D1*
X1541978Y738717D1*
X1537667Y740143D1*
X1534815D1*
X1544830Y734406D2*
X1527619Y715769D1*
X431595Y458975D2*
Y428831D1*
X442317Y451779D2*
Y453205D1*
X443743Y456090D1*
X445169Y457516D1*
X448054Y458942D1*
X453791D1*
X456643Y457516D1*
X458069Y456090D1*
X459528Y453205D1*
Y450353D1*
X458069Y447468D1*
X455217Y443190D1*
X440858Y428831D1*
X460954D1*
X491740Y451812D2*
X490314Y454664D1*
X487429Y457549D1*
X484577Y458975D1*
X478840D1*
X475955Y457549D1*
X473103Y454664D1*
X471644Y451812D1*
X470218Y447501D1*
Y440305D1*
X471644Y436027D1*
X473103Y433142D1*
X475955Y430290D1*
X478840Y428831D1*
X484577D1*
X487429Y430290D1*
X490314Y433142D1*
X491740Y436027D1*
X501003Y428831D2*
X521099Y458942D1*
X550459Y454664D2*
X547607Y457549D1*
X543296Y458975D1*
X537559D1*
X533248Y457549D1*
X530363Y454664D1*
Y451812D1*
X531822Y448927D1*
X533248Y447501D1*
X536100Y446075D1*
X544722Y443190D1*
X547607Y441764D1*
X549033Y440305D1*
X550459Y437453D1*
Y433142D1*
X547607Y430290D1*
X543296Y428831D1*
X537559D1*
X533248Y430290D1*
X530363Y433142D1*
X578359Y458975D2*
X559722D1*
Y428831D1*
X578359D1*
X559722Y444616D2*
X571196D1*
X587623D2*
X600523D1*
X604834Y446075D1*
X606293Y447501D1*
X607719Y450353D1*
Y453238D1*
X606293Y456090D1*
X604834Y457549D1*
X600523Y458975D1*
X587623D1*
Y428831D1*
X597671Y444616D2*
X607719Y428831D1*
X1119095Y458975D2*
Y428831D1*
X1129817Y451779D2*
Y453205D1*
X1131243Y456090D1*
X1132669Y457516D1*
X1135554Y458942D1*
X1141291D1*
X1144143Y457516D1*
X1145569Y456090D1*
X1147028Y453205D1*
Y450353D1*
X1145569Y447468D1*
X1142717Y443190D1*
X1128358Y428831D1*
X1148454D1*
X1179240Y451812D2*
X1177814Y454664D1*
X1174929Y457549D1*
X1172077Y458975D1*
X1166340D1*
X1163455Y457549D1*
X1160603Y454664D1*
X1159144Y451812D1*
X1157718Y447501D1*
Y440305D1*
X1159144Y436027D1*
X1160603Y433142D1*
X1163455Y430290D1*
X1166340Y428831D1*
X1172077D1*
X1174929Y430290D1*
X1177814Y433142D1*
X1179240Y436027D1*
X1188503Y428831D2*
X1208599Y458942D1*
X1237959Y454664D2*
X1235107Y457549D1*
X1230796Y458975D1*
X1225059D1*
X1220748Y457549D1*
X1217863Y454664D1*
Y451812D1*
X1219322Y448927D1*
X1220748Y447501D1*
X1223600Y446075D1*
X1232222Y443190D1*
X1235107Y441764D1*
X1236533Y440305D1*
X1237959Y437453D1*
Y433142D1*
X1235107Y430290D1*
X1230796Y428831D1*
X1225059D1*
X1220748Y430290D1*
X1217863Y433142D1*
X1265859Y458975D2*
X1247222D1*
Y428831D1*
X1265859D1*
X1247222Y444616D2*
X1258696D1*
X1275123D2*
X1288023D1*
X1292334Y446075D1*
X1293793Y447501D1*
X1295219Y450353D1*
Y453238D1*
X1293793Y456090D1*
X1292334Y457549D1*
X1288023Y458975D1*
X1275123D1*
Y428831D1*
X1285171Y444616D2*
X1295219Y428831D1*
X1794095Y443190D2*
X1807028D1*
X1811306Y444616D1*
X1812765Y446075D1*
X1814191Y448927D1*
Y453238D1*
X1812765Y456090D1*
X1811306Y457549D1*
X1807028Y458975D1*
X1794095D1*
Y428831D1*
X1823454Y458975D2*
X1830650Y428831D1*
X1837813Y458975D1*
X1844976Y428831D1*
X1852172Y458975D1*
X1861436Y444616D2*
X1874336D1*
X1878647Y446075D1*
X1880106Y447501D1*
X1881532Y450353D1*
Y453238D1*
X1880106Y456090D1*
X1878647Y457549D1*
X1874336Y458975D1*
X1861436D1*
Y428831D1*
X1871484Y444616D2*
X1881532Y428831D1*
X1513262Y695287D2*
D30*
Y660843D1*
X1496062Y678043D2*
X1530506D1*
X1380782Y459066D2*
Y424622D1*
X1363582Y441822D2*
X1398026D1*
M02*
