M48
INCH
T01C0.035
T02C0.0433
T03C0.1378
%
T01
X+008062Y+006562
X+007562Y+006562
X+007062Y+006562
X+006562Y+006562
X+009562Y+006562
X+010062Y+006562
X+010562Y+006562
X+011062Y+006562
X+012562Y+006562
X+013062Y+006562
X+013562Y+006562
X+014062Y+006562
T02
X+005812Y+004937
X+006812Y+004937
X+007812Y+004937
X+008812Y+004937
X+009812Y+004937
X+010812Y+004937
X+011812Y+004937
X+012812Y+004937
X+013812Y+004937
X+014812Y+004937
T03
X+004937Y+006437
X+015937Y+006437
T00
M30
