M48
INCH
T01C0.035
T02C0.0433
T03C0.1378
%
T01
X+009243Y+006562
X+008743Y+006562
X+008243Y+006562
X+007743Y+006562
X+010743Y+006562
X+011243Y+006562
X+011743Y+006562
X+012243Y+006562
X+013743Y+006562
X+014243Y+006562
X+014743Y+006562
X+015243Y+006562
T02
X+006993Y+004937
X+007993Y+004937
X+008993Y+004937
X+009993Y+004937
X+010993Y+004937
X+011993Y+004937
X+012993Y+004937
X+013993Y+004937
X+014993Y+004937
X+015993Y+004937
T03
X+005118Y+006299
X+018110Y+006299
T00
M30
