G04 DipTrace 3.3.1.3*
G04 Top.gbr*
%MOIN*%
G04 #@! TF.FileFunction,Copper,L1,Top*
G04 #@! TF.Part,Single*
G04 #@! TA.AperFunction,Conductor*
%ADD14C,0.012992*%
G04 #@! TA.AperFunction,ComponentPad*
%ADD15O,0.041339X0.066929*%
%ADD16R,0.041339X0.066929*%
%ADD17R,0.066929X0.066929*%
%ADD18C,0.066929*%
%FSLAX26Y26*%
G04*
G70*
G90*
G75*
G01*
G04 Top*
%LPD*%
X824311Y656201D2*
D14*
Y743701D1*
X1124311D1*
X1399311D1*
X1424311Y718701D1*
Y656201D1*
X1124311D2*
Y743701D1*
X824311D2*
X761811D1*
X736811Y718701D1*
Y568701D1*
X699311Y531201D1*
Y493701D1*
X1474311Y656201D2*
Y706201D1*
X1486811Y718701D1*
X1549311D1*
X1599311Y668701D1*
Y493701D1*
X1524311Y656201D2*
Y631201D1*
X1499311Y606201D1*
Y493701D1*
X1374311Y656201D2*
Y568701D1*
X1399311Y543701D1*
Y493701D1*
X1174311Y656201D2*
Y693701D1*
X1199311Y718701D1*
X1249311D1*
X1299311Y668701D1*
Y493701D1*
X1224311Y656201D2*
Y631201D1*
X1199311Y606201D1*
Y493701D1*
X1074311Y656201D2*
Y606201D1*
X1099311Y581201D1*
Y493701D1*
X874311Y656201D2*
Y693701D1*
X899311Y718701D1*
X949311D1*
X999311Y668701D1*
Y493701D1*
X924311Y656201D2*
Y631201D1*
X899311Y606201D1*
Y493701D1*
X774311Y656201D2*
Y618701D1*
X799311Y593701D1*
Y493701D1*
D15*
X924311Y656201D3*
X824311D3*
D16*
X774311D3*
D15*
X874311D3*
X1224311D3*
X1124311D3*
D16*
X1074311D3*
D15*
X1174311D3*
X1524311D3*
X1424311D3*
D16*
X1374311D3*
D15*
X1474311D3*
D17*
X699311Y493701D3*
D18*
X799311D3*
X899311D3*
X999311D3*
X1099311D3*
X1199311D3*
X1299311D3*
X1399311D3*
X1499311D3*
X1599311D3*
M02*
