G04 DipTrace 3.3.1.3*
G04 TopDimension.gbr*
%MOIN*%
G04 #@! TF.FileFunction,Drawing,Top*
G04 #@! TF.Part,Single*
%ADD13C,0.001378*%
%ADD33C,0.006176*%
%FSLAX26Y26*%
G04*
G70*
G90*
G75*
G01*
G04 TopDimension*
%LPD*%
X393701Y393701D2*
D13*
Y137795D1*
X1929134Y393701D2*
Y137795D1*
X1161417Y157480D2*
X433071D1*
G36*
X393701D2*
X433071Y165354D1*
Y149606D1*
X393701Y157480D1*
G37*
X1161417D2*
D13*
X1889764D1*
G36*
X1929134D2*
X1889764Y149606D1*
Y165354D1*
X1929134Y157480D1*
G37*
X393701Y393701D2*
D13*
X255906D1*
X393701Y787402D2*
X255906D1*
X275591Y590551D2*
Y433071D1*
G36*
Y393701D2*
X267717Y433071D1*
X283465D1*
X275591Y393701D1*
G37*
Y590551D2*
D13*
Y748031D1*
G36*
Y787402D2*
X283465Y748031D1*
X267717D1*
X275591Y787402D1*
G37*
X1444980Y656201D2*
D13*
Y1063386D1*
X1144980Y656201D2*
Y1063386D1*
X1294980Y1043701D2*
X1405610D1*
G36*
X1444980D2*
X1405610Y1035827D1*
Y1051575D1*
X1444980Y1043701D1*
G37*
X1294980D2*
D13*
X1184350D1*
G36*
X1144980D2*
X1184350Y1051575D1*
Y1035827D1*
X1144980Y1043701D1*
G37*
Y656201D2*
D13*
Y1063386D1*
X844980Y656201D2*
Y1063386D1*
X994980Y1043701D2*
X1105610D1*
G36*
X1144980D2*
X1105610Y1035827D1*
Y1051575D1*
X1144980Y1043701D1*
G37*
X994980D2*
D13*
X884350D1*
G36*
X844980D2*
X884350Y1051575D1*
Y1035827D1*
X844980Y1043701D1*
G37*
X511811Y629921D2*
D13*
Y846457D1*
X393701Y787402D2*
Y846457D1*
Y826772D2*
X511811D1*
X334646D2*
X354331D1*
G36*
X393701D2*
X354331Y818898D1*
Y834646D1*
X393701Y826772D1*
G37*
X570866D2*
D13*
X551181D1*
G36*
X511811D2*
X551181Y834646D1*
Y818898D1*
X511811Y826772D1*
G37*
X1811024Y629921D2*
D13*
Y846457D1*
X1929134Y787402D2*
Y846457D1*
X1811024Y826772D2*
X1929134D1*
X1751969D2*
X1771654D1*
G36*
X1811024D2*
X1771654Y818898D1*
Y834646D1*
X1811024Y826772D1*
G37*
X1988189D2*
D13*
X1968504D1*
G36*
X1929134D2*
X1968504Y834646D1*
Y818898D1*
X1929134Y826772D1*
G37*
X393701Y787402D2*
D13*
X334646D1*
X511811Y629921D2*
X334646D1*
X354331Y708661D2*
Y748031D1*
G36*
Y787402D2*
X362205Y748031D1*
X346457D1*
X354331Y787402D1*
G37*
Y708661D2*
D13*
Y669291D1*
G36*
Y629921D2*
X346457Y669291D1*
X362205D1*
X354331Y629921D1*
G37*
X1811024D2*
D13*
X1988189D1*
X1929134Y787402D2*
X1988189D1*
X1968504Y708661D2*
Y669291D1*
G36*
Y629921D2*
X1960630Y669291D1*
X1976378D1*
X1968504Y629921D1*
G37*
Y708661D2*
D13*
Y748031D1*
G36*
Y787402D2*
X1976378Y748031D1*
X1960630D1*
X1968504Y787402D1*
G37*
X1136332Y209839D2*
D33*
X1157335D1*
X1145883Y194540D1*
X1151631D1*
X1155433Y192639D1*
X1157335Y190738D1*
X1159280Y184990D1*
Y181187D1*
X1157335Y175439D1*
X1153532Y171592D1*
X1147784Y169691D1*
X1142036D1*
X1136332Y171592D1*
X1134431Y173538D1*
X1132485Y177340D1*
X1196525Y196486D2*
X1194579Y190738D1*
X1190777Y186891D1*
X1185029Y184990D1*
X1183128D1*
X1177380Y186891D1*
X1173577Y190738D1*
X1171632Y196486D1*
Y198387D1*
X1173577Y204135D1*
X1177380Y207938D1*
X1183128Y209839D1*
X1185029D1*
X1190777Y207938D1*
X1194579Y204135D1*
X1196525Y196486D1*
Y186891D1*
X1194579Y177340D1*
X1190777Y171592D1*
X1185029Y169691D1*
X1181226D1*
X1175478Y171592D1*
X1173577Y175439D1*
X230881Y569269D2*
X228936Y573115D1*
X223232Y578863D1*
X263380D1*
X223232Y602711D2*
X225133Y596963D1*
X230881Y593116D1*
X240432Y591215D1*
X246180D1*
X255730Y593116D1*
X261479Y596963D1*
X263380Y602711D1*
Y606513D1*
X261479Y612261D1*
X255730Y616064D1*
X246180Y618009D1*
X240432D1*
X230881Y616064D1*
X225133Y612261D1*
X223232Y606513D1*
Y602711D1*
X230881Y616064D2*
X255730Y593116D1*
X1246048Y1055912D2*
X1265193Y1096059D1*
X1238398D1*
X1279446Y1059758D2*
X1277544Y1057813D1*
X1279446Y1055912D1*
X1281391Y1057813D1*
X1279446Y1059758D1*
X1316691Y1090356D2*
X1314789Y1094158D1*
X1309041Y1096059D1*
X1305239D1*
X1299491Y1094158D1*
X1295644Y1088410D1*
X1293743Y1078859D1*
Y1069309D1*
X1295644Y1061660D1*
X1299491Y1057813D1*
X1305239Y1055912D1*
X1307140D1*
X1312844Y1057813D1*
X1316691Y1061660D1*
X1318592Y1067408D1*
Y1069309D1*
X1316691Y1075057D1*
X1312844Y1078859D1*
X1307140Y1080761D1*
X1305239D1*
X1299491Y1078859D1*
X1295644Y1075057D1*
X1293743Y1069309D1*
X1332889Y1086509D2*
Y1088410D1*
X1334790Y1092257D1*
X1336691Y1094158D1*
X1340538Y1096059D1*
X1348187D1*
X1351990Y1094158D1*
X1353891Y1092257D1*
X1355837Y1088410D1*
Y1084607D1*
X1353891Y1080761D1*
X1350089Y1075057D1*
X1330943Y1055912D1*
X1357738D1*
X946048D2*
X965193Y1096059D1*
X938398D1*
X979446Y1059758D2*
X977544Y1057813D1*
X979446Y1055912D1*
X981391Y1057813D1*
X979446Y1059758D1*
X1016691Y1090356D2*
X1014789Y1094158D1*
X1009041Y1096059D1*
X1005239D1*
X999491Y1094158D1*
X995644Y1088410D1*
X993743Y1078859D1*
Y1069309D1*
X995644Y1061660D1*
X999491Y1057813D1*
X1005239Y1055912D1*
X1007140D1*
X1012844Y1057813D1*
X1016691Y1061660D1*
X1018592Y1067408D1*
Y1069309D1*
X1016691Y1075057D1*
X1012844Y1078859D1*
X1007140Y1080761D1*
X1005239D1*
X999491Y1078859D1*
X995644Y1075057D1*
X993743Y1069309D1*
X1032889Y1086509D2*
Y1088410D1*
X1034790Y1092257D1*
X1036691Y1094158D1*
X1040538Y1096059D1*
X1048187D1*
X1051990Y1094158D1*
X1053891Y1092257D1*
X1055837Y1088410D1*
Y1084607D1*
X1053891Y1080761D1*
X1050089Y1075057D1*
X1030943Y1055912D1*
X1057738D1*
X446293Y879130D2*
X467296D1*
X455844Y863832D1*
X461592D1*
X465394Y861930D1*
X467296Y860029D1*
X469241Y854281D1*
Y850478D1*
X467296Y844730D1*
X463493Y840884D1*
X457745Y838982D1*
X451997D1*
X446293Y840884D1*
X444392Y842829D1*
X442446Y846632D1*
X1863616Y879130D2*
X1884618D1*
X1873167Y863832D1*
X1878915D1*
X1882717Y861930D1*
X1884618Y860029D1*
X1886564Y854281D1*
Y850478D1*
X1884618Y844730D1*
X1880816Y840884D1*
X1875068Y838982D1*
X1869320D1*
X1863616Y840884D1*
X1861715Y842829D1*
X1859769Y846632D1*
X342120Y716547D2*
X301972D1*
X328723Y697401D1*
Y726097D1*
X1980715Y700776D2*
X2020862D1*
X1994112Y719922D1*
Y691226D1*
M02*
