G04 DipTrace 3.3.1.3*
G04 TopSilk.gbr*
%MOIN*%
G04 #@! TF.FileFunction,Legend,Top*
G04 #@! TF.Part,Single*
%ADD10C,0.009843*%
%ADD31C,0.004632*%
%ADD32C,0.003088*%
%FSLAX26Y26*%
G04*
G70*
G90*
G75*
G01*
G04 TopSilk*
%LPD*%
X632775Y717291D2*
D10*
Y709393D1*
Y603007D2*
Y595109D1*
Y717291D2*
G02X847342Y656200I98651J-60865D01*
G01*
X632775Y595109D2*
G03X847342Y656200I98651J60865D01*
G01*
X932775Y717291D2*
Y709393D1*
Y603007D2*
Y595109D1*
Y717291D2*
G02X1147342Y656200I98651J-60865D01*
G01*
X932775Y595109D2*
G03X1147342Y656200I98651J60865D01*
G01*
X1232775Y717291D2*
Y709393D1*
Y603007D2*
Y595109D1*
Y717291D2*
G02X1447342Y656200I98651J-60865D01*
G01*
X1232775Y595109D2*
G03X1447342Y656200I98651J60865D01*
G01*
X531180Y543702D2*
X1531220D1*
Y443700D1*
X531180D1*
Y543702D1*
X571780Y591276D2*
D31*
Y561132D1*
X581828D1*
X586139Y562591D1*
X589025Y565443D1*
X590450Y568328D1*
X591876Y572606D1*
Y579802D1*
X590450Y584113D1*
X589025Y586965D1*
X586139Y589850D1*
X581828Y591276D1*
X571780D1*
X601140Y585506D2*
X604025Y586965D1*
X608336Y591243D1*
Y561132D1*
X877830Y753776D2*
Y723632D1*
X887878D1*
X892190Y725091D1*
X895075Y727943D1*
X896501Y730828D1*
X897926Y735106D1*
Y742302D1*
X896501Y746613D1*
X895075Y749465D1*
X892190Y752350D1*
X887878Y753776D1*
X877830D1*
X908649Y746580D2*
Y748006D1*
X910075Y750891D1*
X911501Y752317D1*
X914386Y753743D1*
X920123D1*
X922975Y752317D1*
X924401Y750891D1*
X925860Y748006D1*
Y745154D1*
X924401Y742269D1*
X921549Y737991D1*
X907190Y723632D1*
X927286D1*
X1177830Y753776D2*
Y723632D1*
X1187878D1*
X1192190Y725091D1*
X1195075Y727943D1*
X1196501Y730828D1*
X1197926Y735106D1*
Y742302D1*
X1196501Y746613D1*
X1195075Y749465D1*
X1192190Y752350D1*
X1187878Y753776D1*
X1177830D1*
X1210075Y753743D2*
X1225827D1*
X1217238Y742269D1*
X1221549D1*
X1224401Y740843D1*
X1225827Y739417D1*
X1227286Y735106D1*
Y732254D1*
X1225827Y727943D1*
X1222975Y725058D1*
X1218664Y723632D1*
X1214353D1*
X1210075Y725058D1*
X1208649Y726517D1*
X1207190Y729369D1*
X492650Y467555D2*
Y444607D1*
X491224Y440296D1*
X489765Y438870D1*
X486913Y437411D1*
X484028D1*
X481176Y438870D1*
X479750Y440296D1*
X478291Y444607D1*
Y447459D1*
X501913Y461785D2*
X504798Y463244D1*
X509109Y467522D1*
Y437411D1*
X1556579Y427482D2*
D32*
X1567081D1*
X1561355Y419833D1*
X1564229D1*
X1566130Y418882D1*
X1567081Y417932D1*
X1568053Y415058D1*
Y413156D1*
X1567081Y410282D1*
X1565179Y408359D1*
X1562305Y407408D1*
X1559431D1*
X1556579Y408359D1*
X1555629Y409332D1*
X1554656Y411233D1*
X1574229Y423658D2*
X1576152Y424630D1*
X1579026Y427482D1*
Y407408D1*
X1585202D2*
X1598599Y427482D1*
X1604775Y423658D2*
X1606699Y424630D1*
X1609573Y427482D1*
Y407408D1*
X1621496Y427482D2*
X1618622Y426532D1*
X1616699Y423658D1*
X1615748Y418882D1*
Y416008D1*
X1616699Y411233D1*
X1618622Y408359D1*
X1621496Y407408D1*
X1623398D1*
X1626272Y408359D1*
X1628173Y411233D1*
X1629146Y416008D1*
Y418882D1*
X1628173Y423658D1*
X1626272Y426532D1*
X1623398Y427482D1*
X1621496D1*
X1628173Y423658D2*
X1616699Y411233D1*
X1635321Y407408D2*
X1648719Y427482D1*
X1655867Y422707D2*
Y423658D1*
X1656818Y425581D1*
X1657768Y426532D1*
X1659692Y427482D1*
X1663516D1*
X1665418Y426532D1*
X1666368Y425581D1*
X1667341Y423658D1*
Y421756D1*
X1666368Y419833D1*
X1664467Y416981D1*
X1654894Y407408D1*
X1668292D1*
X1680215Y427482D2*
X1677341Y426532D1*
X1675418Y423658D1*
X1674467Y418882D1*
Y416008D1*
X1675418Y411233D1*
X1677341Y408359D1*
X1680215Y407408D1*
X1682117D1*
X1684991Y408359D1*
X1686892Y411233D1*
X1687865Y416008D1*
Y418882D1*
X1686892Y423658D1*
X1684991Y426532D1*
X1682117Y427482D1*
X1680215D1*
X1686892Y423658D2*
X1675418Y411233D1*
X1430428Y774113D2*
D31*
Y743969D1*
X1447639D1*
X1475539Y774113D2*
X1456902D1*
Y743969D1*
X1475539D1*
X1456902Y759754D2*
X1468376D1*
X1484803Y774113D2*
Y743969D1*
X1494851D1*
X1499162Y745428D1*
X1502047Y748280D1*
X1503473Y751165D1*
X1504899Y755443D1*
Y762639D1*
X1503473Y766950D1*
X1502047Y769802D1*
X1499162Y772687D1*
X1494851Y774113D1*
X1484803D1*
X1543323D2*
Y743969D1*
X1556256D1*
X1560567Y745428D1*
X1561993Y746854D1*
X1563419Y749706D1*
Y754017D1*
X1561993Y756902D1*
X1560567Y758328D1*
X1556256Y759754D1*
X1560567Y761213D1*
X1561993Y762639D1*
X1563419Y765491D1*
Y768376D1*
X1561993Y771228D1*
X1560567Y772687D1*
X1556256Y774113D1*
X1543323D1*
Y759754D2*
X1556256D1*
X1581305Y774113D2*
X1578420Y772687D1*
X1575568Y769802D1*
X1574109Y766950D1*
X1572683Y762639D1*
Y755443D1*
X1574109Y751165D1*
X1575568Y748280D1*
X1578420Y745428D1*
X1581305Y743969D1*
X1587042D1*
X1589893Y745428D1*
X1592779Y748280D1*
X1594205Y751165D1*
X1595630Y755443D1*
Y762639D1*
X1594205Y766950D1*
X1592779Y769802D1*
X1589893Y772687D1*
X1587042Y774113D1*
X1581305D1*
X1627875Y743969D2*
X1616368Y774113D1*
X1604894Y743969D1*
X1609205Y754017D2*
X1623564D1*
X1637139Y759754D2*
X1650039D1*
X1654350Y761213D1*
X1655809Y762639D1*
X1657235Y765491D1*
Y768376D1*
X1655809Y771228D1*
X1654350Y772687D1*
X1650039Y774113D1*
X1637139D1*
Y743969D1*
X1647187Y759754D2*
X1657235Y743969D1*
X1666498Y774113D2*
Y743969D1*
X1676546D1*
X1680857Y745428D1*
X1683742Y748280D1*
X1685168Y751165D1*
X1686594Y755443D1*
Y762639D1*
X1685168Y766950D1*
X1683742Y769802D1*
X1680857Y772687D1*
X1676546Y774113D1*
X1666498D1*
X415179Y767932D2*
D32*
X414229Y769855D1*
X411355Y770806D1*
X408481D1*
X405607Y769855D1*
X404656Y767932D1*
X405607Y766030D1*
X407530Y765058D1*
X412305Y764107D1*
X414229Y763156D1*
X415179Y761233D1*
Y760282D1*
X414229Y758381D1*
X411355Y757408D1*
X408481D1*
X405607Y758381D1*
X404656Y760282D1*
X421355Y770806D2*
Y750710D1*
Y767932D2*
X423278Y769833D1*
X425180Y770806D1*
X428054D1*
X429977Y769833D1*
X431878Y767932D1*
X432851Y765058D1*
Y763134D1*
X431878Y760282D1*
X429977Y758359D1*
X428054Y757408D1*
X425180D1*
X423278Y758359D1*
X421355Y760282D1*
X450501Y770806D2*
Y757408D1*
Y767932D2*
X448599Y769855D1*
X446676Y770806D1*
X443824D1*
X441901Y769855D1*
X440000Y767932D1*
X439027Y765058D1*
Y763156D1*
X440000Y760282D1*
X441901Y758381D1*
X443824Y757408D1*
X446676D1*
X448599Y758381D1*
X450501Y760282D1*
X468172Y767932D2*
X466249Y769855D1*
X464326Y770806D1*
X461474D1*
X459550Y769855D1*
X457649Y767932D1*
X456676Y765058D1*
Y763156D1*
X457649Y760282D1*
X459550Y758381D1*
X461474Y757408D1*
X464326D1*
X466249Y758381D1*
X468172Y760282D1*
X474348Y765058D2*
X485822D1*
Y766981D1*
X484872Y768905D1*
X483921Y769855D1*
X481997Y770806D1*
X479123D1*
X477222Y769855D1*
X475299Y767932D1*
X474348Y765058D1*
Y763156D1*
X475299Y760282D1*
X477222Y758381D1*
X479123Y757408D1*
X481997D1*
X483921Y758381D1*
X485822Y760282D1*
X491998Y777504D2*
Y757408D1*
Y767932D2*
X493921Y769855D1*
X495822Y770806D1*
X498697D1*
X500598Y769855D1*
X502521Y767932D1*
X503472Y765058D1*
Y763156D1*
X502521Y760282D1*
X500598Y758381D1*
X498697Y757408D1*
X495822D1*
X493921Y758381D1*
X491998Y760282D1*
X509648Y770806D2*
Y761233D1*
X510598Y758381D1*
X512522Y757408D1*
X515396D1*
X517297Y758381D1*
X520171Y761233D1*
Y770806D2*
Y757408D1*
X537820Y769855D2*
Y754534D1*
X536870Y751683D1*
X535919Y750710D1*
X533996Y749759D1*
X531122D1*
X529221Y750710D1*
X537820Y766981D2*
X535919Y768882D1*
X533996Y769855D1*
X531122D1*
X529221Y768882D1*
X527297Y766981D1*
X526347Y764107D1*
Y762184D1*
X527297Y759332D1*
X529221Y757408D1*
X531122Y756458D1*
X533996D1*
X535919Y757408D1*
X537820Y759332D1*
X554519Y767932D2*
X553569Y769855D1*
X550695Y770806D1*
X547821D1*
X544947Y769855D1*
X543996Y767932D1*
X544947Y766030D1*
X546870Y765058D1*
X551645Y764107D1*
X553569Y763156D1*
X554519Y761233D1*
Y760282D1*
X553569Y758381D1*
X550695Y757408D1*
X547821D1*
X544947Y758381D1*
X543996Y760282D1*
X580136Y777504D2*
X587785Y757408D1*
X595434Y777504D1*
X602583Y772707D2*
Y773658D1*
X603533Y775581D1*
X604484Y776532D1*
X606407Y777482D1*
X610232D1*
X612133Y776532D1*
X613084Y775581D1*
X614057Y773658D1*
Y771756D1*
X613084Y769833D1*
X611183Y766981D1*
X601610Y757408D1*
X615007D1*
X622134Y759332D2*
X621183Y758359D1*
X622134Y757408D1*
X623106Y758359D1*
X622134Y759332D1*
X635030Y777482D2*
X632156Y776532D1*
X630233Y773658D1*
X629282Y768882D1*
Y766008D1*
X630233Y761233D1*
X632156Y758359D1*
X635030Y757408D1*
X636931D1*
X639805Y758359D1*
X641707Y761233D1*
X642679Y766008D1*
Y768882D1*
X641707Y773658D1*
X639805Y776532D1*
X636931Y777482D1*
X635030D1*
X641707Y773658D2*
X630233Y761233D1*
X1555428Y514232D2*
Y494136D1*
X1568825Y514232D2*
Y494136D1*
X1555428Y504660D2*
X1568825D1*
X1586475Y507534D2*
Y494136D1*
Y504660D2*
X1584574Y506583D1*
X1582650Y507534D1*
X1579798D1*
X1577875Y506583D1*
X1575974Y504660D1*
X1575001Y501786D1*
Y499884D1*
X1575974Y497010D1*
X1577875Y495109D1*
X1579798Y494136D1*
X1582650D1*
X1584574Y495109D1*
X1586475Y497010D1*
X1604125Y514232D2*
Y494136D1*
Y504660D2*
X1602223Y506583D1*
X1600300Y507534D1*
X1597426D1*
X1595525Y506583D1*
X1593601Y504660D1*
X1592651Y501786D1*
Y499884D1*
X1593601Y497010D1*
X1595525Y495109D1*
X1597426Y494136D1*
X1600300D1*
X1602223Y495109D1*
X1604125Y497010D1*
X1610300Y501786D2*
X1621774D1*
Y503709D1*
X1620824Y505632D1*
X1619873Y506583D1*
X1617950Y507534D1*
X1615076D1*
X1613174Y506583D1*
X1611251Y504660D1*
X1610300Y501786D1*
Y499884D1*
X1611251Y497010D1*
X1613174Y495109D1*
X1615076Y494136D1*
X1617950D1*
X1619873Y495109D1*
X1621774Y497010D1*
X1638473Y504660D2*
X1637523Y506583D1*
X1634649Y507534D1*
X1631775D1*
X1628901Y506583D1*
X1627950Y504660D1*
X1628901Y502758D1*
X1630824Y501786D1*
X1635599Y500835D1*
X1637523Y499884D1*
X1638473Y497961D1*
Y497010D1*
X1637523Y495109D1*
X1634649Y494136D1*
X1631775D1*
X1628901Y495109D1*
X1627950Y497010D1*
X1567853Y476732D2*
X1555428D1*
Y456636D1*
X1567853D1*
X1555428Y467160D2*
X1563077D1*
X1585502Y476732D2*
Y456636D1*
Y467160D2*
X1583601Y469083D1*
X1581678Y470034D1*
X1578804D1*
X1576902Y469083D1*
X1574979Y467160D1*
X1574028Y464286D1*
Y462384D1*
X1574979Y459510D1*
X1576902Y457609D1*
X1578804Y456636D1*
X1581678D1*
X1583601Y457609D1*
X1585502Y459510D1*
X1591678Y476732D2*
X1592629Y475782D1*
X1593601Y476732D1*
X1592629Y477705D1*
X1591678Y476732D1*
X1592629Y470034D2*
Y456636D1*
X1602651Y476732D2*
Y460461D1*
X1603602Y457609D1*
X1605525Y456636D1*
X1607426D1*
X1599777Y470034D2*
X1606476D1*
X1613602Y476732D2*
X1614553Y475782D1*
X1615525Y476732D1*
X1614553Y477705D1*
X1613602Y476732D1*
X1614553Y470034D2*
Y456636D1*
X1626476Y470034D2*
X1624575Y469083D1*
X1622652Y467160D1*
X1621701Y464286D1*
Y462384D1*
X1622652Y459510D1*
X1624575Y457609D1*
X1626476Y456636D1*
X1629350D1*
X1631274Y457609D1*
X1633175Y459510D1*
X1634148Y462384D1*
Y464286D1*
X1633175Y467160D1*
X1631274Y469083D1*
X1629350Y470034D1*
X1626476D1*
X1640324D2*
Y456636D1*
Y466209D2*
X1643198Y469083D1*
X1645121Y470034D1*
X1647973D1*
X1649896Y469083D1*
X1650847Y466209D1*
Y456636D1*
M02*
