G04 DipTrace 3.3.1.3*
G04 TopSilk.gbr*
%MOIN*%
G04 #@! TF.FileFunction,Legend,Top*
G04 #@! TF.Part,Single*
%ADD10C,0.009843*%
%ADD31C,0.004632*%
%ADD32C,0.003088*%
%ADD33C,0.006176*%
%FSLAX26Y26*%
G04*
G70*
G90*
G75*
G01*
G04 TopSilk*
%LPD*%
X750886Y717291D2*
D10*
Y709394D1*
Y603008D2*
Y595110D1*
Y717291D2*
G02X965453Y656201I98651J-60865D01*
G01*
X750886Y595110D2*
G03X965453Y656201I98651J60865D01*
G01*
X1050886Y717291D2*
Y709394D1*
Y603008D2*
Y595110D1*
Y717291D2*
G02X1265453Y656201I98651J-60865D01*
G01*
X1050886Y595110D2*
G03X1265453Y656201I98651J60865D01*
G01*
X1350886Y717291D2*
Y709394D1*
Y603008D2*
Y595110D1*
Y717291D2*
G02X1565453Y656201I98651J-60865D01*
G01*
X1350886Y595110D2*
G03X1565453Y656201I98651J60865D01*
G01*
X649291Y543702D2*
X1649331D1*
Y443701D1*
X649291D1*
Y543702D1*
X689891Y748757D2*
D31*
Y718613D1*
X699939D1*
X704250Y720072D1*
X707136Y722924D1*
X708562Y725809D1*
X709987Y730087D1*
Y737283D1*
X708562Y741594D1*
X707136Y744446D1*
X704250Y747331D1*
X699939Y748757D1*
X689891D1*
X719251Y742987D2*
X722136Y744446D1*
X726447Y748724D1*
Y718613D1*
X995942Y753776D2*
Y723632D1*
X1005990D1*
X1010301Y725092D1*
X1013186Y727944D1*
X1014612Y730829D1*
X1016038Y735106D1*
Y742303D1*
X1014612Y746614D1*
X1013186Y749465D1*
X1010301Y752351D1*
X1005990Y753776D1*
X995942D1*
X1026760Y746580D2*
Y748006D1*
X1028186Y750891D1*
X1029612Y752317D1*
X1032497Y753743D1*
X1038234D1*
X1041086Y752317D1*
X1042512Y750891D1*
X1043971Y748006D1*
Y745154D1*
X1042512Y742269D1*
X1039660Y737992D1*
X1025301Y723632D1*
X1045397D1*
X1295942Y753776D2*
Y723632D1*
X1305990D1*
X1310301Y725092D1*
X1313186Y727944D1*
X1314612Y730829D1*
X1316038Y735106D1*
Y742303D1*
X1314612Y746614D1*
X1313186Y749465D1*
X1310301Y752351D1*
X1305990Y753776D1*
X1295942D1*
X1328186Y753743D2*
X1343938D1*
X1335349Y742269D1*
X1339660D1*
X1342512Y740843D1*
X1343938Y739417D1*
X1345397Y735106D1*
Y732255D1*
X1343938Y727944D1*
X1341086Y725058D1*
X1336775Y723632D1*
X1332464D1*
X1328186Y725058D1*
X1326760Y726518D1*
X1325301Y729369D1*
X610761Y467556D2*
Y444608D1*
X609335Y440297D1*
X607876Y438871D1*
X605024Y437412D1*
X602139D1*
X599287Y438871D1*
X597861Y440297D1*
X596402Y444608D1*
Y447460D1*
X620024Y461786D2*
X622909Y463245D1*
X627220Y467523D1*
Y437412D1*
X1672767Y423658D2*
D32*
X1674690Y424631D1*
X1677564Y427483D1*
Y407409D1*
X1689488Y427483D2*
X1686614Y426532D1*
X1684691Y423658D1*
X1683740Y418883D1*
Y416009D1*
X1684691Y411234D1*
X1686614Y408360D1*
X1689488Y407409D1*
X1691389D1*
X1694263Y408360D1*
X1696165Y411234D1*
X1697137Y416009D1*
Y418883D1*
X1696165Y423658D1*
X1694263Y426532D1*
X1691389Y427483D1*
X1689488D1*
X1696165Y423658D2*
X1684691Y411234D1*
X1703313Y407409D2*
X1716710Y427483D1*
X1728634D2*
X1725760Y426532D1*
X1723837Y423658D1*
X1722886Y418883D1*
Y416009D1*
X1723837Y411234D1*
X1725760Y408360D1*
X1728634Y407409D1*
X1730535D1*
X1733410Y408360D1*
X1735311Y411234D1*
X1736284Y416009D1*
Y418883D1*
X1735311Y423658D1*
X1733410Y426532D1*
X1730535Y427483D1*
X1728634D1*
X1735311Y423658D2*
X1723837Y411234D1*
X1752032Y407409D2*
Y427483D1*
X1742459Y414108D1*
X1756807D1*
X1762983Y407409D2*
X1776380Y427483D1*
X1783529Y422708D2*
Y423658D1*
X1784479Y425582D1*
X1785430Y426532D1*
X1787353Y427483D1*
X1791178D1*
X1793079Y426532D1*
X1794030Y425582D1*
X1795003Y423658D1*
Y421757D1*
X1794030Y419834D1*
X1792129Y416982D1*
X1782556Y407409D1*
X1795953D1*
X1802129Y423658D2*
X1804052Y424631D1*
X1806926Y427483D1*
Y407409D1*
X1548539Y777226D2*
D31*
Y747082D1*
X1565750D1*
X1593650Y777226D2*
X1575013D1*
Y747082D1*
X1593650D1*
X1575013Y762867D2*
X1586487D1*
X1602914Y777226D2*
Y747082D1*
X1612962D1*
X1617273Y748541D1*
X1620158Y751393D1*
X1621584Y754278D1*
X1623010Y758556D1*
Y765752D1*
X1621584Y770063D1*
X1620158Y772915D1*
X1617273Y775800D1*
X1612962Y777226D1*
X1602914D1*
X1661434D2*
Y747082D1*
X1674367D1*
X1678678Y748541D1*
X1680104Y749967D1*
X1681530Y752819D1*
Y757130D1*
X1680104Y760015D1*
X1678678Y761441D1*
X1674367Y762867D1*
X1678678Y764326D1*
X1680104Y765752D1*
X1681530Y768604D1*
Y771489D1*
X1680104Y774341D1*
X1678678Y775800D1*
X1674367Y777226D1*
X1661434D1*
Y762867D2*
X1674367D1*
X1699416Y777226D2*
X1696531Y775800D1*
X1693679Y772915D1*
X1692220Y770063D1*
X1690794Y765752D1*
Y758556D1*
X1692220Y754278D1*
X1693679Y751393D1*
X1696531Y748541D1*
X1699416Y747082D1*
X1705153D1*
X1708005Y748541D1*
X1710890Y751393D1*
X1712316Y754278D1*
X1713741Y758556D1*
Y765752D1*
X1712316Y770063D1*
X1710890Y772915D1*
X1708005Y775800D1*
X1705153Y777226D1*
X1699416D1*
X1745986Y747082D2*
X1734479Y777226D1*
X1723005Y747082D1*
X1727316Y757130D2*
X1741675D1*
X1755250Y762867D2*
X1768150D1*
X1772461Y764326D1*
X1773920Y765752D1*
X1775346Y768604D1*
Y771489D1*
X1773920Y774341D1*
X1772461Y775800D1*
X1768150Y777226D1*
X1755250D1*
Y747082D1*
X1765298Y762867D2*
X1775346Y747082D1*
X1784609Y777226D2*
Y747082D1*
X1794657D1*
X1798968Y748541D1*
X1801853Y751393D1*
X1803279Y754278D1*
X1804705Y758556D1*
Y765752D1*
X1803279Y770063D1*
X1801853Y772915D1*
X1798968Y775800D1*
X1794657Y777226D1*
X1784609D1*
X415180Y767933D2*
D32*
X414229Y769856D1*
X411355Y770807D1*
X408481D1*
X405607Y769856D1*
X404657Y767933D1*
X405607Y766031D1*
X407531Y765059D1*
X412306Y764108D1*
X414229Y763157D1*
X415180Y761234D1*
Y760283D1*
X414229Y758382D1*
X411355Y757409D1*
X408481D1*
X405607Y758382D1*
X404657Y760283D1*
X421356Y770807D2*
Y750711D1*
Y767933D2*
X423279Y769834D1*
X425180Y770807D1*
X428054D1*
X429978Y769834D1*
X431879Y767933D1*
X432852Y765059D1*
Y763135D1*
X431879Y760283D1*
X429978Y758360D1*
X428054Y757409D1*
X425180D1*
X423279Y758360D1*
X421356Y760283D1*
X450502Y770807D2*
Y757409D1*
Y767933D2*
X448600Y769856D1*
X446677Y770807D1*
X443825D1*
X441902Y769856D1*
X440000Y767933D1*
X439028Y765059D1*
Y763157D1*
X440000Y760283D1*
X441902Y758382D1*
X443825Y757409D1*
X446677D1*
X448600Y758382D1*
X450502Y760283D1*
X468173Y767933D2*
X466250Y769856D1*
X464327Y770807D1*
X461475D1*
X459551Y769856D1*
X457650Y767933D1*
X456677Y765059D1*
Y763157D1*
X457650Y760283D1*
X459551Y758382D1*
X461475Y757409D1*
X464327D1*
X466250Y758382D1*
X468173Y760283D1*
X474349Y765059D2*
X485823D1*
Y766982D1*
X484872Y768905D1*
X483922Y769856D1*
X481998Y770807D1*
X479124D1*
X477223Y769856D1*
X475300Y767933D1*
X474349Y765059D1*
Y763157D1*
X475300Y760283D1*
X477223Y758382D1*
X479124Y757409D1*
X481998D1*
X483922Y758382D1*
X485823Y760283D1*
X491999Y777505D2*
Y757409D1*
Y767933D2*
X493922Y769856D1*
X495823Y770807D1*
X498697D1*
X500599Y769856D1*
X502522Y767933D1*
X503473Y765059D1*
Y763157D1*
X502522Y760283D1*
X500599Y758382D1*
X498697Y757409D1*
X495823D1*
X493922Y758382D1*
X491999Y760283D1*
X509648Y770807D2*
Y761234D1*
X510599Y758382D1*
X512522Y757409D1*
X515396D1*
X517298Y758382D1*
X520172Y761234D1*
Y770807D2*
Y757409D1*
X537821Y769856D2*
Y754535D1*
X536871Y751683D1*
X535920Y750711D1*
X533997Y749760D1*
X531123D1*
X529221Y750711D1*
X537821Y766982D2*
X535920Y768883D1*
X533997Y769856D1*
X531123D1*
X529221Y768883D1*
X527298Y766982D1*
X526347Y764108D1*
Y762185D1*
X527298Y759333D1*
X529221Y757409D1*
X531123Y756459D1*
X533997D1*
X535920Y757409D1*
X537821Y759333D1*
X554520Y767933D2*
X553570Y769856D1*
X550696Y770807D1*
X547822D1*
X544948Y769856D1*
X543997Y767933D1*
X544948Y766031D1*
X546871Y765059D1*
X551646Y764108D1*
X553570Y763157D1*
X554520Y761234D1*
Y760283D1*
X553570Y758382D1*
X550696Y757409D1*
X547822D1*
X544948Y758382D1*
X543997Y760283D1*
X580136Y777505D2*
X587786Y757409D1*
X595435Y777505D1*
X601611Y773658D2*
X603534Y774631D1*
X606408Y777483D1*
Y757409D1*
X613534Y759333D2*
X612584Y758360D1*
X613534Y757409D1*
X614507Y758360D1*
X613534Y759333D1*
X626431Y777483D2*
X623557Y776532D1*
X621633Y773658D1*
X620683Y768883D1*
Y766009D1*
X621633Y761234D1*
X623557Y758360D1*
X626431Y757409D1*
X628332D1*
X631206Y758360D1*
X633107Y761234D1*
X634080Y766009D1*
Y768883D1*
X633107Y773658D1*
X631206Y776532D1*
X628332Y777483D1*
X626431D1*
X633107Y773658D2*
X621633Y761234D1*
X540507Y531152D2*
D33*
X538606Y534954D1*
X534759Y538801D1*
X530956Y540702D1*
X523307D1*
X519460Y538801D1*
X515658Y534954D1*
X513712Y531152D1*
X511811Y525403D1*
Y515809D1*
X513712Y510105D1*
X515658Y506258D1*
X519460Y502456D1*
X523307Y500510D1*
X530956D1*
X534759Y502456D1*
X538606Y506258D1*
X540507Y510105D1*
Y515809D1*
X530956D1*
X579653Y540702D2*
Y500510D1*
X552858Y540702D1*
Y500510D1*
X592004Y540702D2*
Y500510D1*
X605402D1*
X611150Y502456D1*
X614996Y506258D1*
X616898Y510105D1*
X618799Y515809D1*
Y525403D1*
X616898Y531152D1*
X614996Y534954D1*
X611150Y538801D1*
X605402Y540702D1*
X592004D1*
M02*
