G04 DipTrace 3.3.1.3*
G04 Bottom.gbr*
%MOIN*%
G04 #@! TF.FileFunction,Copper,L2,Bot*
G04 #@! TF.Part,Single*
G04 #@! TA.AperFunction,Conductor*
%ADD14C,0.012992*%
%ADD15C,0.02*%
G04 #@! TA.AperFunction,CopperBalancing*
%ADD16C,0.025*%
%ADD17C,0.01299*%
G04 #@! TA.AperFunction,ComponentPad*
%ADD22R,0.066929X0.066929*%
%ADD23C,0.066929*%
%ADD24R,0.055118X0.055118*%
%ADD25C,0.055118*%
G04 #@! TA.AperFunction,ViaPad*
%ADD28C,0.04*%
%FSLAX26Y26*%
G04*
G70*
G90*
G75*
G01*
G04 Bottom*
%LPD*%
X1368700Y1381200D2*
D15*
X1381200Y1368700D1*
Y806200D1*
X1443700Y743700D1*
X2493700D1*
X2556200Y806200D1*
Y1056200D1*
X2581200Y1081200D1*
X2768700D1*
X1281397Y943503D2*
D14*
X1331200Y893700D1*
Y768700D1*
X1381200Y718700D1*
X2393700D1*
X2443700Y668700D1*
X856397Y1731200D2*
Y1506003D1*
X956200Y1406200D1*
Y793700D1*
X1056200Y693700D1*
X1718700D1*
X1743700Y668700D1*
Y527386D1*
X1791598Y479489D1*
X856397Y2031397D2*
X806200Y1981200D1*
Y1518700D1*
X931200Y1393700D1*
Y781200D1*
X1043700Y668700D1*
X1506200D1*
X1543700Y631200D1*
Y506200D1*
X1570411Y479489D1*
X1591598D1*
X756200Y1456200D2*
X781200D1*
X881200Y1356200D1*
Y718700D1*
X943700Y656200D1*
Y556200D1*
X968700Y531200D1*
X1243309D1*
X1291598Y579489D1*
X756200Y1368700D2*
X781200D1*
X843700Y1306200D1*
Y678798D1*
D28*
X1368700Y1381200D3*
X2768700Y1081200D3*
X1281397Y943503D3*
X856397Y1731200D3*
Y2031397D3*
X756200Y1456200D3*
Y1368700D3*
X843700Y678798D3*
X1056200Y906200D3*
X718700Y1568700D3*
X506200Y1043700D3*
X2443700Y668700D3*
X506200Y1656200D3*
X568700Y1443700D3*
X434699Y2535075D2*
D16*
X444145D1*
X612648D2*
X2690438D1*
X2859788D2*
X2872406D1*
X629909Y2510207D2*
X2673393D1*
X639023Y2485338D2*
X2664422D1*
X641965Y2460469D2*
X2661552D1*
X639273Y2435600D2*
X2664350D1*
X630482Y2410731D2*
X2673285D1*
X434699Y2385863D2*
X443142D1*
X613688D2*
X2690259D1*
X2859966D2*
X2872428D1*
X434699Y2360994D2*
X475378D1*
X581428D2*
X2723020D1*
X2827205D2*
X2872406D1*
X434699Y2336125D2*
X2872406D1*
X434699Y2311256D2*
X2467453D1*
X2519928D2*
X2872406D1*
X434699Y2286388D2*
X2439392D1*
X2547990D2*
X2872406D1*
X434699Y2261519D2*
X1933209D1*
X2004165D2*
X2033218D1*
X2104174D2*
X2112165D1*
X2225247D2*
X2431498D1*
X2555920D2*
X2872406D1*
X434699Y2236650D2*
X649381D1*
X738027D2*
X749392D1*
X838036D2*
X849364D1*
X938045D2*
X949373D1*
X1038019D2*
X1049382D1*
X1138028D2*
X1149356D1*
X1238037D2*
X1249365D1*
X1338046D2*
X1349375D1*
X1438020D2*
X1449384D1*
X1656161D2*
X1915231D1*
X2225247D2*
X2434512D1*
X2552871D2*
X2872406D1*
X434699Y2211781D2*
X634023D1*
X1656161D2*
X1912612D1*
X2225247D2*
X2431246D1*
X2556171D2*
X2872406D1*
X434699Y2186913D2*
X631619D1*
X1656161D2*
X1922481D1*
X2225247D2*
X2431246D1*
X2556171D2*
X2872406D1*
X434699Y2162044D2*
X640302D1*
X1656161D2*
X1933927D1*
X2203502D2*
X2431246D1*
X2556171D2*
X2872406D1*
X434699Y2137175D2*
X671199D1*
X716174D2*
X771208D1*
X816183D2*
X871217D1*
X916192D2*
X971226D1*
X1016201D2*
X1071200D1*
X1116175D2*
X1171209D1*
X1216184D2*
X1271218D1*
X1316193D2*
X1371228D1*
X1416203D2*
X1471201D1*
X1516176D2*
X1531235D1*
X1656161D2*
X1915411D1*
X2221982D2*
X2431246D1*
X2556171D2*
X2872406D1*
X434699Y2112306D2*
X1912540D1*
X2224852D2*
X2431246D1*
X2556171D2*
X2872406D1*
X434699Y2087438D2*
X1922121D1*
X2215308D2*
X2872406D1*
X434699Y2062569D2*
X819401D1*
X893369D2*
X2872406D1*
X434699Y2037700D2*
X807846D1*
X904961D2*
X2872406D1*
X434699Y2012831D2*
X788684D1*
X901516D2*
X2872406D1*
X434699Y1987962D2*
X771423D1*
X875464D2*
X2872406D1*
X434699Y1963094D2*
X770705D1*
X841696D2*
X1407507D1*
X2526603D2*
X2872406D1*
X434699Y1938225D2*
X770705D1*
X841696D2*
X1391539D1*
X2542571D2*
X2872406D1*
X434699Y1913356D2*
X770705D1*
X841696D2*
X1390569D1*
X2543540D2*
X2872406D1*
X434699Y1888487D2*
X770705D1*
X841696D2*
X1390569D1*
X2543540D2*
X2872406D1*
X434699Y1863619D2*
X770705D1*
X841696D2*
X1390569D1*
X2543540D2*
X2872406D1*
X434699Y1838750D2*
X770705D1*
X841696D2*
X1390569D1*
X2543540D2*
X2872406D1*
X434699Y1813881D2*
X770705D1*
X841696D2*
X1390569D1*
X2543540D2*
X2872406D1*
X434699Y1789012D2*
X770705D1*
X841696D2*
X1390569D1*
X2543540D2*
X2872406D1*
X434699Y1764144D2*
X770705D1*
X891683D2*
X1390569D1*
X2543540D2*
X2872406D1*
X434699Y1739275D2*
X770705D1*
X904674D2*
X1390569D1*
X2543540D2*
X2872406D1*
X434699Y1714406D2*
X770705D1*
X902233D2*
X1390569D1*
X2543540D2*
X2872406D1*
X434699Y1689537D2*
X770705D1*
X891898D2*
X1390569D1*
X2543540D2*
X2872406D1*
X434699Y1664669D2*
X770705D1*
X891898D2*
X1390569D1*
X2543540D2*
X2872406D1*
X434699Y1639800D2*
X491024D1*
X521359D2*
X543738D1*
X668663D2*
X770705D1*
X891898D2*
X1390569D1*
X2543540D2*
X2872406D1*
X434699Y1614931D2*
X454136D1*
X668663D2*
X770705D1*
X891898D2*
X1390569D1*
X2543540D2*
X2872406D1*
X434699Y1590062D2*
X444432D1*
X668663D2*
X770705D1*
X891898D2*
X1390569D1*
X2543540D2*
X2872406D1*
X434699Y1565193D2*
X445938D1*
X668663D2*
X770705D1*
X891898D2*
X1390569D1*
X2543540D2*
X2872406D1*
X434699Y1540325D2*
X459840D1*
X668663D2*
X770705D1*
X891898D2*
X1390569D1*
X2543540D2*
X2872406D1*
X434699Y1515456D2*
X770885D1*
X896098D2*
X1390569D1*
X2543540D2*
X2872406D1*
X434699Y1490587D2*
X722406D1*
X920965D2*
X1390569D1*
X2543540D2*
X2872406D1*
X434699Y1465718D2*
X708196D1*
X945833D2*
X1390569D1*
X2543540D2*
X2872406D1*
X434699Y1440850D2*
X709810D1*
X970700D2*
X1297665D1*
X1314750D2*
X1390569D1*
X2543540D2*
X2872406D1*
X434699Y1415981D2*
X730372D1*
X990186D2*
X1254855D1*
X2543540D2*
X2872406D1*
X434699Y1391112D2*
X712968D1*
X991692D2*
X1244557D1*
X2543540D2*
X2872406D1*
X434699Y1366243D2*
X707263D1*
X991692D2*
X1245633D1*
X2543540D2*
X2872406D1*
X434699Y1341375D2*
X716090D1*
X991692D2*
X1258875D1*
X2543540D2*
X2872406D1*
X434699Y1316506D2*
X784234D1*
X991692D2*
X1243731D1*
X2543540D2*
X2872406D1*
X434699Y1291637D2*
X808205D1*
X991692D2*
X1243731D1*
X2543540D2*
X2872406D1*
X434699Y1266768D2*
X808205D1*
X991692D2*
X1243731D1*
X2543540D2*
X2872406D1*
X434699Y1241899D2*
X808205D1*
X991692D2*
X1243731D1*
X2543540D2*
X2872406D1*
X434699Y1217031D2*
X808205D1*
X991692D2*
X1342197D1*
X2543540D2*
X2872406D1*
X434699Y1192162D2*
X808205D1*
X991692D2*
X1342197D1*
X2543540D2*
X2872406D1*
X434699Y1167293D2*
X808205D1*
X991692D2*
X1342197D1*
X2543540D2*
X2872406D1*
X434699Y1142424D2*
X808205D1*
X991692D2*
X1342197D1*
X2543540D2*
X2872406D1*
X434699Y1117556D2*
X808205D1*
X991692D2*
X1342197D1*
X2543540D2*
X2575573D1*
X2800184D2*
X2872406D1*
X434699Y1092687D2*
X808205D1*
X991692D2*
X1342197D1*
X2816260D2*
X2872406D1*
X434699Y1067818D2*
X808205D1*
X991692D2*
X1342197D1*
X2815722D2*
X2872406D1*
X434699Y1042949D2*
X808205D1*
X991692D2*
X1342197D1*
X2597044D2*
X2739779D1*
X2797636D2*
X2872406D1*
X434699Y1018081D2*
X808205D1*
X991692D2*
X1342197D1*
X2595178D2*
X2872406D1*
X434699Y993212D2*
X808205D1*
X991692D2*
X1342197D1*
X2595178D2*
X2872406D1*
X434699Y968343D2*
X808205D1*
X991692D2*
X1342197D1*
X2595178D2*
X2872406D1*
X434699Y943474D2*
X808205D1*
X991692D2*
X1025914D1*
X1086499D2*
X1342197D1*
X2595178D2*
X2872406D1*
X434699Y918606D2*
X808205D1*
X991692D2*
X1008905D1*
X1103507D2*
X1342197D1*
X2595178D2*
X2872406D1*
X434699Y893737D2*
X808205D1*
X991692D2*
X1008905D1*
X1103472D2*
X1342197D1*
X2595178D2*
X2872406D1*
X434699Y868868D2*
X808205D1*
X991692D2*
X1025986D1*
X1086392D2*
X1342197D1*
X2595178D2*
X2872406D1*
X434699Y843999D2*
X808205D1*
X991692D2*
X1342197D1*
X2595178D2*
X2872406D1*
X434699Y819130D2*
X808205D1*
X991692D2*
X1342197D1*
X2595178D2*
X2872406D1*
X434699Y794262D2*
X808205D1*
X1004791D2*
X1344207D1*
X2593169D2*
X2872406D1*
X434699Y769393D2*
X808205D1*
X1029658D2*
X1363907D1*
X2573503D2*
X2872406D1*
X434699Y744524D2*
X808205D1*
X1054525D2*
X1388775D1*
X2548636D2*
X2872406D1*
X434699Y719655D2*
X808205D1*
X2523768D2*
X2872406D1*
X434699Y694787D2*
X797546D1*
X1766755D2*
X2872406D1*
X434699Y669918D2*
X795574D1*
X1779171D2*
X2872406D1*
X434699Y645049D2*
X809209D1*
X878155D2*
X905703D1*
X1779171D2*
X2872406D1*
X434699Y620180D2*
X461061D1*
X602457D2*
X645075D1*
X2654064D2*
X2706048D1*
X2843567D2*
X2872406D1*
X2654064Y595312D2*
X2681718D1*
X2654064Y570443D2*
X2668477D1*
X2654064Y545574D2*
X2662197D1*
X2654064Y520705D2*
X2661737D1*
X2651767Y495836D2*
X2666969D1*
X2653453Y470968D2*
X2678919D1*
X434699Y446099D2*
X459518D1*
X603964D2*
X639298D1*
X2643909D2*
X2700772D1*
X2848843D2*
X2872406D1*
X2874910Y483142D2*
X2869494Y473029D1*
X2864649Y465779D1*
X2859250Y458930D1*
X2853331Y452527D1*
X2846928Y446608D1*
X2840079Y441209D1*
X2832829Y436364D1*
X2825369Y432187D1*
X2874913Y432180D1*
X2874905Y482944D1*
X2724235Y432187D2*
X2716776Y436364D1*
X2709525Y441209D1*
X2702676Y446608D1*
X2696273Y452527D1*
X2690355Y458930D1*
X2684956Y465779D1*
X2680111Y473029D1*
X2675851Y480637D1*
X2672200Y488556D1*
X2669182Y496737D1*
X2666814Y505130D1*
X2665113Y513683D1*
X2664088Y522342D1*
X2663746Y531056D1*
X2664088Y539770D1*
X2665113Y548428D1*
X2666814Y556981D1*
X2669182Y565375D1*
X2672200Y573556D1*
X2675851Y581474D1*
X2680111Y589082D1*
X2684956Y596333D1*
X2690355Y603182D1*
X2696273Y609585D1*
X2702676Y615503D1*
X2709525Y620902D1*
X2716776Y625747D1*
X2724384Y630007D1*
X2732302Y633658D1*
X2740483Y636676D1*
X2748877Y639044D1*
X2757430Y640745D1*
X2766088Y641770D1*
X2774802Y642112D1*
X2783516Y641770D1*
X2792175Y640745D1*
X2800728Y639044D1*
X2809121Y636676D1*
X2817302Y633658D1*
X2825221Y630007D1*
X2832829Y625747D1*
X2840079Y620902D1*
X2846928Y615503D1*
X2853331Y609585D1*
X2859250Y603182D1*
X2864649Y596333D1*
X2869494Y589082D1*
X2874910Y578969D1*
X2874905Y2411575D1*
X2869815Y2402338D1*
X2864970Y2395087D1*
X2859571Y2388238D1*
X2853653Y2381835D1*
X2847250Y2375917D1*
X2840401Y2370518D1*
X2833150Y2365672D1*
X2825543Y2361413D1*
X2817624Y2357762D1*
X2809443Y2354743D1*
X2801049Y2352376D1*
X2792497Y2350675D1*
X2783838Y2349650D1*
X2775124Y2349308D1*
X2766410Y2349650D1*
X2757751Y2350675D1*
X2749199Y2352376D1*
X2740805Y2354743D1*
X2732624Y2357762D1*
X2724705Y2361413D1*
X2717098Y2365672D1*
X2709847Y2370518D1*
X2702998Y2375917D1*
X2696595Y2381835D1*
X2690676Y2388238D1*
X2685277Y2395087D1*
X2680432Y2402338D1*
X2676172Y2409945D1*
X2672522Y2417864D1*
X2669503Y2426045D1*
X2667136Y2434439D1*
X2665435Y2442991D1*
X2664410Y2451650D1*
X2664067Y2460364D1*
X2664410Y2469078D1*
X2665435Y2477737D1*
X2667136Y2486289D1*
X2669503Y2494683D1*
X2672522Y2502864D1*
X2676172Y2510783D1*
X2680432Y2518390D1*
X2685277Y2525641D1*
X2690676Y2532490D1*
X2696595Y2538893D1*
X2702998Y2544812D1*
X2709847Y2550210D1*
X2717098Y2555056D1*
X2726098Y2559957D1*
X576571Y2559944D1*
X586434Y2554577D1*
X593684Y2549731D1*
X600533Y2544333D1*
X606936Y2538414D1*
X612855Y2532011D1*
X618254Y2525162D1*
X623099Y2517911D1*
X627359Y2510304D1*
X631010Y2502385D1*
X634028Y2494204D1*
X636396Y2485810D1*
X638096Y2477258D1*
X639121Y2468599D1*
X639464Y2459885D1*
X639121Y2451171D1*
X638096Y2442512D1*
X636396Y2433960D1*
X634028Y2425566D1*
X631010Y2417385D1*
X627359Y2409466D1*
X623099Y2401859D1*
X618254Y2394608D1*
X612855Y2387759D1*
X606936Y2381356D1*
X600533Y2375438D1*
X593684Y2370039D1*
X586434Y2365193D1*
X578826Y2360934D1*
X570907Y2357283D1*
X562726Y2354264D1*
X554333Y2351897D1*
X545780Y2350196D1*
X537121Y2349171D1*
X528407Y2348829D1*
X519693Y2349171D1*
X511035Y2350196D1*
X502482Y2351897D1*
X494088Y2354264D1*
X485907Y2357283D1*
X477989Y2360934D1*
X470381Y2365193D1*
X463130Y2370039D1*
X456281Y2375438D1*
X449878Y2381356D1*
X443960Y2387759D1*
X438561Y2394608D1*
X432169Y2404623D1*
X432180Y581697D1*
X437056Y590560D1*
X441901Y597810D1*
X447300Y604659D1*
X453218Y611062D1*
X459621Y616981D1*
X466470Y622380D1*
X473721Y627225D1*
X481329Y631485D1*
X489247Y635136D1*
X497428Y638154D1*
X505822Y640522D1*
X514375Y642222D1*
X523033Y643247D1*
X531747Y643590D1*
X540461Y643247D1*
X549120Y642222D1*
X557672Y640522D1*
X566066Y638154D1*
X574247Y635136D1*
X582166Y631485D1*
X589773Y627225D1*
X597024Y622380D1*
X603873Y616981D1*
X610276Y611062D1*
X616195Y604659D1*
X621594Y597810D1*
X626439Y590560D1*
X631654Y580880D1*
X632381Y588868D1*
X634578Y598015D1*
X638178Y606708D1*
X643094Y614729D1*
X649204Y621882D1*
X656357Y627993D1*
X664378Y632909D1*
X673071Y636508D1*
X682218Y638705D1*
X691598Y639443D1*
X700977Y638705D1*
X710124Y636508D1*
X718817Y632909D1*
X726838Y627993D1*
X733991Y621882D1*
X740102Y614729D1*
X741562Y612543D1*
X746008Y618426D1*
X752661Y625078D1*
X760272Y630608D1*
X768654Y634878D1*
X777602Y637787D1*
X786894Y639258D1*
X796301D1*
X805594Y637787D1*
X814541Y634878D1*
X822923Y630608D1*
X830535Y625078D1*
X837187Y618426D1*
X841562Y612543D1*
X846008Y618426D1*
X852661Y625078D1*
X860272Y630608D1*
X868654Y634878D1*
X877602Y637787D1*
X886894Y639258D1*
X896301D1*
X905594Y637787D1*
X910729Y636285D1*
X910714Y642502D1*
X888125Y665127D1*
X885123Y657692D1*
X881310Y651473D1*
X876573Y645926D1*
X871025Y641188D1*
X864806Y637376D1*
X858066Y634585D1*
X850973Y632881D1*
X843700Y632309D1*
X836427Y632881D1*
X829334Y634585D1*
X822594Y637376D1*
X816375Y641188D1*
X810827Y645926D1*
X806090Y651473D1*
X802277Y657692D1*
X799486Y664432D1*
X797783Y671525D1*
X797210Y678798D1*
X797783Y686071D1*
X799486Y693165D1*
X802277Y699905D1*
X806090Y706124D1*
X810721Y711556D1*
X810714Y1292525D1*
X776402Y1326848D1*
X770566Y1324486D1*
X763473Y1322783D1*
X756200Y1322210D1*
X748927Y1322783D1*
X741834Y1324486D1*
X735094Y1327277D1*
X728875Y1331090D1*
X723327Y1335827D1*
X718590Y1341375D1*
X714777Y1347594D1*
X711986Y1354334D1*
X710283Y1361427D1*
X709710Y1368700D1*
X710283Y1375973D1*
X711986Y1383066D1*
X714777Y1389806D1*
X718590Y1396025D1*
X723327Y1401573D1*
X728875Y1406310D1*
X735094Y1410123D1*
X740536Y1412435D1*
X735094Y1414777D1*
X728875Y1418590D1*
X723327Y1423327D1*
X718590Y1428875D1*
X714777Y1435094D1*
X711986Y1441834D1*
X710283Y1448927D1*
X709710Y1456200D1*
X710283Y1463473D1*
X711986Y1470566D1*
X714777Y1477306D1*
X718590Y1483525D1*
X723327Y1489073D1*
X728875Y1493810D1*
X735094Y1497623D1*
X741834Y1500414D1*
X748927Y1502117D1*
X756200Y1502690D1*
X763473Y1502117D1*
X770566Y1500414D1*
X777306Y1497623D1*
X783525Y1493810D1*
X789073Y1489073D1*
X779514Y1499312D1*
X776810Y1503725D1*
X774829Y1508507D1*
X773620Y1513540D1*
X773214Y1518710D1*
X773315Y1983788D1*
X774125Y1988901D1*
X775725Y1993823D1*
X778075Y1998435D1*
X781117Y2002623D1*
X809899Y2031548D1*
X810480Y2038670D1*
X812183Y2045763D1*
X814974Y2052503D1*
X818787Y2058722D1*
X823524Y2064270D1*
X829071Y2069007D1*
X835291Y2072819D1*
X842031Y2075611D1*
X849124Y2077314D1*
X856397Y2077886D1*
X863670Y2077314D1*
X870763Y2075611D1*
X877503Y2072819D1*
X883722Y2069007D1*
X889270Y2064270D1*
X894007Y2058722D1*
X897819Y2052503D1*
X900611Y2045763D1*
X902314Y2038670D1*
X902886Y2031397D1*
X902314Y2024124D1*
X900611Y2017031D1*
X897819Y2010291D1*
X894007Y2004071D1*
X889270Y1998524D1*
X883722Y1993787D1*
X877503Y1989974D1*
X870763Y1987183D1*
X863670Y1985480D1*
X856553Y1984914D1*
X839199Y1967550D1*
X839186Y1774399D1*
X845544Y1776405D1*
X852750Y1777546D1*
X860044D1*
X867250Y1776405D1*
X874188Y1774150D1*
X880688Y1770839D1*
X886590Y1766550D1*
X891747Y1761393D1*
X896036Y1755491D1*
X899347Y1748991D1*
X901602Y1742053D1*
X902743Y1734847D1*
Y1727553D1*
X901602Y1720347D1*
X899347Y1713409D1*
X896036Y1706909D1*
X891747Y1701007D1*
X889376Y1698443D1*
X889382Y1519663D1*
X981283Y1427623D1*
X984325Y1423435D1*
X986675Y1418823D1*
X988275Y1413901D1*
X989085Y1408788D1*
X989186Y1341896D1*
Y807329D1*
X1069881Y726667D1*
X1409121Y726686D1*
X1353453Y782502D1*
X1350087Y787134D1*
X1347487Y792235D1*
X1345718Y797682D1*
X1344823Y803336D1*
X1344710Y852132D1*
Y1221272D1*
X1246246Y1221246D1*
Y1341154D1*
X1261569D1*
X1257696Y1345960D1*
X1252780Y1353981D1*
X1249180Y1362674D1*
X1246983Y1371821D1*
X1246246Y1381200D1*
X1246983Y1390579D1*
X1249180Y1399726D1*
X1252780Y1408419D1*
X1257696Y1416440D1*
X1263806Y1423594D1*
X1270960Y1429704D1*
X1278981Y1434620D1*
X1287674Y1438220D1*
X1296821Y1440417D1*
X1306200Y1441154D1*
X1315579Y1440417D1*
X1324726Y1438220D1*
X1333419Y1434620D1*
X1341440Y1429704D1*
X1348594Y1423594D1*
X1348906Y1423256D1*
X1354334Y1425414D1*
X1361427Y1427117D1*
X1368700Y1427690D1*
X1375973Y1427117D1*
X1383066Y1425414D1*
X1389806Y1422623D1*
X1393074Y1420784D1*
X1393196Y1932468D1*
X1394239Y1939054D1*
X1396300Y1945397D1*
X1399327Y1951339D1*
X1403247Y1956734D1*
X1407964Y1961451D1*
X1413359Y1965371D1*
X1419301Y1968398D1*
X1425644Y1970459D1*
X1432230Y1971502D1*
X1472310Y1971633D1*
X2501892Y1971502D1*
X2508478Y1970459D1*
X2514821Y1968398D1*
X2520763Y1965371D1*
X2526158Y1961451D1*
X2530875Y1956734D1*
X2534794Y1951339D1*
X2537822Y1945397D1*
X2539882Y1939054D1*
X2540926Y1932468D1*
X2541057Y1892388D1*
Y1092637D1*
X2557502Y1108947D1*
X2562134Y1112313D1*
X2567235Y1114913D1*
X2572682Y1116682D1*
X2578336Y1117577D1*
X2627132Y1117690D1*
X2739915D1*
X2744409Y1120839D1*
X2750909Y1124150D1*
X2757847Y1126405D1*
X2765053Y1127546D1*
X2772347D1*
X2779553Y1126405D1*
X2786491Y1124150D1*
X2792991Y1120839D1*
X2798893Y1116550D1*
X2804050Y1111393D1*
X2808339Y1105491D1*
X2811650Y1098991D1*
X2813905Y1092053D1*
X2815046Y1084847D1*
Y1077553D1*
X2813905Y1070347D1*
X2811650Y1063409D1*
X2808339Y1056909D1*
X2804050Y1051007D1*
X2798893Y1045850D1*
X2792991Y1041561D1*
X2786491Y1038250D1*
X2779553Y1035995D1*
X2772347Y1034854D1*
X2765053D1*
X2757847Y1035995D1*
X2750909Y1038250D1*
X2744409Y1041561D1*
X2739952Y1044710D1*
X2596348D1*
X2592666Y1041062D1*
X2592577Y803336D1*
X2591682Y797682D1*
X2589913Y792235D1*
X2587313Y787134D1*
X2583947Y782502D1*
X2549523Y747919D1*
X2517398Y715953D1*
X2512766Y712587D1*
X2507665Y709987D1*
X2502218Y708218D1*
X2496564Y707323D1*
X2447768Y707210D1*
X1751867D1*
X1768783Y690123D1*
X1771825Y685935D1*
X1774175Y681323D1*
X1775775Y676401D1*
X1776585Y671288D1*
X1776686Y637588D1*
X1786894Y639258D1*
X1796301D1*
X1805594Y637787D1*
X1814541Y634878D1*
X1822923Y630608D1*
X1830535Y625078D1*
X1837187Y618426D1*
X1841562Y612543D1*
X1846008Y618426D1*
X1852661Y625078D1*
X1860272Y630608D1*
X1868654Y634878D1*
X1877602Y637787D1*
X1886894Y639258D1*
X1896301D1*
X1905594Y637787D1*
X1914541Y634878D1*
X1922923Y630608D1*
X1930535Y625078D1*
X1937187Y618426D1*
X1941562Y612543D1*
X1946008Y618426D1*
X1952661Y625078D1*
X1960272Y630608D1*
X1968654Y634878D1*
X1977602Y637787D1*
X1986894Y639258D1*
X1996301D1*
X2005594Y637787D1*
X2014541Y634878D1*
X2022923Y630608D1*
X2030535Y625078D1*
X2037187Y618426D1*
X2041562Y612543D1*
X2046008Y618426D1*
X2052661Y625078D1*
X2060272Y630608D1*
X2068654Y634878D1*
X2077602Y637787D1*
X2086894Y639258D1*
X2096301D1*
X2105594Y637787D1*
X2114541Y634878D1*
X2122923Y630608D1*
X2130535Y625078D1*
X2137187Y618426D1*
X2141562Y612543D1*
X2146008Y618426D1*
X2152661Y625078D1*
X2160272Y630608D1*
X2168654Y634878D1*
X2177602Y637787D1*
X2186894Y639258D1*
X2196301D1*
X2205594Y637787D1*
X2214541Y634878D1*
X2222923Y630608D1*
X2230535Y625078D1*
X2237187Y618426D1*
X2241562Y612543D1*
X2246008Y618426D1*
X2252661Y625078D1*
X2260272Y630608D1*
X2268654Y634878D1*
X2277602Y637787D1*
X2286894Y639258D1*
X2296301D1*
X2305594Y637787D1*
X2314541Y634878D1*
X2322923Y630608D1*
X2330535Y625078D1*
X2337187Y618426D1*
X2341562Y612543D1*
X2346008Y618426D1*
X2352661Y625078D1*
X2360272Y630608D1*
X2368654Y634878D1*
X2377602Y637787D1*
X2386894Y639258D1*
X2396301D1*
X2405594Y637787D1*
X2414541Y634878D1*
X2422923Y630608D1*
X2430535Y625078D1*
X2437187Y618426D1*
X2441562Y612543D1*
X2446008Y618426D1*
X2452661Y625078D1*
X2460272Y630608D1*
X2468654Y634878D1*
X2477602Y637787D1*
X2486894Y639258D1*
X2496301D1*
X2505594Y637787D1*
X2514541Y634878D1*
X2522923Y630608D1*
X2530535Y625078D1*
X2531655Y624043D1*
X2531644Y639443D1*
X2651552D1*
Y519535D1*
X2636229D1*
X2640102Y514729D1*
X2645018Y506708D1*
X2648617Y498015D1*
X2650814Y488868D1*
X2651552Y479489D1*
X2650814Y470109D1*
X2648617Y460962D1*
X2645018Y452270D1*
X2640102Y444249D1*
X2633991Y437095D1*
X2628354Y432180D1*
X2724199D1*
X631855Y484620D2*
X626439Y474507D1*
X621594Y467256D1*
X616195Y460407D1*
X610276Y454004D1*
X603873Y448086D1*
X597024Y442687D1*
X589773Y437842D1*
X579103Y432170D1*
X654758Y432180D1*
X649204Y437095D1*
X643094Y444249D1*
X638178Y452270D1*
X634578Y460962D1*
X632381Y470109D1*
X631644Y479489D1*
X631861Y484466D1*
X484392Y432170D2*
X473721Y437842D1*
X466470Y442687D1*
X459621Y448086D1*
X453218Y454004D1*
X447300Y460407D1*
X441901Y467256D1*
X437056Y474507D1*
X432182Y483445D1*
X432180Y432204D1*
X484165Y432180D1*
X432169Y2515148D2*
X438561Y2525162D1*
X443960Y2532011D1*
X449878Y2538414D1*
X456281Y2544333D1*
X463130Y2549731D1*
X470381Y2554577D1*
X480371Y2559935D1*
X432172Y2559944D1*
X432180Y2515352D1*
X2824150Y2559957D2*
X2833150Y2555056D1*
X2840401Y2550210D1*
X2847250Y2544812D1*
X2853653Y2538893D1*
X2859571Y2532490D1*
X2864970Y2525641D1*
X2869815Y2518390D1*
X2874918Y2508957D1*
X2874905Y2559920D1*
X2824284Y2559944D1*
X1535583Y2253654D2*
X1653654D1*
Y2133746D1*
X1533746D1*
Y2149083D1*
X1528940Y2145196D1*
X1520919Y2140280D1*
X1512226Y2136680D1*
X1503079Y2134483D1*
X1493700Y2133746D1*
X1484321Y2134483D1*
X1475174Y2136680D1*
X1466481Y2140280D1*
X1458460Y2145196D1*
X1451306Y2151306D1*
X1445196Y2158460D1*
X1443735Y2160646D1*
X1439289Y2154763D1*
X1432637Y2148111D1*
X1425025Y2142581D1*
X1416644Y2138310D1*
X1407696Y2135402D1*
X1398403Y2133931D1*
X1388997D1*
X1379704Y2135402D1*
X1370756Y2138310D1*
X1362375Y2142581D1*
X1354763Y2148111D1*
X1348111Y2154763D1*
X1343735Y2160646D1*
X1339289Y2154763D1*
X1332637Y2148111D1*
X1325025Y2142581D1*
X1316644Y2138310D1*
X1307696Y2135402D1*
X1298403Y2133931D1*
X1288997D1*
X1279704Y2135402D1*
X1270756Y2138310D1*
X1262375Y2142581D1*
X1254763Y2148111D1*
X1248111Y2154763D1*
X1243735Y2160646D1*
X1239289Y2154763D1*
X1232637Y2148111D1*
X1225025Y2142581D1*
X1216644Y2138310D1*
X1207696Y2135402D1*
X1198403Y2133931D1*
X1188997D1*
X1179704Y2135402D1*
X1170756Y2138310D1*
X1162375Y2142581D1*
X1154763Y2148111D1*
X1148111Y2154763D1*
X1143735Y2160646D1*
X1139289Y2154763D1*
X1132637Y2148111D1*
X1125025Y2142581D1*
X1116644Y2138310D1*
X1107696Y2135402D1*
X1098403Y2133931D1*
X1088997D1*
X1079704Y2135402D1*
X1070756Y2138310D1*
X1062375Y2142581D1*
X1054763Y2148111D1*
X1048111Y2154763D1*
X1043735Y2160646D1*
X1039289Y2154763D1*
X1032637Y2148111D1*
X1025025Y2142581D1*
X1016644Y2138310D1*
X1007696Y2135402D1*
X998403Y2133931D1*
X988997D1*
X979704Y2135402D1*
X970756Y2138310D1*
X962375Y2142581D1*
X954763Y2148111D1*
X948111Y2154763D1*
X943735Y2160646D1*
X939289Y2154763D1*
X932637Y2148111D1*
X925025Y2142581D1*
X916644Y2138310D1*
X907696Y2135402D1*
X898403Y2133931D1*
X888997D1*
X879704Y2135402D1*
X870756Y2138310D1*
X862375Y2142581D1*
X854763Y2148111D1*
X848111Y2154763D1*
X843735Y2160646D1*
X839289Y2154763D1*
X832637Y2148111D1*
X825025Y2142581D1*
X816644Y2138310D1*
X807696Y2135402D1*
X798403Y2133931D1*
X788997D1*
X779704Y2135402D1*
X770756Y2138310D1*
X762375Y2142581D1*
X754763Y2148111D1*
X748111Y2154763D1*
X743735Y2160646D1*
X739289Y2154763D1*
X732637Y2148111D1*
X725025Y2142581D1*
X716644Y2138310D1*
X707696Y2135402D1*
X698403Y2133931D1*
X688997D1*
X679704Y2135402D1*
X670756Y2138310D1*
X662375Y2142581D1*
X654763Y2148111D1*
X648111Y2154763D1*
X642581Y2162375D1*
X638310Y2170756D1*
X635402Y2179704D1*
X633931Y2188997D1*
Y2198403D1*
X635402Y2207696D1*
X638310Y2216644D1*
X642581Y2225025D1*
X648111Y2232637D1*
X654763Y2239289D1*
X662375Y2244819D1*
X670756Y2249090D1*
X679704Y2251998D1*
X688997Y2253469D1*
X698403D1*
X707696Y2251998D1*
X716644Y2249090D1*
X725025Y2244819D1*
X732637Y2239289D1*
X739289Y2232637D1*
X743665Y2226754D1*
X748111Y2232637D1*
X754763Y2239289D1*
X762375Y2244819D1*
X770756Y2249090D1*
X779704Y2251998D1*
X788997Y2253469D1*
X798403D1*
X807696Y2251998D1*
X816644Y2249090D1*
X825025Y2244819D1*
X832637Y2239289D1*
X839289Y2232637D1*
X843665Y2226754D1*
X848111Y2232637D1*
X854763Y2239289D1*
X862375Y2244819D1*
X870756Y2249090D1*
X879704Y2251998D1*
X888997Y2253469D1*
X898403D1*
X907696Y2251998D1*
X916644Y2249090D1*
X925025Y2244819D1*
X932637Y2239289D1*
X939289Y2232637D1*
X943665Y2226754D1*
X948111Y2232637D1*
X954763Y2239289D1*
X962375Y2244819D1*
X970756Y2249090D1*
X979704Y2251998D1*
X988997Y2253469D1*
X998403D1*
X1007696Y2251998D1*
X1016644Y2249090D1*
X1025025Y2244819D1*
X1032637Y2239289D1*
X1039289Y2232637D1*
X1043665Y2226754D1*
X1048111Y2232637D1*
X1054763Y2239289D1*
X1062375Y2244819D1*
X1070756Y2249090D1*
X1079704Y2251998D1*
X1088997Y2253469D1*
X1098403D1*
X1107696Y2251998D1*
X1116644Y2249090D1*
X1125025Y2244819D1*
X1132637Y2239289D1*
X1139289Y2232637D1*
X1143665Y2226754D1*
X1148111Y2232637D1*
X1154763Y2239289D1*
X1162375Y2244819D1*
X1170756Y2249090D1*
X1179704Y2251998D1*
X1188997Y2253469D1*
X1198403D1*
X1207696Y2251998D1*
X1216644Y2249090D1*
X1225025Y2244819D1*
X1232637Y2239289D1*
X1239289Y2232637D1*
X1243665Y2226754D1*
X1248111Y2232637D1*
X1254763Y2239289D1*
X1262375Y2244819D1*
X1270756Y2249090D1*
X1279704Y2251998D1*
X1288997Y2253469D1*
X1298403D1*
X1307696Y2251998D1*
X1316644Y2249090D1*
X1325025Y2244819D1*
X1332637Y2239289D1*
X1339289Y2232637D1*
X1343665Y2226754D1*
X1348111Y2232637D1*
X1354763Y2239289D1*
X1362375Y2244819D1*
X1370756Y2249090D1*
X1379704Y2251998D1*
X1388997Y2253469D1*
X1398403D1*
X1407696Y2251998D1*
X1416644Y2249090D1*
X1425025Y2244819D1*
X1432637Y2239289D1*
X1439289Y2232637D1*
X1443665Y2226754D1*
X1448111Y2232637D1*
X1454763Y2239289D1*
X1462375Y2244819D1*
X1470756Y2249090D1*
X1479704Y2251998D1*
X1488997Y2253469D1*
X1498403D1*
X1507696Y2251998D1*
X1516644Y2249090D1*
X1525025Y2244819D1*
X1532637Y2239289D1*
X1533746Y2238470D1*
Y2253654D1*
X1535583D1*
X2435583Y2216154D2*
X2449083D1*
X2445196Y2220960D1*
X2440280Y2228981D1*
X2436680Y2237674D1*
X2434483Y2246821D1*
X2433746Y2256200D1*
X2434483Y2265579D1*
X2436680Y2274726D1*
X2440280Y2283419D1*
X2445196Y2291440D1*
X2451306Y2298594D1*
X2458460Y2304704D1*
X2466481Y2309620D1*
X2475174Y2313220D1*
X2484321Y2315417D1*
X2493700Y2316154D1*
X2503079Y2315417D1*
X2512226Y2313220D1*
X2520919Y2309620D1*
X2528940Y2304704D1*
X2536094Y2298594D1*
X2542204Y2291440D1*
X2547120Y2283419D1*
X2550720Y2274726D1*
X2552917Y2265579D1*
X2553654Y2256200D1*
X2552917Y2246821D1*
X2550720Y2237674D1*
X2547120Y2228981D1*
X2542204Y2220960D1*
X2538254Y2216142D1*
X2553654Y2216154D1*
Y2096246D1*
X2433746D1*
Y2216154D1*
X2435583D1*
X2116489Y2272749D2*
X2222749D1*
Y2164651D1*
X2197149D1*
X2203802Y2159798D1*
X2209798Y2153802D1*
X2214784Y2146940D1*
X2218634Y2139384D1*
X2221255Y2131317D1*
X2222582Y2122940D1*
Y2114460D1*
X2221255Y2106083D1*
X2218634Y2098016D1*
X2214784Y2090460D1*
X2209798Y2083598D1*
X2203802Y2077602D1*
X2196940Y2072616D1*
X2189384Y2068766D1*
X2181317Y2066145D1*
X2172940Y2064818D1*
X2164460D1*
X2156083Y2066145D1*
X2148016Y2068766D1*
X2140460Y2072616D1*
X2133598Y2077602D1*
X2127602Y2083598D1*
X2122616Y2090460D1*
X2118703Y2098188D1*
X2114784Y2090460D1*
X2109798Y2083598D1*
X2103802Y2077602D1*
X2096940Y2072616D1*
X2089384Y2068766D1*
X2081317Y2066145D1*
X2072940Y2064818D1*
X2064460D1*
X2056083Y2066145D1*
X2048016Y2068766D1*
X2040460Y2072616D1*
X2033598Y2077602D1*
X2027602Y2083598D1*
X2022616Y2090460D1*
X2018703Y2098188D1*
X2014784Y2090460D1*
X2009798Y2083598D1*
X2003802Y2077602D1*
X1996940Y2072616D1*
X1989384Y2068766D1*
X1981317Y2066145D1*
X1972940Y2064818D1*
X1964460D1*
X1956083Y2066145D1*
X1948016Y2068766D1*
X1940460Y2072616D1*
X1933598Y2077602D1*
X1927602Y2083598D1*
X1922616Y2090460D1*
X1918766Y2098016D1*
X1916145Y2106083D1*
X1914818Y2114460D1*
Y2122940D1*
X1916145Y2131317D1*
X1918766Y2139384D1*
X1922616Y2146940D1*
X1927602Y2153802D1*
X1933598Y2159798D1*
X1940460Y2164784D1*
X1948188Y2168697D1*
X1940460Y2172616D1*
X1933598Y2177602D1*
X1927602Y2183598D1*
X1922616Y2190460D1*
X1918766Y2198016D1*
X1916145Y2206083D1*
X1914818Y2214460D1*
Y2222940D1*
X1916145Y2231317D1*
X1918766Y2239384D1*
X1922616Y2246940D1*
X1927602Y2253802D1*
X1933598Y2259798D1*
X1940460Y2264784D1*
X1948016Y2268634D1*
X1956083Y2271255D1*
X1964460Y2272582D1*
X1972940D1*
X1981317Y2271255D1*
X1989384Y2268634D1*
X1996940Y2264784D1*
X2003802Y2259798D1*
X2009798Y2253802D1*
X2014784Y2246940D1*
X2018697Y2239212D1*
X2022616Y2246940D1*
X2027602Y2253802D1*
X2033598Y2259798D1*
X2040460Y2264784D1*
X2048016Y2268634D1*
X2056083Y2271255D1*
X2064460Y2272582D1*
X2072940D1*
X2081317Y2271255D1*
X2089384Y2268634D1*
X2096940Y2264784D1*
X2103802Y2259798D1*
X2109798Y2253802D1*
X2114646Y2247148D1*
X2114651Y2272749D1*
X2116489D1*
X555432Y1641154D2*
X666154D1*
Y1521246D1*
X546246D1*
Y1536569D1*
X539565Y1531388D1*
X533224Y1527682D1*
X526477Y1524779D1*
X519426Y1522724D1*
X512176Y1521545D1*
X504838Y1521262D1*
X497519Y1521877D1*
X490331Y1523384D1*
X483381Y1525759D1*
X476773Y1528965D1*
X470607Y1532955D1*
X464974Y1537669D1*
X459961Y1543036D1*
X455642Y1548976D1*
X452082Y1555399D1*
X449333Y1562210D1*
X447438Y1569306D1*
X446424Y1576581D1*
X446308Y1583924D1*
X447090Y1591226D1*
X448760Y1598378D1*
X451292Y1605273D1*
X454646Y1611806D1*
X458776Y1617880D1*
X463616Y1623403D1*
X469096Y1628293D1*
X475133Y1632477D1*
X481636Y1635890D1*
X488507Y1638483D1*
X495645Y1640217D1*
X502940Y1641065D1*
X510284Y1641015D1*
X517567Y1640066D1*
X524679Y1638235D1*
X531515Y1635548D1*
X537970Y1632045D1*
X543948Y1627779D1*
X546242Y1625813D1*
X546246Y1641154D1*
X555432D1*
X1102546Y902553D2*
X1101405Y895347D1*
X1099150Y888409D1*
X1095839Y881909D1*
X1091550Y876007D1*
X1086393Y870850D1*
X1080491Y866561D1*
X1073991Y863250D1*
X1067053Y860995D1*
X1059847Y859854D1*
X1052553D1*
X1045347Y860995D1*
X1038409Y863250D1*
X1031909Y866561D1*
X1026007Y870850D1*
X1020850Y876007D1*
X1016561Y881909D1*
X1013250Y888409D1*
X1010995Y895347D1*
X1009854Y902553D1*
Y909847D1*
X1010995Y917053D1*
X1013250Y923991D1*
X1016561Y930491D1*
X1020850Y936393D1*
X1026007Y941550D1*
X1031909Y945839D1*
X1038409Y949150D1*
X1045347Y951405D1*
X1052553Y952546D1*
X1059847D1*
X1067053Y951405D1*
X1073991Y949150D1*
X1080491Y945839D1*
X1086393Y941550D1*
X1091550Y936393D1*
X1095839Y930491D1*
X1099150Y923991D1*
X1101405Y917053D1*
X1102546Y909847D1*
Y902553D1*
X790369Y1487882D2*
X781117Y1497277D1*
X779514Y1499312D1*
X1533771Y2253629D2*
D17*
X1653629Y2133771D1*
Y2253629D2*
X1533771Y2133771D1*
X2433771Y2216129D2*
X2553629Y2096271D1*
Y2216129D2*
X2433771Y2096271D1*
X2114676Y2272724D2*
X2222724Y2164676D1*
Y2272724D2*
X2168700Y2218700D1*
X463831Y1623569D2*
X548569Y1538831D1*
Y1623569D2*
X463831Y1538831D1*
D22*
X1306200Y1281200D3*
D23*
Y1381200D3*
D22*
X2591598Y579489D3*
D23*
Y479489D3*
X2491598Y579489D3*
Y479489D3*
X2391598Y579489D3*
Y479489D3*
X2291598Y579489D3*
Y479489D3*
X2191598Y579489D3*
Y479489D3*
X2091598Y579489D3*
Y479489D3*
X1991598Y579489D3*
Y479489D3*
X1891598Y579489D3*
Y479489D3*
X1791598Y579489D3*
Y479489D3*
X1691598Y579489D3*
Y479489D3*
X1591598Y579489D3*
Y479489D3*
X1491598Y579489D3*
Y479489D3*
X1391598Y579489D3*
Y479489D3*
X1291598Y579489D3*
Y479489D3*
X1191598Y579489D3*
Y479489D3*
X1091598Y579489D3*
Y479489D3*
X991598Y579489D3*
Y479489D3*
X891598Y579489D3*
Y479489D3*
X791598Y579489D3*
Y479489D3*
X691598Y579489D3*
Y479489D3*
D22*
X1593700Y2193700D3*
D23*
X1493700D3*
X1393700D3*
X1293700D3*
X1193700D3*
X1093700D3*
X993700D3*
X893700D3*
X793700D3*
X693700D3*
D22*
X2493700Y2156200D3*
D23*
Y2256200D3*
D24*
X2168700Y2218700D3*
D25*
X2068700D3*
X1968700D3*
X2168700Y2118700D3*
X2068700D3*
X1968700D3*
D22*
X606200Y1581200D3*
D23*
X506200D3*
M02*
