G04 DipTrace 3.3.1.3*
G04 BottomSilk.gbr*
%MOIN*%
G04 #@! TF.FileFunction,Legend,Bot*
G04 #@! TF.Part,Single*
%ADD59C,0.006176*%
%FSLAX26Y26*%
G04*
G70*
G90*
G75*
G01*
G04 BotSilk*
%LPD*%
X1892033Y547264D2*
D59*
Y516667D1*
X1893935Y510919D1*
X1895880Y509018D1*
X1899683Y507072D1*
X1903530D1*
X1907332Y509018D1*
X1909233Y510919D1*
X1911179Y516667D1*
Y520470D1*
X1879682Y547264D2*
Y507072D1*
X1856734D1*
X1815687Y537714D2*
X1817588Y541516D1*
X1821435Y545363D1*
X1825237Y547264D1*
X1832887D1*
X1836733Y545363D1*
X1840536Y541516D1*
X1842482Y537714D1*
X1844383Y531966D1*
Y522371D1*
X1842482Y516667D1*
X1840536Y512820D1*
X1836733Y509018D1*
X1832887Y507072D1*
X1825237D1*
X1821435Y509018D1*
X1817588Y512820D1*
X1815687Y516667D1*
X1784190Y547264D2*
Y516667D1*
X1786091Y510919D1*
X1788037Y509018D1*
X1791839Y507072D1*
X1795686D1*
X1799489Y509018D1*
X1801390Y510919D1*
X1803335Y516667D1*
Y520470D1*
X1771839Y547264D2*
Y507072D1*
X1748891D1*
X1707843Y537714D2*
X1709745Y541516D1*
X1713591Y545363D1*
X1717394Y547264D1*
X1725043D1*
X1728890Y545363D1*
X1732693Y541516D1*
X1734638Y537714D1*
X1736539Y531966D1*
Y522371D1*
X1734638Y516667D1*
X1732693Y512820D1*
X1728890Y509018D1*
X1725043Y507072D1*
X1717394D1*
X1713591Y509018D1*
X1709745Y512820D1*
X1707843Y516667D1*
X1676347Y547264D2*
Y516667D1*
X1678248Y510919D1*
X1680193Y509018D1*
X1683996Y507072D1*
X1687843D1*
X1691645Y509018D1*
X1693547Y510919D1*
X1695492Y516667D1*
Y520470D1*
X1663995Y547264D2*
Y507072D1*
X1641047D1*
X1600000Y537714D2*
X1601901Y541516D1*
X1605748Y545363D1*
X1609551Y547264D1*
X1617200D1*
X1621047Y545363D1*
X1624849Y541516D1*
X1626795Y537714D1*
X1628696Y531966D1*
Y522371D1*
X1626795Y516667D1*
X1624849Y512820D1*
X1621047Y509018D1*
X1617200Y507072D1*
X1609551D1*
X1605748Y509018D1*
X1601901Y512820D1*
X1600000Y516667D1*
X1568503Y547264D2*
Y516667D1*
X1570405Y510919D1*
X1572350Y509018D1*
X1576153Y507072D1*
X1579999D1*
X1583802Y509018D1*
X1585703Y510919D1*
X1587649Y516667D1*
Y520470D1*
X1556152Y547264D2*
Y507072D1*
X1533204D1*
X1492157Y537714D2*
X1494058Y541516D1*
X1497905Y545363D1*
X1501707Y547264D1*
X1509356D1*
X1513203Y545363D1*
X1517006Y541516D1*
X1518951Y537714D1*
X1520853Y531966D1*
Y522371D1*
X1518951Y516667D1*
X1517006Y512820D1*
X1513203Y509018D1*
X1509356Y507072D1*
X1501707D1*
X1497905Y509018D1*
X1494058Y512820D1*
X1492157Y516667D1*
M02*
