M48
INCH
T01C0.0191
T02C0.0315
T03C0.0433
T04C0.1535
T05C0.1575
%
T01
X+010562Y+009062
X+012814Y+009435
X+013687Y+013812
X+008187Y+012437
X+007687Y+012437
X+006562Y+010812
X+006562Y+009937
X+004812Y+015437
X+007187Y+015937
X+008564Y+017312
X+008564Y+020314
X+024437Y+006687
X+027687Y+010812
T02
X+021312Y+024812
X+020312Y+024812
X+019312Y+024812
X+019312Y+023812
X+020312Y+023812
X+021312Y+023812
T03
X+025916Y+005795
X+024916Y+005795
X+024916Y+004795
X+025916Y+004795
X+023916Y+004795
X+022916Y+004795
X+022916Y+005795
X+023916Y+005795
X+021916Y+005795
X+020916Y+005795
X+019916Y+005795
X+019916Y+004795
X+020916Y+004795
X+021916Y+004795
X+018916Y+004795
X+017916Y+004795
X+017916Y+005795
X+018916Y+005795
X+016916Y+005795
X+016916Y+004795
X+015916Y+004795
X+015916Y+005795
X+014916Y+005795
X+013916Y+005795
X+013916Y+004795
X+014916Y+004795
X+012916Y+004795
X+011916Y+004795
X+011916Y+005795
X+012916Y+005795
X+010916Y+005795
X+010916Y+004795
X+009916Y+004795
X+009916Y+005795
X+008916Y+005795
X+008916Y+004795
X+007916Y+004795
X+007916Y+005795
X+006916Y+005795
X+006916Y+004795
X+013062Y+012812
X+013062Y+013812
X+012937Y+021937
X+013937Y+021937
X+014937Y+021937
X+015937Y+021937
X+011937Y+021937
X+010937Y+021937
X+009937Y+021937
X+008937Y+021937
X+007937Y+021937
X+006937Y+021937
X+024937Y+021687
X+024937Y+022687
T04
X+005317Y+005325
X+005284Y+024599
X+027751Y+024604
T05
X+027748Y+005311
T00
M30
