G04 DipTrace 3.3.1.3*
G04 TopAssy.gbr*
%MOIN*%
G04 #@! TF.FileFunction,Drawing,Top*
G04 #@! TF.Part,Single*
%ADD10C,0.009843*%
%ADD58C,0.003088*%
%FSLAX26Y26*%
G04*
G70*
G90*
G75*
G01*
G04 TopAssy*
%LPD*%
X1682283Y2133861D2*
D10*
X605117D1*
X1243194Y2095562D2*
D58*
Y2115658D1*
X1234572D1*
X1231698Y2114686D1*
X1230747Y2113735D1*
X1229797Y2111834D1*
Y2108960D1*
X1230747Y2107036D1*
X1231698Y2106086D1*
X1234572Y2105135D1*
X1231698Y2104162D1*
X1230747Y2103212D1*
X1229797Y2101310D1*
Y2099387D1*
X1230747Y2097486D1*
X1231698Y2096513D1*
X1234572Y2095562D1*
X1243194D1*
Y2105135D2*
X1234572D1*
X1217873Y2095562D2*
X1219796Y2096513D1*
X1221698Y2098436D1*
X1222670Y2100338D1*
X1223621Y2103212D1*
Y2108009D1*
X1222670Y2110861D1*
X1221698Y2112784D1*
X1219796Y2114686D1*
X1217873Y2115658D1*
X1214048D1*
X1212147Y2114686D1*
X1210224Y2112784D1*
X1209273Y2110861D1*
X1208323Y2108009D1*
Y2103212D1*
X1209273Y2100338D1*
X1210224Y2098436D1*
X1212147Y2096513D1*
X1214048Y2095562D1*
X1217873D1*
X1186826Y2115658D2*
X1194498Y2095562D1*
X1202147Y2115658D1*
X1199273Y2108960D2*
X1189700D1*
X1180650Y2105135D2*
X1172050D1*
X1169176Y2104162D1*
X1168204Y2103212D1*
X1167253Y2101310D1*
Y2099387D1*
X1168204Y2097486D1*
X1169176Y2096513D1*
X1172050Y2095562D1*
X1180650D1*
Y2115658D1*
X1173952Y2105135D2*
X1167253Y2115658D1*
X1161077Y2095562D2*
Y2115658D1*
X1154379D1*
X1151505Y2114685D1*
X1149581Y2112784D1*
X1148631Y2110861D1*
X1147680Y2108009D1*
Y2103212D1*
X1148631Y2100338D1*
X1149581Y2098436D1*
X1151505Y2096513D1*
X1154379Y2095562D1*
X1161077D1*
X1109639D2*
X1122064D1*
Y2115658D1*
X1109639D1*
X1122064Y2105135D2*
X1114415D1*
X1103464Y2095562D2*
Y2115658D1*
X1096765D1*
X1093891Y2114685D1*
X1091968Y2112784D1*
X1091017Y2110861D1*
X1090066Y2108009D1*
Y2103212D1*
X1091017Y2100338D1*
X1091968Y2098436D1*
X1093891Y2096513D1*
X1096765Y2095562D1*
X1103464D1*
X1069543Y2100338D2*
X1070493Y2098436D1*
X1072417Y2096513D1*
X1074318Y2095562D1*
X1078143D1*
X1080066Y2096513D1*
X1081967Y2098436D1*
X1082940Y2100338D1*
X1083891Y2103212D1*
Y2108009D1*
X1082940Y2110861D1*
X1081967Y2112784D1*
X1080066Y2114685D1*
X1078143Y2115658D1*
X1074318D1*
X1072417Y2114685D1*
X1070493Y2112784D1*
X1069543Y2110861D1*
Y2108009D1*
X1074318D1*
X1050942Y2095562D2*
X1063367D1*
Y2115658D1*
X1050942D1*
X1063367Y2105135D2*
X1055718D1*
M02*
