G04 DipTrace 3.3.1.3*
G04 TopDimension.gbr*
%MOIN*%
G04 #@! TF.FileFunction,Drawing,Top*
G04 #@! TF.Part,Single*
%ADD13C,0.001378*%
%ADD56C,0.006176*%
%FSLAX26Y26*%
G04*
G70*
G90*
G75*
G01*
G04 TopDimension*
%LPD*%
X393700Y551180D2*
D13*
Y296405D1*
X531747Y532533D2*
Y296405D1*
X393700Y316090D2*
X531747D1*
X334645D2*
X354330D1*
G36*
X393700D2*
X354330Y308216D1*
Y323964D1*
X393700Y316090D1*
G37*
X590802D2*
D13*
X571117D1*
G36*
X531747D2*
X571117Y323964D1*
Y308216D1*
X531747Y316090D1*
G37*
Y532533D2*
D13*
X308377D1*
X527987Y393718D2*
X308377D1*
X328062Y463126D2*
Y493163D1*
G36*
Y532533D2*
X335936Y493163D1*
X320188D1*
X328062Y532533D1*
G37*
Y463126D2*
D13*
Y433088D1*
G36*
Y393718D2*
X320188Y433088D1*
X335936D1*
X328062Y393718D1*
G37*
Y715046D2*
D13*
Y532533D1*
X2774802Y531056D2*
Y210371D1*
X2912998Y546609D2*
Y210371D1*
X2843900Y230056D2*
X2814172D1*
G36*
X2774802D2*
X2814172Y237930D1*
Y222182D1*
X2774802Y230056D1*
G37*
X2843900D2*
D13*
X2873628D1*
G36*
X2912998D2*
X2873628Y222182D1*
Y237930D1*
X2912998Y230056D1*
G37*
X3095555D2*
D13*
X2912998D1*
X2794739Y392995D2*
X3208661D1*
X2774802Y531056D2*
X3208661D1*
X3188976D2*
Y392995D1*
Y590111D2*
Y570426D1*
G36*
Y531056D2*
X3181102Y570426D1*
X3196850D1*
X3188976Y531056D1*
G37*
Y333940D2*
D13*
Y353625D1*
G36*
Y392995D2*
X3196850Y353625D1*
X3181102D1*
X3188976Y392995D1*
G37*
X393700Y393700D2*
D13*
X98424D1*
X393700Y2598424D2*
X98424D1*
X118109Y1496062D2*
Y433070D1*
G36*
Y393700D2*
X110235Y433070D1*
X125983D1*
X118109Y393700D1*
G37*
Y1496062D2*
D13*
Y2559054D1*
G36*
Y2598424D2*
X125983Y2559054D1*
X110235D1*
X118109Y2598424D1*
G37*
X393700D2*
D13*
Y2854330D1*
X2913385Y2598424D2*
Y2854330D1*
X1653543Y2834645D2*
X433070D1*
G36*
X393700D2*
X433070Y2842519D1*
Y2826771D1*
X393700Y2834645D1*
G37*
X1653543D2*
D13*
X2874015D1*
G36*
X2913385D2*
X2874015Y2826771D1*
Y2842519D1*
X2913385Y2834645D1*
G37*
X1435565Y1929133D2*
D13*
Y2964878D1*
X2498557Y1929133D2*
Y2964878D1*
X1967061Y2945193D2*
X1474935D1*
G36*
X1435565D2*
X1474935Y2953067D1*
Y2937319D1*
X1435565Y2945193D1*
G37*
X1967061D2*
D13*
X2459187D1*
G36*
X2498557D2*
X2459187Y2937319D1*
Y2953067D1*
X2498557Y2945193D1*
G37*
X1435565Y1929133D2*
D13*
X3332760D1*
X1435565Y866141D2*
X3332760D1*
X3313075Y1397637D2*
Y1889763D1*
G36*
Y1929133D2*
X3320949Y1889763D1*
X3305201D1*
X3313075Y1929133D1*
G37*
Y1397637D2*
D13*
Y905511D1*
G36*
Y866141D2*
X3305201Y905511D1*
X3320949D1*
X3313075Y866141D1*
G37*
X2498557Y1929133D2*
D13*
Y2964878D1*
X2912725Y1896512D2*
Y2964878D1*
X2705641Y2945193D2*
X2537927D1*
G36*
X2498557D2*
X2537927Y2953067D1*
Y2937319D1*
X2498557Y2945193D1*
G37*
X2705641D2*
D13*
X2873355D1*
G36*
X2912725D2*
X2873355Y2937319D1*
Y2953067D1*
X2912725Y2945193D1*
G37*
X2519684Y393700D2*
D13*
X3063385D1*
X2498557Y866141D2*
X3063385D1*
X3043700Y629920D2*
Y433070D1*
G36*
Y393700D2*
X3035826Y433070D1*
X3051574D1*
X3043700Y393700D1*
G37*
Y629920D2*
D13*
Y826771D1*
G36*
Y866141D2*
X3051574Y826771D1*
X3035826D1*
X3043700Y866141D1*
G37*
X528407Y2459885D2*
D13*
Y2713385D1*
X390108Y2373045D2*
Y2713385D1*
X459258Y2693700D2*
X489037D1*
G36*
X528407D2*
X489037Y2685826D1*
Y2701574D1*
X528407Y2693700D1*
G37*
X459258D2*
D13*
X429478D1*
G36*
X390108D2*
X429478Y2701574D1*
Y2685826D1*
X390108Y2693700D1*
G37*
X710964D2*
D13*
X528407D1*
Y2459885D2*
X274015D1*
X600142Y2598300D2*
X274015D1*
X293700Y2529092D2*
Y2499255D1*
G36*
Y2459885D2*
X285826Y2499255D1*
X301574D1*
X293700Y2459885D1*
G37*
Y2529092D2*
D13*
Y2558930D1*
G36*
Y2598300D2*
X301574Y2558930D1*
X285826D1*
X293700Y2598300D1*
G37*
Y2782758D2*
D13*
Y2598300D1*
X2775124Y2460364D2*
Y2616763D1*
X2913385Y2401574D2*
Y2616763D1*
X2844254Y2597078D2*
X2814494D1*
G36*
X2775124D2*
X2814494Y2604952D1*
Y2589204D1*
X2775124Y2597078D1*
G37*
X2844254D2*
D13*
X2874015D1*
G36*
X2913385D2*
X2874015Y2589204D1*
Y2604952D1*
X2913385Y2597078D1*
G37*
X3095942D2*
D13*
X2913385D1*
X2775124Y2460364D2*
X2972582D1*
X2716535Y2598424D2*
X2972582D1*
X2952897D2*
Y2460364D1*
Y2657480D2*
Y2637794D1*
G36*
Y2598424D2*
X2945023Y2637794D1*
X2960771D1*
X2952897Y2598424D1*
G37*
Y2401309D2*
D13*
Y2420994D1*
G36*
Y2460364D2*
X2960771Y2420994D1*
X2945023D1*
X2952897Y2460364D1*
G37*
X2800165Y1048098D2*
D13*
Y49015D1*
X2913385Y393700D2*
Y49015D1*
X2856775Y68700D2*
X2839535D1*
G36*
X2800165D2*
X2839535Y76574D1*
Y60826D1*
X2800165Y68700D1*
G37*
X2856775D2*
D13*
X2874015D1*
G36*
X2913385D2*
X2874015Y60826D1*
Y76574D1*
X2913385Y68700D1*
G37*
X3078786D2*
D13*
X2913385D1*
X421890Y360799D2*
D56*
X425737Y362744D1*
X431485Y368448D1*
Y328301D1*
X447683Y368448D2*
X468685D1*
X457234Y353150D1*
X462982D1*
X466784Y351248D1*
X468685Y349347D1*
X470631Y343599D1*
Y339797D1*
X468685Y334049D1*
X464883Y330202D1*
X459135Y328301D1*
X453387D1*
X447683Y330202D1*
X445782Y332147D1*
X443836Y335950D1*
X492533Y368448D2*
X486829Y366547D1*
X484884Y362744D1*
Y358898D1*
X486829Y355095D1*
X490632Y353150D1*
X498281Y351248D1*
X504029Y349347D1*
X507832Y345500D1*
X509733Y341698D1*
Y335950D1*
X507832Y332147D1*
X505930Y330202D1*
X500182Y328301D1*
X492533D1*
X486829Y330202D1*
X484884Y332147D1*
X482982Y335950D1*
Y341698D1*
X484884Y345500D1*
X488730Y349347D1*
X494434Y351248D1*
X502084Y353150D1*
X505930Y355095D1*
X507832Y358898D1*
Y362744D1*
X505930Y366547D1*
X500182Y368448D1*
X492533D1*
X283353Y581167D2*
X281407Y585014D1*
X275704Y590762D1*
X315851D1*
X275704Y606960D2*
Y627962D1*
X291002Y616510D1*
Y622259D1*
X292904Y626061D1*
X294805Y627962D1*
X300553Y629908D1*
X304355D1*
X310103Y627962D1*
X313950Y624160D1*
X315851Y618412D1*
Y612664D1*
X313950Y606960D1*
X312005Y605059D1*
X308202Y603113D1*
X275704Y651810D2*
X277605Y646106D1*
X281407Y644160D1*
X285254D1*
X289057Y646106D1*
X291002Y649909D1*
X292904Y657558D1*
X294805Y663306D1*
X298652Y667108D1*
X302454Y669010D1*
X308202D1*
X312005Y667108D1*
X313950Y665207D1*
X315851Y659459D1*
Y651810D1*
X313950Y646106D1*
X312005Y644160D1*
X308202Y642259D1*
X302454D1*
X298652Y644160D1*
X294805Y648007D1*
X292904Y653711D1*
X291002Y661360D1*
X289057Y665207D1*
X285254Y667108D1*
X281407D1*
X277605Y665207D1*
X275704Y659459D1*
Y651810D1*
X312005Y683262D2*
X313950Y681361D1*
X315851Y683262D1*
X313950Y685208D1*
X312005Y683262D1*
X275704Y707110D2*
X277605Y701406D1*
X281407Y699460D1*
X285254D1*
X289057Y701406D1*
X291002Y705209D1*
X292904Y712858D1*
X294805Y718606D1*
X298652Y722408D1*
X302454Y724310D1*
X308202D1*
X312005Y722408D1*
X313950Y720507D1*
X315851Y714759D1*
Y707110D1*
X313950Y701406D1*
X312005Y699460D1*
X308202Y697559D1*
X302454D1*
X298652Y699460D1*
X294805Y703307D1*
X292904Y709011D1*
X291002Y716660D1*
X289057Y720507D1*
X285254Y722408D1*
X281407D1*
X277605Y720507D1*
X275704Y714759D1*
Y707110D1*
X2961632Y274765D2*
X2965478Y276710D1*
X2971226Y282414D1*
Y242266D1*
X2987424Y282414D2*
X3008427D1*
X2996975Y267116D1*
X3002723D1*
X3006526Y265214D1*
X3008427Y263313D1*
X3010372Y257565D1*
Y253762D1*
X3008427Y248014D1*
X3004624Y244168D1*
X2998876Y242266D1*
X2993128D1*
X2987424Y244168D1*
X2985523Y246113D1*
X2983578Y249916D1*
X3032274Y282414D2*
X3026571Y280513D1*
X3024625Y276710D1*
Y272864D1*
X3026571Y269061D1*
X3030373Y267116D1*
X3038022Y265214D1*
X3043770Y263313D1*
X3047573Y259466D1*
X3049474Y255664D1*
Y249916D1*
X3047573Y246113D1*
X3045672Y244168D1*
X3039924Y242266D1*
X3032274D1*
X3026571Y244168D1*
X3024625Y246113D1*
X3022724Y249916D1*
Y255664D1*
X3024625Y259466D1*
X3028472Y263313D1*
X3034176Y265214D1*
X3041825Y267116D1*
X3045672Y269061D1*
X3047573Y272864D1*
Y276710D1*
X3045672Y280513D1*
X3039924Y282414D1*
X3032274D1*
X3063727Y246113D2*
X3061826Y244168D1*
X3063727Y242266D1*
X3065672Y244168D1*
X3063727Y246113D1*
X3079969Y272864D2*
Y274765D1*
X3081871Y278612D1*
X3083772Y280513D1*
X3087619Y282414D1*
X3095268D1*
X3099070Y280513D1*
X3100972Y278612D1*
X3102917Y274765D1*
Y270962D1*
X3100972Y267116D1*
X3097169Y261412D1*
X3078024Y242266D1*
X3104818D1*
X3233685Y521931D2*
X3235630Y518084D1*
X3241334Y512336D1*
X3201186D1*
X3241334Y496138D2*
Y475136D1*
X3226036Y486588D1*
Y480840D1*
X3224134Y477037D1*
X3222233Y475136D1*
X3216485Y473190D1*
X3212682D1*
X3206934Y475136D1*
X3203088Y478938D1*
X3201186Y484686D1*
Y490434D1*
X3203088Y496138D1*
X3205033Y498039D1*
X3208836Y499985D1*
X3241334Y451288D2*
X3239433Y456992D1*
X3235630Y458938D1*
X3231784D1*
X3227981Y456992D1*
X3226036Y453190D1*
X3224134Y445540D1*
X3222233Y439792D1*
X3218386Y435990D1*
X3214584Y434088D1*
X3208836D1*
X3205033Y435990D1*
X3203088Y437891D1*
X3201186Y443639D1*
Y451288D1*
X3203088Y456992D1*
X3205033Y458938D1*
X3208836Y460839D1*
X3214584D1*
X3218386Y458938D1*
X3222233Y455091D1*
X3224134Y449387D1*
X3226036Y441738D1*
X3227981Y437891D1*
X3231784Y435990D1*
X3235630D1*
X3239433Y437891D1*
X3241334Y443639D1*
Y451288D1*
X3205033Y419836D2*
X3203088Y421737D1*
X3201186Y419836D1*
X3203088Y417890D1*
X3205033Y419836D1*
X3233685Y405539D2*
X3235630Y401692D1*
X3241334Y395944D1*
X3201186D1*
X75301Y1400356D2*
X73400D1*
X69553Y1402258D1*
X67652Y1404159D1*
X65751Y1408006D1*
Y1415655D1*
X67652Y1419458D1*
X69553Y1421359D1*
X73400Y1423304D1*
X77203D1*
X81050Y1421359D1*
X86753Y1417556D1*
X105899Y1398411D1*
Y1425206D1*
X75301Y1439502D2*
X73400D1*
X69553Y1441404D1*
X67652Y1443305D1*
X65751Y1447152D1*
Y1454801D1*
X67652Y1458604D1*
X69553Y1460505D1*
X73400Y1462450D1*
X77203D1*
X81050Y1460505D1*
X86753Y1456702D1*
X105899Y1437557D1*
Y1464352D1*
X65751Y1488199D2*
X67652Y1482451D1*
X73400Y1478604D1*
X82951Y1476703D1*
X88699D1*
X98249Y1478604D1*
X103997Y1482451D1*
X105899Y1488199D1*
Y1492002D1*
X103997Y1497750D1*
X98249Y1501552D1*
X88699Y1503498D1*
X82951D1*
X73400Y1501552D1*
X67652Y1497750D1*
X65751Y1492002D1*
Y1488199D1*
X73400Y1501552D2*
X98249Y1478604D1*
X105899Y1534994D2*
X65751D1*
X92501Y1515849D1*
Y1544545D1*
X102052Y1558798D2*
X103997Y1556896D1*
X105899Y1558798D1*
X103997Y1560743D1*
X102052Y1558798D1*
X105899Y1580744D2*
X65751Y1599889D1*
Y1573095D1*
X1568338Y2877453D2*
Y2879354D1*
X1570239Y2883201D1*
X1572140Y2885102D1*
X1575987Y2887003D1*
X1583636D1*
X1587439Y2885102D1*
X1589340Y2883201D1*
X1591286Y2879354D1*
Y2875552D1*
X1589340Y2871705D1*
X1585538Y2866001D1*
X1566392Y2846856D1*
X1593187D1*
X1628486Y2887003D2*
X1609385D1*
X1607484Y2869804D1*
X1609385Y2871705D1*
X1615133Y2873650D1*
X1620837D1*
X1626585Y2871705D1*
X1630432Y2867902D1*
X1632333Y2862154D1*
Y2858352D1*
X1630432Y2852604D1*
X1626585Y2848757D1*
X1620837Y2846856D1*
X1615133D1*
X1609385Y2848757D1*
X1607484Y2850702D1*
X1605538Y2854505D1*
X1644685Y2879354D2*
X1648531Y2881300D1*
X1654279Y2887003D1*
Y2846856D1*
X1691524Y2873650D2*
X1689579Y2867902D1*
X1685776Y2864056D1*
X1680028Y2862154D1*
X1678127D1*
X1672379Y2864056D1*
X1668576Y2867902D1*
X1666631Y2873650D1*
Y2875552D1*
X1668576Y2881300D1*
X1672379Y2885102D1*
X1678127Y2887003D1*
X1680028D1*
X1685776Y2885102D1*
X1689579Y2881300D1*
X1691524Y2873650D1*
Y2864056D1*
X1689579Y2854505D1*
X1685776Y2848757D1*
X1680028Y2846856D1*
X1676226D1*
X1670477Y2848757D1*
X1668576Y2852604D1*
X1705777Y2850702D2*
X1703876Y2848757D1*
X1705777Y2846856D1*
X1707722Y2848757D1*
X1705777Y2850702D1*
X1727723Y2846856D2*
X1746868Y2887003D1*
X1720074D1*
X1907605Y2989903D2*
X1911452Y2991848D1*
X1917200Y2997552D1*
Y2957404D1*
X1941047Y2997552D2*
X1935299Y2995651D1*
X1931452Y2989903D1*
X1929551Y2980352D1*
Y2974604D1*
X1931452Y2965053D1*
X1935299Y2959305D1*
X1941047Y2957404D1*
X1944850D1*
X1950598Y2959305D1*
X1954400Y2965053D1*
X1956346Y2974604D1*
Y2980352D1*
X1954400Y2989903D1*
X1950598Y2995651D1*
X1944850Y2997552D1*
X1941047D1*
X1954400Y2989903D2*
X1931452Y2965053D1*
X1991645Y2991848D2*
X1989744Y2995651D1*
X1983996Y2997552D1*
X1980193D1*
X1974445Y2995651D1*
X1970599Y2989903D1*
X1968697Y2980352D1*
Y2970802D1*
X1970599Y2963152D1*
X1974445Y2959305D1*
X1980193Y2957404D1*
X1982095D1*
X1987798Y2959305D1*
X1991645Y2963152D1*
X1993546Y2968900D1*
Y2970802D1*
X1991645Y2976550D1*
X1987798Y2980352D1*
X1982095Y2982253D1*
X1980193D1*
X1974445Y2980352D1*
X1970599Y2976550D1*
X1968697Y2970802D1*
X2009745Y2997552D2*
X2030747D1*
X2019295Y2982253D1*
X2025043D1*
X2028846Y2980352D1*
X2030747Y2978451D1*
X2032692Y2972703D1*
Y2968900D1*
X2030747Y2963152D1*
X2026944Y2959305D1*
X2021196Y2957404D1*
X2015448D1*
X2009745Y2959305D1*
X2007843Y2961251D1*
X2005898Y2965053D1*
X3357785Y1457093D2*
X3359730Y1453246D1*
X3365434Y1447498D1*
X3325286D1*
X3365434Y1423651D2*
X3363533Y1429399D1*
X3357785Y1433245D1*
X3348234Y1435147D1*
X3342486D1*
X3332935Y1433245D1*
X3327187Y1429399D1*
X3325286Y1423651D1*
Y1419848D1*
X3327187Y1414100D1*
X3332935Y1410298D1*
X3342486Y1408352D1*
X3348234D1*
X3357785Y1410298D1*
X3363533Y1414100D1*
X3365434Y1419848D1*
Y1423651D1*
X3357785Y1410298D2*
X3332935Y1433245D1*
X3359730Y1373053D2*
X3363533Y1374954D1*
X3365434Y1380702D1*
Y1384505D1*
X3363533Y1390253D1*
X3357785Y1394099D1*
X3348234Y1396001D1*
X3338683D1*
X3331034Y1394099D1*
X3327187Y1390253D1*
X3325286Y1384505D1*
Y1382603D1*
X3327187Y1376900D1*
X3331034Y1373053D1*
X3336782Y1371151D1*
X3338683D1*
X3344431Y1373053D1*
X3348234Y1376900D1*
X3350135Y1382603D1*
Y1384505D1*
X3348234Y1390253D1*
X3344431Y1394099D1*
X3338683Y1396001D1*
X3365434Y1354953D2*
Y1333951D1*
X3350135Y1345403D1*
Y1339655D1*
X3348234Y1335852D1*
X3346333Y1333951D1*
X3340585Y1332005D1*
X3336782D1*
X3331034Y1333951D1*
X3327187Y1337753D1*
X3325286Y1343501D1*
Y1349250D1*
X3327187Y1354953D1*
X3329133Y1356855D1*
X3332935Y1358800D1*
X2654357Y2957404D2*
Y2997552D1*
X2635212Y2970802D1*
X2663908D1*
X2676259Y2989903D2*
X2680106Y2991848D1*
X2685854Y2997552D1*
Y2957404D1*
X2717351D2*
Y2997552D1*
X2698205Y2970802D1*
X2726901D1*
X2741154Y2961251D2*
X2739253Y2959305D1*
X2741154Y2957404D1*
X2743100Y2959305D1*
X2741154Y2961251D1*
X2757396Y2988001D2*
Y2989903D1*
X2759298Y2993749D1*
X2761199Y2995651D1*
X2765046Y2997552D1*
X2772695D1*
X2776498Y2995651D1*
X2778399Y2993749D1*
X2780344Y2989903D1*
Y2986100D1*
X2778399Y2982253D1*
X2774596Y2976550D1*
X2755451Y2957404D1*
X2782246D1*
X3055911Y689804D2*
X3096059D1*
X3069308Y708949D1*
Y680253D1*
X3055911Y660253D2*
X3096059Y641107D1*
Y667902D1*
X3086508Y626811D2*
X3088409D1*
X3092256Y624909D1*
X3094157Y623008D1*
X3096059Y619161D1*
Y611512D1*
X3094157Y607709D1*
X3092256Y605808D1*
X3088409Y603863D1*
X3084607D1*
X3080760Y605808D1*
X3075056Y609611D1*
X3055911Y628756D1*
Y601961D1*
X3059758Y587709D2*
X3057812Y589610D1*
X3055911Y587709D1*
X3057812Y585763D1*
X3059758Y587709D1*
X3055911Y554266D2*
X3096059D1*
X3069308Y573412D1*
Y544716D1*
X577041Y2738409D2*
X580888Y2740355D1*
X586636Y2746059D1*
Y2705911D1*
X602834Y2746059D2*
X623836D1*
X612384Y2730760D1*
X618133D1*
X621935Y2728859D1*
X623836Y2726957D1*
X625782Y2721209D1*
Y2717407D1*
X623836Y2711659D1*
X620034Y2707812D1*
X614286Y2705911D1*
X608538D1*
X602834Y2707812D1*
X600933Y2709758D1*
X598987Y2713560D1*
X647684Y2746059D2*
X641980Y2744157D1*
X640035Y2740355D1*
Y2736508D1*
X641980Y2732705D1*
X645783Y2730760D1*
X653432Y2728859D1*
X659180Y2726957D1*
X662982Y2723111D1*
X664884Y2719308D1*
Y2713560D1*
X662982Y2709758D1*
X661081Y2707812D1*
X655333Y2705911D1*
X647684D1*
X641980Y2707812D1*
X640035Y2709758D1*
X638133Y2713560D1*
Y2719308D1*
X640035Y2723111D1*
X643881Y2726957D1*
X649585Y2728859D1*
X657234Y2730760D1*
X661081Y2732705D1*
X662982Y2736508D1*
Y2740355D1*
X661081Y2744157D1*
X655333Y2746059D1*
X647684D1*
X679136Y2709758D2*
X677235Y2707812D1*
X679136Y2705911D1*
X681082Y2707812D1*
X679136Y2709758D1*
X697280Y2746059D2*
X718282D1*
X706831Y2730760D1*
X712579D1*
X716381Y2728859D1*
X718282Y2726957D1*
X720228Y2721209D1*
Y2717407D1*
X718282Y2711659D1*
X714480Y2707812D1*
X708732Y2705911D1*
X702984D1*
X697280Y2707812D1*
X695379Y2709758D1*
X693433Y2713560D1*
X248991Y2646933D2*
X247045Y2650780D1*
X241341Y2656528D1*
X281489D1*
X241341Y2672726D2*
Y2693729D1*
X256640Y2682277D1*
Y2688025D1*
X258541Y2691827D1*
X260443Y2693729D1*
X266191Y2695674D1*
X269993D1*
X275741Y2693729D1*
X279588Y2689926D1*
X281489Y2684178D1*
Y2678430D1*
X279588Y2672726D1*
X277642Y2670825D1*
X273840Y2668880D1*
X241341Y2717576D2*
X243243Y2711872D1*
X247045Y2709927D1*
X250892D1*
X254695Y2711872D1*
X256640Y2715675D1*
X258541Y2723324D1*
X260443Y2729072D1*
X264289Y2732875D1*
X268092Y2734776D1*
X273840D1*
X277642Y2732875D1*
X279588Y2730974D1*
X281489Y2725225D1*
Y2717576D1*
X279588Y2711872D1*
X277642Y2709927D1*
X273840Y2708026D1*
X268092D1*
X264289Y2709927D1*
X260443Y2713774D1*
X258541Y2719477D1*
X256640Y2727127D1*
X254695Y2730974D1*
X250892Y2732875D1*
X247045D1*
X243243Y2730974D1*
X241341Y2725225D1*
Y2717576D1*
X277642Y2749029D2*
X279588Y2747127D1*
X281489Y2749029D1*
X279588Y2750974D1*
X277642Y2749029D1*
X281489Y2782471D2*
X241341D1*
X268092Y2763326D1*
Y2792022D1*
X2962019Y2641787D2*
X2965865Y2643733D1*
X2971613Y2649436D1*
Y2609289D1*
X2987812Y2649436D2*
X3008814D1*
X2997362Y2634138D1*
X3003110D1*
X3006913Y2632237D1*
X3008814Y2630335D1*
X3010760Y2624587D1*
Y2620785D1*
X3008814Y2615037D1*
X3005011Y2611190D1*
X2999263Y2609289D1*
X2993515D1*
X2987812Y2611190D1*
X2985910Y2613135D1*
X2983965Y2616938D1*
X3032661Y2649436D2*
X3026958Y2647535D1*
X3025012Y2643733D1*
Y2639886D1*
X3026958Y2636083D1*
X3030760Y2634138D1*
X3038410Y2632237D1*
X3044158Y2630335D1*
X3047960Y2626489D1*
X3049861Y2622686D1*
Y2616938D1*
X3047960Y2613135D1*
X3046059Y2611190D1*
X3040311Y2609289D1*
X3032661D1*
X3026958Y2611190D1*
X3025012Y2613135D1*
X3023111Y2616938D1*
Y2622686D1*
X3025012Y2626489D1*
X3028859Y2630335D1*
X3034563Y2632237D1*
X3042212Y2634138D1*
X3046059Y2636083D1*
X3047960Y2639886D1*
Y2643733D1*
X3046059Y2647535D1*
X3040311Y2649436D1*
X3032661D1*
X3064114Y2613135D2*
X3062213Y2611190D1*
X3064114Y2609289D1*
X3066060Y2611190D1*
X3064114Y2613135D1*
X3082258Y2649436D2*
X3103260D1*
X3091808Y2634138D1*
X3097556D1*
X3101359Y2632237D1*
X3103260Y2630335D1*
X3105206Y2624587D1*
Y2620785D1*
X3103260Y2615037D1*
X3099458Y2611190D1*
X3093710Y2609289D1*
X3087962D1*
X3082258Y2611190D1*
X3080356Y2613135D1*
X3078411Y2616938D1*
X2997606Y2589300D2*
X2999552Y2585453D1*
X3005255Y2579705D1*
X2965108D1*
X3005255Y2563507D2*
Y2542505D1*
X2989957Y2553956D1*
Y2548208D1*
X2988056Y2544406D1*
X2986154Y2542505D1*
X2980406Y2540559D1*
X2976604D1*
X2970856Y2542505D1*
X2967009Y2546307D1*
X2965108Y2552055D1*
Y2557803D1*
X2967009Y2563507D1*
X2968954Y2565408D1*
X2972757Y2567354D1*
X3005255Y2518657D2*
X3003354Y2524361D1*
X2999552Y2526306D1*
X2995705D1*
X2991902Y2524361D1*
X2989957Y2520558D1*
X2988056Y2512909D1*
X2986154Y2507161D1*
X2982307Y2503358D1*
X2978505Y2501457D1*
X2972757D1*
X2968954Y2503358D1*
X2967009Y2505260D1*
X2965108Y2511008D1*
Y2518657D1*
X2967009Y2524361D1*
X2968954Y2526306D1*
X2972757Y2528208D1*
X2978505D1*
X2982307Y2526306D1*
X2986154Y2522460D1*
X2988056Y2516756D1*
X2989957Y2509106D1*
X2991902Y2505260D1*
X2995705Y2503358D1*
X2999552D1*
X3003354Y2505260D1*
X3005255Y2511008D1*
Y2518657D1*
X2968954Y2487205D2*
X2967009Y2489106D1*
X2965108Y2487205D1*
X2967009Y2485259D1*
X2968954Y2487205D1*
X2997606Y2472908D2*
X2999552Y2469061D1*
X3005255Y2463313D1*
X2965108D1*
X2962019Y113409D2*
X2965865Y115355D1*
X2971613Y121059D1*
Y80911D1*
X2983965Y113409D2*
X2987812Y115355D1*
X2993560Y121059D1*
Y80911D1*
X3009758Y121059D2*
X3030760D1*
X3019308Y105760D1*
X3025056D1*
X3028859Y103859D1*
X3030760Y101957D1*
X3032706Y96209D1*
Y92407D1*
X3030760Y86659D1*
X3026958Y82812D1*
X3021210Y80911D1*
X3015462D1*
X3009758Y82812D1*
X3007857Y84758D1*
X3005911Y88560D1*
X3046958Y84758D2*
X3045057Y82812D1*
X3046958Y80911D1*
X3048904Y82812D1*
X3046958Y84758D1*
X3063201Y111508D2*
Y113409D1*
X3065102Y117256D1*
X3067003Y119157D1*
X3070850Y121059D1*
X3078499D1*
X3082302Y119157D1*
X3084203Y117256D1*
X3086149Y113409D1*
Y109607D1*
X3084203Y105760D1*
X3080401Y100056D1*
X3061255Y80911D1*
X3088050D1*
M02*
