G04 DipTrace 3.3.1.3*
G04 TopMask.gbr*
%MOIN*%
G04 #@! TF.FileFunction,Soldermask,Top*
G04 #@! TF.Part,Single*
%ADD30C,0.15748*%
%ADD31C,0.153543*%
%ADD37R,0.08662X0.031502*%
%ADD39R,0.059061X0.066935*%
%ADD41C,0.062998*%
%ADD43R,0.062998X0.062998*%
%ADD45C,0.074809*%
%ADD47R,0.074809X0.074809*%
%ADD49R,0.078746X0.070872*%
%ADD51R,0.049219X0.033471*%
%ADD53R,0.066935X0.059061*%
%ADD56C,0.006176*%
%FSLAX26Y26*%
G04*
G70*
G90*
G75*
G01*
G04 TopMask*
%LPD*%
D53*
X506200Y1368700D3*
Y1443503D3*
D51*
X1218700Y1068700D3*
Y1143503D3*
X1128149Y1106102D3*
D49*
X2768700Y981200D3*
Y1091436D3*
D30*
X2774802Y531056D3*
D31*
X531747Y532533D3*
X528407Y2459885D3*
X2775124Y2460364D3*
D47*
X1306200Y1281200D3*
D45*
Y1381200D3*
D47*
X2591598Y579489D3*
D45*
Y479489D3*
X2491598Y579489D3*
Y479489D3*
X2391598Y579489D3*
Y479489D3*
X2291598Y579489D3*
Y479489D3*
X2191598Y579489D3*
Y479489D3*
X2091598Y579489D3*
Y479489D3*
X1991598Y579489D3*
Y479489D3*
X1891598Y579489D3*
Y479489D3*
X1791598Y579489D3*
Y479489D3*
X1691598Y579489D3*
Y479489D3*
X1591598Y579489D3*
Y479489D3*
X1491598Y579489D3*
Y479489D3*
X1391598Y579489D3*
Y479489D3*
X1291598Y579489D3*
Y479489D3*
X1191598Y579489D3*
Y479489D3*
X1091598Y579489D3*
Y479489D3*
X991598Y579489D3*
Y479489D3*
X891598Y579489D3*
Y479489D3*
X791598Y579489D3*
Y479489D3*
X691598Y579489D3*
Y479489D3*
D47*
X1593700Y2193700D3*
D45*
X1493700D3*
X1393700D3*
X1293700D3*
X1193700D3*
X1093700D3*
X993700D3*
X893700D3*
X793700D3*
X693700D3*
D47*
X2493700Y2156200D3*
D45*
Y2256200D3*
D43*
X2168700Y2218700D3*
D41*
X2068700D3*
X1968700D3*
X2168700Y2118700D3*
X2068700D3*
X1968700D3*
D47*
X606200Y1581200D3*
D45*
X506200D3*
D51*
X1218700Y868700D3*
Y943503D3*
X1128149Y906102D3*
D39*
X1243700Y2018700D3*
X1168897D3*
X1243700Y1881200D3*
X1168897D3*
X1243700Y1731200D3*
X1168897D3*
X856397D3*
X931200D3*
X856397Y1881200D3*
X931200D3*
X856397Y2018700D3*
X931200D3*
X656200D3*
X581397D3*
X656200Y1881200D3*
X581397D3*
X656200Y1731200D3*
X581397D3*
X756200Y1281200D3*
X681397D3*
X756200Y1456200D3*
X681397D3*
X756200Y1368700D3*
X681397D3*
D37*
X506200Y993700D3*
Y943700D3*
Y893700D3*
Y843700D3*
X718798D3*
Y893700D3*
Y943700D3*
Y993700D3*
X2869182Y816779D2*
D56*
X2828990D1*
Y793831D1*
X2861488Y781479D2*
X2863434Y777633D1*
X2869137Y771885D1*
X2828990D1*
X2869137Y755687D2*
Y734684D1*
X2853839Y746136D1*
Y740388D1*
X2851937Y736585D1*
X2850036Y734684D1*
X2844288Y732739D1*
X2840486D1*
X2834738Y734684D1*
X2830891Y738487D1*
X2828990Y744235D1*
Y749983D1*
X2830891Y755687D1*
X2832836Y757588D1*
X2836639Y759533D1*
M02*
