G04 DipTrace 3.3.1.3*
G04 TopPaste.gbr*
%MOIN*%
G04 #@! TF.FileFunction,Paste,Top*
G04 #@! TF.Part,Single*
%ADD38R,0.07086X0.015742*%
%ADD40R,0.043301X0.051175*%
%ADD50R,0.062986X0.055112*%
%ADD52R,0.033459X0.017711*%
%ADD54R,0.051175X0.043301*%
%FSLAX26Y26*%
G04*
G70*
G90*
G75*
G01*
G04 TopPaste*
%LPD*%
D54*
X506200Y1368700D3*
Y1443503D3*
D52*
X1218700Y1068700D3*
Y1143503D3*
X1128149Y1106102D3*
D50*
X2768700Y981200D3*
Y1091436D3*
D52*
X1218700Y868700D3*
Y943503D3*
X1128149Y906102D3*
D40*
X1243700Y2018700D3*
X1168897D3*
X1243700Y1881200D3*
X1168897D3*
X1243700Y1731200D3*
X1168897D3*
X856397D3*
X931200D3*
X856397Y1881200D3*
X931200D3*
X856397Y2018700D3*
X931200D3*
X656200D3*
X581397D3*
X656200Y1881200D3*
X581397D3*
X656200Y1731200D3*
X581397D3*
X756200Y1281200D3*
X681397D3*
X756200Y1456200D3*
X681397D3*
X756200Y1368700D3*
X681397D3*
D38*
X506200Y993700D3*
Y943700D3*
Y893700D3*
Y843700D3*
X718798D3*
Y893700D3*
Y943700D3*
Y993700D3*
M02*
