G04 DipTrace 3.3.1.3*
G04 TopSilk.gbr*
%MOIN*%
G04 #@! TF.FileFunction,Legend,Top*
G04 #@! TF.Part,Single*
%ADD10C,0.009843*%
%ADD19C,0.015422*%
%ADD58C,0.004632*%
%ADD59C,0.006176*%
%ADD60C,0.009264*%
%FSLAX26Y26*%
G04*
G70*
G90*
G75*
G01*
G04 TopSilk*
%LPD*%
X606771Y1289840D2*
D10*
X555629D1*
D19*
X1233409Y1037851D3*
X1183267Y1047052D2*
D10*
Y1165157D1*
X1163582D1*
Y1047052D1*
X1183267D1*
X2800165Y1024539D2*
Y1048098D1*
X2737235Y1024539D2*
Y1048098D1*
X2641598Y429489D2*
X641598D1*
Y629489D1*
X2641598D1*
Y429489D1*
X2443700Y2318700D2*
X2543700D1*
Y2118700D1*
X2443700D1*
Y2318700D1*
X2268995Y2293405D2*
X1793405D1*
Y2568995D1*
X2268995D1*
Y2293405D1*
X1256200Y1431200D2*
X1356200D1*
Y1231200D1*
X1256200D1*
Y1431200D1*
X842127Y1413589D2*
X645273D1*
X842127Y1311213D2*
X645273D1*
Y1413589D2*
Y1311213D1*
X842127Y1382095D2*
Y1413589D1*
Y1342706D2*
Y1311213D1*
Y1382095D2*
G03X842127Y1342706I9J-19694D01*
G01*
D19*
X1233409Y837851D3*
X1183267Y847052D2*
D10*
Y965157D1*
X1163582D1*
Y847052D1*
X1183267D1*
X1643720Y2143698D2*
X643680D1*
Y2243700D1*
X1643720D1*
Y2143698D1*
X516704Y1334988D2*
D58*
X515278Y1337840D1*
X512393Y1340725D1*
X509541Y1342151D1*
X503804D1*
X500919Y1340725D1*
X498067Y1337840D1*
X496608Y1334988D1*
X495182Y1330677D1*
Y1323481D1*
X496608Y1319203D1*
X498067Y1316318D1*
X500919Y1313466D1*
X503804Y1312007D1*
X509541D1*
X512393Y1313466D1*
X515278Y1316318D1*
X516704Y1319203D1*
X525967Y1336381D2*
X528852Y1337840D1*
X533163Y1342118D1*
Y1312007D1*
X1143522Y1221591D2*
Y1191447D1*
X1153570D1*
X1157881Y1192906D1*
X1160766Y1195758D1*
X1162192Y1198643D1*
X1163618Y1202920D1*
Y1210117D1*
X1162192Y1214428D1*
X1160766Y1217280D1*
X1157881Y1220165D1*
X1153570Y1221591D1*
X1143522D1*
X1172881Y1215820D2*
X1175767Y1217280D1*
X1180078Y1221557D1*
Y1191447D1*
X2807305Y1179366D2*
X2788635D1*
Y1149222D1*
Y1165007D2*
X2800109D1*
X2816569Y1173596D2*
X2819454Y1175055D1*
X2823765Y1179333D1*
Y1149222D1*
X659097Y673423D2*
Y650475D1*
X657671Y646164D1*
X656212Y644738D1*
X653360Y643279D1*
X650475D1*
X647623Y644738D1*
X646197Y646164D1*
X644738Y650475D1*
Y653327D1*
X669820Y666226D2*
Y667652D1*
X671246Y670537D1*
X672672Y671963D1*
X675557Y673389D1*
X681294D1*
X684146Y671963D1*
X685572Y670537D1*
X687031Y667652D1*
Y664801D1*
X685572Y661915D1*
X682720Y657638D1*
X668361Y643279D1*
X688457D1*
X2397987Y2325134D2*
Y2302186D1*
X2396561Y2297875D1*
X2395102Y2296449D1*
X2392250Y2294990D1*
X2389365D1*
X2386513Y2296449D1*
X2385087Y2297875D1*
X2383628Y2302186D1*
Y2305038D1*
X2421609Y2294990D2*
Y2325101D1*
X2407250Y2305038D1*
X2428772D1*
X1736200Y2562929D2*
Y2539981D1*
X1734774Y2535670D1*
X1733315Y2534244D1*
X1730463Y2532785D1*
X1727578D1*
X1724726Y2534244D1*
X1723300Y2535670D1*
X1721841Y2539981D1*
Y2542833D1*
X1762674Y2562896D2*
X1748348D1*
X1746922Y2549996D1*
X1748348Y2551422D1*
X1752659Y2552881D1*
X1756937D1*
X1761248Y2551422D1*
X1764133Y2548570D1*
X1765559Y2544259D1*
Y2541407D1*
X1764133Y2537096D1*
X1761248Y2534211D1*
X1756937Y2532785D1*
X1752659D1*
X1748348Y2534211D1*
X1746922Y2535670D1*
X1745463Y2538522D1*
X458290Y1617161D2*
Y1587017D1*
X448242Y1617161D2*
X468338D1*
X477602Y1601376D2*
X490535D1*
X494813Y1602802D1*
X496272Y1604261D1*
X497698Y1607113D1*
Y1611424D1*
X496272Y1614276D1*
X494813Y1615735D1*
X490535Y1617161D1*
X477602D1*
Y1587017D1*
X506962Y1611391D2*
X509847Y1612850D1*
X514158Y1617128D1*
Y1587017D1*
X1081571Y2015302D2*
X1094471D1*
X1098782Y2016761D1*
X1100241Y2018187D1*
X1101667Y2021039D1*
Y2023924D1*
X1100241Y2026776D1*
X1098782Y2028235D1*
X1094471Y2029661D1*
X1081571D1*
Y1999517D1*
X1091619Y2015302D2*
X1101667Y1999517D1*
X1112389Y2022465D2*
Y2023891D1*
X1113815Y2026776D1*
X1115241Y2028202D1*
X1118126Y2029628D1*
X1123863D1*
X1126715Y2028202D1*
X1128141Y2026776D1*
X1129600Y2023891D1*
Y2021039D1*
X1128141Y2018154D1*
X1125289Y2013876D1*
X1110930Y1999517D1*
X1131026D1*
X1144071Y1940302D2*
X1156971D1*
X1161282Y1941761D1*
X1162741Y1943187D1*
X1164167Y1946039D1*
Y1948924D1*
X1162741Y1951776D1*
X1161282Y1953235D1*
X1156971Y1954661D1*
X1144071D1*
Y1924517D1*
X1154119Y1940302D2*
X1164167Y1924517D1*
X1176315Y1954628D2*
X1192067D1*
X1183478Y1943154D1*
X1187789D1*
X1190641Y1941728D1*
X1192067Y1940302D1*
X1193526Y1935991D1*
Y1933139D1*
X1192067Y1928828D1*
X1189215Y1925943D1*
X1184904Y1924517D1*
X1180593D1*
X1176315Y1925943D1*
X1174889Y1927402D1*
X1173430Y1930254D1*
X1143358Y1790302D2*
X1156258D1*
X1160569Y1791761D1*
X1162028Y1793187D1*
X1163454Y1796039D1*
Y1798924D1*
X1162028Y1801776D1*
X1160569Y1803235D1*
X1156258Y1804661D1*
X1143358D1*
Y1774517D1*
X1153406Y1790302D2*
X1163454Y1774517D1*
X1187076D2*
Y1804628D1*
X1172717Y1784565D1*
X1194239D1*
X831571Y1790302D2*
X844471D1*
X848782Y1791761D1*
X850241Y1793187D1*
X851667Y1796039D1*
Y1798924D1*
X850241Y1801776D1*
X848782Y1803235D1*
X844471Y1804661D1*
X831571D1*
Y1774517D1*
X841619Y1790302D2*
X851667Y1774517D1*
X878141Y1804628D2*
X863815D1*
X862389Y1791728D1*
X863815Y1793154D1*
X868126Y1794613D1*
X872404D1*
X876715Y1793154D1*
X879600Y1790302D1*
X881026Y1785991D1*
Y1783139D1*
X879600Y1778828D1*
X876715Y1775943D1*
X872404Y1774517D1*
X868126D1*
X863815Y1775943D1*
X862389Y1777402D1*
X860930Y1780254D1*
X832300Y1940302D2*
X845200D1*
X849511Y1941761D1*
X850970Y1943187D1*
X852396Y1946039D1*
Y1948924D1*
X850970Y1951776D1*
X849511Y1953235D1*
X845200Y1954661D1*
X832300D1*
Y1924517D1*
X842348Y1940302D2*
X852396Y1924517D1*
X878871Y1950350D2*
X877445Y1953202D1*
X873134Y1954628D1*
X870282D1*
X865971Y1953202D1*
X863086Y1948891D1*
X861660Y1941728D1*
Y1934565D1*
X863086Y1928828D1*
X865971Y1925943D1*
X870282Y1924517D1*
X871708D1*
X875986Y1925943D1*
X878871Y1928828D1*
X880297Y1933139D1*
Y1934565D1*
X878871Y1938876D1*
X875986Y1941728D1*
X871708Y1943154D1*
X870282D1*
X865971Y1941728D1*
X863086Y1938876D1*
X861660Y1934565D1*
X831571Y2077802D2*
X844471D1*
X848782Y2079261D1*
X850241Y2080687D1*
X851667Y2083539D1*
Y2086424D1*
X850241Y2089276D1*
X848782Y2090735D1*
X844471Y2092161D1*
X831571D1*
Y2062017D1*
X841619Y2077802D2*
X851667Y2062017D1*
X866667D2*
X881026Y2092128D1*
X860930D1*
X519087Y2077802D2*
X531987D1*
X536298Y2079261D1*
X537757Y2080687D1*
X539183Y2083539D1*
Y2086424D1*
X537757Y2089276D1*
X536298Y2090735D1*
X531987Y2092161D1*
X519087D1*
Y2062017D1*
X529135Y2077802D2*
X539183Y2062017D1*
X555610Y2092128D2*
X551332Y2090702D1*
X549873Y2087850D1*
Y2084965D1*
X551332Y2082113D1*
X554184Y2080654D1*
X559921Y2079228D1*
X564232Y2077802D1*
X567084Y2074917D1*
X568510Y2072065D1*
Y2067754D1*
X567084Y2064902D1*
X565658Y2063443D1*
X561347Y2062017D1*
X555610D1*
X551332Y2063443D1*
X549873Y2064902D1*
X548447Y2067754D1*
Y2072065D1*
X549873Y2074917D1*
X552758Y2077802D1*
X557036Y2079228D1*
X562773Y2080654D1*
X565658Y2082113D1*
X567084Y2084965D1*
Y2087850D1*
X565658Y2090702D1*
X561347Y2092128D1*
X555610D1*
X557284Y1940302D2*
X570184D1*
X574495Y1941761D1*
X575954Y1943187D1*
X577380Y1946039D1*
Y1948924D1*
X575954Y1951776D1*
X574495Y1953235D1*
X570184Y1954661D1*
X557284D1*
Y1924517D1*
X567332Y1940302D2*
X577380Y1924517D1*
X605313Y1944613D2*
X603854Y1940302D1*
X601002Y1937417D1*
X596691Y1935991D1*
X595265D1*
X590954Y1937417D1*
X588102Y1940302D1*
X586643Y1944613D1*
Y1946039D1*
X588102Y1950350D1*
X590954Y1953202D1*
X595265Y1954628D1*
X596691D1*
X601002Y1953202D1*
X603854Y1950350D1*
X605313Y1944613D1*
Y1937417D1*
X603854Y1930254D1*
X601002Y1925943D1*
X596691Y1924517D1*
X593839D1*
X589528Y1925943D1*
X588102Y1928828D1*
X535841Y1790302D2*
X548741D1*
X553052Y1791761D1*
X554511Y1793187D1*
X555937Y1796039D1*
Y1798924D1*
X554511Y1801776D1*
X553052Y1803235D1*
X548741Y1804661D1*
X535841D1*
Y1774517D1*
X545889Y1790302D2*
X555937Y1774517D1*
X565200Y1798891D2*
X568085Y1800350D1*
X572396Y1804628D1*
Y1774517D1*
X590282Y1804628D2*
X585971Y1803202D1*
X583086Y1798891D1*
X581660Y1791728D1*
Y1787417D1*
X583086Y1780254D1*
X585971Y1775943D1*
X590282Y1774517D1*
X593134D1*
X597445Y1775943D1*
X600297Y1780254D1*
X601756Y1787417D1*
Y1791728D1*
X600297Y1798891D1*
X597445Y1803202D1*
X593134Y1804628D1*
X590282D1*
X600297Y1798891D2*
X583086Y1780254D1*
X479791Y902802D2*
X492691D1*
X497002Y904261D1*
X498461Y905687D1*
X499887Y908539D1*
Y911424D1*
X498461Y914276D1*
X497002Y915735D1*
X492691Y917161D1*
X479791D1*
Y887017D1*
X489839Y902802D2*
X499887Y887017D1*
X509150Y911391D2*
X512035Y912850D1*
X516346Y917128D1*
Y887017D1*
X525610Y911391D2*
X528495Y912850D1*
X532806Y917128D1*
Y887017D1*
X473341Y1077802D2*
X486241D1*
X490552Y1079261D1*
X492011Y1080687D1*
X493437Y1083539D1*
Y1086424D1*
X492011Y1089276D1*
X490552Y1090735D1*
X486241Y1092161D1*
X473341D1*
Y1062017D1*
X483389Y1077802D2*
X493437Y1062017D1*
X502700Y1086391D2*
X505585Y1087850D1*
X509896Y1092128D1*
Y1062017D1*
X520619Y1084965D2*
Y1086391D1*
X522045Y1089276D1*
X523471Y1090702D1*
X526356Y1092128D1*
X532093D1*
X534945Y1090702D1*
X536371Y1089276D1*
X537830Y1086391D1*
Y1083539D1*
X536371Y1080654D1*
X533519Y1076376D1*
X519160Y1062017D1*
X539256D1*
X473341Y990302D2*
X486241D1*
X490552Y991761D1*
X492011Y993187D1*
X493437Y996039D1*
Y998924D1*
X492011Y1001776D1*
X490552Y1003235D1*
X486241Y1004661D1*
X473341D1*
Y974517D1*
X483389Y990302D2*
X493437Y974517D1*
X502700Y998891D2*
X505585Y1000350D1*
X509896Y1004628D1*
Y974517D1*
X522045Y1004628D2*
X537797D1*
X529208Y993154D1*
X533519D1*
X536371Y991728D1*
X537797Y990302D1*
X539256Y985991D1*
Y983139D1*
X537797Y978828D1*
X534945Y975943D1*
X530634Y974517D1*
X526323D1*
X522045Y975943D1*
X520619Y977402D1*
X519160Y980254D1*
X1342650Y1187634D2*
Y1164686D1*
X1341224Y1160375D1*
X1339765Y1158949D1*
X1336913Y1157490D1*
X1334028D1*
X1331176Y1158949D1*
X1329750Y1160375D1*
X1328291Y1164686D1*
Y1167538D1*
X1351913Y1181864D2*
X1354798Y1183323D1*
X1359109Y1187601D1*
Y1157490D1*
X551840Y1617161D2*
Y1587017D1*
X541792Y1617161D2*
X561888D1*
X571152Y1601376D2*
X584085D1*
X588363Y1602802D1*
X589822Y1604261D1*
X591248Y1607113D1*
Y1611424D1*
X589822Y1614276D1*
X588363Y1615735D1*
X584085Y1617161D1*
X571152D1*
Y1587017D1*
X601971Y1609965D2*
Y1611391D1*
X603397Y1614276D1*
X604823Y1615702D1*
X607708Y1617128D1*
X613445D1*
X616297Y1615702D1*
X617722Y1614276D1*
X619182Y1611391D1*
Y1608539D1*
X617722Y1605654D1*
X614871Y1601376D1*
X600512Y1587017D1*
X620608D1*
X862922Y1414504D2*
Y1392982D1*
X864348Y1388671D1*
X867233Y1385819D1*
X871544Y1384360D1*
X874396D1*
X878707Y1385819D1*
X881592Y1388671D1*
X883018Y1392982D1*
Y1414504D1*
X892282Y1408734D2*
X895167Y1410193D1*
X899478Y1414471D1*
Y1384360D1*
X1163201Y1009091D2*
X1160350Y1007698D1*
X1157464Y1004813D1*
X1156038Y1001928D1*
X1154579Y997617D1*
Y990454D1*
X1156038Y986143D1*
X1157464Y983291D1*
X1160350Y980406D1*
X1163201Y978980D1*
X1168938D1*
X1171823Y980406D1*
X1174675Y983291D1*
X1176101Y986143D1*
X1177560Y990454D1*
Y997617D1*
X1176101Y1001928D1*
X1174675Y1004813D1*
X1171823Y1007698D1*
X1168938Y1009091D1*
X1163201D1*
X1167512Y984717D2*
X1176101Y976095D1*
X1186824Y1003320D2*
X1189709Y1004780D1*
X1194020Y1009057D1*
Y978947D1*
X586200Y2250134D2*
Y2227186D1*
X584774Y2222875D1*
X583315Y2221449D1*
X580463Y2219990D1*
X577578D1*
X574726Y2221449D1*
X573300Y2222875D1*
X571841Y2227186D1*
Y2230038D1*
X598348Y2250101D2*
X614100D1*
X605511Y2238627D1*
X609822D1*
X612674Y2237201D1*
X614100Y2235775D1*
X615559Y2231464D1*
Y2228612D1*
X614100Y2224301D1*
X611248Y2221416D1*
X606937Y2219990D1*
X602626D1*
X598348Y2221416D1*
X596922Y2222875D1*
X595463Y2225727D1*
X954657Y2090619D2*
D59*
X971856D1*
X977605Y2092564D1*
X979550Y2094466D1*
X981451Y2098268D1*
Y2102115D1*
X979550Y2105918D1*
X977605Y2107863D1*
X971856Y2109764D1*
X954657D1*
Y2069572D1*
X968054Y2090619D2*
X981451Y2069572D1*
X1022499Y2100214D2*
X1020597Y2104016D1*
X1016751Y2107863D1*
X1012948Y2109764D1*
X1005299D1*
X1001452Y2107863D1*
X997649Y2104016D1*
X995704Y2100214D1*
X993803Y2094466D1*
Y2084871D1*
X995704Y2079167D1*
X997649Y2075320D1*
X1001452Y2071518D1*
X1005299Y2069572D1*
X1012948D1*
X1016751Y2071518D1*
X1020597Y2075320D1*
X1022499Y2079167D1*
Y2084871D1*
X1012948D1*
X1034850Y2109764D2*
Y2069572D1*
X1052094D1*
X1057842Y2071518D1*
X1059743Y2073419D1*
X1061645Y2077222D1*
Y2082970D1*
X1059743Y2086816D1*
X1057842Y2088718D1*
X1052094Y2090619D1*
X1057842Y2092564D1*
X1059743Y2094466D1*
X1061645Y2098268D1*
Y2102115D1*
X1059743Y2105918D1*
X1057842Y2107863D1*
X1052094Y2109764D1*
X1034850D1*
Y2090619D2*
X1052094D1*
X1112877Y2109764D2*
Y2069572D1*
X1135825D1*
X1173025Y2109764D2*
X1148176D1*
Y2069572D1*
X1173025D1*
X1148176Y2090619D2*
X1163475D1*
X1185377Y2109764D2*
Y2069572D1*
X1198774D1*
X1204522Y2071518D1*
X1208369Y2075320D1*
X1210270Y2079167D1*
X1212171Y2084871D1*
Y2094466D1*
X1210270Y2100214D1*
X1208369Y2104016D1*
X1204522Y2107863D1*
X1198774Y2109764D1*
X1185377D1*
X1292100Y2100214D2*
X1290198Y2104016D1*
X1286352Y2107863D1*
X1282549Y2109764D1*
X1274900D1*
X1271053Y2107863D1*
X1267250Y2104016D1*
X1265305Y2100214D1*
X1263404Y2094466D1*
Y2084871D1*
X1265305Y2079167D1*
X1267250Y2075320D1*
X1271053Y2071518D1*
X1274900Y2069572D1*
X1282549D1*
X1286352Y2071518D1*
X1290198Y2075320D1*
X1292100Y2079167D1*
X1331246Y2109764D2*
Y2069572D1*
X1304451Y2109764D1*
Y2069572D1*
X1356994Y2109764D2*
Y2069572D1*
X1343597Y2109764D2*
X1370392D1*
X2629657Y2238718D2*
X2646901D1*
X2652605Y2240619D1*
X2654550Y2242564D1*
X2656451Y2246367D1*
Y2252115D1*
X2654550Y2255918D1*
X2652605Y2257863D1*
X2646901Y2259764D1*
X2629657D1*
Y2219572D1*
X2668803Y2259764D2*
X2678397Y2219572D1*
X2687948Y2259764D1*
X2697499Y2219572D1*
X2707093Y2259764D1*
X2719445Y2240619D2*
X2736645D1*
X2742393Y2242564D1*
X2744338Y2244466D1*
X2746239Y2248268D1*
Y2252115D1*
X2744338Y2255918D1*
X2742393Y2257863D1*
X2736645Y2259764D1*
X2719445D1*
Y2219572D1*
X2732842Y2240619D2*
X2746239Y2219572D1*
X1267051Y1534766D2*
X1242158D1*
Y1494574D1*
Y1515620D2*
X1257457D1*
X1310044Y1494574D2*
X1294701Y1534766D1*
X1279403Y1494574D1*
X1285151Y1507971D2*
X1304296D1*
X1349190Y1534766D2*
Y1494574D1*
X1322396Y1534766D1*
Y1494574D1*
X1617157Y2484764D2*
Y2444572D1*
X1631454Y2475169D2*
Y2477071D1*
X1633355Y2480918D1*
X1635256Y2482819D1*
X1639103Y2484720D1*
X1646752D1*
X1650555Y2482819D1*
X1652456Y2480918D1*
X1654401Y2477071D1*
Y2473268D1*
X1652456Y2469421D1*
X1648653Y2463718D1*
X1629508Y2444572D1*
X1656303D1*
X1697350Y2475214D2*
X1695449Y2479016D1*
X1691602Y2482863D1*
X1687799Y2484764D1*
X1680150D1*
X1676303Y2482863D1*
X1672501Y2479016D1*
X1670555Y2475214D1*
X1668654Y2469466D1*
Y2459871D1*
X1670555Y2454167D1*
X1672501Y2450320D1*
X1676303Y2446518D1*
X1680150Y2444572D1*
X1687799D1*
X1691602Y2446518D1*
X1695449Y2450320D1*
X1697350Y2454167D1*
X2181770Y2225623D2*
D58*
X2197522D1*
X2188933Y2214149D1*
X2193244D1*
X2196096Y2212723D1*
X2197522Y2211297D1*
X2198981Y2206986D1*
Y2204134D1*
X2197522Y2199823D1*
X2194670Y2196938D1*
X2190359Y2195512D1*
X2186048D1*
X2181770Y2196938D1*
X2180344Y2198397D1*
X2178885Y2201249D1*
X2209670Y2198397D2*
X2208244Y2196938D1*
X2209670Y2195512D1*
X2211129Y2196938D1*
X2209670Y2198397D1*
X2223278Y2225623D2*
X2239030D1*
X2230441Y2214149D1*
X2234752D1*
X2237604Y2212723D1*
X2239030Y2211297D1*
X2240489Y2206986D1*
Y2204134D1*
X2239030Y2199823D1*
X2236178Y2196938D1*
X2231867Y2195512D1*
X2227556D1*
X2223278Y2196938D1*
X2221852Y2198397D1*
X2220393Y2201249D1*
X2249752Y2225656D2*
X2261226Y2195512D1*
X2272700Y2225656D1*
X1771096Y2396345D2*
X1769670Y2399197D1*
X1765359Y2400623D1*
X1762507D1*
X1758196Y2399197D1*
X1755311Y2394886D1*
X1753885Y2387723D1*
Y2380560D1*
X1755311Y2374823D1*
X1758196Y2371938D1*
X1762507Y2370512D1*
X1763933D1*
X1768211Y2371938D1*
X1771096Y2374823D1*
X1772522Y2379134D1*
Y2380560D1*
X1771096Y2384871D1*
X1768211Y2387723D1*
X1763933Y2389149D1*
X1762507D1*
X1758196Y2387723D1*
X1755311Y2384871D1*
X1753885Y2380560D1*
X1185900Y1442825D2*
D59*
Y1408381D1*
X1168700Y1425581D2*
X1203144D1*
X786744Y2538654D2*
D60*
X783893Y2544357D1*
X778122Y2550128D1*
X772419Y2552979D1*
X760945D1*
X755174Y2550128D1*
X749471Y2544357D1*
X746552Y2538654D1*
X743701Y2530032D1*
Y2515639D1*
X746552Y2507084D1*
X749471Y2501314D1*
X755174Y2495610D1*
X760945Y2492691D1*
X772419D1*
X778122Y2495610D1*
X783893Y2501314D1*
X786744Y2507084D1*
X805272Y2552979D2*
Y2492691D1*
X823799Y2532883D2*
Y2504165D1*
X826651Y2495610D1*
X832421Y2492691D1*
X841043D1*
X846747Y2495610D1*
X855369Y2504165D1*
Y2532883D2*
Y2492691D1*
X905466Y2524261D2*
X902614Y2530032D1*
X893992Y2532883D1*
X885370D1*
X876748Y2530032D1*
X873896Y2524261D1*
X876748Y2518558D1*
X882518Y2515639D1*
X896844Y2512787D1*
X902614Y2509936D1*
X905466Y2504165D1*
Y2501314D1*
X902614Y2495610D1*
X893992Y2492691D1*
X885370D1*
X876748Y2495610D1*
X873896Y2501314D1*
X932615Y2552979D2*
Y2504165D1*
X935467Y2495610D1*
X941237Y2492691D1*
X946941D1*
X923993Y2532883D2*
X944089D1*
X965468Y2515639D2*
X999890D1*
Y2521410D1*
X997038Y2527180D1*
X994186Y2530032D1*
X988416Y2532883D1*
X979794D1*
X974090Y2530032D1*
X968320Y2524261D1*
X965468Y2515639D1*
Y2509936D1*
X968320Y2501314D1*
X974090Y2495610D1*
X979794Y2492691D1*
X988416D1*
X994186Y2495610D1*
X999890Y2501314D1*
X1018417Y2532883D2*
Y2492691D1*
Y2515639D2*
X1021335Y2524261D1*
X1027039Y2530032D1*
X1032809Y2532883D1*
X1041431D1*
X1118279Y2552979D2*
Y2492691D1*
X1158471Y2552979D2*
Y2492691D1*
X1118279Y2524261D2*
X1158471D1*
X1222960Y2492691D2*
X1199946Y2552979D1*
X1176998Y2492691D1*
X1185620Y2512787D2*
X1214338D1*
X1261584Y2552979D2*
Y2492691D1*
X1241488Y2552979D2*
X1281680D1*
X1358528D2*
X1381476Y2492691D1*
X1404424Y2552979D1*
X1425869Y2538587D2*
Y2541439D1*
X1428721Y2547209D1*
X1431573Y2550061D1*
X1437343Y2552913D1*
X1448817D1*
X1454521Y2550061D1*
X1457373Y2547209D1*
X1460291Y2541439D1*
Y2535735D1*
X1457373Y2529965D1*
X1451669Y2521410D1*
X1422951Y2492691D1*
X1463143D1*
X1484522Y2498462D2*
X1481670Y2495543D1*
X1484522Y2492691D1*
X1487440Y2495543D1*
X1484522Y2498462D1*
X1523211Y2552913D2*
X1514589Y2550061D1*
X1508819Y2541439D1*
X1505967Y2527113D1*
Y2518491D1*
X1508819Y2504165D1*
X1514589Y2495543D1*
X1523211Y2492691D1*
X1528915D1*
X1537537Y2495543D1*
X1543241Y2504165D1*
X1546159Y2518491D1*
Y2527113D1*
X1543241Y2541439D1*
X1537537Y2550061D1*
X1528915Y2552913D1*
X1523211D1*
X1543241Y2541439D2*
X1508819Y2504165D1*
X2877151Y2278702D2*
D59*
X2880998Y2282504D1*
X2882899Y2288252D1*
Y2295902D1*
X2880998Y2301650D1*
X2877151Y2305497D1*
X2873349D1*
X2869502Y2303551D1*
X2867601Y2301650D1*
X2865700Y2297847D1*
X2861853Y2286351D1*
X2859951Y2282504D1*
X2858006Y2280603D1*
X2854203Y2278702D1*
X2848455D1*
X2844653Y2282504D1*
X2842707Y2288253D1*
Y2295902D1*
X2844653Y2301650D1*
X2848455Y2305497D1*
X2869502Y2266351D2*
X2829310D1*
X2863754D2*
X2867557Y2262504D1*
X2869502Y2258701D1*
Y2252953D1*
X2867557Y2249106D1*
X2863754Y2245304D1*
X2858006Y2243358D1*
X2854159D1*
X2848455Y2245304D1*
X2844609Y2249106D1*
X2842707Y2252953D1*
Y2258701D1*
X2844609Y2262504D1*
X2848455Y2266351D1*
X2869502Y2208059D2*
X2842707D1*
X2863754D2*
X2867601Y2211862D1*
X2869502Y2215708D1*
Y2221412D1*
X2867601Y2225259D1*
X2863754Y2229062D1*
X2858006Y2231007D1*
X2854203D1*
X2848455Y2229062D1*
X2844653Y2225259D1*
X2842707Y2221412D1*
Y2215708D1*
X2844653Y2211862D1*
X2848455Y2208059D1*
X2863754Y2172716D2*
X2867601Y2176562D1*
X2869502Y2180409D1*
Y2186113D1*
X2867601Y2189960D1*
X2863754Y2193762D1*
X2858006Y2195708D1*
X2854203D1*
X2848455Y2193762D1*
X2844653Y2189960D1*
X2842707Y2186113D1*
Y2180409D1*
X2844653Y2176562D1*
X2848455Y2172716D1*
X2858006Y2160364D2*
Y2137416D1*
X2861853D1*
X2865700Y2139318D1*
X2867601Y2141219D1*
X2869502Y2145066D1*
Y2150814D1*
X2867601Y2154616D1*
X2863754Y2158463D1*
X2858006Y2160364D1*
X2854203D1*
X2848455Y2158463D1*
X2844653Y2154616D1*
X2842707Y2150814D1*
Y2145066D1*
X2844653Y2141219D1*
X2848455Y2137416D1*
X2882899Y2125065D2*
X2842707D1*
X2863754D2*
X2867601Y2121218D1*
X2869502Y2117416D1*
Y2111668D1*
X2867601Y2107865D1*
X2863754Y2104018D1*
X2858006Y2102117D1*
X2854203D1*
X2848455Y2104018D1*
X2844653Y2107865D1*
X2842707Y2111668D1*
Y2117416D1*
X2844653Y2121218D1*
X2848455Y2125065D1*
X2869502Y2089766D2*
X2850357D1*
X2844653Y2087864D1*
X2842707Y2084018D1*
Y2078270D1*
X2844653Y2074467D1*
X2850357Y2068719D1*
X2869502D2*
X2842707D1*
X2867601Y2033420D2*
X2836959D1*
X2831256Y2035321D1*
X2829310Y2037222D1*
X2827409Y2041069D1*
Y2046817D1*
X2829310Y2050620D1*
X2861853Y2033420D2*
X2865655Y2037222D1*
X2867601Y2041069D1*
Y2046817D1*
X2865655Y2050620D1*
X2861853Y2054466D1*
X2856105Y2056368D1*
X2852258D1*
X2846554Y2054466D1*
X2842707Y2050620D1*
X2840806Y2046817D1*
Y2041069D1*
X2842707Y2037222D1*
X2846554Y2033420D1*
X2863754Y2000022D2*
X2867601Y2001923D1*
X2869502Y2007671D1*
Y2013419D1*
X2867601Y2019167D1*
X2863754Y2021068D1*
X2859952Y2019167D1*
X2858006Y2015320D1*
X2856105Y2005770D1*
X2854203Y2001923D1*
X2850357Y2000022D1*
X2848455D1*
X2844653Y2001923D1*
X2842707Y2007671D1*
Y2013419D1*
X2844653Y2019167D1*
X2848455Y2021068D1*
X2873305Y1946844D2*
X2875206D1*
X2879053Y1944943D1*
X2880954Y1943041D1*
X2882855Y1939195D1*
Y1931545D1*
X2880954Y1927743D1*
X2879053Y1925842D1*
X2875206Y1923896D1*
X2871403D1*
X2867557Y1925842D1*
X2861853Y1929644D1*
X2842707Y1948789D1*
Y1921995D1*
X2882855Y1886695D2*
Y1905797D1*
X2865655Y1907698D1*
X2867557Y1905797D1*
X2869502Y1900049D1*
Y1894345D1*
X2867557Y1888597D1*
X2863754Y1884750D1*
X2858006Y1882849D1*
X2854204D1*
X2848455Y1884750D1*
X2844609Y1888597D1*
X2842707Y1894345D1*
Y1900049D1*
X2844609Y1905797D1*
X2846554Y1907698D1*
X2850357Y1909643D1*
X2842707Y1870497D2*
X2882855Y1843703D1*
Y1819855D2*
X2880954Y1825603D1*
X2875206Y1829450D1*
X2865655Y1831351D1*
X2859907D1*
X2850357Y1829450D1*
X2844609Y1825603D1*
X2842707Y1819855D1*
Y1816053D1*
X2844609Y1810305D1*
X2850357Y1806502D1*
X2859907Y1804557D1*
X2865655D1*
X2875206Y1806502D1*
X2880954Y1810305D1*
X2882855Y1816053D1*
Y1819855D1*
X2875206Y1806502D2*
X2850357Y1829450D1*
X2869502Y1767312D2*
X2863754Y1769257D1*
X2859907Y1773060D1*
X2858006Y1778808D1*
Y1780709D1*
X2859907Y1786457D1*
X2863754Y1790260D1*
X2869502Y1792205D1*
X2871403D1*
X2877151Y1790260D1*
X2880954Y1786457D1*
X2882855Y1780709D1*
Y1778808D1*
X2880954Y1773060D1*
X2877151Y1769257D1*
X2869502Y1767312D1*
X2859907D1*
X2850357Y1769257D1*
X2844609Y1773060D1*
X2842707Y1778808D1*
Y1782610D1*
X2844609Y1788358D1*
X2848455Y1790260D1*
X2842707Y1754960D2*
X2882855Y1728166D1*
X2873305Y1713869D2*
X2875206D1*
X2879053Y1711968D1*
X2880954Y1710066D1*
X2882855Y1706220D1*
Y1698570D1*
X2880954Y1694768D1*
X2879053Y1692866D1*
X2875206Y1690921D1*
X2871403D1*
X2867557Y1692866D1*
X2861853Y1696669D1*
X2842707Y1715814D1*
Y1689020D1*
X2882855Y1665172D2*
X2880954Y1670920D1*
X2875206Y1674767D1*
X2865655Y1676668D1*
X2859907D1*
X2850357Y1674767D1*
X2844609Y1670920D1*
X2842707Y1665172D1*
Y1661370D1*
X2844609Y1655622D1*
X2850357Y1651819D1*
X2859907Y1649874D1*
X2865655D1*
X2875206Y1651819D1*
X2880954Y1655622D1*
X2882855Y1661370D1*
Y1665172D1*
X2875206Y1651819D2*
X2850357Y1674767D1*
X1666385Y2269886D2*
D58*
X1669270Y2271345D1*
X1673581Y2275623D1*
Y2245512D1*
X2852039Y1102151D2*
X2854891Y1103577D1*
X2856317Y1107888D1*
Y1110740D1*
X2854891Y1115051D1*
X2850580Y1117936D1*
X2843417Y1119362D1*
X2836254D1*
X2830517Y1117936D1*
X2827632Y1115051D1*
X2826206Y1110740D1*
Y1109314D1*
X2827632Y1105036D1*
X2830517Y1102151D1*
X2834828Y1100725D1*
X2836254D1*
X2840565Y1102151D1*
X2843417Y1105036D1*
X2844843Y1109314D1*
Y1110740D1*
X2843417Y1115051D1*
X2840565Y1117936D1*
X2836254Y1119362D1*
X2856317Y1088576D2*
Y1072824D1*
X2844843Y1081413D1*
Y1077102D1*
X2843417Y1074250D1*
X2841991Y1072824D1*
X2837680Y1071365D1*
X2834828D1*
X2830517Y1072824D1*
X2827632Y1075676D1*
X2826206Y1079987D1*
Y1084298D1*
X2827632Y1088576D1*
X2829091Y1090002D1*
X2831943Y1091461D1*
X2856350Y1062102D2*
X2826206Y1050628D1*
X2856350Y1039154D1*
X2826206Y1029890D2*
X2856317Y1009794D1*
X2849154Y999072D2*
X2850580D1*
X2853465Y997646D1*
X2854891Y996220D1*
X2856317Y993335D1*
Y987598D1*
X2854891Y984746D1*
X2853465Y983320D1*
X2850580Y981861D1*
X2847728D1*
X2844843Y983320D1*
X2840565Y986172D1*
X2826206Y1000531D1*
Y980435D1*
Y948190D2*
X2856350Y959697D1*
X2826206Y971171D1*
X2836254Y966860D2*
Y952501D1*
X2596856Y2331868D2*
D59*
Y2297424D1*
X2579657Y2314624D2*
X2614101D1*
X1720853Y2212714D2*
X1718951Y2216516D1*
X1715105Y2220363D1*
X1711302Y2222264D1*
X1703653D1*
X1699806Y2220363D1*
X1696003Y2216516D1*
X1694058Y2212714D1*
X1692157Y2206966D1*
Y2197371D1*
X1694058Y2191667D1*
X1696003Y2187820D1*
X1699806Y2184018D1*
X1703653Y2182072D1*
X1711302D1*
X1715105Y2184018D1*
X1718951Y2187820D1*
X1720853Y2191667D1*
Y2197371D1*
X1711302D1*
X1759999Y2222264D2*
Y2182072D1*
X1733204Y2222264D1*
Y2182072D1*
X1772350Y2222264D2*
Y2182072D1*
X1785747D1*
X1791495Y2184018D1*
X1795342Y2187820D1*
X1797243Y2191667D1*
X1799145Y2197371D1*
Y2206966D1*
X1797243Y2212714D1*
X1795342Y2216516D1*
X1791495Y2220363D1*
X1785747Y2222264D1*
X1772350D1*
M02*
