G04 DipTrace 3.3.1.3*
G04 TopSilk.gbr*
%MOIN*%
G04 #@! TF.FileFunction,Legend,Top*
G04 #@! TF.Part,Single*
%ADD10C,0.009843*%
%ADD19C,0.015422*%
%ADD55C,0.004632*%
%ADD56C,0.006176*%
%ADD57C,0.009264*%
%FSLAX26Y26*%
G04*
G70*
G90*
G75*
G01*
G04 TopSilk*
%LPD*%
X531771Y1327340D2*
D10*
X480629D1*
D19*
X1233409Y1037851D3*
X1183267Y1047052D2*
D10*
Y1165157D1*
X1163582D1*
Y1047052D1*
X1183267D1*
X2800165Y1024539D2*
Y1048098D1*
X2737235Y1024539D2*
Y1048098D1*
X1256200Y1431200D2*
X1356200D1*
Y1231200D1*
X1256200D1*
Y1431200D1*
X2641598Y429489D2*
X641598D1*
Y629489D1*
X2641598D1*
Y429489D1*
X1643720Y2143698D2*
X643680D1*
Y2243700D1*
X1643720D1*
Y2143698D1*
X2443700Y2306200D2*
X2543700D1*
Y2106200D1*
X2443700D1*
Y2306200D1*
X2306495Y2030905D2*
X1830905D1*
Y2306495D1*
X2306495D1*
Y2030905D1*
X456200Y1531200D2*
X656200D1*
Y1631200D1*
X456200D1*
Y1531200D1*
D19*
X1233409Y837851D3*
X1183267Y847052D2*
D10*
Y965157D1*
X1163582D1*
Y847052D1*
X1183267D1*
X561311Y1017127D2*
Y820273D1*
X663687Y1017127D2*
Y820273D1*
X561311D2*
X663687D1*
X592805Y1017127D2*
X561311D1*
X632194D2*
X663687D1*
X592805D2*
G03X632194Y1017127I19694J9D01*
G01*
X504204Y1309988D2*
D55*
X502778Y1312840D1*
X499893Y1315725D1*
X497041Y1317151D1*
X491304D1*
X488419Y1315725D1*
X485567Y1312840D1*
X484108Y1309988D1*
X482682Y1305677D1*
Y1298481D1*
X484108Y1294203D1*
X485567Y1291318D1*
X488419Y1288466D1*
X491304Y1287007D1*
X497041D1*
X499893Y1288466D1*
X502778Y1291318D1*
X504204Y1294203D1*
X513467Y1311381D2*
X516352Y1312840D1*
X520663Y1317118D1*
Y1287007D1*
X1143522Y1221591D2*
Y1191447D1*
X1153570D1*
X1157881Y1192906D1*
X1160766Y1195758D1*
X1162192Y1198643D1*
X1163618Y1202920D1*
Y1210117D1*
X1162192Y1214428D1*
X1160766Y1217280D1*
X1157881Y1220165D1*
X1153570Y1221591D1*
X1143522D1*
X1172881Y1215820D2*
X1175767Y1217280D1*
X1180078Y1221557D1*
Y1191447D1*
X2807305Y1179366D2*
X2788635D1*
Y1149222D1*
Y1165007D2*
X2800109D1*
X2816569Y1173596D2*
X2819454Y1175055D1*
X2823765Y1179333D1*
Y1149222D1*
X1342650Y1187634D2*
Y1164686D1*
X1341224Y1160375D1*
X1339765Y1158949D1*
X1336913Y1157490D1*
X1334028D1*
X1331176Y1158949D1*
X1329750Y1160375D1*
X1328291Y1164686D1*
Y1167538D1*
X1351913Y1181864D2*
X1354798Y1183323D1*
X1359109Y1187601D1*
Y1157490D1*
X659097Y673423D2*
Y650475D1*
X657671Y646164D1*
X656212Y644738D1*
X653360Y643279D1*
X650475D1*
X647623Y644738D1*
X646197Y646164D1*
X644738Y650475D1*
Y653327D1*
X669820Y666226D2*
Y667652D1*
X671246Y670537D1*
X672672Y671963D1*
X675557Y673389D1*
X681294D1*
X684146Y671963D1*
X685572Y670537D1*
X687031Y667652D1*
Y664801D1*
X685572Y661915D1*
X682720Y657638D1*
X668361Y643279D1*
X688457D1*
X586200Y2250134D2*
Y2227186D1*
X584774Y2222875D1*
X583315Y2221449D1*
X580463Y2219990D1*
X577578D1*
X574726Y2221449D1*
X573300Y2222875D1*
X571841Y2227186D1*
Y2230038D1*
X598348Y2250101D2*
X614100D1*
X605511Y2238627D1*
X609822D1*
X612674Y2237201D1*
X614100Y2235775D1*
X615559Y2231464D1*
Y2228612D1*
X614100Y2224301D1*
X611248Y2221416D1*
X606937Y2219990D1*
X602626D1*
X598348Y2221416D1*
X596922Y2222875D1*
X595463Y2225727D1*
X2397987Y2312634D2*
Y2289686D1*
X2396561Y2285375D1*
X2395102Y2283949D1*
X2392250Y2282490D1*
X2389365D1*
X2386513Y2283949D1*
X2385087Y2285375D1*
X2383628Y2289686D1*
Y2292538D1*
X2421609Y2282490D2*
Y2312601D1*
X2407250Y2292538D1*
X2428772D1*
X1773700Y2300429D2*
Y2277481D1*
X1772274Y2273170D1*
X1770815Y2271744D1*
X1767963Y2270285D1*
X1765078D1*
X1762226Y2271744D1*
X1760800Y2273170D1*
X1759341Y2277481D1*
Y2280333D1*
X1800174Y2300396D2*
X1785848D1*
X1784422Y2287496D1*
X1785848Y2288922D1*
X1790159Y2290381D1*
X1794437D1*
X1798748Y2288922D1*
X1801633Y2286070D1*
X1803059Y2281759D1*
Y2278907D1*
X1801633Y2274596D1*
X1798748Y2271711D1*
X1794437Y2270285D1*
X1790159D1*
X1785848Y2271711D1*
X1784422Y2273170D1*
X1782963Y2276022D1*
X461929Y1675134D2*
Y1652186D1*
X460503Y1647875D1*
X459044Y1646449D1*
X456192Y1644990D1*
X453307D1*
X450455Y1646449D1*
X449029Y1647875D1*
X447570Y1652186D1*
Y1655038D1*
X488404Y1670823D2*
X486978Y1673675D1*
X482667Y1675101D1*
X479815D1*
X475504Y1673675D1*
X472619Y1669364D1*
X471193Y1662201D1*
Y1655038D1*
X472619Y1649301D1*
X475504Y1646416D1*
X479815Y1644990D1*
X481241D1*
X485519Y1646416D1*
X488404Y1649301D1*
X489830Y1653612D1*
Y1655038D1*
X488404Y1659349D1*
X485519Y1662201D1*
X481241Y1663627D1*
X479815D1*
X475504Y1662201D1*
X472619Y1659349D1*
X471193Y1655038D1*
X1163201Y1009091D2*
X1160350Y1007698D1*
X1157464Y1004813D1*
X1156038Y1001928D1*
X1154579Y997617D1*
Y990454D1*
X1156038Y986143D1*
X1157464Y983291D1*
X1160350Y980406D1*
X1163201Y978980D1*
X1168938D1*
X1171823Y980406D1*
X1174675Y983291D1*
X1176101Y986143D1*
X1177560Y990454D1*
Y997617D1*
X1176101Y1001928D1*
X1174675Y1004813D1*
X1171823Y1007698D1*
X1168938Y1009091D1*
X1163201D1*
X1167512Y984717D2*
X1176101Y976095D1*
X1186824Y1003320D2*
X1189709Y1004780D1*
X1194020Y1009057D1*
Y978947D1*
X1081571Y2015302D2*
X1094471D1*
X1098782Y2016761D1*
X1100241Y2018187D1*
X1101667Y2021039D1*
Y2023924D1*
X1100241Y2026776D1*
X1098782Y2028235D1*
X1094471Y2029661D1*
X1081571D1*
Y1999517D1*
X1091619Y2015302D2*
X1101667Y1999517D1*
X1112389Y2022465D2*
Y2023891D1*
X1113815Y2026776D1*
X1115241Y2028202D1*
X1118126Y2029628D1*
X1123863D1*
X1126715Y2028202D1*
X1128141Y2026776D1*
X1129600Y2023891D1*
Y2021039D1*
X1128141Y2018154D1*
X1125289Y2013876D1*
X1110930Y1999517D1*
X1131026D1*
X1144071Y1940302D2*
X1156971D1*
X1161282Y1941761D1*
X1162741Y1943187D1*
X1164167Y1946039D1*
Y1948924D1*
X1162741Y1951776D1*
X1161282Y1953235D1*
X1156971Y1954661D1*
X1144071D1*
Y1924517D1*
X1154119Y1940302D2*
X1164167Y1924517D1*
X1176315Y1954628D2*
X1192067D1*
X1183478Y1943154D1*
X1187789D1*
X1190641Y1941728D1*
X1192067Y1940302D1*
X1193526Y1935991D1*
Y1933139D1*
X1192067Y1928828D1*
X1189215Y1925943D1*
X1184904Y1924517D1*
X1180593D1*
X1176315Y1925943D1*
X1174889Y1927402D1*
X1173430Y1930254D1*
X1143358Y1790302D2*
X1156258D1*
X1160569Y1791761D1*
X1162028Y1793187D1*
X1163454Y1796039D1*
Y1798924D1*
X1162028Y1801776D1*
X1160569Y1803235D1*
X1156258Y1804661D1*
X1143358D1*
Y1774517D1*
X1153406Y1790302D2*
X1163454Y1774517D1*
X1187076D2*
Y1804628D1*
X1172717Y1784565D1*
X1194239D1*
X831571Y1790302D2*
X844471D1*
X848782Y1791761D1*
X850241Y1793187D1*
X851667Y1796039D1*
Y1798924D1*
X850241Y1801776D1*
X848782Y1803235D1*
X844471Y1804661D1*
X831571D1*
Y1774517D1*
X841619Y1790302D2*
X851667Y1774517D1*
X878141Y1804628D2*
X863815D1*
X862389Y1791728D1*
X863815Y1793154D1*
X868126Y1794613D1*
X872404D1*
X876715Y1793154D1*
X879600Y1790302D1*
X881026Y1785991D1*
Y1783139D1*
X879600Y1778828D1*
X876715Y1775943D1*
X872404Y1774517D1*
X868126D1*
X863815Y1775943D1*
X862389Y1777402D1*
X860930Y1780254D1*
X832300Y1940302D2*
X845200D1*
X849511Y1941761D1*
X850970Y1943187D1*
X852396Y1946039D1*
Y1948924D1*
X850970Y1951776D1*
X849511Y1953235D1*
X845200Y1954661D1*
X832300D1*
Y1924517D1*
X842348Y1940302D2*
X852396Y1924517D1*
X878871Y1950350D2*
X877445Y1953202D1*
X873134Y1954628D1*
X870282D1*
X865971Y1953202D1*
X863086Y1948891D1*
X861660Y1941728D1*
Y1934565D1*
X863086Y1928828D1*
X865971Y1925943D1*
X870282Y1924517D1*
X871708D1*
X875986Y1925943D1*
X878871Y1928828D1*
X880297Y1933139D1*
Y1934565D1*
X878871Y1938876D1*
X875986Y1941728D1*
X871708Y1943154D1*
X870282D1*
X865971Y1941728D1*
X863086Y1938876D1*
X861660Y1934565D1*
X831571Y2077802D2*
X844471D1*
X848782Y2079261D1*
X850241Y2080687D1*
X851667Y2083539D1*
Y2086424D1*
X850241Y2089276D1*
X848782Y2090735D1*
X844471Y2092161D1*
X831571D1*
Y2062017D1*
X841619Y2077802D2*
X851667Y2062017D1*
X866667D2*
X881026Y2092128D1*
X860930D1*
X519087Y2077802D2*
X531987D1*
X536298Y2079261D1*
X537757Y2080687D1*
X539183Y2083539D1*
Y2086424D1*
X537757Y2089276D1*
X536298Y2090735D1*
X531987Y2092161D1*
X519087D1*
Y2062017D1*
X529135Y2077802D2*
X539183Y2062017D1*
X555610Y2092128D2*
X551332Y2090702D1*
X549873Y2087850D1*
Y2084965D1*
X551332Y2082113D1*
X554184Y2080654D1*
X559921Y2079228D1*
X564232Y2077802D1*
X567084Y2074917D1*
X568510Y2072065D1*
Y2067754D1*
X567084Y2064902D1*
X565658Y2063443D1*
X561347Y2062017D1*
X555610D1*
X551332Y2063443D1*
X549873Y2064902D1*
X548447Y2067754D1*
Y2072065D1*
X549873Y2074917D1*
X552758Y2077802D1*
X557036Y2079228D1*
X562773Y2080654D1*
X565658Y2082113D1*
X567084Y2084965D1*
Y2087850D1*
X565658Y2090702D1*
X561347Y2092128D1*
X555610D1*
X557284Y1940302D2*
X570184D1*
X574495Y1941761D1*
X575954Y1943187D1*
X577380Y1946039D1*
Y1948924D1*
X575954Y1951776D1*
X574495Y1953235D1*
X570184Y1954661D1*
X557284D1*
Y1924517D1*
X567332Y1940302D2*
X577380Y1924517D1*
X605313Y1944613D2*
X603854Y1940302D1*
X601002Y1937417D1*
X596691Y1935991D1*
X595265D1*
X590954Y1937417D1*
X588102Y1940302D1*
X586643Y1944613D1*
Y1946039D1*
X588102Y1950350D1*
X590954Y1953202D1*
X595265Y1954628D1*
X596691D1*
X601002Y1953202D1*
X603854Y1950350D1*
X605313Y1944613D1*
Y1937417D1*
X603854Y1930254D1*
X601002Y1925943D1*
X596691Y1924517D1*
X593839D1*
X589528Y1925943D1*
X588102Y1928828D1*
X535841Y1790302D2*
X548741D1*
X553052Y1791761D1*
X554511Y1793187D1*
X555937Y1796039D1*
Y1798924D1*
X554511Y1801776D1*
X553052Y1803235D1*
X548741Y1804661D1*
X535841D1*
Y1774517D1*
X545889Y1790302D2*
X555937Y1774517D1*
X565200Y1798891D2*
X568085Y1800350D1*
X572396Y1804628D1*
Y1774517D1*
X590282Y1804628D2*
X585971Y1803202D1*
X583086Y1798891D1*
X581660Y1791728D1*
Y1787417D1*
X583086Y1780254D1*
X585971Y1775943D1*
X590282Y1774517D1*
X593134D1*
X597445Y1775943D1*
X600297Y1780254D1*
X601756Y1787417D1*
Y1791728D1*
X600297Y1798891D1*
X597445Y1803202D1*
X593134Y1804628D1*
X590282D1*
X600297Y1798891D2*
X583086Y1780254D1*
X579791Y1277802D2*
X592691D1*
X597002Y1279261D1*
X598461Y1280687D1*
X599887Y1283539D1*
Y1286424D1*
X598461Y1289276D1*
X597002Y1290735D1*
X592691Y1292161D1*
X579791D1*
Y1262017D1*
X589839Y1277802D2*
X599887Y1262017D1*
X609150Y1286391D2*
X612035Y1287850D1*
X616346Y1292128D1*
Y1262017D1*
X625610Y1286391D2*
X628495Y1287850D1*
X632806Y1292128D1*
Y1262017D1*
X710841Y1515302D2*
X723741D1*
X728052Y1516761D1*
X729511Y1518187D1*
X730937Y1521039D1*
Y1523924D1*
X729511Y1526776D1*
X728052Y1528235D1*
X723741Y1529661D1*
X710841D1*
Y1499517D1*
X720889Y1515302D2*
X730937Y1499517D1*
X740200Y1523891D2*
X743085Y1525350D1*
X747396Y1529628D1*
Y1499517D1*
X758119Y1522465D2*
Y1523891D1*
X759545Y1526776D1*
X760971Y1528202D1*
X763856Y1529628D1*
X769593D1*
X772445Y1528202D1*
X773871Y1526776D1*
X775330Y1523891D1*
Y1521039D1*
X773871Y1518154D1*
X771019Y1513876D1*
X756660Y1499517D1*
X776756D1*
X573341Y1365302D2*
X586241D1*
X590552Y1366761D1*
X592011Y1368187D1*
X593437Y1371039D1*
Y1373924D1*
X592011Y1376776D1*
X590552Y1378235D1*
X586241Y1379661D1*
X573341D1*
Y1349517D1*
X583389Y1365302D2*
X593437Y1349517D1*
X602700Y1373891D2*
X605585Y1375350D1*
X609896Y1379628D1*
Y1349517D1*
X622045Y1379628D2*
X637797D1*
X629208Y1368154D1*
X633519D1*
X636371Y1366728D1*
X637797Y1365302D1*
X639256Y1360991D1*
Y1358139D1*
X637797Y1353828D1*
X634945Y1350943D1*
X630634Y1349517D1*
X626323D1*
X622045Y1350943D1*
X620619Y1352402D1*
X619160Y1355254D1*
X594221Y798561D2*
Y777039D1*
X595647Y772728D1*
X598532Y769876D1*
X602843Y768417D1*
X605695D1*
X610006Y769876D1*
X612891Y772728D1*
X614317Y777039D1*
Y798561D1*
X623581Y792791D2*
X626466Y794250D1*
X630777Y798528D1*
Y768417D1*
X954657Y2090619D2*
D56*
X971856D1*
X977605Y2092564D1*
X979550Y2094466D1*
X981451Y2098268D1*
Y2102115D1*
X979550Y2105918D1*
X977605Y2107863D1*
X971856Y2109764D1*
X954657D1*
Y2069572D1*
X968054Y2090619D2*
X981451Y2069572D1*
X1022499Y2100214D2*
X1020597Y2104016D1*
X1016751Y2107863D1*
X1012948Y2109764D1*
X1005299D1*
X1001452Y2107863D1*
X997649Y2104016D1*
X995704Y2100214D1*
X993803Y2094466D1*
Y2084871D1*
X995704Y2079167D1*
X997649Y2075320D1*
X1001452Y2071518D1*
X1005299Y2069572D1*
X1012948D1*
X1016751Y2071518D1*
X1020597Y2075320D1*
X1022499Y2079167D1*
Y2084871D1*
X1012948D1*
X1034850Y2109764D2*
Y2069572D1*
X1052094D1*
X1057842Y2071518D1*
X1059743Y2073419D1*
X1061645Y2077222D1*
Y2082970D1*
X1059743Y2086816D1*
X1057842Y2088718D1*
X1052094Y2090619D1*
X1057842Y2092564D1*
X1059743Y2094466D1*
X1061645Y2098268D1*
Y2102115D1*
X1059743Y2105918D1*
X1057842Y2107863D1*
X1052094Y2109764D1*
X1034850D1*
Y2090619D2*
X1052094D1*
X1112877Y2109764D2*
Y2069572D1*
X1135825D1*
X1173025Y2109764D2*
X1148176D1*
Y2069572D1*
X1173025D1*
X1148176Y2090619D2*
X1163475D1*
X1185377Y2109764D2*
Y2069572D1*
X1198774D1*
X1204522Y2071518D1*
X1208369Y2075320D1*
X1210270Y2079167D1*
X1212171Y2084871D1*
Y2094466D1*
X1210270Y2100214D1*
X1208369Y2104016D1*
X1204522Y2107863D1*
X1198774Y2109764D1*
X1185377D1*
X1292100Y2100214D2*
X1290198Y2104016D1*
X1286352Y2107863D1*
X1282549Y2109764D1*
X1274900D1*
X1271053Y2107863D1*
X1267250Y2104016D1*
X1265305Y2100214D1*
X1263404Y2094466D1*
Y2084871D1*
X1265305Y2079167D1*
X1267250Y2075320D1*
X1271053Y2071518D1*
X1274900Y2069572D1*
X1282549D1*
X1286352Y2071518D1*
X1290198Y2075320D1*
X1292100Y2079167D1*
X1331246Y2109764D2*
Y2069572D1*
X1304451Y2109764D1*
Y2069572D1*
X1356994Y2109764D2*
Y2069572D1*
X1343597Y2109764D2*
X1370392D1*
X2529657Y2401218D2*
X2546901D1*
X2552605Y2403119D1*
X2554550Y2405064D1*
X2556451Y2408867D1*
Y2414615D1*
X2554550Y2418418D1*
X2552605Y2420363D1*
X2546901Y2422264D1*
X2529657D1*
Y2382072D1*
X2568803Y2422264D2*
X2578397Y2382072D1*
X2587948Y2422264D1*
X2597499Y2382072D1*
X2607093Y2422264D1*
X2619445Y2403119D2*
X2636645D1*
X2642393Y2405064D1*
X2644338Y2406966D1*
X2646239Y2410768D1*
Y2414615D1*
X2644338Y2418418D1*
X2642393Y2420363D1*
X2636645Y2422264D1*
X2619445D1*
Y2382072D1*
X2632842Y2403119D2*
X2646239Y2382072D1*
X1292051Y1572266D2*
X1267158D1*
Y1532074D1*
Y1553120D2*
X1282457D1*
X1335044Y1532074D2*
X1319701Y1572266D1*
X1304403Y1532074D1*
X1310151Y1545471D2*
X1329296D1*
X1374190Y1572266D2*
Y1532074D1*
X1347396Y1572266D1*
Y1532074D1*
X1617157Y2484764D2*
Y2444572D1*
X1631454Y2475169D2*
Y2477071D1*
X1633355Y2480918D1*
X1635256Y2482819D1*
X1639103Y2484720D1*
X1646752D1*
X1650555Y2482819D1*
X1652456Y2480918D1*
X1654401Y2477071D1*
Y2473268D1*
X1652456Y2469421D1*
X1648653Y2463718D1*
X1629508Y2444572D1*
X1656303D1*
X1697350Y2475214D2*
X1695449Y2479016D1*
X1691602Y2482863D1*
X1687799Y2484764D1*
X1680150D1*
X1676303Y2482863D1*
X1672501Y2479016D1*
X1670555Y2475214D1*
X1668654Y2469466D1*
Y2459871D1*
X1670555Y2454167D1*
X1672501Y2450320D1*
X1676303Y2446518D1*
X1680150Y2444572D1*
X1687799D1*
X1691602Y2446518D1*
X1695449Y2450320D1*
X1697350Y2454167D1*
X1505744Y550656D2*
D55*
Y527708D1*
X1504318Y523397D1*
X1502859Y521971D1*
X1500007Y520512D1*
X1497122D1*
X1494270Y521971D1*
X1492844Y523397D1*
X1491385Y527708D1*
Y530560D1*
X1515007Y550656D2*
Y520512D1*
X1532218D1*
X1563004Y543493D2*
X1561578Y546345D1*
X1558693Y549230D1*
X1555841Y550656D1*
X1550104D1*
X1547219Y549230D1*
X1544367Y546345D1*
X1542908Y543493D1*
X1541482Y539182D1*
Y531986D1*
X1542908Y527708D1*
X1544367Y524823D1*
X1547219Y521971D1*
X1550104Y520512D1*
X1555841D1*
X1558693Y521971D1*
X1561578Y524823D1*
X1563004Y527708D1*
X1586626Y550656D2*
Y527708D1*
X1585200Y523397D1*
X1583741Y521971D1*
X1580889Y520512D1*
X1578004D1*
X1575152Y521971D1*
X1573726Y523397D1*
X1572267Y527708D1*
Y530560D1*
X1595890Y550656D2*
Y520512D1*
X1613101D1*
X1643886Y543493D2*
X1642460Y546345D1*
X1639575Y549230D1*
X1636723Y550656D1*
X1630986D1*
X1628101Y549230D1*
X1625249Y546345D1*
X1623790Y543493D1*
X1622364Y539182D1*
Y531986D1*
X1623790Y527708D1*
X1625249Y524823D1*
X1628101Y521971D1*
X1630986Y520512D1*
X1636723D1*
X1639575Y521971D1*
X1642460Y524823D1*
X1643886Y527708D1*
X1667509Y550656D2*
Y527708D1*
X1666083Y523397D1*
X1664624Y521971D1*
X1661772Y520512D1*
X1658887D1*
X1656035Y521971D1*
X1654609Y523397D1*
X1653150Y527708D1*
Y530560D1*
X1676772Y550656D2*
Y520512D1*
X1693983D1*
X1724769Y543493D2*
X1723343Y546345D1*
X1720458Y549230D1*
X1717606Y550656D1*
X1711869D1*
X1708984Y549230D1*
X1706132Y546345D1*
X1704673Y543493D1*
X1703247Y539182D1*
Y531986D1*
X1704673Y527708D1*
X1706132Y524823D1*
X1708984Y521971D1*
X1711869Y520512D1*
X1717606D1*
X1720458Y521971D1*
X1723343Y524823D1*
X1724769Y527708D1*
X1748391Y550656D2*
Y527708D1*
X1746965Y523397D1*
X1745506Y521971D1*
X1742654Y520512D1*
X1739769D1*
X1736917Y521971D1*
X1735491Y523397D1*
X1734032Y527708D1*
Y530560D1*
X1757655Y550656D2*
Y520512D1*
X1774866D1*
X1805651Y543493D2*
X1804225Y546345D1*
X1801340Y549230D1*
X1798488Y550656D1*
X1792751D1*
X1789866Y549230D1*
X1787014Y546345D1*
X1785555Y543493D1*
X1784129Y539182D1*
Y531986D1*
X1785555Y527708D1*
X1787014Y524823D1*
X1789866Y521971D1*
X1792751Y520512D1*
X1798488D1*
X1801340Y521971D1*
X1804225Y524823D1*
X1805651Y527708D1*
X2219270Y2013123D2*
X2235022D1*
X2226433Y2001649D1*
X2230744D1*
X2233596Y2000223D1*
X2235022Y1998797D1*
X2236481Y1994486D1*
Y1991634D1*
X2235022Y1987323D1*
X2232170Y1984438D1*
X2227859Y1983012D1*
X2223548D1*
X2219270Y1984438D1*
X2217844Y1985897D1*
X2216385Y1988749D1*
X2247170Y1985897D2*
X2245744Y1984438D1*
X2247170Y1983012D1*
X2248629Y1984438D1*
X2247170Y1985897D1*
X2260778Y2013123D2*
X2276530D1*
X2267941Y2001649D1*
X2272252D1*
X2275104Y2000223D1*
X2276530Y1998797D1*
X2277989Y1994486D1*
Y1991634D1*
X2276530Y1987323D1*
X2273678Y1984438D1*
X2269367Y1983012D1*
X2265056D1*
X2260778Y1984438D1*
X2259352Y1985897D1*
X2257893Y1988749D1*
X2287252Y2013156D2*
X2298726Y1983012D1*
X2310200Y2013156D1*
X1796096Y2121345D2*
X1794670Y2124197D1*
X1790359Y2125623D1*
X1787507D1*
X1783196Y2124197D1*
X1780311Y2119886D1*
X1778885Y2112723D1*
Y2105560D1*
X1780311Y2099823D1*
X1783196Y2096938D1*
X1787507Y2095512D1*
X1788933D1*
X1793211Y2096938D1*
X1796096Y2099823D1*
X1797522Y2104134D1*
Y2105560D1*
X1796096Y2109871D1*
X1793211Y2112723D1*
X1788933Y2114149D1*
X1787507D1*
X1783196Y2112723D1*
X1780311Y2109871D1*
X1778885Y2105560D1*
X1360900Y1492825D2*
D56*
Y1458381D1*
X1343700Y1475581D2*
X1378144D1*
X786744Y2538654D2*
D57*
X783893Y2544357D1*
X778122Y2550128D1*
X772419Y2552979D1*
X760945D1*
X755174Y2550128D1*
X749471Y2544357D1*
X746552Y2538654D1*
X743701Y2530032D1*
Y2515639D1*
X746552Y2507084D1*
X749471Y2501314D1*
X755174Y2495610D1*
X760945Y2492691D1*
X772419D1*
X778122Y2495610D1*
X783893Y2501314D1*
X786744Y2507084D1*
X805272Y2552979D2*
Y2492691D1*
X823799Y2532883D2*
Y2504165D1*
X826651Y2495610D1*
X832421Y2492691D1*
X841043D1*
X846747Y2495610D1*
X855369Y2504165D1*
Y2532883D2*
Y2492691D1*
X905466Y2524261D2*
X902614Y2530032D1*
X893992Y2532883D1*
X885370D1*
X876748Y2530032D1*
X873896Y2524261D1*
X876748Y2518558D1*
X882518Y2515639D1*
X896844Y2512787D1*
X902614Y2509936D1*
X905466Y2504165D1*
Y2501314D1*
X902614Y2495610D1*
X893992Y2492691D1*
X885370D1*
X876748Y2495610D1*
X873896Y2501314D1*
X932615Y2552979D2*
Y2504165D1*
X935467Y2495610D1*
X941237Y2492691D1*
X946941D1*
X923993Y2532883D2*
X944089D1*
X965468Y2515639D2*
X999890D1*
Y2521410D1*
X997038Y2527180D1*
X994186Y2530032D1*
X988416Y2532883D1*
X979794D1*
X974090Y2530032D1*
X968320Y2524261D1*
X965468Y2515639D1*
Y2509936D1*
X968320Y2501314D1*
X974090Y2495610D1*
X979794Y2492691D1*
X988416D1*
X994186Y2495610D1*
X999890Y2501314D1*
X1018417Y2532883D2*
Y2492691D1*
Y2515639D2*
X1021335Y2524261D1*
X1027039Y2530032D1*
X1032809Y2532883D1*
X1041431D1*
X1118279Y2552979D2*
Y2492691D1*
X1158471Y2552979D2*
Y2492691D1*
X1118279Y2524261D2*
X1158471D1*
X1222960Y2492691D2*
X1199946Y2552979D1*
X1176998Y2492691D1*
X1185620Y2512787D2*
X1214338D1*
X1261584Y2552979D2*
Y2492691D1*
X1241488Y2552979D2*
X1281680D1*
X1358528D2*
X1381476Y2492691D1*
X1404424Y2552979D1*
X1422951Y2541439D2*
X1428721Y2544357D1*
X1437343Y2552913D1*
Y2492691D1*
X1458722Y2498462D2*
X1455870Y2495543D1*
X1458722Y2492691D1*
X1461640Y2495543D1*
X1458722Y2498462D1*
X1497411Y2552913D2*
X1488789Y2550061D1*
X1483019Y2541439D1*
X1480167Y2527113D1*
Y2518491D1*
X1483019Y2504165D1*
X1488789Y2495543D1*
X1497411Y2492691D1*
X1503115D1*
X1511737Y2495543D1*
X1517441Y2504165D1*
X1520359Y2518491D1*
Y2527113D1*
X1517441Y2541439D1*
X1511737Y2550061D1*
X1503115Y2552913D1*
X1497411D1*
X1517441Y2541439D2*
X1483019Y2504165D1*
X1541738Y2498462D2*
X1538886Y2495543D1*
X1541738Y2492691D1*
X1544656Y2495543D1*
X1541738Y2498462D1*
X1563184Y2541439D2*
X1568954Y2544357D1*
X1577576Y2552913D1*
Y2492691D1*
X2877151Y2278702D2*
D56*
X2880998Y2282504D1*
X2882899Y2288252D1*
Y2295902D1*
X2880998Y2301650D1*
X2877151Y2305497D1*
X2873349D1*
X2869502Y2303551D1*
X2867601Y2301650D1*
X2865700Y2297847D1*
X2861853Y2286351D1*
X2859951Y2282504D1*
X2858006Y2280603D1*
X2854203Y2278702D1*
X2848455D1*
X2844653Y2282504D1*
X2842707Y2288253D1*
Y2295902D1*
X2844653Y2301650D1*
X2848455Y2305497D1*
X2869502Y2266351D2*
X2829310D1*
X2863754D2*
X2867557Y2262504D1*
X2869502Y2258701D1*
Y2252953D1*
X2867557Y2249106D1*
X2863754Y2245304D1*
X2858006Y2243358D1*
X2854159D1*
X2848455Y2245304D1*
X2844609Y2249106D1*
X2842707Y2252953D1*
Y2258701D1*
X2844609Y2262504D1*
X2848455Y2266351D1*
X2869502Y2208059D2*
X2842707D1*
X2863754D2*
X2867601Y2211862D1*
X2869502Y2215708D1*
Y2221412D1*
X2867601Y2225259D1*
X2863754Y2229062D1*
X2858006Y2231007D1*
X2854203D1*
X2848455Y2229062D1*
X2844653Y2225259D1*
X2842707Y2221412D1*
Y2215708D1*
X2844653Y2211862D1*
X2848455Y2208059D1*
X2863754Y2172716D2*
X2867601Y2176562D1*
X2869502Y2180409D1*
Y2186113D1*
X2867601Y2189960D1*
X2863754Y2193762D1*
X2858006Y2195708D1*
X2854203D1*
X2848455Y2193762D1*
X2844653Y2189960D1*
X2842707Y2186113D1*
Y2180409D1*
X2844653Y2176562D1*
X2848455Y2172716D1*
X2858006Y2160364D2*
Y2137416D1*
X2861853D1*
X2865700Y2139318D1*
X2867601Y2141219D1*
X2869502Y2145066D1*
Y2150814D1*
X2867601Y2154616D1*
X2863754Y2158463D1*
X2858006Y2160364D1*
X2854203D1*
X2848455Y2158463D1*
X2844653Y2154616D1*
X2842707Y2150814D1*
Y2145066D1*
X2844653Y2141219D1*
X2848455Y2137416D1*
X2882899Y2125065D2*
X2842707D1*
X2863754D2*
X2867601Y2121218D1*
X2869502Y2117416D1*
Y2111668D1*
X2867601Y2107865D1*
X2863754Y2104018D1*
X2858006Y2102117D1*
X2854203D1*
X2848455Y2104018D1*
X2844653Y2107865D1*
X2842707Y2111668D1*
Y2117416D1*
X2844653Y2121218D1*
X2848455Y2125065D1*
X2869502Y2089766D2*
X2850357D1*
X2844653Y2087864D1*
X2842707Y2084018D1*
Y2078270D1*
X2844653Y2074467D1*
X2850357Y2068719D1*
X2869502D2*
X2842707D1*
X2867601Y2033420D2*
X2836959D1*
X2831256Y2035321D1*
X2829310Y2037222D1*
X2827409Y2041069D1*
Y2046817D1*
X2829310Y2050620D1*
X2861853Y2033420D2*
X2865655Y2037222D1*
X2867601Y2041069D1*
Y2046817D1*
X2865655Y2050620D1*
X2861853Y2054466D1*
X2856105Y2056368D1*
X2852258D1*
X2846554Y2054466D1*
X2842707Y2050620D1*
X2840806Y2046817D1*
Y2041069D1*
X2842707Y2037222D1*
X2846554Y2033420D1*
X2863754Y2000022D2*
X2867601Y2001923D1*
X2869502Y2007671D1*
Y2013419D1*
X2867601Y2019167D1*
X2863754Y2021068D1*
X2859952Y2019167D1*
X2858006Y2015320D1*
X2856105Y2005770D1*
X2854203Y2001923D1*
X2850357Y2000022D1*
X2848455D1*
X2844653Y2001923D1*
X2842707Y2007671D1*
Y2013419D1*
X2844653Y2019167D1*
X2848455Y2021068D1*
X2873305Y1946844D2*
X2875206D1*
X2879053Y1944943D1*
X2880954Y1943041D1*
X2882855Y1939195D1*
Y1931545D1*
X2880954Y1927743D1*
X2879053Y1925842D1*
X2875206Y1923896D1*
X2871403D1*
X2867557Y1925842D1*
X2861853Y1929644D1*
X2842707Y1948789D1*
Y1921995D1*
X2882855Y1886695D2*
Y1905797D1*
X2865655Y1907698D1*
X2867557Y1905797D1*
X2869502Y1900049D1*
Y1894345D1*
X2867557Y1888597D1*
X2863754Y1884750D1*
X2858006Y1882849D1*
X2854204D1*
X2848455Y1884750D1*
X2844609Y1888597D1*
X2842707Y1894345D1*
Y1900049D1*
X2844609Y1905797D1*
X2846554Y1907698D1*
X2850357Y1909643D1*
X2842707Y1870497D2*
X2882855Y1843703D1*
Y1819855D2*
X2880954Y1825603D1*
X2875206Y1829450D1*
X2865655Y1831351D1*
X2859907D1*
X2850357Y1829450D1*
X2844609Y1825603D1*
X2842707Y1819855D1*
Y1816053D1*
X2844609Y1810305D1*
X2850357Y1806502D1*
X2859907Y1804557D1*
X2865655D1*
X2875206Y1806502D1*
X2880954Y1810305D1*
X2882855Y1816053D1*
Y1819855D1*
X2875206Y1806502D2*
X2850357Y1829450D1*
X2877151Y1769257D2*
X2880954Y1771159D1*
X2882855Y1776907D1*
Y1780709D1*
X2880954Y1786457D1*
X2875206Y1790304D1*
X2865655Y1792205D1*
X2856105D1*
X2848455Y1790304D1*
X2844609Y1786457D1*
X2842707Y1780709D1*
Y1778808D1*
X2844609Y1773104D1*
X2848455Y1769257D1*
X2854204Y1767356D1*
X2856105D1*
X2861853Y1769257D1*
X2865655Y1773104D1*
X2867557Y1778808D1*
Y1780709D1*
X2865655Y1786457D1*
X2861853Y1790304D1*
X2856105Y1792205D1*
X2842707Y1755005D2*
X2882855Y1728210D1*
X2873305Y1713913D2*
X2875206D1*
X2879053Y1712012D1*
X2880954Y1710111D1*
X2882855Y1706264D1*
Y1698614D1*
X2880954Y1694812D1*
X2879053Y1692911D1*
X2875206Y1690965D1*
X2871403D1*
X2867557Y1692911D1*
X2861853Y1696713D1*
X2842707Y1715859D1*
Y1689064D1*
X2875206Y1676712D2*
X2877151Y1672866D1*
X2882855Y1667118D1*
X2842707D1*
X1666385Y2269886D2*
D55*
X1669270Y2271345D1*
X1673581Y2275623D1*
Y2245512D1*
X2852039Y1102151D2*
X2854891Y1103577D1*
X2856317Y1107888D1*
Y1110740D1*
X2854891Y1115051D1*
X2850580Y1117936D1*
X2843417Y1119362D1*
X2836254D1*
X2830517Y1117936D1*
X2827632Y1115051D1*
X2826206Y1110740D1*
Y1109314D1*
X2827632Y1105036D1*
X2830517Y1102151D1*
X2834828Y1100725D1*
X2836254D1*
X2840565Y1102151D1*
X2843417Y1105036D1*
X2844843Y1109314D1*
Y1110740D1*
X2843417Y1115051D1*
X2840565Y1117936D1*
X2836254Y1119362D1*
X2856317Y1088576D2*
Y1072824D1*
X2844843Y1081413D1*
Y1077102D1*
X2843417Y1074250D1*
X2841991Y1072824D1*
X2837680Y1071365D1*
X2834828D1*
X2830517Y1072824D1*
X2827632Y1075676D1*
X2826206Y1079987D1*
Y1084298D1*
X2827632Y1088576D1*
X2829091Y1090002D1*
X2831943Y1091461D1*
X2856350Y1062102D2*
X2826206Y1050628D1*
X2856350Y1039154D1*
X2826206Y1029890D2*
X2856317Y1009794D1*
X2849154Y999072D2*
X2850580D1*
X2853465Y997646D1*
X2854891Y996220D1*
X2856317Y993335D1*
Y987598D1*
X2854891Y984746D1*
X2853465Y983320D1*
X2850580Y981861D1*
X2847728D1*
X2844843Y983320D1*
X2840565Y986172D1*
X2826206Y1000531D1*
Y980435D1*
Y948190D2*
X2856350Y959697D1*
X2826206Y971171D1*
X2836254Y966860D2*
Y952501D1*
X2484356Y2419368D2*
D56*
Y2384924D1*
X2467157Y2402124D2*
X2501601D1*
X1570853Y2062714D2*
X1568951Y2066516D1*
X1565105Y2070363D1*
X1561302Y2072264D1*
X1553653D1*
X1549806Y2070363D1*
X1546003Y2066516D1*
X1544058Y2062714D1*
X1542157Y2056966D1*
Y2047371D1*
X1544058Y2041667D1*
X1546003Y2037820D1*
X1549806Y2034018D1*
X1553653Y2032072D1*
X1561302D1*
X1565105Y2034018D1*
X1568951Y2037820D1*
X1570853Y2041667D1*
Y2047371D1*
X1561302D1*
X1609999Y2072264D2*
Y2032072D1*
X1583204Y2072264D1*
Y2032072D1*
X1622350Y2072264D2*
Y2032072D1*
X1635747D1*
X1641495Y2034018D1*
X1645342Y2037820D1*
X1647243Y2041667D1*
X1649145Y2047371D1*
Y2056966D1*
X1647243Y2062714D1*
X1645342Y2066516D1*
X1641495Y2070363D1*
X1635747Y2072264D1*
X1622350D1*
X528886Y1675657D2*
D55*
X536082Y1645513D1*
X543245Y1675657D1*
X550408Y1645513D1*
X557604Y1675657D1*
X566868Y1661298D2*
X579767D1*
X584078Y1662757D1*
X585538Y1664183D1*
X586964Y1667035D1*
Y1669920D1*
X585538Y1672772D1*
X584078Y1674231D1*
X579767Y1675657D1*
X566868D1*
Y1645513D1*
X576916Y1661298D2*
X586964Y1645513D1*
X596227Y1660569D2*
X612808D1*
X640708Y1675657D2*
X622072D1*
Y1645513D1*
X640708D1*
X622072Y1661298D2*
X633545D1*
M02*
