G04 DipTrace 3.3.1.3*
G04 BottomSilk.gbr*
%MOIN*%
G04 #@! TF.FileFunction,Legend,Bot*
G04 #@! TF.Part,Single*
%ADD35C,0.004632*%
%FSLAX26Y26*%
G04*
G70*
G90*
G75*
G01*
G04 BotSilk*
%LPD*%
X2879806Y2712120D2*
D35*
X2902754D1*
X2907065Y2713546D1*
X2908491Y2715005D1*
X2909950Y2717857D1*
Y2720742D1*
X2908491Y2723594D1*
X2907065Y2725020D1*
X2902754Y2726479D1*
X2899902D1*
X2879806Y2702856D2*
X2909950D1*
Y2685645D1*
X2886969Y2654860D2*
X2884117Y2656286D1*
X2881232Y2659171D1*
X2879806Y2662023D1*
Y2667760D1*
X2881232Y2670645D1*
X2884117Y2673497D1*
X2886969Y2674956D1*
X2891280Y2676382D1*
X2898477D1*
X2902754Y2674956D1*
X2905639Y2673497D1*
X2908491Y2670645D1*
X2909950Y2667760D1*
Y2662023D1*
X2908491Y2659171D1*
X2905639Y2656286D1*
X2902754Y2654860D1*
X2879806Y2631237D2*
X2902754D1*
X2907065Y2632663D1*
X2908491Y2634122D1*
X2909950Y2636974D1*
Y2639859D1*
X2908491Y2642711D1*
X2907065Y2644137D1*
X2902754Y2645596D1*
X2899902D1*
X2879806Y2621974D2*
X2909950D1*
Y2604763D1*
X2886969Y2573977D2*
X2884118Y2575403D1*
X2881232Y2578288D1*
X2879806Y2581140D1*
Y2586877D1*
X2881232Y2589762D1*
X2884117Y2592614D1*
X2886969Y2594073D1*
X2891280Y2595499D1*
X2898477D1*
X2902754Y2594073D1*
X2905639Y2592614D1*
X2908491Y2589762D1*
X2909950Y2586877D1*
Y2581140D1*
X2908491Y2578288D1*
X2905639Y2575403D1*
X2902754Y2573977D1*
X2879806Y2550355D2*
X2902754D1*
X2907065Y2551781D1*
X2908491Y2553240D1*
X2909950Y2556092D1*
Y2558977D1*
X2908491Y2561829D1*
X2907065Y2563255D1*
X2902754Y2564714D1*
X2899902D1*
X2879806Y2541091D2*
X2909950D1*
Y2523880D1*
X2886969Y2493095D2*
X2884118Y2494521D1*
X2881232Y2497406D1*
X2879806Y2500258D1*
Y2505995D1*
X2881232Y2508880D1*
X2884118Y2511732D1*
X2886969Y2513191D1*
X2891280Y2514617D1*
X2898477D1*
X2902754Y2513191D1*
X2905639Y2511732D1*
X2908491Y2508880D1*
X2909950Y2505995D1*
Y2500258D1*
X2908491Y2497406D1*
X2905639Y2494521D1*
X2902754Y2493095D1*
X2879807Y2469472D2*
X2902754D1*
X2907065Y2470898D1*
X2908491Y2472357D1*
X2909950Y2475209D1*
Y2478094D1*
X2908491Y2480946D1*
X2907065Y2482372D1*
X2902754Y2483831D1*
X2899902D1*
X2879807Y2460209D2*
X2909950D1*
Y2442998D1*
X2886969Y2412212D2*
X2884117Y2413638D1*
X2881232Y2416523D1*
X2879806Y2419375D1*
Y2425112D1*
X2881232Y2427997D1*
X2884118Y2430849D1*
X2886969Y2432308D1*
X2891280Y2433734D1*
X2898477D1*
X2902754Y2432308D1*
X2905639Y2430849D1*
X2908491Y2427997D1*
X2909951Y2425112D1*
Y2419375D1*
X2908491Y2416523D1*
X2905639Y2413638D1*
X2902754Y2412212D1*
M02*
