G04 DipTrace 3.3.1.3*
G04 Bottom.gbr*
%MOIN*%
G04 #@! TF.FileFunction,Copper,L2,Bot*
G04 #@! TF.Part,Single*
G04 #@! TA.AperFunction,CopperBalancing*
%ADD14C,0.012992*%
G04 #@! TA.AperFunction,Conductor*
%ADD15C,0.02*%
G04 #@! TA.AperFunction,CopperBalancing*
%ADD16C,0.025*%
G04 #@! TA.AperFunction,ComponentPad*
%ADD19R,0.066929X0.066929*%
%ADD20C,0.066929*%
G04 #@! TA.AperFunction,ViaPad*
%ADD22C,0.04*%
%FSLAX26Y26*%
G04*
G70*
G90*
G75*
G01*
G04 Bottom*
%LPD*%
X3043701Y3243701D2*
D15*
Y2893701D1*
X2993701Y2843701D1*
X2643701D1*
X2943701Y2443701D2*
X3143701D1*
X3043701Y3243701D2*
X3068701D1*
X3093701Y3218701D1*
Y2443701D1*
X3143701D1*
X2643701Y2843701D2*
Y2670669D1*
X2644685Y2669685D1*
X882185Y2569685D2*
X1707185D1*
X2069685Y2619685D2*
Y2494685D1*
X2843701Y2343701D2*
Y1493701D1*
X1743701Y3043701D2*
Y2443701D1*
Y3093701D2*
X2743701D1*
X2943701D2*
D14*
X2993701D1*
Y2993701D1*
X1818504Y2443701D2*
Y2837648D1*
X1806201Y2849951D1*
X2413845Y2643909D2*
Y2551345D1*
X2357185Y2494685D1*
X2894685D1*
X2943701Y2543701D1*
X643701Y2893701D2*
X781201D1*
D22*
X882185Y2569685D3*
X1707185D3*
X1743701Y3043701D3*
Y2443701D3*
Y3093701D3*
X2743701D3*
X1818504Y2443701D3*
X2993701Y2993701D3*
X3043701Y3243701D3*
X2643701Y2843701D3*
X1806201Y2849951D3*
X2069685Y2619685D3*
X781201Y2893701D3*
X643701D3*
X2069685Y2494685D3*
X2644685Y2669685D3*
X1868701Y2343701D3*
X434703Y3873655D2*
D16*
X3620417D1*
X434703Y3848786D2*
X3620417D1*
X434703Y3823917D2*
X3620417D1*
X434703Y3799049D2*
X3620417D1*
X434703Y3774180D2*
X3620417D1*
X434703Y3749311D2*
X3620417D1*
X434703Y3724442D2*
X821379D1*
X914438D2*
X2435629D1*
X2530663D2*
X3620417D1*
X434703Y3699573D2*
X779143D1*
X956675D2*
X2393967D1*
X2572324D2*
X3620417D1*
X434703Y3674705D2*
X757182D1*
X978635D2*
X2372186D1*
X2594106D2*
X3620417D1*
X434703Y3649836D2*
X744013D1*
X991841D2*
X2359088D1*
X2607203D2*
X3620417D1*
X434703Y3624967D2*
X736836D1*
X999017D2*
X2351983D1*
X2614308D2*
X3620417D1*
X434703Y3600098D2*
X734682D1*
X1001135D2*
X2349902D1*
X2616390D2*
X3620417D1*
X434703Y3575230D2*
X737302D1*
X998516D2*
X2352629D1*
X2613698D2*
X3620417D1*
X434703Y3550361D2*
X745017D1*
X990801D2*
X2360416D1*
X2605875D2*
X2821600D1*
X2865820D2*
X2921609D1*
X2965794D2*
X3620417D1*
X434703Y3525492D2*
X758904D1*
X976913D2*
X2374411D1*
X2591881D2*
X2790381D1*
X2997049D2*
X3620417D1*
X434703Y3500623D2*
X782050D1*
X953768D2*
X2397699D1*
X2568592D2*
X2781660D1*
X3005769D2*
X3620417D1*
X434703Y3475755D2*
X829058D1*
X906760D2*
X2445533D1*
X2520759D2*
X2783992D1*
X3003400D2*
X3620417D1*
X434703Y3450886D2*
X2799244D1*
X2988186D2*
X3620417D1*
X434703Y3426017D2*
X2790703D1*
X2996690D2*
X3620417D1*
X434703Y3401148D2*
X2781696D1*
X3005697D2*
X3620417D1*
X434703Y3376280D2*
X2783814D1*
X3003580D2*
X3620417D1*
X434703Y3351411D2*
X2798705D1*
X2988688D2*
X3620417D1*
X434703Y3326542D2*
X2791026D1*
X2996367D2*
X3620417D1*
X434703Y3301673D2*
X2781768D1*
X3005626D2*
X3620417D1*
X434703Y3276804D2*
X2783669D1*
X3086545D2*
X3620417D1*
X434703Y3251936D2*
X2798167D1*
X3114570D2*
X3620417D1*
X434703Y3227067D2*
X2791385D1*
X3131723D2*
X3620417D1*
X434703Y3202198D2*
X2781840D1*
X3132692D2*
X3620417D1*
X434703Y3177329D2*
X2783526D1*
X3132692D2*
X3620417D1*
X434703Y3152461D2*
X2797664D1*
X3132692D2*
X3620417D1*
X434703Y3127592D2*
X1709369D1*
X2778012D2*
X2791744D1*
X3132692D2*
X3620417D1*
X434703Y3102723D2*
X1695589D1*
X3132692D2*
X3620417D1*
X434703Y3077854D2*
X1697491D1*
X3132692D2*
X3620417D1*
X434703Y3052986D2*
X1695661D1*
X1791772D2*
X2718755D1*
X2768647D2*
X2797198D1*
X3132692D2*
X3620417D1*
X434703Y3028117D2*
X1697383D1*
X1790013D2*
X3004717D1*
X3132692D2*
X3620417D1*
X434703Y3003248D2*
X1704703D1*
X1782693D2*
X3004717D1*
X3132692D2*
X3620417D1*
X434703Y2978379D2*
X1704703D1*
X1782693D2*
X3004717D1*
X3132692D2*
X3620417D1*
X434703Y2953510D2*
X1704703D1*
X1782693D2*
X3004717D1*
X3132692D2*
X3620417D1*
X434703Y2928642D2*
X610524D1*
X676886D2*
X748031D1*
X814358D2*
X1704703D1*
X1782693D2*
X3004717D1*
X3132692D2*
X3620417D1*
X434703Y2903773D2*
X595811D1*
X829106D2*
X1704703D1*
X1782693D2*
X2999656D1*
X3132692D2*
X3620417D1*
X434703Y2878904D2*
X597139D1*
X827778D2*
X1704703D1*
X1845094D2*
X2610815D1*
X3132692D2*
X3620417D1*
X434703Y2854035D2*
X616946D1*
X670462D2*
X754455D1*
X807970D2*
X1704703D1*
X1854999D2*
X2595887D1*
X3132692D2*
X3620417D1*
X434703Y2829167D2*
X1704703D1*
X1853995D2*
X2597035D1*
X3033293D2*
X3054703D1*
X3132692D2*
X3620417D1*
X434703Y2804298D2*
X1704703D1*
X1853995D2*
X2604715D1*
X2682703D2*
X3054703D1*
X3132692D2*
X3620417D1*
X434703Y2779429D2*
X604638D1*
X917345D2*
X1704703D1*
X1853995D2*
X2263026D1*
X2576307D2*
X2604715D1*
X2682703D2*
X2793035D1*
X2994358D2*
X3054703D1*
X3132692D2*
X3620417D1*
X434703Y2754560D2*
X593514D1*
X917345D2*
X1704703D1*
X1853995D2*
X2252332D1*
X2576307D2*
X2604715D1*
X2682703D2*
X2782235D1*
X3005159D2*
X3054703D1*
X3132692D2*
X3620417D1*
X434703Y2729692D2*
X593980D1*
X917345D2*
X1704703D1*
X1853995D2*
X2253087D1*
X2576307D2*
X2604715D1*
X2682703D2*
X2782916D1*
X3004513D2*
X3054703D1*
X3194161D2*
X3620417D1*
X434703Y2704823D2*
X606289D1*
X917345D2*
X1704703D1*
X1853995D2*
X2265896D1*
X2576307D2*
X2604715D1*
X2682703D2*
X2795547D1*
X2991846D2*
X3054703D1*
X3205106D2*
X3620417D1*
X434703Y2679954D2*
X605033D1*
X904714D2*
X1704703D1*
X1853995D2*
X2263421D1*
X2564251D2*
X2596857D1*
X2692535D2*
X2793430D1*
X2993963D2*
X3054703D1*
X3204567D2*
X3620417D1*
X434703Y2655085D2*
X593622D1*
X916161D2*
X1704703D1*
X1853995D2*
X2037063D1*
X2102312D2*
X2252440D1*
X2575266D2*
X2598041D1*
X2691316D2*
X2782343D1*
X3005051D2*
X3054703D1*
X3192080D2*
X3620417D1*
X434703Y2630217D2*
X593837D1*
X915946D2*
X1704703D1*
X1853995D2*
X2021885D1*
X2117455D2*
X2252979D1*
X2574728D2*
X2617597D1*
X2671759D2*
X2782773D1*
X3004621D2*
X3054703D1*
X3206147D2*
X3620417D1*
X434703Y2605348D2*
X605858D1*
X1853995D2*
X2022961D1*
X2116416D2*
X2265430D1*
X2562240D2*
X2795117D1*
X2992277D2*
X3054703D1*
X3206147D2*
X3620417D1*
X434703Y2580479D2*
X834476D1*
X1853995D2*
X2030676D1*
X2108664D2*
X2378358D1*
X2449349D2*
X2793861D1*
X2993568D2*
X3054703D1*
X3206147D2*
X3620417D1*
X434703Y2555610D2*
X835374D1*
X1853995D2*
X2030676D1*
X2108664D2*
X2368957D1*
X2449349D2*
X2782450D1*
X3004979D2*
X3054703D1*
X3206147D2*
X3620417D1*
X434703Y2530741D2*
X854285D1*
X910097D2*
X1679298D1*
X1853995D2*
X2030676D1*
X2108664D2*
X2344088D1*
X2442100D2*
X2782665D1*
X3004728D2*
X3054703D1*
X3132692D2*
X3620417D1*
X434703Y2505873D2*
X1704703D1*
X1853995D2*
X2022064D1*
X2117312D2*
X2323634D1*
X2992707D2*
X3054703D1*
X3132692D2*
X3620417D1*
X434703Y2481004D2*
X1704703D1*
X1853995D2*
X2022745D1*
X2116631D2*
X2324675D1*
X2993138D2*
X3054703D1*
X3193156D2*
X3620417D1*
X434703Y2456135D2*
X1696415D1*
X1865801D2*
X2041190D1*
X2098186D2*
X2782558D1*
X3204854D2*
X3620417D1*
X434703Y2431266D2*
X1696415D1*
X1865801D2*
X2782558D1*
X3204854D2*
X3620417D1*
X434703Y2406398D2*
X1713459D1*
X1773937D2*
X1788243D1*
X1848755D2*
X2794256D1*
X2993138D2*
X3094247D1*
X3193156D2*
X3620417D1*
X434703Y2381529D2*
X1839161D1*
X1898240D2*
X2794686D1*
X3006164D2*
X3081257D1*
X3206147D2*
X3620417D1*
X434703Y2356660D2*
X1821543D1*
X1915858D2*
X2782665D1*
X3006164D2*
X3081257D1*
X3206147D2*
X3620417D1*
X434703Y2331791D2*
X1821256D1*
X1916146D2*
X2782450D1*
X3006164D2*
X3081257D1*
X3206147D2*
X3620417D1*
X434703Y2306923D2*
X1837762D1*
X1899639D2*
X2793861D1*
X3006164D2*
X3081257D1*
X3206147D2*
X3620417D1*
X434703Y2282054D2*
X2804698D1*
X2882686D2*
X3620417D1*
X434703Y2257185D2*
X2804698D1*
X2882686D2*
X3620417D1*
X434703Y2232316D2*
X2804698D1*
X2882686D2*
X3620417D1*
X434703Y2207448D2*
X2804698D1*
X2882686D2*
X3620417D1*
X434703Y2182579D2*
X2804698D1*
X2882686D2*
X3620417D1*
X434703Y2157710D2*
X2804698D1*
X2882686D2*
X3620417D1*
X434703Y2132841D2*
X2804698D1*
X2882686D2*
X3620417D1*
X434703Y2107972D2*
X2804698D1*
X2882686D2*
X3620417D1*
X434703Y2083104D2*
X2804698D1*
X2882686D2*
X3620417D1*
X434703Y2058235D2*
X2804698D1*
X2882686D2*
X3620417D1*
X434703Y2033366D2*
X2804698D1*
X2882686D2*
X3620417D1*
X434703Y2008497D2*
X2804698D1*
X2882686D2*
X3620417D1*
X434703Y1983629D2*
X2804698D1*
X2882686D2*
X3620417D1*
X434703Y1958760D2*
X2804698D1*
X2882686D2*
X3620417D1*
X434703Y1933891D2*
X2804698D1*
X2882686D2*
X3620417D1*
X434703Y1909022D2*
X2804698D1*
X2882686D2*
X3620417D1*
X434703Y1884154D2*
X2332175D1*
X2355152D2*
X2432184D1*
X2455163D2*
X2532193D1*
X2555172D2*
X2804698D1*
X2882686D2*
X3620417D1*
X434703Y1859285D2*
X634207D1*
X935287D2*
X2292056D1*
X2595255D2*
X2804698D1*
X2882686D2*
X3620417D1*
X434703Y1834416D2*
X623298D1*
X946196D2*
X2281972D1*
X2605373D2*
X2804698D1*
X2882686D2*
X3620417D1*
X434703Y1809547D2*
X623908D1*
X945587D2*
X2283193D1*
X2604117D2*
X2804698D1*
X2882686D2*
X3620417D1*
X434703Y1784678D2*
X636467D1*
X933026D2*
X2281219D1*
X2590661D2*
X2804698D1*
X2882686D2*
X3620417D1*
X434703Y1759810D2*
X622294D1*
X934892D2*
X2281219D1*
X2594895D2*
X2804698D1*
X2882686D2*
X3620417D1*
X434703Y1734941D2*
X622294D1*
X946088D2*
X2281219D1*
X2605265D2*
X2804698D1*
X2882686D2*
X3620417D1*
X434703Y1710072D2*
X622294D1*
X945694D2*
X2281219D1*
X2604261D2*
X2804698D1*
X2882686D2*
X3620417D1*
X434703Y1685203D2*
X622294D1*
X933457D2*
X2281219D1*
X2591127D2*
X2804698D1*
X2882686D2*
X3620417D1*
X434703Y1660335D2*
X2804698D1*
X2882686D2*
X3620417D1*
X434703Y1635466D2*
X2804698D1*
X2882686D2*
X3620417D1*
X434703Y1610597D2*
X2804698D1*
X2882686D2*
X3620417D1*
X434703Y1585728D2*
X2804698D1*
X2882686D2*
X3620417D1*
X434703Y1560860D2*
X2804698D1*
X2882686D2*
X3620417D1*
X434703Y1535991D2*
X2798705D1*
X2888715D2*
X3048710D1*
X3138720D2*
X3620417D1*
X434703Y1511122D2*
X2783814D1*
X2903571D2*
X3033819D1*
X3153576D2*
X3620417D1*
X434703Y1486253D2*
X2781696D1*
X2905688D2*
X3031701D1*
X3155693D2*
X3620417D1*
X434703Y1461385D2*
X2790703D1*
X2896717D2*
X3040709D1*
X3146686D2*
X3620417D1*
X434703Y1436516D2*
X2781230D1*
X2906155D2*
X3031235D1*
X3156160D2*
X3620417D1*
X434703Y1411647D2*
X2781230D1*
X2906155D2*
X3031235D1*
X3156160D2*
X3620417D1*
X434703Y1386778D2*
X2781230D1*
X2906155D2*
X3031235D1*
X3156160D2*
X3620417D1*
X434703Y1361909D2*
X2781230D1*
X2906155D2*
X3031235D1*
X3156160D2*
X3620417D1*
X434703Y1337041D2*
X2781230D1*
X2906155D2*
X3031235D1*
X3156160D2*
X3620417D1*
X434703Y1312172D2*
X3620417D1*
X434703Y1287303D2*
X3620417D1*
X434703Y1262434D2*
X3620417D1*
X434703Y1237566D2*
X2575327D1*
X2662071D2*
X2800320D1*
X2887064D2*
X3050325D1*
X3137070D2*
X3620417D1*
X434703Y1212697D2*
X2559322D1*
X2678075D2*
X2784316D1*
X2903068D2*
X3034320D1*
X3153073D2*
X3620417D1*
X434703Y1187828D2*
X2556522D1*
X2680874D2*
X2781517D1*
X2905867D2*
X3031522D1*
X3155873D2*
X3620417D1*
X434703Y1162959D2*
X2564740D1*
X2672692D2*
X2789734D1*
X2897686D2*
X3039739D1*
X3147692D2*
X3620417D1*
X434703Y1138091D2*
X2556236D1*
X2681160D2*
X2781230D1*
X2906155D2*
X3031235D1*
X3156160D2*
X3620417D1*
X434703Y1113222D2*
X2556236D1*
X2681160D2*
X2781230D1*
X2906155D2*
X3031235D1*
X3156160D2*
X3620417D1*
X434703Y1088353D2*
X2556236D1*
X2681160D2*
X2781230D1*
X2906155D2*
X3031235D1*
X3156160D2*
X3620417D1*
X434703Y1063484D2*
X2556236D1*
X2681160D2*
X2781230D1*
X2906155D2*
X3031235D1*
X3156160D2*
X3620417D1*
X434703Y1038615D2*
X2556236D1*
X2681160D2*
X2781230D1*
X2906155D2*
X3031235D1*
X3156160D2*
X3620417D1*
X434703Y1013747D2*
X3620417D1*
X434703Y988878D2*
X3620417D1*
X434703Y964009D2*
X3620417D1*
X434703Y939140D2*
X3620417D1*
X434703Y914272D2*
X3620417D1*
X434703Y889403D2*
X3620417D1*
X434703Y864534D2*
X3620417D1*
X434703Y839665D2*
X796870D1*
X941639D2*
X2412197D1*
X2557970D2*
X3620417D1*
X434703Y814797D2*
X767948D1*
X970562D2*
X2383490D1*
X2586642D2*
X3620417D1*
X434703Y789928D2*
X750974D1*
X987534D2*
X2366660D1*
X2603508D2*
X3620417D1*
X434703Y765059D2*
X741034D1*
X997475D2*
X2356756D1*
X2613375D2*
X3620417D1*
X434703Y740190D2*
X736476D1*
X1002031D2*
X2352270D1*
X2617896D2*
X3620417D1*
X434703Y715322D2*
X736764D1*
X1001745D2*
X2352593D1*
X2617538D2*
X3620417D1*
X434703Y690453D2*
X741860D1*
X996613D2*
X2357797D1*
X2612370D2*
X3620417D1*
X434703Y665584D2*
X752517D1*
X985992D2*
X2368525D1*
X2601642D2*
X3620417D1*
X434703Y640715D2*
X770495D1*
X968013D2*
X2386612D1*
X2583555D2*
X3620417D1*
X434703Y615846D2*
X801571D1*
X936938D2*
X2417938D1*
X2552228D2*
X3620417D1*
X434703Y590978D2*
X3620417D1*
X434703Y566109D2*
X3620417D1*
X434703Y541240D2*
X3620417D1*
X434703Y516371D2*
X3620417D1*
X434703Y491503D2*
X3620417D1*
X434703Y466634D2*
X3620417D1*
X434703Y441765D2*
X3620417D1*
X998332Y3592160D2*
X997366Y3583026D1*
X995761Y3573983D1*
X993525Y3565075D1*
X990669Y3556346D1*
X987207Y3547839D1*
X983157Y3539596D1*
X978538Y3531657D1*
X973373Y3524063D1*
X967688Y3516849D1*
X961510Y3510054D1*
X954870Y3503707D1*
X947802Y3497844D1*
X940339Y3492491D1*
X932518Y3487675D1*
X924378Y3483419D1*
X915961Y3479745D1*
X907306Y3476673D1*
X898457Y3474215D1*
X889455Y3472385D1*
X880349Y3471190D1*
X871181Y3470638D1*
X861997Y3470731D1*
X852843Y3471469D1*
X843762Y3472846D1*
X834801Y3474860D1*
X826003Y3477496D1*
X817412Y3480744D1*
X809071Y3484588D1*
X801020Y3489007D1*
X793298Y3493980D1*
X785945Y3499483D1*
X778996Y3505490D1*
X772487Y3511969D1*
X766448Y3518888D1*
X760909Y3526215D1*
X755899Y3533913D1*
X751442Y3541944D1*
X747559Y3550266D1*
X744272Y3558843D1*
X741593Y3567627D1*
X739538Y3576579D1*
X738117Y3585654D1*
X737336Y3594804D1*
X737198Y3603988D1*
X737707Y3613159D1*
X738858Y3622270D1*
X740646Y3631280D1*
X743062Y3640140D1*
X746094Y3648810D1*
X749728Y3657244D1*
X753945Y3665404D1*
X758723Y3673247D1*
X764041Y3680736D1*
X769871Y3687832D1*
X776186Y3694501D1*
X782953Y3700711D1*
X790139Y3706432D1*
X797709Y3711633D1*
X805626Y3716289D1*
X813849Y3720378D1*
X822340Y3723881D1*
X831055Y3726777D1*
X839953Y3729055D1*
X848988Y3730703D1*
X858117Y3731713D1*
X867294Y3732079D1*
X876475Y3731799D1*
X885613Y3730877D1*
X894663Y3729314D1*
X903581Y3727121D1*
X912324Y3724306D1*
X920848Y3720885D1*
X929110Y3716874D1*
X937070Y3712293D1*
X944689Y3707163D1*
X951929Y3701512D1*
X958755Y3695366D1*
X965131Y3688757D1*
X971029Y3681715D1*
X976417Y3674278D1*
X981270Y3666480D1*
X985564Y3658361D1*
X989277Y3649961D1*
X992391Y3641320D1*
X994891Y3632483D1*
X996764Y3623492D1*
X998001Y3614391D1*
X998655Y3601339D1*
X998332Y3592160D1*
X2613568Y3592514D2*
X2612602Y3583381D1*
X2610997Y3574337D1*
X2608761Y3565429D1*
X2605906Y3556701D1*
X2602444Y3548193D1*
X2598394Y3539950D1*
X2593774Y3532012D1*
X2588609Y3524417D1*
X2582924Y3517203D1*
X2576747Y3510408D1*
X2570106Y3504062D1*
X2563038Y3498198D1*
X2555575Y3492845D1*
X2547755Y3488029D1*
X2539614Y3483773D1*
X2531197Y3480100D1*
X2522542Y3477028D1*
X2513693Y3474570D1*
X2504692Y3472739D1*
X2495585Y3471545D1*
X2486417Y3470992D1*
X2477234Y3471085D1*
X2468079Y3471823D1*
X2458999Y3473201D1*
X2450037Y3475214D1*
X2441239Y3477850D1*
X2432648Y3481098D1*
X2424307Y3484942D1*
X2416256Y3489361D1*
X2408534Y3494335D1*
X2401181Y3499837D1*
X2394232Y3505844D1*
X2387723Y3512323D1*
X2381684Y3519243D1*
X2376146Y3526570D1*
X2371135Y3534268D1*
X2366678Y3542298D1*
X2362795Y3550621D1*
X2359508Y3559197D1*
X2356829Y3567982D1*
X2354774Y3576933D1*
X2353353Y3586008D1*
X2352572Y3595159D1*
X2352434Y3604343D1*
X2352944Y3613513D1*
X2354094Y3622625D1*
X2355882Y3631634D1*
X2358298Y3640495D1*
X2361331Y3649164D1*
X2364965Y3657598D1*
X2369181Y3665759D1*
X2373959Y3673601D1*
X2379277Y3681091D1*
X2385108Y3688186D1*
X2391423Y3694856D1*
X2398189Y3701066D1*
X2405375Y3706786D1*
X2412945Y3711987D1*
X2420862Y3716643D1*
X2429085Y3720732D1*
X2437576Y3724235D1*
X2446291Y3727131D1*
X2455189Y3729409D1*
X2464224Y3731058D1*
X2473353Y3732067D1*
X2482530Y3732433D1*
X2491711Y3732154D1*
X2500849Y3731231D1*
X2509899Y3729668D1*
X2518818Y3727475D1*
X2527560Y3724660D1*
X2536084Y3721239D1*
X2544346Y3717228D1*
X2552306Y3712647D1*
X2559925Y3707517D1*
X2567165Y3701866D1*
X2573991Y3695720D1*
X2580367Y3689112D1*
X2586265Y3682070D1*
X2591654Y3674633D1*
X2596507Y3666835D1*
X2600801Y3658715D1*
X2604513Y3650315D1*
X2607627Y3641675D1*
X2610127Y3632837D1*
X2612000Y3623846D1*
X2613238Y3614745D1*
X2613891Y3601693D1*
X2613568Y3592514D1*
X2615497Y720310D2*
X2614531Y711176D1*
X2612927Y702133D1*
X2610690Y693224D1*
X2607835Y684496D1*
X2604373Y675988D1*
X2600323Y667745D1*
X2595703Y659807D1*
X2590538Y652213D1*
X2584853Y644999D1*
X2578676Y638203D1*
X2572035Y631857D1*
X2564967Y625993D1*
X2557504Y620640D1*
X2549684Y615824D1*
X2541543Y611568D1*
X2533126Y607895D1*
X2524471Y604823D1*
X2515622Y602365D1*
X2506621Y600534D1*
X2497514Y599340D1*
X2488346Y598787D1*
X2479163Y598881D1*
X2470008Y599618D1*
X2460928Y600996D1*
X2451966Y603009D1*
X2443168Y605646D1*
X2434577Y608894D1*
X2426236Y612738D1*
X2418185Y617156D1*
X2410463Y622130D1*
X2403110Y627633D1*
X2396161Y633639D1*
X2389652Y640118D1*
X2383613Y647038D1*
X2378075Y654365D1*
X2373064Y662063D1*
X2368608Y670093D1*
X2364724Y678416D1*
X2361437Y686992D1*
X2358759Y695777D1*
X2356703Y704728D1*
X2355282Y713803D1*
X2354501Y722954D1*
X2354364Y732138D1*
X2354873Y741308D1*
X2356024Y750420D1*
X2357811Y759429D1*
X2360227Y768290D1*
X2363260Y776959D1*
X2366894Y785394D1*
X2371110Y793554D1*
X2375888Y801396D1*
X2381206Y808886D1*
X2387037Y815982D1*
X2393352Y822651D1*
X2400118Y828861D1*
X2407304Y834581D1*
X2414874Y839782D1*
X2422791Y844438D1*
X2431014Y848528D1*
X2439505Y852030D1*
X2448220Y854927D1*
X2457118Y857205D1*
X2466154Y858853D1*
X2475282Y859862D1*
X2484459Y860228D1*
X2493640Y859949D1*
X2502778Y859026D1*
X2511828Y857463D1*
X2520747Y855270D1*
X2529490Y852455D1*
X2538013Y849034D1*
X2546276Y845024D1*
X2554235Y840442D1*
X2561854Y835312D1*
X2569094Y829661D1*
X2575920Y823516D1*
X2582297Y816907D1*
X2588194Y809865D1*
X2593583Y802428D1*
X2598436Y794630D1*
X2602730Y786510D1*
X2606442Y778110D1*
X2609556Y769470D1*
X2612056Y760633D1*
X2613929Y751642D1*
X2615167Y742541D1*
X2615820Y729488D1*
X2615497Y720310D1*
X999671Y719995D2*
X998705Y710861D1*
X997100Y701818D1*
X994864Y692909D1*
X992008Y684181D1*
X988546Y675673D1*
X984496Y667430D1*
X979877Y659492D1*
X974711Y651898D1*
X969026Y644684D1*
X962849Y637888D1*
X956209Y631542D1*
X949140Y625678D1*
X941677Y620325D1*
X933857Y615509D1*
X925717Y611253D1*
X917299Y607580D1*
X908644Y604508D1*
X899795Y602050D1*
X890794Y600219D1*
X881688Y599025D1*
X872520Y598472D1*
X863336Y598566D1*
X854181Y599303D1*
X845101Y600681D1*
X836139Y602694D1*
X827341Y605331D1*
X818751Y608579D1*
X810409Y612423D1*
X802358Y616841D1*
X794636Y621815D1*
X787283Y627318D1*
X780335Y633324D1*
X773825Y639803D1*
X767786Y646723D1*
X762248Y654050D1*
X757238Y661748D1*
X752781Y669778D1*
X748898Y678101D1*
X745610Y686677D1*
X742932Y695462D1*
X740877Y704413D1*
X739455Y713488D1*
X738675Y722639D1*
X738537Y731823D1*
X739046Y740993D1*
X740197Y750105D1*
X741984Y759114D1*
X744400Y767975D1*
X747433Y776644D1*
X751067Y785079D1*
X755283Y793239D1*
X760062Y801081D1*
X765379Y808571D1*
X771210Y815667D1*
X777525Y822336D1*
X784291Y828546D1*
X791478Y834266D1*
X799047Y839467D1*
X806965Y844123D1*
X815188Y848213D1*
X823678Y851715D1*
X832394Y854612D1*
X841291Y856890D1*
X850327Y858538D1*
X859455Y859547D1*
X868633Y859913D1*
X877814Y859634D1*
X886951Y858711D1*
X896001Y857148D1*
X904920Y854955D1*
X913663Y852140D1*
X922186Y848719D1*
X930449Y844709D1*
X938408Y840127D1*
X946028Y834997D1*
X953268Y829346D1*
X960093Y823201D1*
X966470Y816592D1*
X972367Y809550D1*
X977756Y802113D1*
X982609Y794315D1*
X986903Y786196D1*
X990615Y777795D1*
X993730Y769155D1*
X996230Y760318D1*
X998102Y751327D1*
X999340Y742226D1*
X999993Y729173D1*
X999671Y719995D1*
X2455726Y2803866D2*
X2573802D1*
Y2683953D1*
X2558465D1*
X2562352Y2679151D1*
X2567266Y2671129D1*
X2570867Y2662437D1*
X2573064Y2653289D1*
X2573802Y2643909D1*
X2573064Y2634530D1*
X2570867Y2625382D1*
X2567266Y2616690D1*
X2562352Y2608668D1*
X2556241Y2601513D1*
X2549087Y2595403D1*
X2541064Y2590488D1*
X2532373Y2586887D1*
X2523224Y2584690D1*
X2513845Y2583953D1*
X2504466Y2584690D1*
X2495318Y2586887D1*
X2486626Y2590488D1*
X2478604Y2595403D1*
X2471449Y2601513D1*
X2465339Y2608668D1*
X2463878Y2610854D1*
X2459437Y2604971D1*
X2452783Y2598318D1*
X2446839Y2593902D1*
X2446732Y2548757D1*
X2445923Y2543644D1*
X2444323Y2538720D1*
X2441972Y2534109D1*
X2438929Y2529921D1*
X2436841Y2527689D1*
X2785894Y2527673D1*
X2784482Y2534322D1*
X2783744Y2543701D1*
X2784482Y2553080D1*
X2786678Y2562228D1*
X2790280Y2570920D1*
X2795194Y2578942D1*
X2801304Y2586097D1*
X2808459Y2592207D1*
X2810646Y2593668D1*
X2804762Y2598109D1*
X2798109Y2604762D1*
X2792579Y2612374D1*
X2788308Y2620756D1*
X2785400Y2629705D1*
X2783929Y2638996D1*
Y2648406D1*
X2785400Y2657697D1*
X2788308Y2666646D1*
X2792579Y2675028D1*
X2798109Y2682639D1*
X2804762Y2689293D1*
X2810646Y2693668D1*
X2804762Y2698109D1*
X2798109Y2704762D1*
X2792579Y2712374D1*
X2788308Y2720756D1*
X2785400Y2729705D1*
X2783929Y2738996D1*
Y2748406D1*
X2785400Y2757697D1*
X2788308Y2766646D1*
X2792579Y2775028D1*
X2798109Y2782639D1*
X2804762Y2789293D1*
X2812374Y2794823D1*
X2820756Y2799093D1*
X2829705Y2802001D1*
X2838996Y2803472D1*
X2848406D1*
X2857697Y2802001D1*
X2866646Y2799093D1*
X2875028Y2794823D1*
X2882639Y2789293D1*
X2889293Y2782639D1*
X2893668Y2776756D1*
X2898109Y2782639D1*
X2904762Y2789293D1*
X2912374Y2794823D1*
X2920756Y2799093D1*
X2929705Y2802001D1*
X2938996Y2803472D1*
X2948406D1*
X2957697Y2802001D1*
X2966646Y2799093D1*
X2975028Y2794823D1*
X2982639Y2789293D1*
X2989293Y2782639D1*
X2994823Y2775028D1*
X2999093Y2766646D1*
X3002001Y2757697D1*
X3003472Y2748406D1*
Y2738996D1*
X3002001Y2729705D1*
X2999093Y2720756D1*
X2994823Y2712374D1*
X2989293Y2704762D1*
X2982639Y2698109D1*
X2976756Y2693734D1*
X2982639Y2689293D1*
X2989293Y2682639D1*
X2994823Y2675028D1*
X2999093Y2666646D1*
X3002001Y2657697D1*
X3003472Y2648406D1*
Y2638996D1*
X3002001Y2629705D1*
X2999093Y2620756D1*
X2994823Y2612374D1*
X2989293Y2604762D1*
X2982639Y2598109D1*
X2976756Y2593734D1*
X2982639Y2589293D1*
X2989293Y2582639D1*
X2994823Y2575028D1*
X2999093Y2566646D1*
X3002001Y2557697D1*
X3003472Y2548406D1*
Y2538996D1*
X3002001Y2529705D1*
X2999093Y2520756D1*
X2994823Y2512374D1*
X2989293Y2504762D1*
X2982639Y2498109D1*
X2976756Y2493734D1*
X2982639Y2489293D1*
X2989293Y2482639D1*
X2991217Y2480199D1*
X3057202Y2480193D1*
X3057209Y2855615D1*
X3017400Y2815951D1*
X3012768Y2812587D1*
X3007665Y2809987D1*
X3002219Y2808217D1*
X2996564Y2807322D1*
X2947769Y2807209D1*
X2680181D1*
X2680193Y2699698D1*
X2684325Y2693978D1*
X2687638Y2687476D1*
X2689892Y2680538D1*
X2691034Y2673333D1*
Y2666037D1*
X2689892Y2658832D1*
X2687638Y2651894D1*
X2684325Y2645392D1*
X2680038Y2639491D1*
X2674879Y2634332D1*
X2668978Y2630045D1*
X2662476Y2626732D1*
X2655538Y2624478D1*
X2648333Y2623336D1*
X2641037D1*
X2633832Y2624478D1*
X2626894Y2626732D1*
X2620392Y2630045D1*
X2614491Y2634332D1*
X2609332Y2639491D1*
X2605045Y2645392D1*
X2601732Y2651894D1*
X2599478Y2658832D1*
X2598336Y2666037D1*
Y2673333D1*
X2599478Y2680538D1*
X2601732Y2687476D1*
X2605045Y2693978D1*
X2607205Y2697180D1*
X2607209Y2814888D1*
X2604060Y2819408D1*
X2600748Y2825909D1*
X2598493Y2832848D1*
X2597352Y2840052D1*
Y2847349D1*
X2598493Y2854554D1*
X2600748Y2861492D1*
X2604060Y2867993D1*
X2608348Y2873895D1*
X2613507Y2879054D1*
X2619408Y2883341D1*
X2625909Y2886654D1*
X2632848Y2888908D1*
X2640052Y2890050D1*
X2647349D1*
X2654554Y2888908D1*
X2661492Y2886654D1*
X2667993Y2883341D1*
X2672450Y2880193D1*
X2978608D1*
X3007201Y2908808D1*
X3007209Y3214900D1*
X3004060Y3219408D1*
X3000748Y3225909D1*
X2998493Y3232848D1*
X2997352Y3240052D1*
Y3247349D1*
X2998493Y3254554D1*
X3000748Y3261492D1*
X3004060Y3267993D1*
X3008348Y3273895D1*
X3013507Y3279054D1*
X3019408Y3283341D1*
X3025909Y3286654D1*
X3032848Y3288908D1*
X3040052Y3290050D1*
X3047349D1*
X3054554Y3288908D1*
X3061492Y3286654D1*
X3067993Y3283341D1*
X3072741Y3279963D1*
X3077219Y3279185D1*
X3082665Y3277415D1*
X3087768Y3274815D1*
X3092400Y3271450D1*
X3119505Y3244505D1*
X3123223Y3240151D1*
X3126215Y3235268D1*
X3128407Y3229978D1*
X3129744Y3224409D1*
X3130193Y3218701D1*
Y2752098D1*
X3138996Y2753472D1*
X3148406D1*
X3157697Y2752001D1*
X3166646Y2749093D1*
X3175028Y2744823D1*
X3182639Y2739293D1*
X3189293Y2732639D1*
X3194823Y2725028D1*
X3199093Y2716646D1*
X3202001Y2707697D1*
X3203472Y2698406D1*
Y2688996D1*
X3202001Y2679705D1*
X3199093Y2670756D1*
X3194823Y2662374D1*
X3189293Y2654762D1*
X3188469Y2653657D1*
X3203657D1*
Y2533744D1*
X3130189D1*
X3130193Y2502130D1*
X3138996Y2503472D1*
X3148406D1*
X3157697Y2502001D1*
X3166646Y2499093D1*
X3175028Y2494823D1*
X3182639Y2489293D1*
X3189293Y2482639D1*
X3194823Y2475028D1*
X3199093Y2466646D1*
X3202001Y2457697D1*
X3203472Y2448406D1*
Y2438996D1*
X3202001Y2429705D1*
X3199093Y2420756D1*
X3194823Y2412374D1*
X3189293Y2404762D1*
X3188469Y2403657D1*
X3203657D1*
Y2283744D1*
X3083744D1*
Y2403657D1*
X3099081D1*
X3096185Y2407202D1*
X2991301Y2407209D1*
X2988469Y2403657D1*
X3003657D1*
Y2283744D1*
X2883744D1*
Y2299081D1*
X2880199Y2296185D1*
X2880193Y1541294D1*
X2886097Y1536097D1*
X2892207Y1528942D1*
X2897122Y1520920D1*
X2900723Y1512228D1*
X2902920Y1503080D1*
X2903657Y1493701D1*
X2902920Y1484322D1*
X2900723Y1475173D1*
X2897122Y1466482D1*
X2892207Y1458459D1*
X2888281Y1453668D1*
X2903657Y1453657D1*
Y1333744D1*
X2783744D1*
Y1453657D1*
X2799081D1*
X2795194Y1458459D1*
X2790280Y1466482D1*
X2786678Y1475173D1*
X2784482Y1484322D1*
X2783744Y1493701D1*
X2784482Y1503080D1*
X2786678Y1512228D1*
X2790280Y1520920D1*
X2795194Y1528942D1*
X2801304Y1536097D1*
X2807202Y1541217D1*
X2807209Y2296108D1*
X2801304Y2301304D1*
X2795194Y2308459D1*
X2790280Y2316482D1*
X2786678Y2325173D1*
X2784482Y2334322D1*
X2783744Y2343701D1*
X2784482Y2353080D1*
X2786678Y2362228D1*
X2790280Y2370920D1*
X2795194Y2378942D1*
X2801304Y2386097D1*
X2808459Y2392207D1*
X2810646Y2393668D1*
X2804762Y2398109D1*
X2798109Y2404762D1*
X2792579Y2412374D1*
X2788308Y2420756D1*
X2785400Y2429705D1*
X2783929Y2438996D1*
Y2448406D1*
X2785400Y2457697D1*
X2786524Y2461680D1*
X2354597Y2461798D1*
X2349484Y2462608D1*
X2344560Y2464207D1*
X2339949Y2466558D1*
X2335761Y2469601D1*
X2332101Y2473261D1*
X2329058Y2477449D1*
X2326707Y2482060D1*
X2325108Y2486984D1*
X2324298Y2492097D1*
Y2497273D1*
X2325108Y2502386D1*
X2326707Y2507310D1*
X2329058Y2511921D1*
X2332101Y2516109D1*
X2379329Y2563482D1*
X2380877Y2565029D1*
X2380857Y2593867D1*
X2374907Y2598318D1*
X2368253Y2604971D1*
X2363878Y2610854D1*
X2359437Y2604971D1*
X2352783Y2598318D1*
X2345172Y2592787D1*
X2336790Y2588517D1*
X2327841Y2585609D1*
X2318550Y2584138D1*
X2309140D1*
X2299849Y2585609D1*
X2290900Y2588517D1*
X2282518Y2592787D1*
X2274907Y2598318D1*
X2268253Y2604971D1*
X2262723Y2612583D1*
X2258453Y2620965D1*
X2255545Y2629913D1*
X2254073Y2639205D1*
Y2648614D1*
X2255545Y2657906D1*
X2258453Y2666854D1*
X2262723Y2675236D1*
X2268253Y2682848D1*
X2274907Y2689501D1*
X2280790Y2693877D1*
X2274907Y2698318D1*
X2268253Y2704971D1*
X2262723Y2712583D1*
X2258453Y2720965D1*
X2255545Y2729913D1*
X2254073Y2739205D1*
Y2748614D1*
X2255545Y2757906D1*
X2258453Y2766854D1*
X2262723Y2775236D1*
X2268253Y2782848D1*
X2274907Y2789501D1*
X2282518Y2795031D1*
X2290900Y2799302D1*
X2299849Y2802210D1*
X2309140Y2803681D1*
X2318550D1*
X2327841Y2802210D1*
X2336790Y2799302D1*
X2345172Y2795031D1*
X2352783Y2789501D1*
X2359437Y2782848D1*
X2363812Y2776965D1*
X2368253Y2782848D1*
X2374907Y2789501D1*
X2382518Y2795031D1*
X2390900Y2799302D1*
X2399849Y2802210D1*
X2409140Y2803681D1*
X2418550D1*
X2427841Y2802210D1*
X2436790Y2799302D1*
X2445172Y2795031D1*
X2452783Y2789501D1*
X2453888Y2788677D1*
Y2803866D1*
X2455726D1*
X2285551Y1784832D2*
X2299051D1*
X2295164Y1789634D1*
X2290249Y1797656D1*
X2286648Y1806348D1*
X2284451Y1815496D1*
X2283714Y1824875D1*
X2284451Y1834255D1*
X2286648Y1843403D1*
X2290249Y1852094D1*
X2295164Y1860117D1*
X2301274Y1867272D1*
X2308429Y1873382D1*
X2316451Y1878297D1*
X2325143Y1881898D1*
X2334291Y1884094D1*
X2343671Y1884832D1*
X2353050Y1884094D1*
X2362198Y1881898D1*
X2370890Y1878297D1*
X2378912Y1873382D1*
X2386067Y1867272D1*
X2392177Y1860117D1*
X2393638Y1857930D1*
X2398079Y1863814D1*
X2404732Y1870467D1*
X2412344Y1875997D1*
X2420726Y1880268D1*
X2429675Y1883176D1*
X2438966Y1884647D1*
X2448375D1*
X2457667Y1883176D1*
X2466615Y1880268D1*
X2474997Y1875997D1*
X2482609Y1870467D1*
X2489262Y1863814D1*
X2493638Y1857930D1*
X2498079Y1863814D1*
X2504732Y1870467D1*
X2512344Y1875997D1*
X2520726Y1880268D1*
X2529675Y1883176D1*
X2538966Y1884647D1*
X2548375D1*
X2557667Y1883176D1*
X2566615Y1880268D1*
X2574997Y1875997D1*
X2582609Y1870467D1*
X2589262Y1863814D1*
X2594793Y1856202D1*
X2599063Y1847820D1*
X2601971Y1838871D1*
X2603442Y1829580D1*
Y1820171D1*
X2601971Y1810879D1*
X2599063Y1801930D1*
X2594793Y1793549D1*
X2589262Y1785937D1*
X2582609Y1779283D1*
X2576726Y1774908D1*
X2582819Y1770286D1*
X2588077Y1765159D1*
X2592671Y1759428D1*
X2596528Y1753177D1*
X2599591Y1746503D1*
X2601815Y1739503D1*
X2603168Y1732283D1*
X2603627Y1724875D1*
X2603177Y1717545D1*
X2601835Y1710324D1*
X2599619Y1703322D1*
X2596564Y1696643D1*
X2592715Y1690387D1*
X2588131Y1684650D1*
X2582879Y1679516D1*
X2577038Y1675062D1*
X2570698Y1671356D1*
X2563951Y1668453D1*
X2556900Y1666396D1*
X2549651Y1665218D1*
X2542312Y1664934D1*
X2534993Y1665550D1*
X2527806Y1667056D1*
X2520856Y1669429D1*
X2514247Y1672635D1*
X2508080Y1676625D1*
X2502448Y1681337D1*
X2497434Y1686705D1*
X2493671Y1691799D1*
X2489343Y1686030D1*
X2484251Y1680738D1*
X2478550Y1676108D1*
X2472325Y1672209D1*
X2465671Y1669101D1*
X2458686Y1666829D1*
X2451476Y1665429D1*
X2444150Y1664920D1*
X2436815Y1665312D1*
X2429584Y1666597D1*
X2422564Y1668756D1*
X2415861Y1671759D1*
X2409576Y1675556D1*
X2403627Y1680256D1*
Y1664919D1*
X2283714D1*
Y1784832D1*
X2285551D1*
X796770Y2803118D2*
X914846D1*
Y2683205D1*
X899509D1*
X903396Y2678403D1*
X908311Y2670381D1*
X911912Y2661689D1*
X914109Y2652541D1*
X914846Y2643161D1*
X914109Y2633782D1*
X911912Y2624634D1*
X908311Y2615942D1*
X904938Y2610228D1*
X910934Y2606177D1*
X1678348D1*
X1682892Y2609325D1*
X1689394Y2612638D1*
X1696332Y2614892D1*
X1703537Y2616034D1*
X1707199Y2616177D1*
X1707209Y3014869D1*
X1704060Y3019408D1*
X1700748Y3025909D1*
X1698493Y3032848D1*
X1697352Y3040052D1*
Y3047349D1*
X1698493Y3054554D1*
X1700748Y3061492D1*
X1704512Y3068669D1*
X1700748Y3075909D1*
X1698493Y3082848D1*
X1697352Y3090052D1*
Y3097349D1*
X1698493Y3104554D1*
X1700748Y3111492D1*
X1704060Y3117993D1*
X1708348Y3123895D1*
X1713507Y3129054D1*
X1719408Y3133341D1*
X1725909Y3136654D1*
X1732848Y3138908D1*
X1740052Y3140050D1*
X1747349D1*
X1754554Y3138908D1*
X1761492Y3136654D1*
X1767993Y3133341D1*
X1772450Y3130193D1*
X2714907D1*
X2719408Y3133341D1*
X2725909Y3136654D1*
X2732848Y3138908D1*
X2740052Y3140050D1*
X2747349D1*
X2754554Y3138908D1*
X2761492Y3136654D1*
X2767993Y3133341D1*
X2773895Y3129054D1*
X2779054Y3123895D1*
X2783341Y3117993D1*
X2786529Y3111765D1*
X2790280Y3120920D1*
X2795194Y3128942D1*
X2801304Y3136097D1*
X2808459Y3142207D1*
X2810646Y3143668D1*
X2804762Y3148109D1*
X2798109Y3154762D1*
X2792579Y3162374D1*
X2788308Y3170756D1*
X2785400Y3179705D1*
X2783929Y3188996D1*
Y3198406D1*
X2785400Y3207697D1*
X2788308Y3216646D1*
X2792579Y3225028D1*
X2798109Y3232639D1*
X2804762Y3239293D1*
X2810646Y3243668D1*
X2804762Y3248109D1*
X2798109Y3254762D1*
X2792579Y3262374D1*
X2788308Y3270756D1*
X2785400Y3279705D1*
X2783929Y3288996D1*
Y3298406D1*
X2785400Y3307697D1*
X2788308Y3316646D1*
X2792579Y3325028D1*
X2798109Y3332639D1*
X2804762Y3339293D1*
X2810646Y3343668D1*
X2804762Y3348109D1*
X2798109Y3354762D1*
X2792579Y3362374D1*
X2788308Y3370756D1*
X2785400Y3379705D1*
X2783929Y3388996D1*
Y3398406D1*
X2785400Y3407697D1*
X2788308Y3416646D1*
X2792579Y3425028D1*
X2798109Y3432639D1*
X2804762Y3439293D1*
X2810646Y3443668D1*
X2804762Y3448109D1*
X2798109Y3454762D1*
X2792579Y3462374D1*
X2788308Y3470756D1*
X2785400Y3479705D1*
X2783929Y3488996D1*
Y3498406D1*
X2785400Y3507697D1*
X2788308Y3516646D1*
X2792579Y3525028D1*
X2798109Y3532639D1*
X2804762Y3539293D1*
X2812374Y3544823D1*
X2820756Y3549093D1*
X2829705Y3552001D1*
X2838996Y3553472D1*
X2848406D1*
X2857697Y3552001D1*
X2866646Y3549093D1*
X2875028Y3544823D1*
X2882639Y3539293D1*
X2889293Y3532639D1*
X2893668Y3526756D1*
X2898109Y3532639D1*
X2904762Y3539293D1*
X2912374Y3544823D1*
X2920756Y3549093D1*
X2929705Y3552001D1*
X2938996Y3553472D1*
X2948406D1*
X2957697Y3552001D1*
X2966646Y3549093D1*
X2975028Y3544823D1*
X2982639Y3539293D1*
X2989293Y3532639D1*
X2994823Y3525028D1*
X2999093Y3516646D1*
X3002001Y3507697D1*
X3003472Y3498406D1*
Y3488996D1*
X3002001Y3479705D1*
X2999093Y3470756D1*
X2994823Y3462374D1*
X2989293Y3454762D1*
X2982639Y3448109D1*
X2976756Y3443734D1*
X2982639Y3439293D1*
X2989293Y3432639D1*
X2994823Y3425028D1*
X2999093Y3416646D1*
X3002001Y3407697D1*
X3003472Y3398406D1*
Y3388996D1*
X3002001Y3379705D1*
X2999093Y3370756D1*
X2994823Y3362374D1*
X2989293Y3354762D1*
X2982639Y3348109D1*
X2976756Y3343734D1*
X2982639Y3339293D1*
X2989293Y3332639D1*
X2994823Y3325028D1*
X2999093Y3316646D1*
X3002001Y3307697D1*
X3003472Y3298406D1*
Y3288996D1*
X3002001Y3279705D1*
X2999093Y3270756D1*
X2994823Y3262374D1*
X2989293Y3254762D1*
X2982639Y3248109D1*
X2976756Y3243734D1*
X2982639Y3239293D1*
X2989293Y3232639D1*
X2994823Y3225028D1*
X2999093Y3216646D1*
X3002001Y3207697D1*
X3003472Y3198406D1*
Y3188996D1*
X3002001Y3179705D1*
X2999093Y3170756D1*
X2994823Y3162374D1*
X2989293Y3154762D1*
X2988469Y3153657D1*
X3003657D1*
Y3033744D1*
X2883744D1*
Y3049081D1*
X2878942Y3045194D1*
X2870920Y3040280D1*
X2862228Y3036678D1*
X2853080Y3034482D1*
X2843701Y3033744D1*
X2834322Y3034482D1*
X2825173Y3036678D1*
X2816482Y3040280D1*
X2808459Y3045194D1*
X2801304Y3051304D1*
X2795194Y3058459D1*
X2790280Y3066482D1*
X2786678Y3075173D1*
X2786543Y3075651D1*
X2783341Y3069408D1*
X2779054Y3063507D1*
X2773895Y3058348D1*
X2767993Y3054060D1*
X2761492Y3050748D1*
X2754554Y3048493D1*
X2747349Y3047352D1*
X2740052D1*
X2732848Y3048493D1*
X2725909Y3050748D1*
X2719408Y3054060D1*
X2714951Y3057209D1*
X1788213D1*
X1789621Y3050974D1*
X1790193Y3043701D1*
X1789621Y3036428D1*
X1787917Y3029333D1*
X1785126Y3022593D1*
X1781314Y3016374D1*
X1780193Y3014951D1*
Y2888501D1*
X1785093Y2891377D1*
X1791833Y2894168D1*
X1798928Y2895871D1*
X1806201Y2896444D1*
X1813474Y2895871D1*
X1820568Y2894168D1*
X1827308Y2891377D1*
X1833528Y2887564D1*
X1839076Y2882827D1*
X1843814Y2877278D1*
X1847626Y2871059D1*
X1850417Y2864319D1*
X1852121Y2857224D1*
X1852693Y2849951D1*
X1852121Y2842678D1*
X1851450Y2839308D1*
X1851492Y2476474D1*
X1856117Y2471028D1*
X1859929Y2464808D1*
X1862720Y2458068D1*
X1864424Y2450974D1*
X1864996Y2443701D1*
X1864424Y2436428D1*
X1862720Y2429333D1*
X1859929Y2422593D1*
X1856117Y2416374D1*
X1851379Y2410825D1*
X1845831Y2406088D1*
X1839612Y2402276D1*
X1832871Y2399484D1*
X1825777Y2397781D1*
X1818504Y2397209D1*
X1811231Y2397781D1*
X1804136Y2399484D1*
X1797396Y2402276D1*
X1791177Y2406088D1*
X1785629Y2410825D1*
X1781112Y2416093D1*
X1776576Y2410825D1*
X1771028Y2406088D1*
X1764808Y2402276D1*
X1758068Y2399484D1*
X1750974Y2397781D1*
X1743701Y2397209D1*
X1736428Y2397781D1*
X1729333Y2399484D1*
X1722593Y2402276D1*
X1716374Y2406088D1*
X1710825Y2410825D1*
X1706088Y2416374D1*
X1702276Y2422593D1*
X1699484Y2429333D1*
X1697781Y2436428D1*
X1697209Y2443701D1*
X1697781Y2450974D1*
X1699484Y2458068D1*
X1702276Y2464808D1*
X1706088Y2471028D1*
X1707209Y2472450D1*
X1707185Y2523193D1*
X1699912Y2523765D1*
X1692818Y2525469D1*
X1686077Y2528260D1*
X1679858Y2532072D1*
X1678436Y2533193D1*
X911022D1*
X906478Y2530045D1*
X899976Y2526732D1*
X893038Y2524478D1*
X885833Y2523336D1*
X878537D1*
X871332Y2524478D1*
X864394Y2526732D1*
X857892Y2530045D1*
X851991Y2534332D1*
X846832Y2539491D1*
X842545Y2545392D1*
X839232Y2551894D1*
X836978Y2558832D1*
X835836Y2566037D1*
Y2573333D1*
X836978Y2580538D1*
X838496Y2585483D1*
X831945Y2587769D1*
X823563Y2592039D1*
X815951Y2597570D1*
X809298Y2604223D1*
X804923Y2610106D1*
X800482Y2604223D1*
X793828Y2597570D1*
X786217Y2592039D1*
X777835Y2587769D1*
X768886Y2584861D1*
X759594Y2583390D1*
X750185D1*
X740894Y2584861D1*
X731945Y2587769D1*
X723563Y2592039D1*
X715951Y2597570D1*
X709298Y2604223D1*
X704923Y2610106D1*
X700482Y2604223D1*
X693828Y2597570D1*
X686217Y2592039D1*
X677835Y2587769D1*
X668886Y2584861D1*
X659594Y2583390D1*
X650185D1*
X640894Y2584861D1*
X631945Y2587769D1*
X623563Y2592039D1*
X615951Y2597570D1*
X609298Y2604223D1*
X603768Y2611835D1*
X599497Y2620217D1*
X596589Y2629165D1*
X595118Y2638457D1*
Y2647866D1*
X596589Y2657157D1*
X599497Y2666106D1*
X603768Y2674488D1*
X609298Y2682100D1*
X615951Y2688753D1*
X621835Y2693129D1*
X615951Y2697570D1*
X609298Y2704223D1*
X603768Y2711835D1*
X599497Y2720217D1*
X596589Y2729165D1*
X595118Y2738457D1*
Y2747866D1*
X596589Y2757157D1*
X599497Y2766106D1*
X603768Y2774488D1*
X609298Y2782100D1*
X615951Y2788753D1*
X623563Y2794283D1*
X631945Y2798554D1*
X640894Y2801462D1*
X650185Y2802933D1*
X659594D1*
X668886Y2801462D1*
X677835Y2798554D1*
X686217Y2794283D1*
X693828Y2788753D1*
X700482Y2782100D1*
X704857Y2776217D1*
X709298Y2782100D1*
X715951Y2788753D1*
X723563Y2794283D1*
X731945Y2798554D1*
X740894Y2801462D1*
X750185Y2802933D1*
X759594D1*
X768886Y2801462D1*
X777835Y2798554D1*
X786217Y2794283D1*
X793828Y2788753D1*
X794933Y2787929D1*
Y2803118D1*
X796770D1*
X626622Y1783364D2*
X640122D1*
X636235Y1788165D1*
X631320Y1796188D1*
X627719Y1804879D1*
X625522Y1814028D1*
X624785Y1823407D1*
X625522Y1832786D1*
X627719Y1841934D1*
X631320Y1850626D1*
X636235Y1858648D1*
X642345Y1865803D1*
X649500Y1871913D1*
X657522Y1876828D1*
X666214Y1880429D1*
X675362Y1882626D1*
X684741Y1883364D1*
X694121Y1882626D1*
X703269Y1880429D1*
X711961Y1876828D1*
X719983Y1871913D1*
X727138Y1865803D1*
X733248Y1858648D1*
X734709Y1856462D1*
X739150Y1862345D1*
X745803Y1868999D1*
X753415Y1874529D1*
X761797Y1878799D1*
X770745Y1881707D1*
X780037Y1883178D1*
X789446D1*
X798738Y1881707D1*
X807686Y1878799D1*
X816068Y1874529D1*
X823680Y1868999D1*
X830333Y1862345D1*
X834709Y1856462D1*
X839150Y1862345D1*
X845803Y1868999D1*
X853415Y1874529D1*
X861797Y1878799D1*
X870745Y1881707D1*
X880037Y1883178D1*
X889446D1*
X898738Y1881707D1*
X907686Y1878799D1*
X916068Y1874529D1*
X923680Y1868999D1*
X930333Y1862345D1*
X935864Y1854734D1*
X940134Y1846352D1*
X943042Y1837403D1*
X944513Y1828112D1*
Y1818702D1*
X943042Y1809411D1*
X940134Y1800462D1*
X935864Y1792080D1*
X930333Y1784469D1*
X923680Y1777815D1*
X917797Y1773440D1*
X923890Y1768818D1*
X929148Y1763690D1*
X933741Y1757959D1*
X937598Y1751709D1*
X940661Y1745034D1*
X942886Y1738034D1*
X944239Y1730815D1*
X944698Y1723407D1*
X944248Y1716076D1*
X942906Y1708856D1*
X940690Y1701853D1*
X937635Y1695175D1*
X933786Y1688919D1*
X929202Y1683181D1*
X923950Y1678047D1*
X918109Y1673593D1*
X911769Y1669887D1*
X905022Y1666984D1*
X897971Y1664928D1*
X890722Y1663749D1*
X883383Y1663466D1*
X876064Y1664081D1*
X868877Y1665588D1*
X861927Y1667961D1*
X855318Y1671167D1*
X849151Y1675156D1*
X843518Y1679869D1*
X838505Y1685236D1*
X834741Y1690331D1*
X830413Y1684562D1*
X825322Y1679269D1*
X819621Y1674639D1*
X813396Y1670740D1*
X806741Y1667633D1*
X799757Y1665361D1*
X792547Y1663961D1*
X785220Y1663451D1*
X777886Y1663844D1*
X770655Y1665129D1*
X763635Y1667287D1*
X756932Y1670290D1*
X750647Y1674088D1*
X744698Y1678787D1*
Y1663450D1*
X624785D1*
Y1783364D1*
X626622D1*
X3035581Y1153657D2*
X3049081D1*
X3045194Y1158459D1*
X3040280Y1166482D1*
X3036678Y1175173D1*
X3034482Y1184322D1*
X3033744Y1193701D1*
X3034482Y1203080D1*
X3036678Y1212228D1*
X3040280Y1220920D1*
X3045194Y1228942D1*
X3051304Y1236097D1*
X3058459Y1242207D1*
X3066482Y1247122D1*
X3075173Y1250723D1*
X3084322Y1252920D1*
X3093701Y1253657D1*
X3103080Y1252920D1*
X3112228Y1250723D1*
X3120920Y1247122D1*
X3128942Y1242207D1*
X3136097Y1236097D1*
X3142207Y1228942D1*
X3147122Y1220920D1*
X3150723Y1212228D1*
X3152920Y1203080D1*
X3153657Y1193701D1*
X3152920Y1184322D1*
X3150723Y1175173D1*
X3147122Y1166482D1*
X3142207Y1158459D1*
X3138281Y1153668D1*
X3153657Y1153657D1*
Y1033744D1*
X3033744D1*
Y1153657D1*
X3035581D1*
X2785581D2*
X2799081D1*
X2795194Y1158459D1*
X2790280Y1166482D1*
X2786678Y1175173D1*
X2784482Y1184322D1*
X2783744Y1193701D1*
X2784482Y1203080D1*
X2786678Y1212228D1*
X2790280Y1220920D1*
X2795194Y1228942D1*
X2801304Y1236097D1*
X2808459Y1242207D1*
X2816482Y1247122D1*
X2825173Y1250723D1*
X2834322Y1252920D1*
X2843701Y1253657D1*
X2853080Y1252920D1*
X2862228Y1250723D1*
X2870920Y1247122D1*
X2878942Y1242207D1*
X2886097Y1236097D1*
X2892207Y1228942D1*
X2897122Y1220920D1*
X2900723Y1212228D1*
X2902920Y1203080D1*
X2903657Y1193701D1*
X2902920Y1184322D1*
X2900723Y1175173D1*
X2897122Y1166482D1*
X2892207Y1158459D1*
X2888281Y1153668D1*
X2903657Y1153657D1*
Y1033744D1*
X2783744D1*
Y1153657D1*
X2785581D1*
X3035581Y1453657D2*
X3049081D1*
X3045194Y1458459D1*
X3040280Y1466482D1*
X3036678Y1475173D1*
X3034482Y1484322D1*
X3033744Y1493701D1*
X3034482Y1503080D1*
X3036678Y1512228D1*
X3040280Y1520920D1*
X3045194Y1528942D1*
X3051304Y1536097D1*
X3058459Y1542207D1*
X3066482Y1547122D1*
X3075173Y1550723D1*
X3084322Y1552920D1*
X3093701Y1553657D1*
X3103080Y1552920D1*
X3112228Y1550723D1*
X3120920Y1547122D1*
X3128942Y1542207D1*
X3136097Y1536097D1*
X3142207Y1528942D1*
X3147122Y1520920D1*
X3150723Y1512228D1*
X3152920Y1503080D1*
X3153657Y1493701D1*
X3152920Y1484322D1*
X3150723Y1475173D1*
X3147122Y1466482D1*
X3142207Y1458459D1*
X3138281Y1453668D1*
X3153657Y1453657D1*
Y1333744D1*
X3033744D1*
Y1453657D1*
X3035581D1*
X2560581Y1153657D2*
X2574081D1*
X2570194Y1158459D1*
X2565280Y1166482D1*
X2561678Y1175173D1*
X2559482Y1184322D1*
X2558744Y1193701D1*
X2559482Y1203080D1*
X2561678Y1212228D1*
X2565280Y1220920D1*
X2570194Y1228942D1*
X2576304Y1236097D1*
X2583459Y1242207D1*
X2591482Y1247122D1*
X2600173Y1250723D1*
X2609322Y1252920D1*
X2618701Y1253657D1*
X2628080Y1252920D1*
X2637228Y1250723D1*
X2645920Y1247122D1*
X2653942Y1242207D1*
X2661097Y1236097D1*
X2667207Y1228942D1*
X2672122Y1220920D1*
X2675723Y1212228D1*
X2677920Y1203080D1*
X2678657Y1193701D1*
X2677920Y1184322D1*
X2675723Y1175173D1*
X2672122Y1166482D1*
X2667207Y1158459D1*
X2663281Y1153668D1*
X2678657Y1153657D1*
Y1033744D1*
X2558744D1*
Y1153657D1*
X2560581D1*
X2116034Y2616037D2*
X2114892Y2608832D1*
X2112638Y2601894D1*
X2109325Y2595392D1*
X2106177Y2590936D1*
Y2523479D1*
X2109325Y2518978D1*
X2112638Y2512476D1*
X2114892Y2505538D1*
X2116034Y2498333D1*
Y2491037D1*
X2114892Y2483832D1*
X2112638Y2476894D1*
X2109325Y2470392D1*
X2105038Y2464491D1*
X2099879Y2459332D1*
X2093978Y2455045D1*
X2087476Y2451732D1*
X2080538Y2449478D1*
X2073333Y2448336D1*
X2066037D1*
X2058832Y2449478D1*
X2051894Y2451732D1*
X2045392Y2455045D1*
X2039491Y2459332D1*
X2034332Y2464491D1*
X2030045Y2470392D1*
X2026732Y2476894D1*
X2024478Y2483832D1*
X2023336Y2491037D1*
Y2498333D1*
X2024478Y2505538D1*
X2026732Y2512476D1*
X2030045Y2518978D1*
X2033193Y2523434D1*
Y2590891D1*
X2030045Y2595392D1*
X2026732Y2601894D1*
X2024478Y2608832D1*
X2023336Y2616037D1*
Y2623333D1*
X2024478Y2630538D1*
X2026732Y2637476D1*
X2030045Y2643978D1*
X2034332Y2649879D1*
X2039491Y2655038D1*
X2045392Y2659325D1*
X2051894Y2662638D1*
X2058832Y2664892D1*
X2066037Y2666034D1*
X2073333D1*
X2080538Y2664892D1*
X2087476Y2662638D1*
X2093978Y2659325D1*
X2099879Y2655038D1*
X2105038Y2649879D1*
X2109325Y2643978D1*
X2112638Y2637476D1*
X2114892Y2630538D1*
X2116034Y2623333D1*
Y2616037D1*
X827550Y2890052D2*
X826408Y2882848D1*
X824154Y2875909D1*
X820841Y2869408D1*
X816554Y2863507D1*
X811395Y2858348D1*
X805493Y2854060D1*
X798992Y2850748D1*
X792054Y2848493D1*
X784849Y2847352D1*
X777552D1*
X770348Y2848493D1*
X763409Y2850748D1*
X756908Y2854060D1*
X751007Y2858348D1*
X748441Y2860719D1*
X676455Y2860713D1*
X671028Y2856088D1*
X664808Y2852276D1*
X658068Y2849484D1*
X650974Y2847781D1*
X643701Y2847209D1*
X636428Y2847781D1*
X629333Y2849484D1*
X622593Y2852276D1*
X616374Y2856088D1*
X610825Y2860825D1*
X606088Y2866374D1*
X602276Y2872593D1*
X599484Y2879333D1*
X597781Y2886428D1*
X597209Y2893701D1*
X597781Y2900974D1*
X599484Y2908068D1*
X602276Y2914808D1*
X606088Y2921028D1*
X610825Y2926576D1*
X616374Y2931314D1*
X622593Y2935126D1*
X629333Y2937917D1*
X636428Y2939621D1*
X643701Y2940193D1*
X650974Y2939621D1*
X658068Y2937917D1*
X664808Y2935126D1*
X671028Y2931314D1*
X676461Y2926682D1*
X748446Y2926689D1*
X753874Y2931314D1*
X760093Y2935126D1*
X766833Y2937917D1*
X773928Y2939621D1*
X781201Y2940193D1*
X788474Y2939621D1*
X795568Y2937917D1*
X802308Y2935126D1*
X808528Y2931314D1*
X814076Y2926576D1*
X818814Y2921028D1*
X822626Y2914808D1*
X825417Y2908068D1*
X827121Y2900974D1*
X827693Y2893701D1*
X827550Y2890052D1*
X1915050Y2340052D2*
X1913908Y2332848D1*
X1911654Y2325909D1*
X1908341Y2319408D1*
X1904054Y2313507D1*
X1898895Y2308348D1*
X1892993Y2304060D1*
X1886492Y2300748D1*
X1879554Y2298493D1*
X1872349Y2297352D1*
X1865052D1*
X1857848Y2298493D1*
X1850909Y2300748D1*
X1844408Y2304060D1*
X1838507Y2308348D1*
X1833348Y2313507D1*
X1829060Y2319408D1*
X1825748Y2325909D1*
X1823493Y2332848D1*
X1822352Y2340052D1*
Y2347349D1*
X1823493Y2354554D1*
X1825748Y2361492D1*
X1829060Y2367993D1*
X1833348Y2373895D1*
X1838507Y2379054D1*
X1844408Y2383341D1*
X1850909Y2386654D1*
X1857848Y2388908D1*
X1865052Y2390050D1*
X1872349D1*
X1879554Y2388908D1*
X1886492Y2386654D1*
X1892993Y2383341D1*
X1898895Y2379054D1*
X1904054Y2373895D1*
X1908341Y2367993D1*
X1911654Y2361492D1*
X1913908Y2354554D1*
X1915050Y2347349D1*
Y2340052D1*
X432209Y432185D2*
X3622959D1*
X3622933Y3898550D1*
X432159Y3898524D1*
X432185Y432159D1*
X2453913Y2803841D2*
D14*
X2573777Y2683978D1*
Y2803841D2*
X2513845Y2743909D1*
X2283739Y1784807D2*
X2403602Y1664944D1*
X2343671Y1724875D2*
X2283739Y1664944D1*
X2443671Y1724875D2*
X2486041Y1682505D1*
X2443671Y1724875D2*
X2401301Y1682505D1*
X2543671Y1724875D2*
X2586041Y1682505D1*
Y1767245D2*
X2501301Y1682505D1*
X794958Y2803093D2*
X914822Y2683230D1*
Y2803093D2*
X854890Y2743161D1*
X624810Y1783339D2*
X744673Y1663475D1*
X684741Y1723407D2*
X624810Y1663475D1*
X784741Y1723407D2*
X827112Y1681037D1*
X784741Y1723407D2*
X742371Y1681037D1*
X884741Y1723407D2*
X927112Y1681037D1*
Y1765777D2*
X842371Y1681037D1*
X2943701Y2343701D2*
X3003633Y2283769D1*
Y2403633D2*
X2883769Y2283769D1*
X2943701Y3093701D2*
X3003633Y3033769D1*
Y3153633D2*
X2883769Y3033769D1*
X2783769Y1453633D2*
X2903633Y1333769D1*
Y1453633D2*
X2783769Y1333769D1*
X3033769Y1153633D2*
X3153633Y1033769D1*
Y1153633D2*
X3033769Y1033769D1*
X2783769Y1153633D2*
X2903633Y1033769D1*
Y1153633D2*
X2783769Y1033769D1*
X3033769Y1453633D2*
X3153633Y1333769D1*
Y1453633D2*
X3033769Y1333769D1*
X3143701Y2593701D2*
X3203633Y2533769D1*
Y2653633D2*
X3143701Y2593701D1*
X3083769Y2403633D2*
X3203633Y2283769D1*
Y2403633D2*
X3083769Y2283769D1*
X2558769Y1153633D2*
X2678633Y1033769D1*
Y1153633D2*
X2558769Y1033769D1*
D19*
X2513845Y2743909D3*
D20*
Y2643909D3*
X2413845Y2743909D3*
Y2643909D3*
X2313845Y2743909D3*
Y2643909D3*
D19*
X2343671Y1724875D3*
D20*
Y1824875D3*
X2443671Y1724875D3*
Y1824875D3*
X2543671Y1724875D3*
Y1824875D3*
D19*
X854890Y2743161D3*
D20*
Y2643161D3*
X754890Y2743161D3*
Y2643161D3*
X654890Y2743161D3*
Y2643161D3*
D19*
X684741Y1723407D3*
D20*
Y1823407D3*
X784741Y1723407D3*
Y1823407D3*
X884741Y1723407D3*
Y1823407D3*
D19*
X2943701Y2343701D3*
D20*
X2843701D3*
X2943701Y2443701D3*
X2843701D3*
X2943701Y2543701D3*
X2843701D3*
X2943701Y2643701D3*
X2843701D3*
X2943701Y2743701D3*
X2843701D3*
D19*
X2943701Y3093701D3*
D20*
X2843701D3*
X2943701Y3193701D3*
X2843701D3*
X2943701Y3293701D3*
X2843701D3*
X2943701Y3393701D3*
X2843701D3*
X2943701Y3493701D3*
X2843701D3*
D19*
Y1393701D3*
D20*
Y1493701D3*
D19*
X3093701Y1093701D3*
D20*
Y1193701D3*
D19*
X2843701Y1093701D3*
D20*
Y1193701D3*
D19*
X3093701Y1393701D3*
D20*
Y1493701D3*
D19*
X3143701Y2593701D3*
D20*
Y2693701D3*
D19*
Y2343701D3*
D20*
Y2443701D3*
D19*
X2618701Y1093701D3*
D20*
Y1193701D3*
M02*
