M48
INCH
T01C0.0191
T02C0.0433
T03C0.1969
%
T01
X+029937Y+029937
X+030437Y+032437
X+027437Y+030937
X+026437Y+028437
X+026447Y+026697
X+020697Y+026197
X+020697Y+024947
X+018687Y+023437
X+018185Y+024437
X+017437Y+024437
X+017072Y+025697
X+018062Y+028500
X+017437Y+030437
X+017437Y+030937
X+007812Y+028937
X+006437Y+028937
X+008822Y+025697
T02
X+025138Y+027439
X+025138Y+026439
X+024138Y+026439
X+024138Y+027439
X+023138Y+027439
X+023138Y+026439
X+028437Y+026437
X+028437Y+025437
X+028437Y+024437
X+028437Y+023437
X+029437Y+023437
X+029437Y+024437
X+029437Y+025437
X+029437Y+026437
X+029437Y+027437
X+028437Y+027437
X+031437Y+026937
X+031437Y+025937
X+031437Y+024437
X+031437Y+023437
X+029437Y+030937
X+028437Y+030937
X+028437Y+031937
X+029437Y+031937
X+029437Y+032937
X+028437Y+032937
X+028437Y+033937
X+029437Y+033937
X+029437Y+034937
X+028437Y+034937
X+025437Y+018249
X+025437Y+017249
X+024437Y+017249
X+023437Y+017249
X+023437Y+018249
X+024437Y+018249
X+028437Y+014937
X+028437Y+013937
X+028437Y+011937
X+028437Y+010937
X+026187Y+010937
X+026187Y+011937
X+030937Y+011937
X+030937Y+010937
X+030937Y+013937
X+030937Y+014937
X+008847Y+017234
X+007847Y+017234
X+006847Y+017234
X+006847Y+018234
X+007847Y+018234
X+008847Y+018234
X+008549Y+026432
X+007549Y+026432
X+006549Y+026432
X+006549Y+027432
X+007549Y+027432
X+008549Y+027432
T03
X+008679Y+036013
X+024831Y+036017
X+024851Y+007295
X+008693Y+007292
T00
M30
