G04 DipTrace 3.3.1.3*
G04 Top.gbr*
%MOIN*%
G04 #@! TF.FileFunction,Copper,L1,Top*
G04 #@! TF.Part,Single*
G04 #@! TA.AperFunction,Conductor*
%ADD14C,0.012992*%
%ADD15C,0.02*%
G04 #@! TA.AperFunction,CopperBalancing*
%ADD16C,0.025*%
%ADD17C,0.01299*%
G04 #@! TA.AperFunction,ComponentPad*
%ADD19R,0.066929X0.066929*%
%ADD20C,0.066929*%
%ADD21R,0.051181X0.059055*%
G04 #@! TA.AperFunction,ViaPad*
%ADD22C,0.04*%
%FSLAX26Y26*%
G04*
G70*
G90*
G75*
G01*
G04 Top*
%LPD*%
X2943701Y3193701D2*
D14*
X2993701D1*
X3043701Y3243701D1*
X854890Y2643161D2*
D15*
Y2596980D1*
X882185Y2569685D1*
X1707185D2*
X1750612Y2613112D1*
X2063112D1*
X2069685Y2619685D1*
X1743701Y3043701D2*
D3*
Y2443701D2*
D3*
Y3043701D2*
Y3093701D1*
X2743701D2*
X2843701D1*
Y2343701D2*
X1868701D1*
X1743701Y2443701D2*
X1681201D1*
X1582185Y2344685D1*
Y2044685D1*
X1407185Y1869685D1*
X632185D1*
X678463Y1823407D1*
X684741D1*
X1818504Y2443701D2*
D14*
X2693701D1*
X2843701D1*
Y3193701D2*
X2737451D1*
X2693701Y3149950D1*
Y2894685D1*
Y2443701D1*
X1818504D2*
D3*
X754890Y2743161D2*
Y2754890D1*
X849951Y2849951D1*
X1806201D1*
X2413845Y2743909D2*
X2419685D1*
Y2819685D1*
X2494685Y2894685D1*
X2693701D1*
X2943701Y3293701D2*
X3043701D1*
X3081201Y3256201D1*
Y2681201D1*
X2943701Y2543701D1*
X754890Y2643161D2*
X743161D1*
X794685Y2694685D1*
X1832185D1*
X1869685Y2732185D1*
Y2932185D1*
X1818504Y2983366D1*
Y3043701D1*
X1995669D1*
X2132185Y2907185D1*
Y2719685D1*
X2157185Y2694685D1*
X2363070D1*
X2413845Y2643909D1*
X2843701Y3293701D2*
X2893701Y3243701D1*
Y2593701D1*
X2843701Y2543701D1*
X654890Y2643161D2*
Y2546980D1*
X719685Y2482185D1*
X1519685D1*
X1694685Y2657185D1*
X2313845D1*
Y2643909D1*
X654890Y2743161D2*
Y2882512D1*
X643701Y2893701D1*
X781201D2*
Y3118701D1*
X869685Y3207185D1*
X2032185D1*
X2313845Y2925525D1*
Y2743909D1*
D22*
X882185Y2569685D3*
X1707185D3*
X1743701Y3043701D3*
Y2443701D3*
Y3093701D3*
X2743701D3*
X1818504Y2443701D3*
X2993701Y2993701D3*
X3043701Y3243701D3*
X2643701Y2843701D3*
X1806201Y2849951D3*
X2069685Y2619685D3*
X781201Y2893701D3*
X643701D3*
X2069685Y2494685D3*
X2644685Y2669685D3*
X1868701Y2343701D3*
X477429Y3431332D2*
D16*
X2794530D1*
X2992875D2*
X3278717D1*
X477501Y3406463D2*
X2782617D1*
X3004789D2*
X3278717D1*
X477537Y3381594D2*
X2782474D1*
X3004932D2*
X3278717D1*
X477609Y3356726D2*
X2793992D1*
X2993413D2*
X3278717D1*
X477644Y3331857D2*
X2794962D1*
X2992444D2*
X3278717D1*
X477680Y3306988D2*
X568276D1*
X477752Y3282119D2*
X564723D1*
X477787Y3257251D2*
X564723D1*
X477860Y3232382D2*
X564723D1*
X477895Y3207513D2*
X564723D1*
X477932Y3182644D2*
X564723D1*
X478004Y3157776D2*
X564723D1*
X478039Y3132907D2*
X564723D1*
X478112Y3108038D2*
X564723D1*
X478147Y3083169D2*
X564723D1*
X478219Y3058301D2*
X564723D1*
X478255Y3033432D2*
X564723D1*
X478290Y3008563D2*
X564723D1*
X478362Y2983694D2*
X564723D1*
X478398Y2958825D2*
X564723D1*
X478470Y2933957D2*
X564723D1*
X478505Y2909088D2*
X564723D1*
X478577Y2884219D2*
X564723D1*
X478613Y2859350D2*
X564723D1*
X478650Y2834482D2*
X564723D1*
X478720Y2809613D2*
X564723D1*
X478757Y2784744D2*
X564723D1*
X478828Y2759875D2*
X564723D1*
X478865Y2735007D2*
X564723D1*
X478936Y2710138D2*
X564723D1*
X478972Y2685269D2*
X564723D1*
X479008Y2660400D2*
X564723D1*
X479080Y2635531D2*
X564723D1*
X479115Y2610663D2*
X564723D1*
X479188Y2585794D2*
X564723D1*
X479223Y2560925D2*
X564723D1*
X479260Y2536056D2*
X564723D1*
X479331Y2511188D2*
X564723D1*
X479367Y2486319D2*
X564723D1*
X479438Y2461450D2*
X564723D1*
X479475Y2436581D2*
X564723D1*
X479546Y2411713D2*
X564723D1*
X479583Y2386844D2*
X564723D1*
X479618Y2361975D2*
X564723D1*
X479690Y2337106D2*
X564723D1*
X479726Y2312238D2*
X564723D1*
X479798Y2287369D2*
X564723D1*
X479833Y2262500D2*
X564723D1*
X479906Y2237631D2*
X564723D1*
X479941Y2212762D2*
X564723D1*
X479976Y2187894D2*
X564723D1*
X480049Y2163025D2*
X564723D1*
X480084Y2138156D2*
X564723D1*
X480156Y2113287D2*
X564723D1*
X480192Y2088419D2*
X565226D1*
X480264Y2063550D2*
X3278717D1*
X480301Y2038681D2*
X3278717D1*
X480336Y2013812D2*
X3278717D1*
X480408Y1988944D2*
X3278717D1*
X480444Y1964075D2*
X3278717D1*
X480516Y1939206D2*
X3278717D1*
X480551Y1914337D2*
X3278717D1*
X480587Y1889469D2*
X3278717D1*
X480659Y1864600D2*
X638681D1*
X730807D2*
X738703D1*
X830816D2*
X838652D1*
X930790D2*
X2296278D1*
X2591080D2*
X3278717D1*
X480694Y1839731D2*
X624542D1*
X944928D2*
X2283073D1*
X2604249D2*
X3278717D1*
X480766Y1814862D2*
X622891D1*
X946579D2*
X2282068D1*
X2605290D2*
X3278717D1*
X480802Y1789993D2*
X632472D1*
X937034D2*
X2292403D1*
X2594919D2*
X3278717D1*
X480874Y1765125D2*
X622282D1*
X930287D2*
X2281207D1*
X2590613D2*
X3278717D1*
X480909Y1740256D2*
X622282D1*
X944785D2*
X2281207D1*
X2604105D2*
X3278717D1*
X480946Y1715387D2*
X622282D1*
X946651D2*
X2281207D1*
X2605361D2*
X3278717D1*
X481017Y1690518D2*
X622282D1*
X937357D2*
X2281207D1*
X2595314D2*
X3278717D1*
X481054Y1665650D2*
X622282D1*
X747206D2*
X766177D1*
X803329D2*
X866151D1*
X903339D2*
X2281207D1*
X2406133D2*
X2431849D1*
X2455474D2*
X2531858D1*
X2555483D2*
X3278717D1*
X481125Y1640781D2*
X3278717D1*
X481161Y1615912D2*
X3278717D1*
X481232Y1591043D2*
X3278717D1*
X481269Y1566175D2*
X3278717D1*
X481304Y1541306D2*
X2804757D1*
X2882639D2*
X3054762D1*
X3132643D2*
X3278717D1*
X2546189Y1516437D2*
X2785739D1*
X2901693D2*
X3035709D1*
X3151663D2*
X3278717D1*
X2546189Y1491568D2*
X2781290D1*
X2906106D2*
X3031294D1*
X3156112D2*
X3278717D1*
X2546189Y1466699D2*
X2787677D1*
X2899719D2*
X3037682D1*
X3149724D2*
X3278717D1*
X2546189Y1441831D2*
X2781253D1*
X2906143D2*
X3031259D1*
X3156148D2*
X3278717D1*
X2546189Y1416962D2*
X2781253D1*
X2906143D2*
X3031259D1*
X3156148D2*
X3278717D1*
X2546189Y1392093D2*
X2781253D1*
X2906143D2*
X3031259D1*
X3156148D2*
X3278717D1*
X2546189Y1367224D2*
X2781253D1*
X2906143D2*
X3031259D1*
X3156148D2*
X3278717D1*
X2546189Y1342356D2*
X2781253D1*
X2906143D2*
X3031259D1*
X3156148D2*
X3278717D1*
X2546189Y1317487D2*
X3278717D1*
X2546189Y1292618D2*
X3278717D1*
X2546189Y1267749D2*
X3278717D1*
X2546189Y1242881D2*
X2581917D1*
X2655492D2*
X2806911D1*
X2880486D2*
X3056916D1*
X3130491D2*
X3278717D1*
X2546189Y1218012D2*
X2561391D1*
X2676017D2*
X2786385D1*
X2901012D2*
X3036390D1*
X3151016D2*
X3278717D1*
X2546189Y1193143D2*
X2556228D1*
X2681148D2*
X2781253D1*
X2906143D2*
X3031259D1*
X3156148D2*
X3278717D1*
X2546189Y1168274D2*
X2561894D1*
X2675479D2*
X2786924D1*
X2900509D2*
X3036892D1*
X3150514D2*
X3278717D1*
X2546189Y1143406D2*
X2556228D1*
X2681148D2*
X2781253D1*
X2906143D2*
X3031259D1*
X3156148D2*
X3278717D1*
X2546189Y1118537D2*
X2556228D1*
X2681148D2*
X2781253D1*
X2906143D2*
X3031259D1*
X3156148D2*
X3278717D1*
X2546189Y1093668D2*
X2556228D1*
X2681148D2*
X2781253D1*
X2906143D2*
X3031259D1*
X3156148D2*
X3278717D1*
X2546189Y1068799D2*
X2556228D1*
X2681148D2*
X2781253D1*
X2906143D2*
X3031259D1*
X3156148D2*
X3278717D1*
X2546189Y1043930D2*
X2556228D1*
X2681148D2*
X2781253D1*
X2906143D2*
X3031259D1*
X3156148D2*
X3278717D1*
X2546189Y1019062D2*
X3278717D1*
X2292903Y1784829D2*
X2299039D1*
X2294123Y1791117D1*
X2290367Y1797429D1*
X2287412Y1804152D1*
X2285301Y1811186D1*
X2284064Y1818427D1*
X2283723Y1825762D1*
X2284281Y1833087D1*
X2285731Y1840286D1*
X2288050Y1847255D1*
X2291203Y1853887D1*
X2295144Y1860085D1*
X2299814Y1865755D1*
X2305142Y1870810D1*
X2311047Y1875176D1*
X2317442Y1878787D1*
X2324231Y1881591D1*
X2331312Y1883542D1*
X2338577Y1884613D1*
X2345920Y1884787D1*
X2353228Y1884063D1*
X2360394Y1882450D1*
X2367308Y1879972D1*
X2373867Y1876669D1*
X2379974Y1872588D1*
X2385535Y1867791D1*
X2390469Y1862350D1*
X2393667Y1857962D1*
X2398583Y1864391D1*
X2403752Y1869608D1*
X2409521Y1874154D1*
X2415803Y1877959D1*
X2422503Y1880969D1*
X2429520Y1883135D1*
X2436749Y1884429D1*
X2444084Y1884828D1*
X2451411Y1884328D1*
X2458622Y1882936D1*
X2465609Y1880672D1*
X2472266Y1877571D1*
X2478495Y1873678D1*
X2484201Y1869054D1*
X2489299Y1863766D1*
X2493667Y1857962D1*
X2498583Y1864391D1*
X2503752Y1869608D1*
X2509521Y1874154D1*
X2515803Y1877959D1*
X2522503Y1880969D1*
X2529520Y1883135D1*
X2536749Y1884429D1*
X2544084Y1884828D1*
X2551411Y1884328D1*
X2558622Y1882936D1*
X2565609Y1880672D1*
X2572266Y1877571D1*
X2578495Y1873678D1*
X2584201Y1869054D1*
X2589299Y1863766D1*
X2593711Y1857896D1*
X2597374Y1851530D1*
X2600230Y1844764D1*
X2602238Y1837698D1*
X2603366Y1830441D1*
X2603597Y1823038D1*
X2602923Y1815724D1*
X2601358Y1808549D1*
X2598929Y1801618D1*
X2595672Y1795035D1*
X2591633Y1788902D1*
X2586874Y1783307D1*
X2581467Y1778336D1*
X2576752Y1774879D1*
X2582608Y1770465D1*
X2589260Y1763812D1*
X2594790Y1756201D1*
X2599060Y1747819D1*
X2601969Y1738871D1*
X2603440Y1729579D1*
Y1720172D1*
X2601969Y1710879D1*
X2599060Y1701932D1*
X2594790Y1693550D1*
X2589260Y1685938D1*
X2582608Y1679286D1*
X2574996Y1673756D1*
X2566614Y1669486D1*
X2557667Y1666577D1*
X2548374Y1665106D1*
X2538967D1*
X2529675Y1666577D1*
X2520727Y1669486D1*
X2512345Y1673756D1*
X2504734Y1679286D1*
X2498081Y1685938D1*
X2493706Y1691822D1*
X2489260Y1685938D1*
X2482608Y1679286D1*
X2474996Y1673756D1*
X2466614Y1669486D1*
X2457667Y1666577D1*
X2448374Y1665106D1*
X2438967D1*
X2429675Y1666577D1*
X2420727Y1669486D1*
X2412345Y1673756D1*
X2404734Y1679286D1*
X2403613Y1680322D1*
X2403625Y1664921D1*
X2283717D1*
Y1784829D1*
X2292903D1*
X633974Y1783361D2*
X640110D1*
X635194Y1789648D1*
X631438Y1795961D1*
X628483Y1802684D1*
X626371Y1809718D1*
X625135Y1816958D1*
X624794Y1824294D1*
X625352Y1831618D1*
X626802Y1838818D1*
X629121Y1845786D1*
X632274Y1852419D1*
X636215Y1858617D1*
X640885Y1864286D1*
X646213Y1869341D1*
X652118Y1873707D1*
X658513Y1877319D1*
X665302Y1880122D1*
X672383Y1882073D1*
X679648Y1883144D1*
X686991Y1883319D1*
X694299Y1882594D1*
X701465Y1880982D1*
X708379Y1878504D1*
X714938Y1875201D1*
X721045Y1871119D1*
X726606Y1866323D1*
X731539Y1860882D1*
X734738Y1856493D1*
X739654Y1862923D1*
X744823Y1868139D1*
X750592Y1872685D1*
X756874Y1876491D1*
X763573Y1879500D1*
X770591Y1881667D1*
X777820Y1882961D1*
X785155Y1883360D1*
X792482Y1882860D1*
X799693Y1881467D1*
X806680Y1879203D1*
X813337Y1876102D1*
X819566Y1872210D1*
X825272Y1867585D1*
X830370Y1862298D1*
X834738Y1856493D1*
X839654Y1862923D1*
X844823Y1868139D1*
X850592Y1872685D1*
X856874Y1876491D1*
X863573Y1879500D1*
X870591Y1881667D1*
X877820Y1882961D1*
X885155Y1883360D1*
X892482Y1882860D1*
X899693Y1881467D1*
X906680Y1879203D1*
X913337Y1876102D1*
X919566Y1872210D1*
X925272Y1867585D1*
X930370Y1862298D1*
X934782Y1856428D1*
X938445Y1850062D1*
X941301Y1843295D1*
X943308Y1836230D1*
X944437Y1828972D1*
X944668Y1821570D1*
X943993Y1814256D1*
X942429Y1807080D1*
X940000Y1800150D1*
X936743Y1793567D1*
X932703Y1787433D1*
X927945Y1781839D1*
X922538Y1776867D1*
X917823Y1773411D1*
X923678Y1768996D1*
X930331Y1762344D1*
X935861Y1754732D1*
X940131Y1746350D1*
X943039Y1737403D1*
X944510Y1728110D1*
Y1718703D1*
X943039Y1709411D1*
X940131Y1700463D1*
X935861Y1692081D1*
X930331Y1684470D1*
X923678Y1677818D1*
X916067Y1672287D1*
X907685Y1668017D1*
X898738Y1665109D1*
X889445Y1663638D1*
X880038D1*
X870745Y1665109D1*
X861798Y1668017D1*
X853416Y1672287D1*
X845804Y1677818D1*
X839152Y1684470D1*
X834777Y1690353D1*
X830331Y1684470D1*
X823678Y1677818D1*
X816067Y1672287D1*
X807685Y1668017D1*
X798738Y1665109D1*
X789445Y1663638D1*
X780038D1*
X770745Y1665109D1*
X761798Y1668017D1*
X753416Y1672287D1*
X745804Y1677818D1*
X744684Y1678853D1*
X744696Y1663453D1*
X624787D1*
Y1783361D1*
X633974D1*
X2976755Y3343665D2*
X2982638Y3339290D1*
X2989290Y3332638D1*
X2993706Y3326693D1*
X3046289Y3326585D1*
X3051402Y3325776D1*
X3056324Y3324176D1*
X3060936Y3321825D1*
X3063097Y3320381D1*
X3074016Y3320190D1*
X3281175D1*
X3281201Y3456148D1*
X2989899Y3455500D1*
X2986094Y3451307D1*
X2978941Y3445197D1*
X2976755Y3443736D1*
X2982638Y3439290D1*
X2989290Y3432638D1*
X2994820Y3425026D1*
X2999091Y3416644D1*
X3001999Y3407697D1*
X3003470Y3398404D1*
Y3388997D1*
X3001999Y3379705D1*
X2999091Y3370757D1*
X2994820Y3362375D1*
X2989290Y3354764D1*
X2982638Y3348112D1*
X2976755Y3343736D1*
X2789950Y3320201D2*
X2792581Y3325026D1*
X2798112Y3332638D1*
X2804764Y3339290D1*
X2810647Y3343665D1*
X2804764Y3348112D1*
X2798112Y3354764D1*
X2792581Y3362375D1*
X2788311Y3370757D1*
X2785403Y3379705D1*
X2783932Y3388997D1*
Y3398404D1*
X2785403Y3407697D1*
X2788311Y3416644D1*
X2792581Y3425026D1*
X2798112Y3432638D1*
X2804764Y3439290D1*
X2810647Y3443665D1*
X2804764Y3448112D1*
X2797873Y3455067D1*
X474927Y3449699D1*
X478835Y1534108D1*
X2532199Y1531161D1*
X2535080Y1530584D1*
X2537747Y1529349D1*
X2540052Y1527528D1*
X2541867Y1525217D1*
X2543094Y1522547D1*
X2543664Y1519660D1*
X2543701Y1006167D1*
X3281217Y1006201D1*
X3281201Y2067215D1*
X591622Y2067293D1*
X587517Y2067944D1*
X583563Y2069227D1*
X579860Y2071114D1*
X576497Y2073558D1*
X573558Y2076497D1*
X571114Y2079860D1*
X569227Y2083563D1*
X567944Y2087517D1*
X567293Y2091622D1*
X567211Y2203937D1*
X567293Y3295780D1*
X567944Y3299885D1*
X569227Y3303839D1*
X571114Y3307542D1*
X573558Y3310904D1*
X576497Y3313844D1*
X579860Y3316287D1*
X583563Y3318175D1*
X587517Y3319458D1*
X591622Y3320109D1*
X703937Y3320190D1*
X2789921D1*
X2893736Y3426755D2*
X2898112Y3432638D1*
X2904764Y3439290D1*
X2910647Y3443665D1*
X2904764Y3448112D1*
X2898112Y3454764D1*
X2897690Y3455298D1*
X2889290Y3454764D1*
X2882638Y3448112D1*
X2876755Y3443736D1*
X2882638Y3439290D1*
X2889290Y3432638D1*
X2893665Y3426755D1*
X2792933Y1453655D2*
X2799070D1*
X2794154Y1459942D1*
X2790398Y1466255D1*
X2787442Y1472978D1*
X2785331Y1480012D1*
X2784094Y1487252D1*
X2783753Y1494588D1*
X2784311Y1501912D1*
X2785761Y1509112D1*
X2788080Y1516080D1*
X2791234Y1522713D1*
X2795175Y1528911D1*
X2799844Y1534580D1*
X2805172Y1539635D1*
X2811077Y1544001D1*
X2817472Y1547613D1*
X2824261Y1550416D1*
X2831343Y1552367D1*
X2838608Y1553438D1*
X2845950Y1553613D1*
X2853259Y1552888D1*
X2860424Y1551276D1*
X2867339Y1548798D1*
X2873898Y1545495D1*
X2880004Y1541413D1*
X2885566Y1536617D1*
X2890499Y1531176D1*
X2894730Y1525173D1*
X2898196Y1518697D1*
X2900843Y1511846D1*
X2902633Y1504723D1*
X2903538Y1497434D1*
X2903542Y1490029D1*
X2902644Y1482739D1*
X2900862Y1475614D1*
X2898222Y1468761D1*
X2894762Y1462282D1*
X2890538Y1456274D1*
X2888314Y1453654D1*
X2903655Y1453655D1*
Y1333747D1*
X2783747D1*
Y1453655D1*
X2792933D1*
X3042933Y1153655D2*
X3049070D1*
X3044154Y1159942D1*
X3040398Y1166255D1*
X3037442Y1172978D1*
X3035331Y1180012D1*
X3034094Y1187252D1*
X3033753Y1194588D1*
X3034311Y1201912D1*
X3035761Y1209112D1*
X3038080Y1216080D1*
X3041234Y1222713D1*
X3045175Y1228911D1*
X3049844Y1234580D1*
X3055172Y1239635D1*
X3061077Y1244001D1*
X3067472Y1247613D1*
X3074261Y1250416D1*
X3081343Y1252367D1*
X3088608Y1253438D1*
X3095950Y1253613D1*
X3103259Y1252888D1*
X3110424Y1251276D1*
X3117339Y1248798D1*
X3123898Y1245495D1*
X3130004Y1241413D1*
X3135566Y1236617D1*
X3140499Y1231176D1*
X3144730Y1225173D1*
X3148196Y1218697D1*
X3150843Y1211846D1*
X3152633Y1204723D1*
X3153538Y1197434D1*
X3153542Y1190029D1*
X3152644Y1182739D1*
X3150862Y1175614D1*
X3148222Y1168761D1*
X3144762Y1162282D1*
X3140538Y1156274D1*
X3138314Y1153654D1*
X3153655Y1153655D1*
Y1033747D1*
X3033747D1*
Y1153655D1*
X3042933D1*
X2792933D2*
X2799070D1*
X2794154Y1159942D1*
X2790398Y1166255D1*
X2787442Y1172978D1*
X2785331Y1180012D1*
X2784094Y1187252D1*
X2783753Y1194588D1*
X2784311Y1201912D1*
X2785761Y1209112D1*
X2788080Y1216080D1*
X2791234Y1222713D1*
X2795175Y1228911D1*
X2799844Y1234580D1*
X2805172Y1239635D1*
X2811077Y1244001D1*
X2817472Y1247613D1*
X2824261Y1250416D1*
X2831343Y1252367D1*
X2838608Y1253438D1*
X2845950Y1253613D1*
X2853259Y1252888D1*
X2860424Y1251276D1*
X2867339Y1248798D1*
X2873898Y1245495D1*
X2880004Y1241413D1*
X2885566Y1236617D1*
X2890499Y1231176D1*
X2894730Y1225173D1*
X2898196Y1218697D1*
X2900843Y1211846D1*
X2902633Y1204723D1*
X2903538Y1197434D1*
X2903542Y1190029D1*
X2902644Y1182739D1*
X2900862Y1175614D1*
X2898222Y1168761D1*
X2894762Y1162282D1*
X2890538Y1156274D1*
X2888314Y1153654D1*
X2903655Y1153655D1*
Y1033747D1*
X2783747D1*
Y1153655D1*
X2792933D1*
X3042933Y1453655D2*
X3049070D1*
X3044154Y1459942D1*
X3040398Y1466255D1*
X3037442Y1472978D1*
X3035331Y1480012D1*
X3034094Y1487252D1*
X3033753Y1494588D1*
X3034311Y1501912D1*
X3035761Y1509112D1*
X3038080Y1516080D1*
X3041234Y1522713D1*
X3045175Y1528911D1*
X3049844Y1534580D1*
X3055172Y1539635D1*
X3061077Y1544001D1*
X3067472Y1547613D1*
X3074261Y1550416D1*
X3081343Y1552367D1*
X3088608Y1553438D1*
X3095950Y1553613D1*
X3103259Y1552888D1*
X3110424Y1551276D1*
X3117339Y1548798D1*
X3123898Y1545495D1*
X3130004Y1541413D1*
X3135566Y1536617D1*
X3140499Y1531176D1*
X3144730Y1525173D1*
X3148196Y1518697D1*
X3150843Y1511846D1*
X3152633Y1504723D1*
X3153538Y1497434D1*
X3153542Y1490029D1*
X3152644Y1482739D1*
X3150862Y1475614D1*
X3148222Y1468761D1*
X3144762Y1462282D1*
X3140538Y1456274D1*
X3138314Y1453654D1*
X3153655Y1453655D1*
Y1333747D1*
X3033747D1*
Y1453655D1*
X3042933D1*
X2567933Y1153655D2*
X2574070D1*
X2569154Y1159942D1*
X2565398Y1166255D1*
X2562442Y1172978D1*
X2560331Y1180012D1*
X2559094Y1187252D1*
X2558753Y1194588D1*
X2559311Y1201912D1*
X2560761Y1209112D1*
X2563080Y1216080D1*
X2566234Y1222713D1*
X2570175Y1228911D1*
X2574844Y1234580D1*
X2580172Y1239635D1*
X2586077Y1244001D1*
X2592472Y1247613D1*
X2599261Y1250416D1*
X2606343Y1252367D1*
X2613608Y1253438D1*
X2620950Y1253613D1*
X2628259Y1252888D1*
X2635424Y1251276D1*
X2642339Y1248798D1*
X2648898Y1245495D1*
X2655004Y1241413D1*
X2660566Y1236617D1*
X2665499Y1231176D1*
X2669730Y1225173D1*
X2673196Y1218697D1*
X2675843Y1211846D1*
X2677633Y1204723D1*
X2678538Y1197434D1*
X2678542Y1190029D1*
X2677644Y1182739D1*
X2675862Y1175614D1*
X2673222Y1168761D1*
X2669762Y1162282D1*
X2665538Y1156274D1*
X2663314Y1153654D1*
X2678655Y1153655D1*
Y1033747D1*
X2558747D1*
Y1153655D1*
X2567933D1*
X2301302Y1867244D2*
D17*
X2343671Y1824875D1*
X2386039Y1867244D2*
X2301302Y1782507D1*
X2401302Y1867244D2*
X2443671Y1824875D1*
X2486039Y1867244D2*
X2443671Y1824875D1*
X2501302Y1867244D2*
X2586039Y1782507D1*
Y1867244D2*
X2543671Y1824875D1*
X642373Y1865776D2*
X684741Y1823407D1*
X727110Y1865776D2*
X642373Y1781038D1*
X742373Y1865776D2*
X784741Y1823407D1*
X827110Y1865776D2*
X784741Y1823407D1*
X842373Y1865776D2*
X927110Y1781038D1*
Y1865776D2*
X884741Y1823407D1*
X2801332Y1536070D2*
X2886070Y1451332D1*
Y1536070D2*
X2801332Y1451332D1*
X3051332Y1236070D2*
X3136070Y1151332D1*
Y1236070D2*
X3051332Y1151332D1*
X2801332Y1236070D2*
X2886070Y1151332D1*
Y1236070D2*
X2801332Y1151332D1*
X3051332Y1536070D2*
X3136070Y1451332D1*
Y1536070D2*
X3051332Y1451332D1*
X2576332Y1236070D2*
X2661070Y1151332D1*
Y1236070D2*
X2576332Y1151332D1*
X608719Y3256332D2*
D16*
X2794304D1*
X2993079D2*
X3031930D1*
X3116701D2*
X3278706D1*
X608719Y3231463D2*
X844861D1*
X2057004D2*
X2794627D1*
X2992756D2*
X3045710D1*
X3116701D2*
X3278706D1*
X608719Y3206594D2*
X819957D1*
X2081908D2*
X2701185D1*
X3004741D2*
X3045710D1*
X3116701D2*
X3278706D1*
X608719Y3181726D2*
X795089D1*
X2106776D2*
X2676318D1*
X3004957D2*
X3045710D1*
X3116701D2*
X3278706D1*
X608719Y3156857D2*
X770222D1*
X868520D2*
X2033381D1*
X2131680D2*
X2658950D1*
X2993510D2*
X3045710D1*
X3116701D2*
X3278706D1*
X608719Y3131988D2*
X748512D1*
X843652D2*
X1714837D1*
X1772587D2*
X2058248D1*
X2156547D2*
X2658232D1*
X3006142D2*
X3045710D1*
X3116701D2*
X3278706D1*
X608719Y3107119D2*
X745713D1*
X818785D2*
X1696680D1*
X1790707D2*
X2083115D1*
X2181415D2*
X2658232D1*
X3006142D2*
X3045710D1*
X3116701D2*
X3278706D1*
X608719Y3082251D2*
X745713D1*
X816703D2*
X1689108D1*
X1873098D2*
X2107984D1*
X2206282D2*
X2658232D1*
X3006142D2*
X3045710D1*
X3116701D2*
X3278706D1*
X608719Y3057382D2*
X745713D1*
X816703D2*
X1689108D1*
X2031133D2*
X2132852D1*
X2231151D2*
X2658232D1*
X3006142D2*
X3045710D1*
X3116701D2*
X3278706D1*
X608719Y3032513D2*
X745713D1*
X816703D2*
X1689108D1*
X2056000D2*
X2157719D1*
X2256018D2*
X2658232D1*
X2929169D2*
X2965615D1*
X3021786D2*
X3045710D1*
X3116701D2*
X3278706D1*
X608719Y3007644D2*
X745713D1*
X816703D2*
X1689108D1*
X2080867D2*
X2182587D1*
X2280886D2*
X2658232D1*
X2929169D2*
X2946849D1*
X3116701D2*
X3278706D1*
X608719Y2982776D2*
X745713D1*
X816703D2*
X1783017D1*
X2105735D2*
X2207455D1*
X2305753D2*
X2658232D1*
X2929169D2*
X2946024D1*
X3116701D2*
X3278706D1*
X608719Y2957907D2*
X745713D1*
X816703D2*
X1794823D1*
X2130602D2*
X2232323D1*
X2330622D2*
X2658232D1*
X2929169D2*
X2961525D1*
X3025878D2*
X3045710D1*
X3116701D2*
X3278706D1*
X608719Y2933038D2*
X616445D1*
X670978D2*
X745713D1*
X816703D2*
X1819690D1*
X2155471D2*
X2257190D1*
X2348455D2*
X2658232D1*
X2929169D2*
X3045710D1*
X3116701D2*
X3278706D1*
X690391Y2908169D2*
X734517D1*
X827899D2*
X1834188D1*
X2167672D2*
X2278362D1*
X2349318D2*
X2459003D1*
X2929169D2*
X3045710D1*
X3116701D2*
X3278706D1*
X691504Y2883301D2*
X733404D1*
X829012D2*
X1771319D1*
X2167672D2*
X2278362D1*
X2349318D2*
X2434135D1*
X2929169D2*
X3045710D1*
X3116701D2*
X3278706D1*
X690391Y2858432D2*
X748404D1*
X2167672D2*
X2278362D1*
X2349318D2*
X2409268D1*
X2507567D2*
X2658232D1*
X2929169D2*
X3045710D1*
X3116701D2*
X3278706D1*
X608719Y2833563D2*
X619385D1*
X690391D2*
X784432D1*
X2167672D2*
X2278362D1*
X2349318D2*
X2387270D1*
X2482698D2*
X2658232D1*
X2929169D2*
X3045710D1*
X3116701D2*
X3278706D1*
X608719Y2808694D2*
X619385D1*
X690391D2*
X759528D1*
X2167672D2*
X2278362D1*
X2349318D2*
X2384185D1*
X2457831D2*
X2658232D1*
X2929169D2*
X3045710D1*
X3116701D2*
X3278706D1*
X2167672Y2783825D2*
X2266627D1*
X2576285D2*
X2658232D1*
X2990747D2*
X3045710D1*
X3116701D2*
X3278706D1*
X2167672Y2758957D2*
X2253315D1*
X2576285D2*
X2658232D1*
X3004168D2*
X3045710D1*
X3116701D2*
X3278706D1*
X2167672Y2734088D2*
X2252202D1*
X2576285D2*
X2658232D1*
X3005387D2*
X3045710D1*
X3190514D2*
X3278706D1*
X2576285Y2709219D2*
X2658232D1*
X2995232D2*
X3045710D1*
X3204114D2*
X3278706D1*
X2576285Y2684350D2*
X2658232D1*
X2990281D2*
X3035196D1*
X3205406D2*
X3278706D1*
X2574239Y2659482D2*
X2658232D1*
X3195430D2*
X3278706D1*
X2575567Y2634613D2*
X2658232D1*
X3206160D2*
X3278706D1*
X1696404Y2609744D2*
X2262071D1*
X2565627D2*
X2658232D1*
X3058891D2*
X3081235D1*
X3206160D2*
X3278706D1*
X608719Y2584875D2*
X619385D1*
X1671537D2*
X2300898D1*
X2326818D2*
X2400870D1*
X2426791D2*
X2500879D1*
X2526801D2*
X2658232D1*
X3034024D2*
X3081235D1*
X3206160D2*
X3278706D1*
X608719Y2560007D2*
X619385D1*
X1646669D2*
X2658232D1*
X3009155D2*
X3081235D1*
X3206160D2*
X3278706D1*
X608719Y2535138D2*
X621608D1*
X1621801D2*
X2658232D1*
X3005531D2*
X3081235D1*
X3206160D2*
X3278706D1*
X608719Y2510269D2*
X642438D1*
X1596933D2*
X2658232D1*
X2995986D2*
X3278706D1*
X608719Y2485400D2*
X667306D1*
X1572066D2*
X1689108D1*
X1873098D2*
X2658232D1*
X2989276D2*
X3098136D1*
X3189294D2*
X3278706D1*
X608719Y2460531D2*
X692173D1*
X1547198D2*
X1643929D1*
X3003738D2*
X3083675D1*
X3203756D2*
X3278706D1*
X608719Y2435663D2*
X1619062D1*
X3005602D2*
X3081773D1*
X3205622D2*
X3278706D1*
X608719Y2410794D2*
X1594194D1*
X2996308D2*
X3091067D1*
X3196327D2*
X3278706D1*
X608719Y2385925D2*
X1569327D1*
X1677529D2*
X1846747D1*
X1890646D2*
X2798647D1*
X3006142D2*
X3081235D1*
X3206160D2*
X3278706D1*
X608719Y2361056D2*
X1547079D1*
X1652661D2*
X1823063D1*
X3006142D2*
X3081235D1*
X3206160D2*
X3278706D1*
X608719Y2336188D2*
X1543202D1*
X1627794D2*
X1820336D1*
X3006142D2*
X3081235D1*
X3206160D2*
X3278706D1*
X608719Y2311319D2*
X1543202D1*
X1621192D2*
X1832860D1*
X3006142D2*
X3081235D1*
X3206160D2*
X3278706D1*
X608719Y2286450D2*
X1543202D1*
X1621192D2*
X2823407D1*
X2864004D2*
X2881252D1*
X3006142D2*
X3081235D1*
X3206160D2*
X3278706D1*
X608719Y2261581D2*
X1543202D1*
X1621192D2*
X3278706D1*
X608719Y2236713D2*
X1543202D1*
X1621192D2*
X3278706D1*
X608719Y2211844D2*
X1543202D1*
X1621192D2*
X3278706D1*
X608719Y2186975D2*
X1543202D1*
X1621192D2*
X3278706D1*
X608719Y2162106D2*
X1543202D1*
X1621192D2*
X3278706D1*
X608719Y2137238D2*
X1543202D1*
X1621192D2*
X3278706D1*
X608719Y2112369D2*
X1543202D1*
X1621192D2*
X3278706D1*
X2463077Y2803864D2*
X2573799D1*
Y2683955D1*
X2558476D1*
X2562852Y2678448D1*
X2566706Y2672197D1*
X2569769Y2665521D1*
X2571991Y2658521D1*
X2573341Y2651302D1*
X2573799Y2643909D1*
X2573349Y2636579D1*
X2572007Y2629358D1*
X2569791Y2622356D1*
X2566736Y2615677D1*
X2562887Y2609421D1*
X2558302Y2603684D1*
X2553050Y2598550D1*
X2547210Y2594097D1*
X2540869Y2590391D1*
X2534122Y2587488D1*
X2527071Y2585433D1*
X2519822Y2584255D1*
X2512483Y2583971D1*
X2505164Y2584587D1*
X2497976Y2586093D1*
X2491026Y2588469D1*
X2484419Y2591675D1*
X2478252Y2595664D1*
X2472619Y2600378D1*
X2467606Y2605745D1*
X2463852Y2610828D1*
X2459434Y2604972D1*
X2452782Y2598320D1*
X2445171Y2592790D1*
X2436789Y2588520D1*
X2427841Y2585612D1*
X2418549Y2584140D1*
X2409142D1*
X2399849Y2585612D1*
X2390902Y2588520D1*
X2382520Y2592790D1*
X2374908Y2598320D1*
X2368256Y2604972D1*
X2363881Y2610856D1*
X2359434Y2604972D1*
X2352782Y2598320D1*
X2345171Y2592790D1*
X2336789Y2588520D1*
X2327841Y2585612D1*
X2318549Y2584140D1*
X2309142D1*
X2299849Y2585612D1*
X2290902Y2588520D1*
X2282520Y2592790D1*
X2274908Y2598320D1*
X2268256Y2604972D1*
X2262726Y2612584D1*
X2258455Y2620966D1*
X2257265Y2624192D1*
X1708371Y2624199D1*
X1541108Y2457102D1*
X1536920Y2454060D1*
X1532308Y2451710D1*
X1527386Y2450110D1*
X1522273Y2449301D1*
X1455381Y2449199D1*
X717097Y2449301D1*
X711984Y2450110D1*
X707062Y2451710D1*
X702450Y2454060D1*
X698262Y2457102D1*
X650891Y2504331D1*
X629807Y2525558D1*
X626765Y2529745D1*
X624415Y2534357D1*
X622815Y2539280D1*
X622005Y2544392D1*
X621904Y2593092D1*
X615953Y2597572D1*
X609301Y2604224D1*
X606192Y2608211D1*
X606201Y2106185D1*
X1545672Y2106201D1*
X1545808Y2347549D1*
X1546703Y2353203D1*
X1548472Y2358650D1*
X1551072Y2363751D1*
X1554438Y2368383D1*
X1588862Y2402966D1*
X1657503Y2471448D1*
X1662135Y2474814D1*
X1667236Y2477413D1*
X1672682Y2479182D1*
X1678337Y2480077D1*
X1691643Y2480190D1*
X1691621Y2499718D1*
X1870584D1*
Y2476717D1*
X2660741Y2476686D1*
X2660715Y2861715D1*
X2508360Y2861699D1*
X2452672Y2806022D1*
X2452782Y2789499D1*
X2453903Y2788463D1*
X2453891Y2803864D1*
X2463077D1*
X2363881Y2776963D2*
X2368256Y2782846D1*
X2374908Y2789499D1*
X2382520Y2795029D1*
X2386710Y2797367D1*
X2386801Y2822273D1*
X2387610Y2827386D1*
X2389210Y2832308D1*
X2391560Y2836920D1*
X2394602Y2841108D1*
X2441831Y2888479D1*
X2473262Y2919768D1*
X2477450Y2922810D1*
X2482062Y2925160D1*
X2486984Y2926760D1*
X2492097Y2927570D1*
X2558990Y2927671D1*
X2660722D1*
X2660816Y3152538D1*
X2661626Y3157651D1*
X2663226Y3162573D1*
X2665576Y3167185D1*
X2668618Y3171373D1*
X2714127Y3217025D1*
X2718063Y3220387D1*
X2722476Y3223092D1*
X2727259Y3225072D1*
X2732291Y3226281D1*
X2737462Y3226686D1*
X2793610D1*
X2798112Y3232638D1*
X2804764Y3239290D1*
X2810647Y3243665D1*
X2804764Y3248112D1*
X2798112Y3254764D1*
X2792581Y3262375D1*
X2788311Y3270757D1*
X2785403Y3279705D1*
X2785105Y3281202D1*
X606227Y3281201D1*
X606201Y2921188D1*
X610828Y2926573D1*
X616375Y2931311D1*
X622594Y2935123D1*
X629335Y2937915D1*
X636428Y2939618D1*
X643701Y2940190D1*
X650974Y2939618D1*
X658067Y2937915D1*
X664807Y2935123D1*
X671026Y2931311D1*
X676573Y2926573D1*
X681311Y2921026D1*
X685123Y2914807D1*
X687915Y2908067D1*
X689618Y2900974D1*
X690190Y2893701D1*
X689618Y2886428D1*
X687870Y2879214D1*
X687875Y2793196D1*
X693827Y2788751D1*
X700479Y2782098D1*
X704854Y2776215D1*
X709301Y2782098D1*
X715953Y2788751D1*
X723564Y2794281D1*
X731946Y2798551D1*
X740894Y2801459D1*
X750186Y2802930D1*
X756415Y2803055D1*
X828529Y2875034D1*
X832717Y2878076D1*
X837328Y2880427D1*
X842251Y2882026D1*
X847364Y2882836D1*
X914256Y2882937D1*
X1773430D1*
X1778875Y2887562D1*
X1785094Y2891374D1*
X1791835Y2894165D1*
X1798928Y2895869D1*
X1806201Y2896441D1*
X1813474Y2895869D1*
X1820567Y2894165D1*
X1827307Y2891374D1*
X1833526Y2887562D1*
X1836697Y2885021D1*
X1836699Y2918531D1*
X1793421Y2961944D1*
X1790379Y2966131D1*
X1788029Y2970743D1*
X1786429Y2975665D1*
X1785619Y2980778D1*
X1785518Y2987709D1*
X1691621Y2987684D1*
Y3099718D1*
X1697613D1*
X1698496Y3104554D1*
X1700751Y3111492D1*
X1704062Y3117992D1*
X1708350Y3123894D1*
X1713508Y3129051D1*
X1719409Y3133340D1*
X1725909Y3136651D1*
X1732848Y3138906D1*
X1740054Y3140047D1*
X1747348D1*
X1754554Y3138906D1*
X1761492Y3136651D1*
X1767992Y3133340D1*
X1773894Y3129051D1*
X1779051Y3123894D1*
X1783340Y3117992D1*
X1786651Y3111492D1*
X1788906Y3104554D1*
X1789768Y3099713D1*
X1870584Y3099718D1*
Y3076717D1*
X1998257Y3076585D1*
X2003370Y3075776D1*
X2008293Y3074176D1*
X2012904Y3071825D1*
X2017092Y3068783D1*
X2064463Y3021555D1*
X2157268Y2928608D1*
X2160310Y2924420D1*
X2162660Y2919808D1*
X2164260Y2914886D1*
X2165070Y2909773D1*
X2165171Y2842881D1*
Y2733327D1*
X2170861Y2727657D1*
X2256118Y2727671D1*
X2254629Y2734530D1*
X2253891Y2743909D1*
X2254629Y2753289D1*
X2256825Y2762436D1*
X2260425Y2771129D1*
X2265341Y2779150D1*
X2271451Y2786303D1*
X2278605Y2792413D1*
X2280853Y2793915D1*
X2280860Y2911883D1*
X2018537Y3174184D1*
X883353Y3174199D1*
X814173Y3105024D1*
X814186Y2926470D1*
X818811Y2921026D1*
X822623Y2914807D1*
X825415Y2908067D1*
X827118Y2900974D1*
X827690Y2893701D1*
X827118Y2886428D1*
X825415Y2879335D1*
X822623Y2872594D1*
X818811Y2866375D1*
X814073Y2860828D1*
X808526Y2856091D1*
X802307Y2852278D1*
X795567Y2849487D1*
X788474Y2847783D1*
X781201Y2847211D1*
X773928Y2847783D1*
X766835Y2849487D1*
X760094Y2852278D1*
X753875Y2856091D1*
X748328Y2860828D1*
X743591Y2866375D1*
X739778Y2872594D1*
X736987Y2879335D1*
X735283Y2886428D1*
X734711Y2893701D1*
X735283Y2900974D1*
X736987Y2908067D1*
X739778Y2914807D1*
X743591Y2921026D1*
X748222Y2926458D1*
X748316Y3121289D1*
X749126Y3126402D1*
X750726Y3131324D1*
X753076Y3135936D1*
X756118Y3140123D1*
X803346Y3187495D1*
X848262Y3232268D1*
X852450Y3235310D1*
X857062Y3237660D1*
X861984Y3239260D1*
X867097Y3240070D1*
X933990Y3240171D1*
X2034773Y3240070D1*
X2039886Y3239260D1*
X2044808Y3237660D1*
X2049420Y3235310D1*
X2053608Y3232268D1*
X2100979Y3185039D1*
X2338928Y2946948D1*
X2341970Y2942760D1*
X2344320Y2938148D1*
X2345920Y2933226D1*
X2346730Y2928113D1*
X2346831Y2861220D1*
Y2794009D1*
X2352782Y2789499D1*
X2359434Y2782846D1*
X2363810Y2776963D1*
X606192Y2778112D2*
X609301Y2782098D1*
X615953Y2788751D1*
X621898Y2793167D1*
X621904Y2852644D1*
X616375Y2856091D1*
X610828Y2860828D1*
X606205Y2866230D1*
X606201Y2778152D1*
X2988349Y2403655D2*
X3003655D1*
Y2283747D1*
X2883747D1*
Y2299070D1*
X2878941Y2295197D1*
X2870920Y2290281D1*
X2862227Y2286681D1*
X2853080Y2284484D1*
X2843701Y2283747D1*
X2834322Y2284484D1*
X2825175Y2286681D1*
X2816482Y2290281D1*
X2808461Y2295197D1*
X2801307Y2301307D1*
X2796188Y2307205D1*
X1897542Y2307211D1*
X1892992Y2304062D1*
X1886492Y2300751D1*
X1879554Y2298496D1*
X1872348Y2297354D1*
X1865054D1*
X1857848Y2298496D1*
X1850909Y2300751D1*
X1844409Y2304062D1*
X1838508Y2308350D1*
X1833350Y2313508D1*
X1829062Y2319409D1*
X1825751Y2325909D1*
X1823496Y2332848D1*
X1822354Y2340054D1*
Y2347348D1*
X1823496Y2354554D1*
X1825751Y2361492D1*
X1829062Y2367992D1*
X1833350Y2373894D1*
X1838508Y2379051D1*
X1844409Y2383340D1*
X1850909Y2386651D1*
X1853706Y2387682D1*
X1691621Y2387684D1*
Y2402504D1*
X1618676Y2329572D1*
X1618675Y2106235D1*
X3281175Y2106201D1*
X3281201Y3281217D1*
X3102833Y3281201D1*
X3107887Y3275589D1*
X3110592Y3271176D1*
X3112572Y3266394D1*
X3113781Y3261361D1*
X3114186Y3256201D1*
X3114219Y2745906D1*
X3120824Y2749118D1*
X3127772Y2751500D1*
X3134958Y2753014D1*
X3142277Y2753638D1*
X3149615Y2753362D1*
X3156866Y2752192D1*
X3163919Y2750143D1*
X3170669Y2747247D1*
X3177013Y2743549D1*
X3182858Y2739101D1*
X3188115Y2733972D1*
X3192707Y2728239D1*
X3196562Y2721988D1*
X3199625Y2715312D1*
X3201846Y2708312D1*
X3203197Y2701093D1*
X3203655Y2693701D1*
X3203205Y2686370D1*
X3201862Y2679150D1*
X3199647Y2672147D1*
X3196592Y2665469D1*
X3192743Y2659213D1*
X3188314Y2653654D1*
X3203655Y2653655D1*
Y2533747D1*
X3083747D1*
Y2637129D1*
X3002446Y2555797D1*
X3003470Y2548404D1*
Y2538997D1*
X3001999Y2529705D1*
X2999091Y2520757D1*
X2994820Y2512375D1*
X2989290Y2504764D1*
X2982638Y2498112D1*
X2976755Y2493736D1*
X2982858Y2489101D1*
X2988115Y2483972D1*
X2992707Y2478239D1*
X2996562Y2471988D1*
X2999625Y2465312D1*
X3001846Y2458312D1*
X3003197Y2451093D1*
X3003655Y2443701D1*
X3003205Y2436370D1*
X3001862Y2429150D1*
X2999647Y2422147D1*
X2996592Y2415469D1*
X2992743Y2409213D1*
X2988314Y2403654D1*
X2796188Y2380197D2*
X2801307Y2386094D1*
X2808461Y2392205D1*
X2810647Y2393665D1*
X2804764Y2398112D1*
X2798112Y2404764D1*
X2793696Y2410709D1*
X1870554Y2410715D1*
X1870584Y2390163D1*
X1875974Y2389618D1*
X1883067Y2387915D1*
X1889807Y2385123D1*
X1896026Y2381311D1*
X1897449Y2380190D1*
X2796127D1*
X2976755Y2693665D2*
X2982638Y2689290D1*
X2989290Y2682638D1*
X2994820Y2675026D1*
X2999091Y2666644D1*
X3001999Y2657697D1*
X3003290Y2649920D1*
X3048236Y2694885D1*
X3048215Y3242537D1*
X3030041Y3260711D1*
X2993786Y3260715D1*
X2989290Y3254764D1*
X2982638Y3248112D1*
X2976755Y3243736D1*
X2982858Y3239101D1*
X2988115Y3233972D1*
X2992707Y3228239D1*
X2996562Y3221988D1*
X2999625Y3215312D1*
X3001846Y3208312D1*
X3003197Y3201093D1*
X3003655Y3193701D1*
X3003205Y3186370D1*
X3001862Y3179150D1*
X2999647Y3172147D1*
X2996592Y3165469D1*
X2992743Y3159213D1*
X2988314Y3153654D1*
X3003655Y3153655D1*
Y3039076D1*
X3008067Y3037915D1*
X3014807Y3035123D1*
X3021026Y3031311D1*
X3026573Y3026573D1*
X3031311Y3021026D1*
X3035123Y3014807D1*
X3037915Y3008067D1*
X3039618Y3000974D1*
X3040190Y2993701D1*
X3039618Y2986428D1*
X3037915Y2979335D1*
X3035123Y2972594D1*
X3031311Y2966375D1*
X3026573Y2960828D1*
X3021026Y2956091D1*
X3014807Y2952278D1*
X3008067Y2949487D1*
X3000974Y2947783D1*
X2993701Y2947211D1*
X2986428Y2947783D1*
X2979335Y2949487D1*
X2972594Y2952278D1*
X2966375Y2956091D1*
X2960828Y2960828D1*
X2956091Y2966375D1*
X2952278Y2972594D1*
X2949487Y2979335D1*
X2947783Y2986428D1*
X2947211Y2993701D1*
X2947783Y3000974D1*
X2949487Y3008067D1*
X2952278Y3014807D1*
X2956091Y3021026D1*
X2960828Y3026573D1*
X2966375Y3031311D1*
X2970144Y3033751D1*
X2926684Y3033747D1*
X2926686Y2801213D1*
X2934322Y2802917D1*
X2943701Y2803655D1*
X2953080Y2802917D1*
X2962227Y2800720D1*
X2970920Y2797121D1*
X2978941Y2792205D1*
X2986094Y2786094D1*
X2992205Y2778941D1*
X2997121Y2770920D1*
X3000720Y2762227D1*
X3002917Y2753080D1*
X3003655Y2743701D1*
X3002917Y2734322D1*
X3000720Y2725175D1*
X2997121Y2716482D1*
X2992205Y2708461D1*
X2986094Y2701307D1*
X2978941Y2695197D1*
X2976755Y2693736D1*
X3092933Y2403655D2*
X3099070D1*
X3094154Y2409942D1*
X3090398Y2416255D1*
X3087442Y2422978D1*
X3085331Y2430012D1*
X3084094Y2437252D1*
X3083753Y2444588D1*
X3084311Y2451912D1*
X3085761Y2459112D1*
X3088080Y2466080D1*
X3091234Y2472713D1*
X3095175Y2478911D1*
X3099844Y2484580D1*
X3105172Y2489635D1*
X3111077Y2494001D1*
X3117472Y2497613D1*
X3124261Y2500416D1*
X3131343Y2502367D1*
X3138608Y2503438D1*
X3145950Y2503613D1*
X3153259Y2502888D1*
X3160424Y2501276D1*
X3167339Y2498798D1*
X3173898Y2495495D1*
X3180004Y2491413D1*
X3185566Y2486617D1*
X3190499Y2481176D1*
X3194730Y2475173D1*
X3198196Y2468697D1*
X3200843Y2461846D1*
X3202633Y2454723D1*
X3203538Y2447434D1*
X3203542Y2440029D1*
X3202644Y2432739D1*
X3200862Y2425614D1*
X3198222Y2418761D1*
X3194762Y2412282D1*
X3190538Y2406274D1*
X3188314Y2403654D1*
X3203655Y2403655D1*
Y2283747D1*
X3083747D1*
Y2403655D1*
X3092933D1*
X2513845Y2643909D2*
D17*
X2556214Y2601541D1*
Y2686278D2*
X2471476Y2601541D1*
X2943701Y2443701D2*
X2986070Y2401332D1*
Y2486070D2*
X2943701Y2443701D1*
Y3193701D2*
X2986070Y3151332D1*
Y3236070D2*
X2943701Y3193701D1*
X3143701Y2693701D2*
X3186070Y2651332D1*
Y2736070D2*
X3143701Y2693701D1*
X3101332Y2486070D2*
X3186070Y2401332D1*
Y2486070D2*
X3101332Y2401332D1*
D19*
X2513845Y2743909D3*
D20*
Y2643909D3*
X2413845Y2743909D3*
Y2643909D3*
X2313845Y2743909D3*
Y2643909D3*
D19*
X2343671Y1724875D3*
D20*
Y1824875D3*
X2443671Y1724875D3*
Y1824875D3*
X2543671Y1724875D3*
Y1824875D3*
D19*
X854890Y2743161D3*
D20*
Y2643161D3*
X754890Y2743161D3*
Y2643161D3*
X654890Y2743161D3*
Y2643161D3*
D19*
X684741Y1723407D3*
D20*
Y1823407D3*
X784741Y1723407D3*
Y1823407D3*
X884741Y1723407D3*
Y1823407D3*
D19*
X2943701Y2343701D3*
D20*
X2843701D3*
X2943701Y2443701D3*
X2843701D3*
X2943701Y2543701D3*
X2843701D3*
X2943701Y2643701D3*
X2843701D3*
X2943701Y2743701D3*
X2843701D3*
D19*
X2943701Y3093701D3*
D20*
X2843701D3*
X2943701Y3193701D3*
X2843701D3*
X2943701Y3293701D3*
X2843701D3*
X2943701Y3393701D3*
X2843701D3*
X2943701Y3493701D3*
X2843701D3*
D19*
Y1393701D3*
D20*
Y1493701D3*
D19*
X3093701Y1093701D3*
D20*
Y1193701D3*
D19*
X2843701Y1093701D3*
D20*
Y1193701D3*
D19*
X3093701Y1393701D3*
D20*
Y1493701D3*
D19*
X3143701Y2593701D3*
D20*
Y2693701D3*
D19*
Y2343701D3*
D20*
Y2443701D3*
D19*
X2618701Y1093701D3*
D20*
Y1193701D3*
D21*
X1743701Y3043701D3*
X1818504D3*
X1743701Y2443701D3*
X1818504D3*
M02*
