G04 DipTrace 3.3.1.3*
G04 TopDimension.gbr*
%MOIN*%
G04 #@! TF.FileFunction,Drawing,Top*
G04 #@! TF.Part,Single*
%ADD13C,0.001378*%
%ADD37C,0.006176*%
%FSLAX26Y26*%
G04*
G70*
G90*
G75*
G01*
G04 TopDimension*
%LPD*%
X393701Y3937008D2*
D13*
Y4344682D1*
X3661417Y3937008D2*
Y4344682D1*
X2027559Y4324997D2*
X433071D1*
G36*
X393701D2*
X433071Y4332871D1*
Y4317123D1*
X393701Y4324997D1*
G37*
X2027559D2*
D13*
X3622047D1*
G36*
X3661417D2*
X3622047Y4317123D1*
Y4332871D1*
X3661417Y4324997D1*
G37*
X393701Y3937008D2*
D13*
X-33071D1*
X393701Y393701D2*
X-33071D1*
X-13386Y2165354D2*
Y3897638D1*
G36*
Y3937008D2*
X-5512Y3897638D1*
X-21260D1*
X-13386Y3937008D1*
G37*
Y2165354D2*
D13*
Y433071D1*
G36*
Y393701D2*
X-21260Y433071D1*
X-5512D1*
X-13386Y393701D1*
G37*
X867913Y3601339D2*
D13*
Y4194675D1*
X2483150Y3601693D2*
Y4194675D1*
X1675531Y4174990D2*
X907283D1*
G36*
X867913D2*
X907283Y4182864D1*
Y4167115D1*
X867913Y4174990D1*
G37*
X1675531D2*
D13*
X2443780D1*
G36*
X2483150D2*
X2443780Y4167115D1*
Y4182864D1*
X2483150Y4174990D1*
G37*
Y3601693D2*
D13*
X3761013D1*
X3661417Y3937008D2*
X3761013D1*
X3741328Y3769350D2*
Y3641063D1*
G36*
Y3601693D2*
X3733454Y3641063D1*
X3749202D1*
X3741328Y3601693D1*
G37*
Y3769350D2*
D13*
Y3897638D1*
G36*
Y3937008D2*
X3749202Y3897638D1*
X3733454D1*
X3741328Y3937008D1*
G37*
X904890Y2793161D2*
D13*
Y4022047D1*
X2263845Y2793909D2*
Y4022047D1*
X1584367Y4002362D2*
X944260D1*
G36*
X904890D2*
X944260Y4010236D1*
Y3994488D1*
X904890Y4002362D1*
G37*
X1584367D2*
D13*
X2224475D1*
G36*
X2263845D2*
X2224475Y3994488D1*
Y4010236D1*
X2263845Y4002362D1*
G37*
X934741Y1673407D2*
D13*
Y1342522D1*
X2293671Y1674875D2*
Y1342522D1*
X1614206Y1362207D2*
X974112D1*
G36*
X934741D2*
X974112Y1370081D1*
Y1354333D1*
X934741Y1362207D1*
G37*
X1614206D2*
D13*
X2254301D1*
G36*
X2293671D2*
X2254301Y1354333D1*
Y1370081D1*
X2293671Y1362207D1*
G37*
X393701Y393701D2*
D13*
X2412353D1*
X2593671Y1674875D2*
X2372983D1*
X2392668Y1034288D2*
Y433071D1*
G36*
Y393701D2*
X2384794Y433071D1*
X2400542D1*
X2392668Y393701D1*
G37*
Y1034288D2*
D13*
Y1635505D1*
G36*
Y1674875D2*
X2400542Y1635505D1*
X2384794D1*
X2392668Y1674875D1*
G37*
X634741Y1673407D2*
D13*
X197478D1*
X393701Y393701D2*
X197478D1*
X217163Y1033554D2*
Y1634037D1*
G36*
Y1673407D2*
X225037Y1634037D1*
X209289D1*
X217163Y1673407D1*
G37*
Y1033554D2*
D13*
Y433071D1*
G36*
Y393701D2*
X209289Y433071D1*
X225037D1*
X217163Y393701D1*
G37*
X419685Y419685D2*
D13*
Y1420163D1*
X634741Y1673407D2*
Y1380793D1*
X419685Y1400478D2*
X634741D1*
X360630D2*
X380315D1*
G36*
X419685D2*
X380315Y1392604D1*
Y1408352D1*
X419685Y1400478D1*
G37*
X693797D2*
D13*
X674112D1*
G36*
X634741D2*
X674112Y1408352D1*
Y1392604D1*
X634741Y1400478D1*
G37*
X393701Y3937008D2*
D13*
X163780D1*
X604890Y2793161D2*
X163780D1*
X183465Y3365085D2*
Y3897638D1*
G36*
Y3937008D2*
X191339Y3897638D1*
X175591D1*
X183465Y3937008D1*
G37*
Y3365085D2*
D13*
Y2832531D1*
G36*
Y2793161D2*
X175591Y2832531D1*
X191339D1*
X183465Y2793161D1*
G37*
X393701Y3937008D2*
D13*
Y4250908D1*
X867913Y3601339D2*
Y4250908D1*
X630807Y4231223D2*
X433071D1*
G36*
X393701D2*
X433071Y4239097D1*
Y4223349D1*
X393701Y4231223D1*
G37*
X630807D2*
D13*
X828543D1*
G36*
X867913D2*
X828543Y4223349D1*
Y4239097D1*
X867913Y4231223D1*
G37*
X393701Y393701D2*
D13*
Y215367D1*
X869252Y729173D2*
Y215367D1*
X631476Y235052D2*
X433071D1*
G36*
X393701D2*
X433071Y242927D1*
Y227178D1*
X393701Y235052D1*
G37*
X631476D2*
D13*
X829882D1*
G36*
X869252D2*
X829882Y227178D1*
Y242927D1*
X869252Y235052D1*
G37*
X3661417Y3937008D2*
D13*
X3891071D1*
X2563845Y2793909D2*
X3891071D1*
X3871386Y3365459D2*
Y3897638D1*
G36*
Y3937008D2*
X3879260Y3897638D1*
X3863512D1*
X3871386Y3937008D1*
G37*
Y3365459D2*
D13*
Y2833280D1*
G36*
Y2793909D2*
X3863512Y2833280D1*
X3879260D1*
X3871386Y2793909D1*
G37*
X389612Y2565793D2*
D13*
Y3992266D1*
X604890Y2593161D2*
Y3992266D1*
X389612Y3972581D2*
X604890D1*
X330556D2*
X350241D1*
G36*
X389612D2*
X350241Y3964707D1*
Y3980455D1*
X389612Y3972581D1*
G37*
X663945D2*
D13*
X644260D1*
G36*
X604890D2*
X644260Y3980455D1*
Y3964707D1*
X604890Y3972581D1*
G37*
X393701Y3937008D2*
D13*
Y4079585D1*
X2263845Y2793909D2*
Y4079585D1*
X1328773Y4059900D2*
X433071D1*
G36*
X393701D2*
X433071Y4067774D1*
Y4052026D1*
X393701Y4059900D1*
G37*
X1328773D2*
D13*
X2224475D1*
G36*
X2263845D2*
X2224475Y4052026D1*
Y4067774D1*
X2263845Y4059900D1*
G37*
X904890Y2593161D2*
D13*
X302364D1*
X934741Y1873407D2*
X302364D1*
X322049Y2233284D2*
Y2553791D1*
G36*
Y2593161D2*
X329923Y2553791D1*
X314175D1*
X322049Y2593161D1*
G37*
Y2233284D2*
D13*
Y1912777D1*
G36*
Y1873407D2*
X314175Y1912777D1*
X329923D1*
X322049Y1873407D1*
G37*
X867913Y3601339D2*
D13*
X314950D1*
X393701Y3937008D2*
X314950D1*
X334635Y3769173D2*
Y3640709D1*
G36*
Y3601339D2*
X326761Y3640709D1*
X342509D1*
X334635Y3601339D1*
G37*
Y3769173D2*
D13*
Y3897638D1*
G36*
Y3937008D2*
X342509Y3897638D1*
X326761D1*
X334635Y3937008D1*
G37*
X869252Y729173D2*
D13*
X316052D1*
X393701Y393701D2*
X316052D1*
X335738Y561437D2*
Y689803D1*
G36*
Y729173D2*
X343612Y689803D1*
X327864D1*
X335738Y729173D1*
G37*
Y561437D2*
D13*
Y433071D1*
G36*
Y393701D2*
X327864Y433071D1*
X343612D1*
X335738Y393701D1*
G37*
X869252Y729173D2*
D13*
Y886417D1*
X2485079Y729488D2*
Y886417D1*
X1677165Y866732D2*
X908622D1*
G36*
X869252D2*
X908622Y874606D1*
Y858858D1*
X869252Y866732D1*
G37*
X1677165D2*
D13*
X2445709D1*
G36*
X2485079D2*
X2445709Y858858D1*
Y874606D1*
X2485079Y866732D1*
G37*
Y729488D2*
D13*
X3734172D1*
X3661417Y393701D2*
X3734172D1*
X3714487Y561594D2*
Y690118D1*
G36*
Y729488D2*
X3722361Y690118D1*
X3706613D1*
X3714487Y729488D1*
G37*
Y561594D2*
D13*
Y433071D1*
G36*
Y393701D2*
X3706613Y433071D1*
X3722361D1*
X3714487Y393701D1*
G37*
X2007249Y4377356D2*
D37*
X2001545Y4375455D1*
X1999600Y4371652D1*
Y4367805D1*
X2001545Y4364003D1*
X2005348Y4362057D1*
X2012997Y4360156D1*
X2018745Y4358255D1*
X2022548Y4354408D1*
X2024449Y4350605D1*
Y4344857D1*
X2022548Y4341055D1*
X2020647Y4339109D1*
X2014899Y4337208D1*
X2007249D1*
X2001545Y4339109D1*
X1999600Y4341055D1*
X1997699Y4344857D1*
Y4350605D1*
X1999600Y4354408D1*
X2003447Y4358255D1*
X2009150Y4360156D1*
X2016800Y4362057D1*
X2020647Y4364003D1*
X2022548Y4367805D1*
Y4371652D1*
X2020647Y4375455D1*
X2014899Y4377356D1*
X2007249D1*
X2040647D2*
X2061650D1*
X2050198Y4362057D1*
X2055946D1*
X2059748Y4360156D1*
X2061650Y4358255D1*
X2063595Y4352507D1*
Y4348704D1*
X2061650Y4342956D1*
X2057847Y4339109D1*
X2052099Y4337208D1*
X2046351D1*
X2040647Y4339109D1*
X2038746Y4341055D1*
X2036800Y4344857D1*
X-52391Y2161316D2*
X-46643Y2159370D1*
X-42796Y2155568D1*
X-40895Y2149820D1*
Y2147919D1*
X-42796Y2142170D1*
X-46643Y2138368D1*
X-52391Y2136422D1*
X-54293D1*
X-60041Y2138368D1*
X-63843Y2142170D1*
X-65744Y2147919D1*
Y2149820D1*
X-63843Y2155568D1*
X-60041Y2159370D1*
X-52391Y2161316D1*
X-42796D1*
X-33246Y2159370D1*
X-27498Y2155568D1*
X-25597Y2149820D1*
Y2146017D1*
X-27498Y2140269D1*
X-31345Y2138368D1*
X-65744Y2185163D2*
X-63843Y2179415D1*
X-58095Y2175569D1*
X-48544Y2173667D1*
X-42796D1*
X-33246Y2175569D1*
X-27498Y2179415D1*
X-25597Y2185163D1*
Y2188966D1*
X-27498Y2194714D1*
X-33246Y2198516D1*
X-42796Y2200462D1*
X-48544D1*
X-58095Y2198516D1*
X-63843Y2194714D1*
X-65744Y2188966D1*
Y2185163D1*
X-58095Y2198516D2*
X-33246Y2175569D1*
X1625199Y4187200D2*
Y4227348D1*
X1606053Y4200598D1*
X1634749D1*
X1647100Y4219699D2*
X1650947Y4221644D1*
X1656695Y4227348D1*
Y4187200D1*
X1670948Y4191047D2*
X1669047Y4189102D1*
X1670948Y4187200D1*
X1672893Y4189102D1*
X1670948Y4191047D1*
X1696741Y4227348D2*
X1690993Y4225447D1*
X1687146Y4219699D1*
X1685245Y4210148D1*
Y4204400D1*
X1687146Y4194850D1*
X1690993Y4189102D1*
X1696741Y4187200D1*
X1700543D1*
X1706291Y4189102D1*
X1710094Y4194850D1*
X1712039Y4204400D1*
Y4210148D1*
X1710094Y4219699D1*
X1706291Y4225447D1*
X1700543Y4227348D1*
X1696741D1*
X1710094Y4219699D2*
X1687146Y4194850D1*
X1728238Y4227348D2*
X1749240D1*
X1737788Y4212049D1*
X1743536D1*
X1747339Y4210148D1*
X1749240Y4208247D1*
X1751186Y4202499D1*
Y4198696D1*
X1749240Y4192948D1*
X1745438Y4189102D1*
X1739689Y4187200D1*
X1733941D1*
X1728238Y4189102D1*
X1726336Y4191047D1*
X1724391Y4194850D1*
X3793687Y3817332D2*
X3791785Y3823036D1*
X3787983Y3824982D1*
X3784136D1*
X3780334Y3823036D1*
X3778388Y3819234D1*
X3776487Y3811584D1*
X3774585Y3805836D1*
X3770739Y3802034D1*
X3766936Y3800132D1*
X3761188D1*
X3757386Y3802034D1*
X3755440Y3803935D1*
X3753539Y3809683D1*
Y3817332D1*
X3755440Y3823036D1*
X3757386Y3824982D1*
X3761188Y3826883D1*
X3766936D1*
X3770739Y3824982D1*
X3774585Y3821135D1*
X3776487Y3815431D1*
X3778388Y3807782D1*
X3780334Y3803935D1*
X3784136Y3802034D1*
X3787983D1*
X3791785Y3803935D1*
X3793687Y3809683D1*
Y3817332D1*
X3757386Y3785880D2*
X3755440Y3787781D1*
X3753539Y3785880D1*
X3755440Y3783934D1*
X3757386Y3785880D1*
X3793687Y3748635D2*
Y3767736D1*
X3776487Y3769637D1*
X3778388Y3767736D1*
X3780334Y3761988D1*
Y3756284D1*
X3778388Y3750536D1*
X3774585Y3746690D1*
X3768837Y3744788D1*
X3765035D1*
X3759287Y3746690D1*
X3755440Y3750536D1*
X3753539Y3756284D1*
Y3761988D1*
X3755440Y3767736D1*
X3757386Y3769637D1*
X3761188Y3771583D1*
X3784136Y3730491D2*
X3786037D1*
X3789884Y3728590D1*
X3791785Y3726689D1*
X3793687Y3722842D1*
Y3715193D1*
X3791785Y3711390D1*
X3789884Y3709489D1*
X3786037Y3707543D1*
X3782235D1*
X3778388Y3709489D1*
X3772684Y3713291D1*
X3753539Y3732437D1*
Y3705642D1*
X1510136Y4054721D2*
X1531138D1*
X1519686Y4039422D1*
X1525435D1*
X1529237Y4037521D1*
X1531138Y4035620D1*
X1533084Y4029872D1*
Y4026069D1*
X1531138Y4020321D1*
X1527336Y4016474D1*
X1521588Y4014573D1*
X1515840D1*
X1510136Y4016474D1*
X1508235Y4018420D1*
X1506289Y4022222D1*
X1564581Y4014573D2*
Y4054721D1*
X1545435Y4027970D1*
X1574131D1*
X1588384Y4018420D2*
X1586483Y4016474D1*
X1588384Y4014573D1*
X1590329Y4016474D1*
X1588384Y4018420D1*
X1625629Y4054721D2*
X1606527D1*
X1604626Y4037521D1*
X1606527Y4039422D1*
X1612276Y4041368D1*
X1617979D1*
X1623727Y4039422D1*
X1627574Y4035620D1*
X1629475Y4029872D1*
Y4026069D1*
X1627574Y4020321D1*
X1623727Y4016474D1*
X1617979Y4014573D1*
X1612276D1*
X1606527Y4016474D1*
X1604626Y4018420D1*
X1602681Y4022222D1*
X1643772Y4045170D2*
Y4047071D1*
X1645674Y4050918D1*
X1647575Y4052819D1*
X1651422Y4054721D1*
X1659071D1*
X1662873Y4052819D1*
X1664775Y4050918D1*
X1666720Y4047071D1*
Y4043269D1*
X1664775Y4039422D1*
X1660972Y4033718D1*
X1641827Y4014573D1*
X1668621D1*
X1539974Y1414566D2*
X1560977D1*
X1549525Y1399267D1*
X1555273D1*
X1559076Y1397366D1*
X1560977Y1395465D1*
X1562922Y1389717D1*
Y1385914D1*
X1560977Y1380166D1*
X1557174Y1376319D1*
X1551426Y1374418D1*
X1545678D1*
X1539974Y1376319D1*
X1538073Y1378265D1*
X1536128Y1382067D1*
X1594419Y1374418D2*
Y1414566D1*
X1575274Y1387815D1*
X1603970D1*
X1618222Y1378265D2*
X1616321Y1376319D1*
X1618222Y1374418D1*
X1620168Y1376319D1*
X1618222Y1378265D1*
X1655467Y1414566D2*
X1636366D1*
X1634465Y1397366D1*
X1636366Y1399267D1*
X1642114Y1401213D1*
X1647818D1*
X1653566Y1399267D1*
X1657413Y1395465D1*
X1659314Y1389717D1*
Y1385914D1*
X1657413Y1380166D1*
X1653566Y1376319D1*
X1647818Y1374418D1*
X1642114D1*
X1636366Y1376319D1*
X1634465Y1378265D1*
X1632519Y1382067D1*
X1673611Y1405015D2*
Y1406917D1*
X1675512Y1410763D1*
X1677413Y1412665D1*
X1681260Y1414566D1*
X1688909D1*
X1692712Y1412665D1*
X1694613Y1410763D1*
X1696559Y1406917D1*
Y1403114D1*
X1694613Y1399267D1*
X1690811Y1393563D1*
X1671665Y1374418D1*
X1698460D1*
X2445027Y1108520D2*
Y1087517D1*
X2429728Y1098969D1*
Y1093221D1*
X2427827Y1089418D1*
X2425925Y1087517D1*
X2420177Y1085572D1*
X2416375D1*
X2410627Y1087517D1*
X2406780Y1091320D1*
X2404879Y1097068D1*
Y1102816D1*
X2406780Y1108520D1*
X2408725Y1110421D1*
X2412528Y1112366D1*
X2435476Y1071275D2*
X2437377D1*
X2441224Y1069374D1*
X2443125Y1067472D1*
X2445027Y1063626D1*
Y1055976D1*
X2443125Y1052174D1*
X2441224Y1050272D1*
X2437377Y1048327D1*
X2433575D1*
X2429728Y1050272D1*
X2424024Y1054075D1*
X2404879Y1073220D1*
Y1046426D1*
X2408725Y1032173D2*
X2406780Y1034074D1*
X2404879Y1032173D1*
X2406780Y1030227D1*
X2408725Y1032173D1*
X2445027Y994928D2*
Y1014029D1*
X2427827Y1015931D1*
X2429728Y1014029D1*
X2431673Y1008281D1*
Y1002577D1*
X2429728Y996829D1*
X2425925Y992983D1*
X2420177Y991081D1*
X2416375D1*
X2410627Y992983D1*
X2406780Y996829D1*
X2404879Y1002577D1*
Y1008281D1*
X2406780Y1014029D1*
X2408725Y1015931D1*
X2412528Y1017876D1*
X2404879Y959585D2*
X2445027D1*
X2418276Y978730D1*
Y950034D1*
X164804Y979846D2*
Y1000848D1*
X180103Y989397D1*
Y995145D1*
X182004Y998947D1*
X183905Y1000848D1*
X189653Y1002794D1*
X193456D1*
X199204Y1000848D1*
X203051Y997046D1*
X204952Y991298D1*
Y985550D1*
X203051Y979846D1*
X201105Y977945D1*
X197303Y975999D1*
X174355Y1017091D2*
X172453D1*
X168607Y1018992D1*
X166705Y1020893D1*
X164804Y1024740D1*
Y1032389D1*
X166705Y1036192D1*
X168607Y1038093D1*
X172453Y1040039D1*
X176256D1*
X180103Y1038093D1*
X185807Y1034291D1*
X204952Y1015145D1*
Y1041940D1*
X201105Y1056193D2*
X203051Y1054291D1*
X204952Y1056193D1*
X203051Y1058138D1*
X201105Y1056193D1*
X164804Y1093437D2*
Y1074336D1*
X182004Y1072435D1*
X180103Y1074336D1*
X178157Y1080084D1*
Y1085788D1*
X180103Y1091536D1*
X183905Y1095383D1*
X189653Y1097284D1*
X193456D1*
X199204Y1095383D1*
X203051Y1091536D1*
X204952Y1085788D1*
Y1080084D1*
X203051Y1074336D1*
X201105Y1072435D1*
X197303Y1070489D1*
X492629Y1452836D2*
X473527D1*
X471626Y1435636D1*
X473527Y1437538D1*
X479276Y1439483D1*
X484979D1*
X490727Y1437538D1*
X494574Y1433735D1*
X496475Y1427987D1*
Y1424185D1*
X494574Y1418436D1*
X490727Y1414590D1*
X484979Y1412688D1*
X479276D1*
X473527Y1414590D1*
X471626Y1416535D1*
X469681Y1420338D1*
X510728Y1416535D2*
X508827Y1414590D1*
X510728Y1412688D1*
X512674Y1414590D1*
X510728Y1416535D1*
X544170Y1412688D2*
Y1452836D1*
X525025Y1426086D1*
X553721D1*
X589020Y1447132D2*
X587119Y1450935D1*
X581371Y1452836D1*
X577568D1*
X571820Y1450935D1*
X567974Y1445187D1*
X566072Y1435636D1*
Y1426086D1*
X567974Y1418436D1*
X571820Y1414590D1*
X577568Y1412688D1*
X579470D1*
X585173Y1414590D1*
X589020Y1418436D1*
X590921Y1424185D1*
Y1426086D1*
X589020Y1431834D1*
X585173Y1435636D1*
X579470Y1437538D1*
X577568D1*
X571820Y1435636D1*
X567974Y1431834D1*
X566072Y1426086D1*
X140657Y3290853D2*
X138755D1*
X134909Y3292754D1*
X133007Y3294656D1*
X131106Y3298502D1*
Y3306152D1*
X133007Y3309954D1*
X134909Y3311856D1*
X138755Y3313801D1*
X142558D1*
X146405Y3311856D1*
X152108Y3308053D1*
X171254Y3288908D1*
Y3315702D1*
X144459Y3352947D2*
X150207Y3351002D1*
X154054Y3347199D1*
X155955Y3341451D1*
Y3339550D1*
X154054Y3333802D1*
X150207Y3329999D1*
X144459Y3328054D1*
X142558D1*
X136810Y3329999D1*
X133007Y3333802D1*
X131106Y3339550D1*
Y3341451D1*
X133007Y3347199D1*
X136810Y3351002D1*
X144459Y3352947D1*
X154054D1*
X163605Y3351002D1*
X169353Y3347199D1*
X171254Y3341451D1*
Y3337648D1*
X169353Y3331900D1*
X165506Y3329999D1*
X167407Y3367200D2*
X169353Y3365298D1*
X171254Y3367200D1*
X169353Y3369145D1*
X167407Y3367200D1*
X131106Y3392993D2*
X133007Y3387245D1*
X138755Y3383398D1*
X148306Y3381497D1*
X154054D1*
X163605Y3383398D1*
X169353Y3387245D1*
X171254Y3392993D1*
Y3396795D1*
X169353Y3402543D1*
X163605Y3406346D1*
X154054Y3408291D1*
X148306D1*
X138755Y3406346D1*
X133007Y3402543D1*
X131106Y3396795D1*
Y3392993D1*
X138755Y3406346D2*
X163605Y3383398D1*
X131106Y3443591D2*
Y3424489D1*
X148306Y3422588D1*
X146405Y3424489D1*
X144459Y3430237D1*
Y3435941D1*
X146405Y3441689D1*
X150207Y3445536D1*
X155955Y3447437D1*
X159758D1*
X165506Y3445536D1*
X169353Y3441689D1*
X171254Y3435941D1*
Y3430237D1*
X169353Y3424489D1*
X167407Y3422588D1*
X163605Y3420643D1*
X561329Y4275932D2*
X565175Y4277878D1*
X570924Y4283582D1*
Y4243434D1*
X585220Y4274031D2*
Y4275932D1*
X587122Y4279779D1*
X589023Y4281680D1*
X592870Y4283582D1*
X600519D1*
X604322Y4281680D1*
X606223Y4279779D1*
X608168Y4275932D1*
Y4272130D1*
X606223Y4268283D1*
X602420Y4262579D1*
X583275Y4243434D1*
X610070D1*
X624322Y4247281D2*
X622421Y4245335D1*
X624322Y4243434D1*
X626268Y4245335D1*
X624322Y4247281D1*
X650115Y4283582D2*
X644367Y4281680D1*
X640520Y4275932D1*
X638619Y4266382D1*
Y4260634D1*
X640520Y4251083D1*
X644367Y4245335D1*
X650115Y4243434D1*
X653918D1*
X659666Y4245335D1*
X663468Y4251083D1*
X665414Y4260634D1*
Y4266382D1*
X663468Y4275932D1*
X659666Y4281680D1*
X653918Y4283582D1*
X650115D1*
X663468Y4275932D2*
X640520Y4251083D1*
X696911Y4243434D2*
Y4283582D1*
X677765Y4256831D1*
X706461D1*
X562971Y279762D2*
X566818Y281707D1*
X572566Y287411D1*
Y247263D1*
X586862Y277860D2*
Y279762D1*
X588764Y283608D1*
X590665Y285510D1*
X594512Y287411D1*
X602161D1*
X605964Y285510D1*
X607865Y283608D1*
X609810Y279762D1*
Y275959D1*
X607865Y272112D1*
X604062Y266409D1*
X584917Y247263D1*
X611712D1*
X625964Y251110D2*
X624063Y249165D1*
X625964Y247263D1*
X627910Y249165D1*
X625964Y251110D1*
X651757Y287411D2*
X646009Y285510D1*
X642162Y279762D1*
X640261Y270211D1*
Y264463D1*
X642162Y254913D1*
X646009Y249165D1*
X651757Y247263D1*
X655560D1*
X661308Y249165D1*
X665110Y254913D1*
X667056Y264463D1*
Y270211D1*
X665110Y279762D1*
X661308Y285510D1*
X655560Y287411D1*
X651757D1*
X665110Y279762D2*
X642162Y254913D1*
X688958Y287411D2*
X683254Y285510D1*
X681309Y281707D1*
Y277860D1*
X683254Y274058D1*
X687057Y272112D1*
X694706Y270211D1*
X700454Y268310D1*
X704256Y264463D1*
X706158Y260661D1*
Y254913D1*
X704256Y251110D1*
X702355Y249165D1*
X696607Y247263D1*
X688958D1*
X683254Y249165D1*
X681309Y251110D1*
X679407Y254913D1*
Y260661D1*
X681309Y264463D1*
X685155Y268310D1*
X690859Y270211D1*
X698508Y272112D1*
X702355Y274058D1*
X704256Y277860D1*
Y281707D1*
X702355Y285510D1*
X696607Y287411D1*
X688958D1*
X3914194Y3439690D2*
X3916095D1*
X3919942Y3437789D1*
X3921843Y3435888D1*
X3923744Y3432041D1*
Y3424392D1*
X3921843Y3420589D1*
X3919942Y3418688D1*
X3916095Y3416742D1*
X3912293D1*
X3908446Y3418688D1*
X3902742Y3422490D1*
X3883597Y3441636D1*
Y3414841D1*
X3910391Y3377596D2*
X3904643Y3379542D1*
X3900796Y3383344D1*
X3898895Y3389092D1*
Y3390994D1*
X3900796Y3396742D1*
X3904643Y3400544D1*
X3910391Y3402490D1*
X3912293D1*
X3918041Y3400544D1*
X3921843Y3396742D1*
X3923744Y3390994D1*
Y3389092D1*
X3921843Y3383344D1*
X3918041Y3379542D1*
X3910391Y3377596D1*
X3900796D1*
X3891246Y3379542D1*
X3885498Y3383344D1*
X3883597Y3389092D1*
Y3392895D1*
X3885498Y3398643D1*
X3889345Y3400544D1*
X3887443Y3363344D2*
X3885498Y3365245D1*
X3883597Y3363344D1*
X3885498Y3361398D1*
X3887443Y3363344D1*
X3923744Y3337551D2*
X3921843Y3343299D1*
X3916095Y3347145D1*
X3906544Y3349047D1*
X3900796D1*
X3891246Y3347145D1*
X3885498Y3343299D1*
X3883597Y3337551D1*
Y3333748D1*
X3885498Y3328000D1*
X3891246Y3324197D1*
X3900796Y3322252D1*
X3906544D1*
X3916095Y3324197D1*
X3921843Y3328000D1*
X3923744Y3333748D1*
Y3337551D1*
X3916095Y3324197D2*
X3891246Y3347145D1*
X3923744Y3306054D2*
Y3285051D1*
X3908446Y3296503D1*
Y3290755D1*
X3906544Y3286953D1*
X3904643Y3285051D1*
X3898895Y3283106D1*
X3895093D1*
X3889345Y3285051D1*
X3885498Y3288854D1*
X3883597Y3294602D1*
Y3300350D1*
X3885498Y3306054D1*
X3887443Y3307955D1*
X3891246Y3309901D1*
X461693Y4024940D2*
X442592D1*
X440691Y4007740D1*
X442592Y4009641D1*
X448340Y4011587D1*
X454044D1*
X459792Y4009641D1*
X463639Y4005839D1*
X465540Y4000091D1*
Y3996288D1*
X463639Y3990540D1*
X459792Y3986693D1*
X454044Y3984792D1*
X448340D1*
X442592Y3986693D1*
X440691Y3988639D1*
X438745Y3992441D1*
X479793Y3988639D2*
X477891Y3986693D1*
X479793Y3984792D1*
X481738Y3986693D1*
X479793Y3988639D1*
X513235Y3984792D2*
Y4024940D1*
X494090Y3998189D1*
X522786D1*
X542786Y3984792D2*
X561932Y4024940D1*
X535137D1*
X1289413Y4072111D2*
Y4112259D1*
X1270268Y4085508D1*
X1298964D1*
X1318964Y4072111D2*
X1338110Y4112259D1*
X1311315D1*
X1352362Y4075958D2*
X1350461Y4074012D1*
X1352362Y4072111D1*
X1354308Y4074012D1*
X1352362Y4075958D1*
X1389607Y4112259D2*
X1370506D1*
X1368605Y4095059D1*
X1370506Y4096960D1*
X1376254Y4098906D1*
X1381958D1*
X1387706Y4096960D1*
X1391553Y4093158D1*
X1393454Y4087410D1*
Y4083607D1*
X1391553Y4077859D1*
X1387706Y4074012D1*
X1381958Y4072111D1*
X1376254D1*
X1370506Y4074012D1*
X1368605Y4075958D1*
X1366659Y4079760D1*
X277339Y2164801D2*
X275394Y2168647D1*
X269690Y2174395D1*
X309838D1*
X269690Y2196297D2*
X271591Y2190594D1*
X275394Y2188648D1*
X279241D1*
X283043Y2190594D1*
X284989Y2194396D1*
X286890Y2202045D1*
X288791Y2207793D1*
X292638Y2211596D1*
X296440Y2213497D1*
X302188D1*
X305991Y2211596D1*
X307937Y2209695D1*
X309838Y2203947D1*
Y2196297D1*
X307937Y2190594D1*
X305991Y2188648D1*
X302188Y2186747D1*
X296440D1*
X292638Y2188648D1*
X288791Y2192495D1*
X286890Y2198199D1*
X284989Y2205848D1*
X283043Y2209695D1*
X279241Y2211596D1*
X275394D1*
X271591Y2209695D1*
X269690Y2203947D1*
Y2196297D1*
X305991Y2227750D2*
X307937Y2225849D1*
X309838Y2227750D1*
X307937Y2229695D1*
X305991Y2227750D1*
X279241Y2243992D2*
X277339D1*
X273493Y2245894D1*
X271591Y2247795D1*
X269690Y2251642D1*
Y2259291D1*
X271591Y2263093D1*
X273493Y2264995D1*
X277339Y2266940D1*
X281142D1*
X284989Y2264995D1*
X290692Y2261192D1*
X309838Y2242047D1*
Y2268841D1*
X269690Y2290743D2*
X271591Y2285040D1*
X275394Y2283094D1*
X279241D1*
X283043Y2285040D1*
X284989Y2288842D1*
X286890Y2296491D1*
X288791Y2302240D1*
X292638Y2306042D1*
X296440Y2307943D1*
X302188D1*
X305991Y2306042D1*
X307937Y2304141D1*
X309838Y2298393D1*
Y2290743D1*
X307937Y2285040D1*
X305991Y2283094D1*
X302188Y2281193D1*
X296440D1*
X292638Y2283094D1*
X288791Y2286941D1*
X286890Y2292645D1*
X284989Y2300294D1*
X283043Y2304141D1*
X279241Y2306042D1*
X275394D1*
X271591Y2304141D1*
X269690Y2298393D1*
Y2290743D1*
X282277Y3721191D2*
X284178Y3715487D1*
X287980Y3713542D1*
X291827D1*
X295630Y3715487D1*
X297575Y3719290D1*
X299477Y3726939D1*
X301378Y3732687D1*
X305225Y3736490D1*
X309027Y3738391D1*
X314775D1*
X318578Y3736490D1*
X320523Y3734589D1*
X322424Y3728841D1*
Y3721191D1*
X320523Y3715487D1*
X318578Y3713542D1*
X314775Y3711641D1*
X309027D1*
X305225Y3713542D1*
X301378Y3717389D1*
X299477Y3723093D1*
X297575Y3730742D1*
X295630Y3734589D1*
X291827Y3736490D1*
X287980D1*
X284178Y3734589D1*
X282277Y3728841D1*
Y3721191D1*
X318578Y3752644D2*
X320523Y3750743D1*
X322424Y3752644D1*
X320523Y3754589D1*
X318578Y3752644D1*
X282277Y3789889D2*
Y3770787D1*
X299477Y3768886D1*
X297575Y3770787D1*
X295630Y3776536D1*
Y3782239D1*
X297575Y3787987D1*
X301378Y3791834D1*
X307126Y3793735D1*
X310928D1*
X316676Y3791834D1*
X320523Y3787987D1*
X322424Y3782239D1*
Y3776536D1*
X320523Y3770787D1*
X318578Y3768886D1*
X314775Y3766941D1*
X282277Y3809934D2*
Y3830936D1*
X297575Y3819484D1*
Y3825232D1*
X299477Y3829035D1*
X301378Y3830936D1*
X307126Y3832881D1*
X310928D1*
X316676Y3830936D1*
X320523Y3827133D1*
X322424Y3821385D1*
Y3815637D1*
X320523Y3809934D1*
X318578Y3808032D1*
X314775Y3806087D1*
X283379Y513455D2*
X285280Y507751D1*
X289083Y505806D1*
X292930D1*
X296732Y507751D1*
X298678Y511554D1*
X300579Y519203D1*
X302480Y524951D1*
X306327Y528754D1*
X310129Y530655D1*
X315877D1*
X319680Y528754D1*
X321626Y526852D1*
X323527Y521104D1*
Y513455D1*
X321626Y507751D1*
X319680Y505806D1*
X315877Y503904D1*
X310129D1*
X306327Y505806D1*
X302480Y509653D1*
X300579Y515356D1*
X298678Y523006D1*
X296732Y526852D1*
X292930Y528754D1*
X289083D1*
X285280Y526852D1*
X283379Y521104D1*
Y513455D1*
X319680Y544908D2*
X321626Y543006D1*
X323527Y544908D1*
X321626Y546853D1*
X319680Y544908D1*
X283379Y582152D2*
Y563051D1*
X300579Y561150D1*
X298678Y563051D1*
X296732Y568799D1*
Y574503D1*
X298678Y580251D1*
X302480Y584098D1*
X308228Y585999D1*
X312031D1*
X317779Y584098D1*
X321626Y580251D1*
X323527Y574503D1*
Y568799D1*
X321626Y563051D1*
X319680Y561150D1*
X315877Y559204D1*
X292930Y600296D2*
X291028D1*
X287182Y602197D1*
X285280Y604099D1*
X283379Y607945D1*
Y615595D1*
X285280Y619397D1*
X287182Y621298D1*
X291028Y623244D1*
X294831D1*
X298678Y621298D1*
X304381Y617496D1*
X323527Y598351D1*
Y625145D1*
X1625882Y878943D2*
Y919091D1*
X1606736Y892340D1*
X1635432D1*
X1647784Y911442D2*
X1651630Y913387D1*
X1657378Y919091D1*
Y878943D1*
X1671631Y882790D2*
X1669730Y880844D1*
X1671631Y878943D1*
X1673577Y880844D1*
X1671631Y882790D1*
X1697424Y919091D2*
X1691676Y917190D1*
X1687829Y911442D1*
X1685928Y901891D1*
Y896143D1*
X1687829Y886592D1*
X1691676Y880844D1*
X1697424Y878943D1*
X1701227D1*
X1706975Y880844D1*
X1710777Y886592D1*
X1712723Y896143D1*
Y901891D1*
X1710777Y911442D1*
X1706975Y917190D1*
X1701227Y919091D1*
X1697424D1*
X1710777Y911442D2*
X1687829Y886592D1*
X1744219Y878943D2*
Y919091D1*
X1725074Y892340D1*
X1753770D1*
X3766845Y609576D2*
X3764944Y615280D1*
X3761142Y617226D1*
X3757295D1*
X3753492Y615280D1*
X3751547Y611478D1*
X3749646Y603828D1*
X3747744Y598080D1*
X3743898Y594278D1*
X3740095Y592377D1*
X3734347D1*
X3730544Y594278D1*
X3728599Y596179D1*
X3726698Y601927D1*
Y609576D1*
X3728599Y615280D1*
X3730544Y617226D1*
X3734347Y619127D1*
X3740095D1*
X3743898Y617226D1*
X3747744Y613379D1*
X3749646Y607675D1*
X3751547Y600026D1*
X3753492Y596179D1*
X3757295Y594278D1*
X3761142D1*
X3764944Y596179D1*
X3766845Y601927D1*
Y609576D1*
X3730544Y578124D2*
X3728599Y580025D1*
X3726698Y578124D1*
X3728599Y576178D1*
X3730544Y578124D1*
X3766845Y540879D2*
Y559980D1*
X3749646Y561882D1*
X3751547Y559980D1*
X3753492Y554232D1*
Y548528D1*
X3751547Y542780D1*
X3747744Y538934D1*
X3741996Y537032D1*
X3738194D1*
X3732446Y538934D1*
X3728599Y542780D1*
X3726698Y548528D1*
Y554232D1*
X3728599Y559980D1*
X3730544Y561882D1*
X3734347Y563827D1*
X3766845Y520834D2*
Y499832D1*
X3751547Y511284D1*
Y505536D1*
X3749646Y501733D1*
X3747744Y499832D1*
X3741996Y497886D1*
X3738194D1*
X3732446Y499832D1*
X3728599Y503634D1*
X3726698Y509382D1*
Y515130D1*
X3728599Y520834D1*
X3730544Y522735D1*
X3734347Y524681D1*
M02*
