G04 DipTrace 3.3.1.3*
G04 TopMask.gbr*
%MOIN*%
G04 #@! TF.FileFunction,Soldermask,Top*
G04 #@! TF.Part,Single*
%ADD24C,0.19685*%
%ADD29R,0.059055X0.066929*%
%ADD31C,0.074803*%
%ADD33R,0.074803X0.074803*%
%FSLAX26Y26*%
G04*
G70*
G90*
G75*
G01*
G04 TopMask*
%LPD*%
D24*
X867913Y3601339D3*
X2483150Y3601693D3*
X2485079Y729488D3*
X869252Y729173D3*
D33*
X2513845Y2743909D3*
D31*
Y2643909D3*
X2413845Y2743909D3*
Y2643909D3*
X2313845Y2743909D3*
Y2643909D3*
D33*
X2343671Y1724875D3*
D31*
Y1824875D3*
X2443671Y1724875D3*
Y1824875D3*
X2543671Y1724875D3*
Y1824875D3*
D33*
X854890Y2743161D3*
D31*
Y2643161D3*
X754890Y2743161D3*
Y2643161D3*
X654890Y2743161D3*
Y2643161D3*
D33*
X684741Y1723407D3*
D31*
Y1823407D3*
X784741Y1723407D3*
Y1823407D3*
X884741Y1723407D3*
Y1823407D3*
D33*
X2943701Y2343701D3*
D31*
X2843701D3*
X2943701Y2443701D3*
X2843701D3*
X2943701Y2543701D3*
X2843701D3*
X2943701Y2643701D3*
X2843701D3*
X2943701Y2743701D3*
X2843701D3*
D33*
X2943701Y3093701D3*
D31*
X2843701D3*
X2943701Y3193701D3*
X2843701D3*
X2943701Y3293701D3*
X2843701D3*
X2943701Y3393701D3*
X2843701D3*
X2943701Y3493701D3*
X2843701D3*
D33*
Y1393701D3*
D31*
Y1493701D3*
D33*
X3093701Y1093701D3*
D31*
Y1193701D3*
D33*
X2843701Y1093701D3*
D31*
Y1193701D3*
D33*
X3093701Y1393701D3*
D31*
Y1493701D3*
D33*
X3143701Y2593701D3*
D31*
Y2693701D3*
D33*
Y2343701D3*
D31*
Y2443701D3*
D33*
X2618701Y1093701D3*
D31*
Y1193701D3*
D29*
X1743701Y3043701D3*
X1818504D3*
X1743701Y2443701D3*
X1818504D3*
M02*
