G04 DipTrace 3.3.1.3*
G04 TopSilk.gbr*
%MOIN*%
G04 #@! TF.FileFunction,Legend,Top*
G04 #@! TF.Part,Single*
%ADD10C,0.009843*%
%ADD35C,0.004632*%
%ADD36C,0.009264*%
%ADD37C,0.006176*%
%FSLAX26Y26*%
G04*
G70*
G90*
G75*
G01*
G04 TopSilk*
%LPD*%
X2563845Y2593909D2*
D10*
X2263845D1*
Y2793909D1*
X2563845D1*
Y2593909D1*
X2293671Y1874875D2*
X2593671D1*
Y1674875D1*
X2293671D1*
Y1874875D1*
X904890Y2593161D2*
X604890D1*
Y2793161D1*
X904890D1*
Y2593161D1*
X634741Y1873407D2*
X934741D1*
Y1673407D1*
X634741D1*
Y1873407D1*
X2793701Y2293701D2*
X2993701D1*
Y2793701D1*
X2793701D1*
Y2293701D1*
Y3043701D2*
X2993701D1*
Y3543701D1*
X2793701D1*
Y3043701D1*
Y1543701D2*
X2893701D1*
Y1343701D1*
X2793701D1*
Y1543701D1*
X3043701Y1243701D2*
X3143701D1*
Y1043701D1*
X3043701D1*
Y1243701D1*
X2793701D2*
X2893701D1*
Y1043701D1*
X2793701D1*
Y1243701D1*
X3043701Y1543701D2*
X3143701D1*
Y1343701D1*
X3043701D1*
Y1543701D1*
X3093701Y2743701D2*
X3193701D1*
Y2543701D1*
X3093701D1*
Y2743701D1*
Y2493701D2*
X3193701D1*
Y2293701D1*
X3093701D1*
Y2493701D1*
X2568701Y1243701D2*
X2668701D1*
Y1043701D1*
X2568701D1*
Y1243701D1*
G36*
X2768701Y1568701D2*
X3168701D1*
Y1018701D1*
X2768701D1*
Y1568701D1*
G37*
G36*
X3093701Y2743701D2*
X3193701D1*
Y2268701D1*
X3093701D1*
Y2743701D1*
G37*
G36*
X2768701Y3568701D2*
X3018701D1*
Y2268701D1*
X2768701D1*
Y3568701D1*
G37*
X2412795Y2837843D2*
D35*
Y2814895D1*
X2411369Y2810584D1*
X2409910Y2809158D1*
X2407058Y2807699D1*
X2404173D1*
X2401321Y2809158D1*
X2399895Y2810584D1*
X2398436Y2814895D1*
Y2817747D1*
X2422058Y2832073D2*
X2424943Y2833532D1*
X2429254Y2837810D1*
Y2807699D1*
X2436170Y1918809D2*
Y1895861D1*
X2434744Y1891550D1*
X2433285Y1890124D1*
X2430433Y1888665D1*
X2427548D1*
X2424696Y1890124D1*
X2423270Y1891550D1*
X2421811Y1895861D1*
Y1898713D1*
X2446893Y1911613D2*
Y1913039D1*
X2448319Y1915924D1*
X2449745Y1917350D1*
X2452630Y1918776D1*
X2458367D1*
X2461219Y1917350D1*
X2462645Y1915924D1*
X2464104Y1913039D1*
Y1910187D1*
X2462645Y1907302D1*
X2459793Y1903024D1*
X2445434Y1888665D1*
X2465530D1*
X747390Y2837095D2*
Y2814147D1*
X745964Y2809836D1*
X744504Y2808410D1*
X741653Y2806951D1*
X738767D1*
X735916Y2808410D1*
X734490Y2809836D1*
X733030Y2814147D1*
Y2816999D1*
X759538Y2837062D2*
X775290D1*
X766701Y2825588D1*
X771012D1*
X773864Y2824162D1*
X775290Y2822736D1*
X776749Y2818425D1*
Y2815573D1*
X775290Y2811262D1*
X772438Y2808377D1*
X768127Y2806951D1*
X763816D1*
X759538Y2808377D1*
X758112Y2809836D1*
X756653Y2812688D1*
X776528Y1917341D2*
Y1894393D1*
X775102Y1890082D1*
X773643Y1888656D1*
X770791Y1887197D1*
X767906D1*
X765054Y1888656D1*
X763628Y1890082D1*
X762169Y1894393D1*
Y1897245D1*
X800151Y1887197D2*
Y1917308D1*
X785792Y1897245D1*
X807314D1*
X2736201Y2312635D2*
Y2289687D1*
X2734775Y2285376D1*
X2733315Y2283950D1*
X2730464Y2282491D1*
X2727578D1*
X2724727Y2283950D1*
X2723301Y2285376D1*
X2721841Y2289687D1*
Y2292539D1*
X2762675Y2312601D2*
X2748349D1*
X2746923Y2299702D1*
X2748349Y2301128D1*
X2752660Y2302587D1*
X2756938D1*
X2761249Y2301128D1*
X2764134Y2298276D1*
X2765560Y2293965D1*
Y2291113D1*
X2764134Y2286802D1*
X2761249Y2283917D1*
X2756938Y2282491D1*
X2752660D1*
X2748349Y2283917D1*
X2746923Y2285376D1*
X2745464Y2288228D1*
X2736930Y3562635D2*
Y3539687D1*
X2735504Y3535376D1*
X2734045Y3533950D1*
X2731193Y3532491D1*
X2728308D1*
X2725456Y3533950D1*
X2724030Y3535376D1*
X2722571Y3539687D1*
Y3542539D1*
X2763405Y3558324D2*
X2761979Y3561176D1*
X2757668Y3562601D1*
X2754816D1*
X2750505Y3561176D1*
X2747620Y3556864D1*
X2746194Y3549702D1*
Y3542539D1*
X2747620Y3536802D1*
X2750505Y3533917D1*
X2754816Y3532491D1*
X2756242D1*
X2760519Y3533917D1*
X2763405Y3536802D1*
X2764831Y3541113D1*
Y3542539D1*
X2763405Y3546850D1*
X2760519Y3549702D1*
X2756242Y3551128D1*
X2754816D1*
X2750505Y3549702D1*
X2747620Y3546850D1*
X2746194Y3542539D1*
X2836201Y1612635D2*
Y1589687D1*
X2834775Y1585376D1*
X2833315Y1583950D1*
X2830464Y1582491D1*
X2827578D1*
X2824727Y1583950D1*
X2823301Y1585376D1*
X2821841Y1589687D1*
Y1592539D1*
X2851201Y1582491D2*
X2865560Y1612601D1*
X2845464D1*
X3086217Y1287635D2*
Y1264687D1*
X3084791Y1260376D1*
X3083332Y1258950D1*
X3080480Y1257491D1*
X3077595D1*
X3074743Y1258950D1*
X3073317Y1260376D1*
X3071858Y1264687D1*
Y1267539D1*
X3102644Y1287601D2*
X3098366Y1286176D1*
X3096907Y1283324D1*
Y1280439D1*
X3098366Y1277587D1*
X3101218Y1276128D1*
X3106955Y1274702D1*
X3111266Y1273276D1*
X3114118Y1270391D1*
X3115543Y1267539D1*
Y1263228D1*
X3114118Y1260376D1*
X3112692Y1258917D1*
X3108381Y1257491D1*
X3102644D1*
X3098366Y1258917D1*
X3096907Y1260376D1*
X3095481Y1263228D1*
Y1267539D1*
X3096907Y1270391D1*
X3099792Y1273276D1*
X3104070Y1274702D1*
X3109807Y1276128D1*
X3112692Y1277587D1*
X3114118Y1280439D1*
Y1283324D1*
X3112692Y1286176D1*
X3108381Y1287601D1*
X3102644D1*
X2836914Y1287635D2*
Y1264687D1*
X2835488Y1260376D1*
X2834028Y1258950D1*
X2831177Y1257491D1*
X2828291D1*
X2825440Y1258950D1*
X2824014Y1260376D1*
X2822554Y1264687D1*
Y1267539D1*
X2864847Y1277587D2*
X2863388Y1273276D1*
X2860536Y1270391D1*
X2856225Y1268965D1*
X2854799D1*
X2850488Y1270391D1*
X2847636Y1273276D1*
X2846177Y1277587D1*
Y1279013D1*
X2847636Y1283324D1*
X2850488Y1286176D1*
X2854799Y1287601D1*
X2856225D1*
X2860536Y1286176D1*
X2863388Y1283324D1*
X2864847Y1277587D1*
Y1270391D1*
X2863388Y1263228D1*
X2860536Y1258917D1*
X2856225Y1257491D1*
X2853373D1*
X2849062Y1258917D1*
X2847636Y1261802D1*
X3077971Y1612635D2*
Y1589687D1*
X3076545Y1585376D1*
X3075086Y1583950D1*
X3072234Y1582491D1*
X3069349D1*
X3066497Y1583950D1*
X3065071Y1585376D1*
X3063612Y1589687D1*
Y1592539D1*
X3087234Y1606864D2*
X3090119Y1608324D1*
X3094430Y1612601D1*
Y1582491D1*
X3112316Y1612601D2*
X3108005Y1611176D1*
X3105120Y1606864D1*
X3103694Y1599702D1*
Y1595391D1*
X3105120Y1588228D1*
X3108005Y1583917D1*
X3112316Y1582491D1*
X3115168D1*
X3119479Y1583917D1*
X3122331Y1588228D1*
X3123790Y1595391D1*
Y1599702D1*
X3122331Y1606864D1*
X3119479Y1611176D1*
X3115168Y1612601D1*
X3112316D1*
X3122331Y1606864D2*
X3105120Y1588228D1*
X3134421Y2787635D2*
Y2764687D1*
X3132995Y2760376D1*
X3131536Y2758950D1*
X3128684Y2757491D1*
X3125799D1*
X3122947Y2758950D1*
X3121521Y2760376D1*
X3120062Y2764687D1*
Y2767539D1*
X3143684Y2781864D2*
X3146569Y2783324D1*
X3150880Y2787601D1*
Y2757491D1*
X3160144Y2781864D2*
X3163029Y2783324D1*
X3167340Y2787601D1*
Y2757491D1*
X3127971Y2537635D2*
Y2514687D1*
X3126545Y2510376D1*
X3125086Y2508950D1*
X3122234Y2507491D1*
X3119349D1*
X3116497Y2508950D1*
X3115071Y2510376D1*
X3113612Y2514687D1*
Y2517539D1*
X3137234Y2531864D2*
X3140119Y2533324D1*
X3144430Y2537601D1*
Y2507491D1*
X3155153Y2530439D2*
Y2531864D1*
X3156579Y2534750D1*
X3158005Y2536176D1*
X3160890Y2537601D1*
X3166627D1*
X3169479Y2536176D1*
X3170905Y2534750D1*
X3172364Y2531864D1*
Y2529013D1*
X3170905Y2526128D1*
X3168053Y2521850D1*
X3153694Y2507491D1*
X3173790D1*
X2602971Y1287635D2*
Y1264687D1*
X2601545Y1260376D1*
X2600086Y1258950D1*
X2597234Y1257491D1*
X2594349D1*
X2591497Y1258950D1*
X2590071Y1260376D1*
X2588612Y1264687D1*
Y1267539D1*
X2612234Y1281864D2*
X2615119Y1283324D1*
X2619430Y1287601D1*
Y1257491D1*
X2631579Y1287601D2*
X2647331D1*
X2638742Y1276128D1*
X2643053D1*
X2645905Y1274702D1*
X2647331Y1273276D1*
X2648790Y1268965D1*
Y1266113D1*
X2647331Y1261802D1*
X2644479Y1258917D1*
X2640168Y1257491D1*
X2635857D1*
X2631579Y1258917D1*
X2630153Y1260376D1*
X2628694Y1263228D1*
X1762825Y3102803D2*
X1775724D1*
X1780035Y3104262D1*
X1781495Y3105688D1*
X1782921Y3108540D1*
Y3111425D1*
X1781495Y3114277D1*
X1780035Y3115736D1*
X1775724Y3117162D1*
X1762825D1*
Y3087018D1*
X1772873Y3102803D2*
X1782921Y3087018D1*
X1792184Y3111392D2*
X1795069Y3112851D1*
X1799380Y3117129D1*
Y3087018D1*
X1756375Y2502803D2*
X1769274D1*
X1773586Y2504262D1*
X1775045Y2505688D1*
X1776471Y2508540D1*
Y2511425D1*
X1775045Y2514277D1*
X1773586Y2515736D1*
X1769274Y2517162D1*
X1756375D1*
Y2487018D1*
X1766423Y2502803D2*
X1776471Y2487018D1*
X1787193Y2509966D2*
Y2511392D1*
X1788619Y2514277D1*
X1790045Y2515703D1*
X1792930Y2517129D1*
X1798667D1*
X1801519Y2515703D1*
X1802945Y2514277D1*
X1804404Y2511392D1*
Y2508540D1*
X1802945Y2505655D1*
X1800093Y2501377D1*
X1785734Y2487018D1*
X1805830D1*
X3554313Y3327646D2*
D36*
Y3301780D1*
X3557165Y3293224D1*
X3560083Y3290306D1*
X3565787Y3287454D1*
X3574409D1*
X3580113Y3290306D1*
X3583031Y3293224D1*
X3585883Y3301780D1*
Y3327646D1*
X3525595D1*
X3585883Y3268927D2*
X3525595D1*
X3571557Y3149035D2*
X3577261Y3151887D1*
X3583031Y3157657D1*
X3585883Y3163361D1*
Y3174835D1*
X3583031Y3180605D1*
X3577261Y3186309D1*
X3571557Y3189227D1*
X3562935Y3192079D1*
X3548543D1*
X3539987Y3189227D1*
X3534217Y3186309D1*
X3528513Y3180605D1*
X3525595Y3174835D1*
Y3163361D1*
X3528513Y3157657D1*
X3534217Y3151887D1*
X3539987Y3149035D1*
X3585883Y3130508D2*
X3525595D1*
X3565787Y3111981D2*
X3537069D1*
X3528513Y3109129D1*
X3525595Y3103359D1*
Y3094737D1*
X3528513Y3089033D1*
X3537069Y3080411D1*
X3565787D2*
X3525595D1*
X3557165Y3030314D2*
X3562935Y3033166D1*
X3565787Y3041788D1*
Y3050410D1*
X3562935Y3059032D1*
X3557165Y3061884D1*
X3551461Y3059032D1*
X3548543Y3053262D1*
X3545691Y3038936D1*
X3542839Y3033166D1*
X3537069Y3030314D1*
X3534217D1*
X3528513Y3033166D1*
X3525595Y3041788D1*
Y3050410D1*
X3528513Y3059032D1*
X3534217Y3061884D1*
X3585883Y3003165D2*
X3537069D1*
X3528513Y3000313D1*
X3525595Y2994543D1*
Y2988839D1*
X3565787Y3011787D2*
Y2991691D1*
X3548543Y2970312D2*
Y2935890D1*
X3554313D1*
X3560083Y2938742D1*
X3562935Y2941594D1*
X3565787Y2947364D1*
Y2955986D1*
X3562935Y2961690D1*
X3557165Y2967460D1*
X3548543Y2970312D1*
X3542839D1*
X3534217Y2967460D1*
X3528513Y2961690D1*
X3525595Y2955986D1*
Y2947364D1*
X3528513Y2941594D1*
X3534217Y2935890D1*
X3565787Y2917363D2*
X3525595D1*
X3548543D2*
X3557165Y2914445D1*
X3562935Y2908741D1*
X3565787Y2902971D1*
Y2894349D1*
X3585883Y2817500D2*
X3525595D1*
X3557165D2*
X3562935Y2811730D1*
X3565787Y2806026D1*
Y2797404D1*
X3562935Y2791701D1*
X3557165Y2785930D1*
X3548543Y2783079D1*
X3542839D1*
X3534217Y2785930D1*
X3528513Y2791701D1*
X3525595Y2797404D1*
Y2806026D1*
X3528513Y2811730D1*
X3534217Y2817500D1*
X3565787Y2730130D2*
X3525595D1*
X3557165D2*
X3562935Y2735833D1*
X3565787Y2741604D1*
Y2750159D1*
X3562935Y2755929D1*
X3557165Y2761633D1*
X3548543Y2764551D1*
X3542839D1*
X3534217Y2761633D1*
X3528513Y2755929D1*
X3525595Y2750159D1*
Y2741604D1*
X3528513Y2735833D1*
X3534217Y2730130D1*
X3557165Y2677114D2*
X3562935Y2682884D1*
X3565787Y2688655D1*
Y2697210D1*
X3562935Y2702980D1*
X3557165Y2708684D1*
X3548543Y2711602D1*
X3542839D1*
X3534217Y2708684D1*
X3528513Y2702980D1*
X3525595Y2697210D1*
Y2688655D1*
X3528513Y2682884D1*
X3534217Y2677114D1*
X3585883Y2658587D2*
X3525595D1*
X3565787Y2629869D2*
X3537069Y2658587D1*
X3548543Y2647113D2*
X3525595Y2627017D1*
X3565787Y2608490D2*
X3505499D1*
X3557165D2*
X3562869Y2602720D1*
X3565787Y2597016D1*
Y2588394D1*
X3562869Y2582624D1*
X3557165Y2576920D1*
X3548543Y2574002D1*
X3542773D1*
X3534217Y2576920D1*
X3528447Y2582624D1*
X3525595Y2588394D1*
Y2597016D1*
X3528447Y2602720D1*
X3534217Y2608490D1*
X3585883Y2555475D2*
X3525595D1*
X3565787Y2502526D2*
X3525595D1*
X3557165D2*
X3562935Y2508230D1*
X3565787Y2514000D1*
Y2522556D1*
X3562935Y2528326D1*
X3557165Y2534030D1*
X3548543Y2536948D1*
X3542839D1*
X3534217Y2534030D1*
X3528513Y2528326D1*
X3525595Y2522556D1*
Y2514000D1*
X3528513Y2508230D1*
X3534217Y2502526D1*
X3565787Y2483999D2*
X3525595D1*
X3554313D2*
X3562935Y2475377D1*
X3565787Y2469607D1*
Y2461051D1*
X3562935Y2455281D1*
X3554313Y2452429D1*
X3525595D1*
X3548543Y2433902D2*
Y2399480D1*
X3554313D1*
X3560083Y2402332D1*
X3562935Y2405184D1*
X3565787Y2410954D1*
Y2419576D1*
X3562935Y2425280D1*
X3557165Y2431050D1*
X3548543Y2433902D1*
X3542839D1*
X3534217Y2431050D1*
X3528513Y2425280D1*
X3525595Y2419576D1*
Y2410954D1*
X3528513Y2405184D1*
X3534217Y2399480D1*
X3585883Y2322632D2*
X3525595Y2299684D1*
X3585883Y2276736D1*
X3574343Y2258209D2*
X3577261Y2252439D1*
X3585817Y2243817D1*
X3525595D1*
X3531365Y2222438D2*
X3528447Y2225289D1*
X3525595Y2222438D1*
X3528447Y2219519D1*
X3531365Y2222438D1*
X3585817Y2183748D2*
X3582965Y2192370D1*
X3574343Y2198140D1*
X3560017Y2200992D1*
X3551395D1*
X3537069Y2198140D1*
X3528447Y2192370D1*
X3525595Y2183748D1*
Y2178044D1*
X3528447Y2169422D1*
X3537069Y2163718D1*
X3551395Y2160800D1*
X3560017D1*
X3574343Y2163718D1*
X3582965Y2169422D1*
X3585817Y2178044D1*
Y2183748D1*
X3574343Y2163718D2*
X3537069Y2198140D1*
X1233893Y544360D2*
X1228190Y550130D1*
X1219567Y552982D1*
X1208094D1*
X1199471Y550130D1*
X1193701Y544360D1*
Y538656D1*
X1196620Y532886D1*
X1199471Y530034D1*
X1205175Y527182D1*
X1222419Y521412D1*
X1228190Y518560D1*
X1231041Y515641D1*
X1233893Y509938D1*
Y501316D1*
X1228190Y495612D1*
X1219567Y492694D1*
X1208094D1*
X1199471Y495612D1*
X1193701Y501316D1*
X1252420Y532886D2*
Y472598D1*
Y524264D2*
X1258191Y529967D1*
X1263894Y532886D1*
X1272516D1*
X1278287Y529967D1*
X1283990Y524264D1*
X1286909Y515641D1*
Y509871D1*
X1283990Y501316D1*
X1278287Y495545D1*
X1272516Y492694D1*
X1263894D1*
X1258191Y495545D1*
X1252420Y501316D1*
X1339858Y532886D2*
Y492694D1*
Y524264D2*
X1334154Y530034D1*
X1328384Y532886D1*
X1319828D1*
X1314058Y530034D1*
X1308354Y524264D1*
X1305436Y515641D1*
Y509938D1*
X1308354Y501316D1*
X1314058Y495612D1*
X1319828Y492694D1*
X1328384D1*
X1334154Y495612D1*
X1339858Y501316D1*
X1392873Y524264D2*
X1387103Y530034D1*
X1381333Y532886D1*
X1372777D1*
X1367007Y530034D1*
X1361303Y524264D1*
X1358385Y515641D1*
Y509938D1*
X1361303Y501316D1*
X1367007Y495612D1*
X1372777Y492694D1*
X1381333D1*
X1387103Y495612D1*
X1392873Y501316D1*
X1411400Y515641D2*
X1445822D1*
Y521412D1*
X1442970Y527182D1*
X1440118Y530034D1*
X1434348Y532886D1*
X1425726D1*
X1420022Y530034D1*
X1414252Y524264D1*
X1411400Y515641D1*
Y509938D1*
X1414252Y501316D1*
X1420022Y495612D1*
X1425726Y492694D1*
X1434348D1*
X1440118Y495612D1*
X1445822Y501316D1*
X1464349Y552982D2*
Y492694D1*
Y524264D2*
X1470119Y530034D1*
X1475823Y532886D1*
X1484445D1*
X1490149Y530034D1*
X1495919Y524264D1*
X1498771Y515641D1*
Y509938D1*
X1495919Y501316D1*
X1490149Y495612D1*
X1484445Y492694D1*
X1475823D1*
X1470119Y495612D1*
X1464349Y501316D1*
X1517298Y532886D2*
Y504168D1*
X1520150Y495612D1*
X1525920Y492694D1*
X1534542D1*
X1540246Y495612D1*
X1548868Y504168D1*
Y532886D2*
Y492694D1*
X1601817Y530034D2*
Y484072D1*
X1598965Y475516D1*
X1596113Y472598D1*
X1590343Y469746D1*
X1581721D1*
X1576017Y472598D1*
X1601817Y521412D2*
X1596113Y527115D1*
X1590343Y530034D1*
X1581721D1*
X1576017Y527115D1*
X1570247Y521412D1*
X1567395Y512790D1*
Y507019D1*
X1570247Y498464D1*
X1576017Y492694D1*
X1581721Y489842D1*
X1590343D1*
X1596113Y492694D1*
X1601817Y498464D1*
X1651914Y524264D2*
X1649062Y530034D1*
X1640440Y532886D1*
X1631818D1*
X1623196Y530034D1*
X1620344Y524264D1*
X1623196Y518560D1*
X1628966Y515641D1*
X1643292Y512790D1*
X1649062Y509938D1*
X1651914Y504168D1*
Y501316D1*
X1649062Y495612D1*
X1640440Y492694D1*
X1631818D1*
X1623196Y495612D1*
X1620344Y501316D1*
X1728762Y541441D2*
X1734532Y544360D1*
X1743154Y552915D1*
Y492694D1*
X1761681Y541441D2*
X1767452Y544360D1*
X1776074Y552915D1*
Y492694D1*
X1794601D2*
X1834793Y552915D1*
X1870564D2*
X1861942Y550063D1*
X1856172Y541441D1*
X1853320Y527115D1*
Y518493D1*
X1856172Y504168D1*
X1861942Y495545D1*
X1870564Y492694D1*
X1876268D1*
X1884890Y495545D1*
X1890594Y504168D1*
X1893512Y518493D1*
Y527115D1*
X1890594Y541441D1*
X1884890Y550063D1*
X1876268Y552915D1*
X1870564D1*
X1890594Y541441D2*
X1856172Y504168D1*
X1940757Y492694D2*
Y552915D1*
X1912039Y512790D1*
X1955083D1*
X1973610Y492694D2*
X2013802Y552915D1*
X2035247Y538589D2*
Y541441D1*
X2038099Y547211D1*
X2040951Y550063D1*
X2046721Y552915D1*
X2058195D1*
X2063899Y550063D1*
X2066751Y547211D1*
X2069669Y541441D1*
Y535737D1*
X2066751Y529967D1*
X2061047Y521412D1*
X2032329Y492694D1*
X2072521D1*
X2091048Y541441D2*
X2096818Y544360D1*
X2105440Y552915D1*
Y492694D1*
X2843701Y977982D2*
Y917694D1*
X2863797D1*
X2872419Y920612D1*
X2878190Y926316D1*
X2881041Y932086D1*
X2883893Y940641D1*
Y955034D1*
X2881041Y963656D1*
X2878190Y969360D1*
X2872419Y975130D1*
X2863797Y977982D1*
X2843701D1*
X2945464Y963656D2*
X2942612Y969360D1*
X2936842Y975130D1*
X2931138Y977982D1*
X2919665D1*
X2913894Y975130D1*
X2908191Y969360D1*
X2905272Y963656D1*
X2902420Y955034D1*
Y940641D1*
X2905272Y932086D1*
X2908191Y926316D1*
X2913894Y920612D1*
X2919665Y917694D1*
X2931138D1*
X2936842Y920612D1*
X2942612Y926316D1*
X2945464Y932086D1*
X3056734Y977915D2*
X3028083D1*
X3025231Y952115D1*
X3028083Y954967D1*
X3036705Y957886D1*
X3045261D1*
X3053883Y954967D1*
X3059653Y949264D1*
X3062505Y940641D1*
Y934938D1*
X3059653Y926316D1*
X3053883Y920545D1*
X3045261Y917694D1*
X3036705D1*
X3028083Y920545D1*
X3025231Y923464D1*
X3022313Y929168D1*
X3081032Y977982D2*
X3103980Y917694D1*
X3126928Y977982D1*
X2693701Y871412D2*
X2719567D1*
X2728123Y874264D1*
X2731041Y877182D1*
X2733893Y882886D1*
Y891508D1*
X2731041Y897211D1*
X2728123Y900130D1*
X2719567Y902982D1*
X2693701D1*
Y842694D1*
X2786842Y882886D2*
Y842694D1*
Y874264D2*
X2781138Y880034D1*
X2775368Y882886D1*
X2766813D1*
X2761042Y880034D1*
X2755339Y874264D1*
X2752420Y865641D1*
Y859938D1*
X2755339Y851316D1*
X2761042Y845612D1*
X2766813Y842694D1*
X2775368D1*
X2781138Y845612D1*
X2786842Y851316D1*
X2836939Y874264D2*
X2834087Y880034D1*
X2825465Y882886D1*
X2816843D1*
X2808221Y880034D1*
X2805369Y874264D1*
X2808221Y868560D1*
X2813991Y865641D1*
X2828317Y862790D1*
X2834087Y859938D1*
X2836939Y854168D1*
Y851316D1*
X2834087Y845612D1*
X2825465Y842694D1*
X2816843D1*
X2808221Y845612D1*
X2805369Y851316D1*
X2887036Y874264D2*
X2884184Y880034D1*
X2875562Y882886D1*
X2866940D1*
X2858318Y880034D1*
X2855466Y874264D1*
X2858318Y868560D1*
X2864088Y865641D1*
X2878414Y862790D1*
X2884184Y859938D1*
X2887036Y854168D1*
Y851316D1*
X2884184Y845612D1*
X2875562Y842694D1*
X2866940D1*
X2858318Y845612D1*
X2855466Y851316D1*
X2972507Y902982D2*
Y854168D1*
X2975359Y845612D1*
X2981129Y842694D1*
X2986833D1*
X2963885Y882886D2*
X2983981D1*
X3005360Y902982D2*
Y842694D1*
Y871412D2*
X3013982Y880034D1*
X3019752Y882886D1*
X3028374D1*
X3034078Y880034D1*
X3036930Y871412D1*
Y842694D1*
X3055457Y882886D2*
Y842694D1*
Y865641D2*
X3058375Y874264D1*
X3064079Y880034D1*
X3069849Y882886D1*
X3078471D1*
X3111324D2*
X3105620Y880034D1*
X3099850Y874264D1*
X3096998Y865641D1*
Y859938D1*
X3099850Y851316D1*
X3105620Y845612D1*
X3111324Y842694D1*
X3119946D1*
X3125716Y845612D1*
X3131420Y851316D1*
X3134338Y859938D1*
Y865641D1*
X3131420Y874264D1*
X3125716Y880034D1*
X3119946Y882886D1*
X3111324D1*
X3152865D2*
Y854168D1*
X3155717Y845612D1*
X3161487Y842694D1*
X3170109D1*
X3175813Y845612D1*
X3184435Y854168D1*
Y882886D2*
Y842694D1*
X3237384Y880034D2*
Y834072D1*
X3234532Y825516D1*
X3231680Y822598D1*
X3225910Y819746D1*
X3217288D1*
X3211584Y822598D1*
X3237384Y871412D2*
X3231680Y877115D1*
X3225910Y880034D1*
X3217288D1*
X3211584Y877115D1*
X3205814Y871412D1*
X3202962Y862790D1*
Y857019D1*
X3205814Y848464D1*
X3211584Y842694D1*
X3217288Y839842D1*
X3225910D1*
X3231680Y842694D1*
X3237384Y848464D1*
X3255911Y902982D2*
Y842694D1*
Y871412D2*
X3264533Y880034D1*
X3270303Y882886D1*
X3278925D1*
X3284629Y880034D1*
X3287481Y871412D1*
Y842694D1*
X3049471Y2227915D2*
X3080975D1*
X3063797Y2204967D1*
X3072419D1*
X3078123Y2202115D1*
X3080975Y2199264D1*
X3083893Y2190641D1*
Y2184938D1*
X3080975Y2176316D1*
X3075271Y2170545D1*
X3066649Y2167694D1*
X3058027D1*
X3049471Y2170545D1*
X3046620Y2173464D1*
X3043701Y2179168D1*
X3105272Y2173464D2*
X3102420Y2170545D1*
X3105272Y2167694D1*
X3108191Y2170545D1*
X3105272Y2173464D1*
X3132488Y2227915D2*
X3163991D1*
X3146814Y2204967D1*
X3155436D1*
X3161140Y2202115D1*
X3163991Y2199264D1*
X3166910Y2190641D1*
Y2184938D1*
X3163991Y2176316D1*
X3158288Y2170545D1*
X3149666Y2167694D1*
X3141044D1*
X3132488Y2170545D1*
X3129636Y2173464D1*
X3126718Y2179168D1*
X3185437Y2227982D2*
X3208385Y2167694D1*
X3231333Y2227982D1*
X2843701Y2121412D2*
X2869567D1*
X2878123Y2124264D1*
X2881041Y2127182D1*
X2883893Y2132886D1*
Y2141508D1*
X2881041Y2147211D1*
X2878123Y2150130D1*
X2869567Y2152982D1*
X2843701D1*
Y2092694D1*
X2936842Y2132886D2*
Y2092694D1*
Y2124264D2*
X2931138Y2130034D1*
X2925368Y2132886D1*
X2916813D1*
X2911042Y2130034D1*
X2905339Y2124264D1*
X2902420Y2115641D1*
Y2109938D1*
X2905339Y2101316D1*
X2911042Y2095612D1*
X2916813Y2092694D1*
X2925368D1*
X2931138Y2095612D1*
X2936842Y2101316D1*
X2986939Y2124264D2*
X2984087Y2130034D1*
X2975465Y2132886D1*
X2966843D1*
X2958221Y2130034D1*
X2955369Y2124264D1*
X2958221Y2118560D1*
X2963991Y2115641D1*
X2978317Y2112790D1*
X2984087Y2109938D1*
X2986939Y2104168D1*
Y2101316D1*
X2984087Y2095612D1*
X2975465Y2092694D1*
X2966843D1*
X2958221Y2095612D1*
X2955369Y2101316D1*
X3037036Y2124264D2*
X3034184Y2130034D1*
X3025562Y2132886D1*
X3016940D1*
X3008318Y2130034D1*
X3005466Y2124264D1*
X3008318Y2118560D1*
X3014088Y2115641D1*
X3028414Y2112790D1*
X3034184Y2109938D1*
X3037036Y2104168D1*
Y2101316D1*
X3034184Y2095612D1*
X3025562Y2092694D1*
X3016940D1*
X3008318Y2095612D1*
X3005466Y2101316D1*
X3122507Y2152982D2*
Y2104168D1*
X3125359Y2095612D1*
X3131129Y2092694D1*
X3136833D1*
X3113885Y2132886D2*
X3133981D1*
X3155360Y2152982D2*
Y2092694D1*
Y2121412D2*
X3163982Y2130034D1*
X3169752Y2132886D1*
X3178374D1*
X3184078Y2130034D1*
X3186930Y2121412D1*
Y2092694D1*
X3205457Y2132886D2*
Y2092694D1*
Y2115641D2*
X3208375Y2124264D1*
X3214079Y2130034D1*
X3219849Y2132886D1*
X3228471D1*
X3261324D2*
X3255620Y2130034D1*
X3249850Y2124264D1*
X3246998Y2115641D1*
Y2109938D1*
X3249850Y2101316D1*
X3255620Y2095612D1*
X3261324Y2092694D1*
X3269946D1*
X3275716Y2095612D1*
X3281420Y2101316D1*
X3284338Y2109938D1*
Y2115641D1*
X3281420Y2124264D1*
X3275716Y2130034D1*
X3269946Y2132886D1*
X3261324D1*
X3302865D2*
Y2104168D1*
X3305717Y2095612D1*
X3311487Y2092694D1*
X3320109D1*
X3325813Y2095612D1*
X3334435Y2104168D1*
Y2132886D2*
Y2092694D1*
X3387384Y2130034D2*
Y2084072D1*
X3384532Y2075516D1*
X3381680Y2072598D1*
X3375910Y2069746D1*
X3367288D1*
X3361584Y2072598D1*
X3387384Y2121412D2*
X3381680Y2127115D1*
X3375910Y2130034D1*
X3367288D1*
X3361584Y2127115D1*
X3355814Y2121412D1*
X3352962Y2112790D1*
Y2107019D1*
X3355814Y2098464D1*
X3361584Y2092694D1*
X3367288Y2089842D1*
X3375910D1*
X3381680Y2092694D1*
X3387384Y2098464D1*
X3405911Y2152982D2*
Y2092694D1*
Y2121412D2*
X3414533Y2130034D1*
X3420303Y2132886D1*
X3428925D1*
X3434629Y2130034D1*
X3437481Y2121412D1*
Y2092694D1*
X2818701Y3777982D2*
Y3717694D1*
X2840147Y3763589D2*
Y3766441D1*
X2842999Y3772211D1*
X2845850Y3775063D1*
X2851621Y3777915D1*
X2863095D1*
X2868798Y3775063D1*
X2871650Y3772211D1*
X2874569Y3766441D1*
Y3760737D1*
X2871650Y3754967D1*
X2865946Y3746412D1*
X2837228Y3717694D1*
X2877420D1*
X2938991Y3763656D2*
X2936140Y3769360D1*
X2930369Y3775130D1*
X2924666Y3777982D1*
X2913192D1*
X2907421Y3775130D1*
X2901718Y3769360D1*
X2898799Y3763656D1*
X2895948Y3755034D1*
Y3740641D1*
X2898799Y3732086D1*
X2901718Y3726316D1*
X2907421Y3720612D1*
X2913192Y3717694D1*
X2924666D1*
X2930369Y3720612D1*
X2936140Y3726316D1*
X2938991Y3732086D1*
X2618701Y3646412D2*
X2644567D1*
X2653123Y3649264D1*
X2656041Y3652182D1*
X2658893Y3657886D1*
Y3666508D1*
X2656041Y3672211D1*
X2653123Y3675130D1*
X2644567Y3677982D1*
X2618701D1*
Y3617694D1*
X2711842Y3657886D2*
Y3617694D1*
Y3649264D2*
X2706138Y3655034D1*
X2700368Y3657886D1*
X2691813D1*
X2686042Y3655034D1*
X2680339Y3649264D1*
X2677420Y3640641D1*
Y3634938D1*
X2680339Y3626316D1*
X2686042Y3620612D1*
X2691813Y3617694D1*
X2700368D1*
X2706138Y3620612D1*
X2711842Y3626316D1*
X2761939Y3649264D2*
X2759087Y3655034D1*
X2750465Y3657886D1*
X2741843D1*
X2733221Y3655034D1*
X2730369Y3649264D1*
X2733221Y3643560D1*
X2738991Y3640641D1*
X2753317Y3637790D1*
X2759087Y3634938D1*
X2761939Y3629168D1*
Y3626316D1*
X2759087Y3620612D1*
X2750465Y3617694D1*
X2741843D1*
X2733221Y3620612D1*
X2730369Y3626316D1*
X2812036Y3649264D2*
X2809184Y3655034D1*
X2800562Y3657886D1*
X2791940D1*
X2783318Y3655034D1*
X2780466Y3649264D1*
X2783318Y3643560D1*
X2789088Y3640641D1*
X2803414Y3637790D1*
X2809184Y3634938D1*
X2812036Y3629168D1*
Y3626316D1*
X2809184Y3620612D1*
X2800562Y3617694D1*
X2791940D1*
X2783318Y3620612D1*
X2780466Y3626316D1*
X2897507Y3677982D2*
Y3629168D1*
X2900359Y3620612D1*
X2906129Y3617694D1*
X2911833D1*
X2888885Y3657886D2*
X2908981D1*
X2930360Y3677982D2*
Y3617694D1*
Y3646412D2*
X2938982Y3655034D1*
X2944752Y3657886D1*
X2953374D1*
X2959078Y3655034D1*
X2961930Y3646412D1*
Y3617694D1*
X2980457Y3657886D2*
Y3617694D1*
Y3640641D2*
X2983375Y3649264D1*
X2989079Y3655034D1*
X2994849Y3657886D1*
X3003471D1*
X3036324D2*
X3030620Y3655034D1*
X3024850Y3649264D1*
X3021998Y3640641D1*
Y3634938D1*
X3024850Y3626316D1*
X3030620Y3620612D1*
X3036324Y3617694D1*
X3044946D1*
X3050716Y3620612D1*
X3056420Y3626316D1*
X3059338Y3634938D1*
Y3640641D1*
X3056420Y3649264D1*
X3050716Y3655034D1*
X3044946Y3657886D1*
X3036324D1*
X3077865D2*
Y3629168D1*
X3080717Y3620612D1*
X3086487Y3617694D1*
X3095109D1*
X3100813Y3620612D1*
X3109435Y3629168D1*
Y3657886D2*
Y3617694D1*
X3162384Y3655034D2*
Y3609072D1*
X3159532Y3600516D1*
X3156680Y3597598D1*
X3150910Y3594746D1*
X3142288D1*
X3136584Y3597598D1*
X3162384Y3646412D2*
X3156680Y3652115D1*
X3150910Y3655034D1*
X3142288D1*
X3136584Y3652115D1*
X3130814Y3646412D1*
X3127962Y3637790D1*
Y3632019D1*
X3130814Y3623464D1*
X3136584Y3617694D1*
X3142288Y3614842D1*
X3150910D1*
X3156680Y3617694D1*
X3162384Y3623464D1*
X3180911Y3677982D2*
Y3617694D1*
Y3646412D2*
X3189533Y3655034D1*
X3195303Y3657886D1*
X3203925D1*
X3209629Y3655034D1*
X3212481Y3646412D1*
Y3617694D1*
X2631201Y1749675D2*
D37*
X2648445D1*
X2654149Y1751576D1*
X2656094Y1753522D1*
X2657995Y1757324D1*
Y1763072D1*
X2656094Y1766875D1*
X2654149Y1768820D1*
X2648445Y1770722D1*
X2631201D1*
Y1730530D1*
X2697141Y1770722D2*
Y1730530D1*
X2670347Y1770722D1*
Y1730530D1*
X2709493Y1750604D2*
X2731601D1*
X2766900Y1770678D2*
X2747799D1*
X2745898Y1753478D1*
X2747799Y1755379D1*
X2753547Y1757324D1*
X2759251D1*
X2764999Y1755379D1*
X2768845Y1751576D1*
X2770747Y1745828D1*
Y1742026D1*
X2768845Y1736278D1*
X2764999Y1732431D1*
X2759251Y1730530D1*
X2753547D1*
X2747799Y1732431D1*
X2745898Y1734377D1*
X2743952Y1738179D1*
X2783098Y1770722D2*
X2798397Y1730530D1*
X2813695Y1770722D1*
X2826047Y1750604D2*
X2848155D1*
X2860506Y1770722D2*
Y1730530D1*
X2899652Y1770722D2*
Y1730530D1*
X2872857Y1770722D1*
Y1730530D1*
X997441Y1749675D2*
X1014685D1*
X1020389Y1751576D1*
X1022334Y1753522D1*
X1024236Y1757324D1*
Y1763072D1*
X1022334Y1766875D1*
X1020389Y1768820D1*
X1014685Y1770722D1*
X997441D1*
Y1730530D1*
X1063382Y1770722D2*
Y1730530D1*
X1036587Y1770722D1*
Y1730530D1*
X1075733Y1750604D2*
X1097841D1*
X1133140Y1770678D2*
X1114039D1*
X1112138Y1753478D1*
X1114039Y1755379D1*
X1119787Y1757324D1*
X1125491D1*
X1131239Y1755379D1*
X1135086Y1751576D1*
X1136987Y1745828D1*
Y1742026D1*
X1135086Y1736278D1*
X1131239Y1732431D1*
X1125491Y1730530D1*
X1119787D1*
X1114039Y1732431D1*
X1112138Y1734377D1*
X1110192Y1738179D1*
X1149338Y1770722D2*
X1164637Y1730530D1*
X1179935Y1770722D1*
X1192287Y1750604D2*
X1214395D1*
X1226746Y1770722D2*
Y1730530D1*
X1265892Y1770722D2*
Y1730530D1*
X1239097Y1770722D1*
Y1730530D1*
X2541649Y1008178D2*
X2522547D1*
X2520646Y990978D1*
X2522547Y992879D1*
X2528296Y994824D1*
X2533999D1*
X2539747Y992879D1*
X2543594Y989076D1*
X2545495Y983328D1*
Y979526D1*
X2543594Y973778D1*
X2539747Y969931D1*
X2533999Y968030D1*
X2528296D1*
X2522547Y969931D1*
X2520646Y971877D1*
X2518701Y975679D1*
X2557847Y1008222D2*
X2573145Y968030D1*
X2588444Y1008222D1*
X2639676D2*
Y968030D1*
X2678822Y1008222D2*
Y968030D1*
X2652028Y1008222D1*
Y968030D1*
X2565957Y1941743D2*
Y1907299D1*
X2548757Y1924499D2*
X2583201D1*
X912414Y1941743D2*
Y1907299D1*
X895214Y1924499D2*
X929658D1*
X2534995Y1620128D2*
X2533094Y1623930D1*
X2529247Y1627777D1*
X2525445Y1629678D1*
X2517795D1*
X2513948Y1627777D1*
X2510146Y1623930D1*
X2508200Y1620128D1*
X2506299Y1614380D1*
Y1604785D1*
X2508200Y1599081D1*
X2510146Y1595234D1*
X2513948Y1591432D1*
X2517795Y1589486D1*
X2525445D1*
X2529247Y1591432D1*
X2533094Y1595234D1*
X2534995Y1599081D1*
Y1604785D1*
X2525445D1*
X2574141Y1629678D2*
Y1589486D1*
X2547346Y1629678D1*
Y1589486D1*
X2586493Y1629678D2*
Y1589486D1*
X2599890D1*
X2605638Y1591432D1*
X2609485Y1595234D1*
X2611386Y1599081D1*
X2613287Y1604785D1*
Y1614380D1*
X2611386Y1620128D1*
X2609485Y1623930D1*
X2605638Y1627777D1*
X2599890Y1629678D1*
X2586493D1*
X842082Y1620128D2*
X840180Y1623930D1*
X836334Y1627777D1*
X832531Y1629678D1*
X824882D1*
X821035Y1627777D1*
X817233Y1623930D1*
X815287Y1620128D1*
X813386Y1614380D1*
Y1604785D1*
X815287Y1599081D1*
X817233Y1595234D1*
X821035Y1591432D1*
X824882Y1589486D1*
X832531D1*
X836334Y1591432D1*
X840180Y1595234D1*
X842082Y1599081D1*
Y1604785D1*
X832531D1*
X881228Y1629678D2*
Y1589486D1*
X854433Y1629678D1*
Y1589486D1*
X893579Y1629678D2*
Y1589486D1*
X906976D1*
X912725Y1591432D1*
X916571Y1595234D1*
X918473Y1599081D1*
X920374Y1604785D1*
Y1614380D1*
X918473Y1620128D1*
X916571Y1623930D1*
X912725Y1627777D1*
X906976Y1629678D1*
X893579D1*
X2456255Y1108317D2*
X2454354Y1112119D1*
X2450507Y1115966D1*
X2446704Y1117867D1*
X2439055D1*
X2435208Y1115966D1*
X2431406Y1112119D1*
X2429460Y1108317D1*
X2427559Y1102569D1*
Y1092974D1*
X2429460Y1087270D1*
X2431406Y1083423D1*
X2435208Y1079621D1*
X2439055Y1077675D1*
X2446704D1*
X2450507Y1079621D1*
X2454354Y1083423D1*
X2456255Y1087270D1*
Y1092974D1*
X2446704D1*
X2495401Y1117867D2*
Y1077675D1*
X2468606Y1117867D1*
Y1077675D1*
X2507752Y1117867D2*
Y1077675D1*
X2521150D1*
X2526898Y1079621D1*
X2530745Y1083423D1*
X2532646Y1087270D1*
X2534547Y1092974D1*
Y1102569D1*
X2532646Y1108317D1*
X2530745Y1112119D1*
X2526898Y1115966D1*
X2521150Y1117867D1*
X2507752D1*
X655905Y2535190D2*
Y2494998D1*
X670202Y2525595D2*
Y2527497D1*
X672104Y2531344D1*
X674005Y2533245D1*
X677852Y2535146D1*
X685501D1*
X689303Y2533245D1*
X691205Y2531344D1*
X693150Y2527497D1*
Y2523694D1*
X691205Y2519847D1*
X687402Y2514144D1*
X668257Y2494998D1*
X695052D1*
X736099Y2525640D2*
X734198Y2529442D1*
X730351Y2533289D1*
X726548Y2535190D1*
X718899D1*
X715052Y2533289D1*
X711250Y2529442D1*
X709304Y2525640D1*
X707403Y2519892D1*
Y2510297D1*
X709304Y2504593D1*
X711250Y2500746D1*
X715052Y2496944D1*
X718899Y2494998D1*
X726548D1*
X730351Y2496944D1*
X734198Y2500746D1*
X736099Y2504593D1*
X748450Y2494998D2*
X775245Y2535146D1*
X791443D2*
X812445D1*
X800994Y2519847D1*
X806742D1*
X810544Y2517946D1*
X812445Y2516045D1*
X814391Y2510297D1*
Y2506494D1*
X812445Y2500746D1*
X808643Y2496900D1*
X802895Y2494998D1*
X797147D1*
X791443Y2496900D1*
X789542Y2498845D1*
X787596Y2502648D1*
X828644Y2498845D2*
X826742Y2496900D1*
X828644Y2494998D1*
X830589Y2496900D1*
X828644Y2498845D1*
X846787Y2535146D2*
X867790D1*
X856338Y2519847D1*
X862086D1*
X865888Y2517946D1*
X867790Y2516045D1*
X869735Y2510297D1*
Y2506494D1*
X867790Y2500746D1*
X863987Y2496900D1*
X858239Y2494998D1*
X852491D1*
X846787Y2496900D1*
X844886Y2498845D1*
X842941Y2502648D1*
X882087Y2535190D2*
X897385Y2494998D1*
X912684Y2535190D1*
X2309449Y2571472D2*
Y2531280D1*
X2323746Y2561878D2*
Y2563779D1*
X2325647Y2567626D1*
X2327548Y2569527D1*
X2331395Y2571428D1*
X2339044D1*
X2342847Y2569527D1*
X2344748Y2567626D1*
X2346694Y2563779D1*
Y2559976D1*
X2344748Y2556130D1*
X2340946Y2550426D1*
X2321800Y2531280D1*
X2348595D1*
X2389642Y2561922D2*
X2387741Y2565724D1*
X2383894Y2569571D1*
X2380092Y2571472D1*
X2372442D1*
X2368596Y2569571D1*
X2364793Y2565724D1*
X2362847Y2561922D1*
X2360946Y2556174D1*
Y2546579D1*
X2362847Y2540875D1*
X2364793Y2537028D1*
X2368596Y2533226D1*
X2372442Y2531280D1*
X2380092D1*
X2383894Y2533226D1*
X2387741Y2537028D1*
X2389642Y2540875D1*
X2401994Y2531280D2*
X2428788Y2571428D1*
X2444986D2*
X2465989D1*
X2454537Y2556130D1*
X2460285D1*
X2464088Y2554228D1*
X2465989Y2552327D1*
X2467934Y2546579D1*
Y2542776D1*
X2465989Y2537028D1*
X2462186Y2533182D1*
X2456438Y2531280D1*
X2450690D1*
X2444986Y2533182D1*
X2443085Y2535127D1*
X2441140Y2538930D1*
X2482187Y2535127D2*
X2480286Y2533182D1*
X2482187Y2531280D1*
X2484132Y2533182D1*
X2482187Y2535127D1*
X2500331Y2571428D2*
X2521333D1*
X2509881Y2556130D1*
X2515629D1*
X2519432Y2554228D1*
X2521333Y2552327D1*
X2523279Y2546579D1*
Y2542776D1*
X2521333Y2537028D1*
X2517530Y2533182D1*
X2511782Y2531280D1*
X2506034D1*
X2500331Y2533182D1*
X2498429Y2535127D1*
X2496484Y2538930D1*
X2535630Y2571472D2*
X2550929Y2531280D1*
X2566227Y2571472D1*
X3243656Y2604380D2*
X3241755Y2608182D1*
X3237908Y2612029D1*
X3234106Y2613930D1*
X3226457D1*
X3222610Y2612029D1*
X3218807Y2608182D1*
X3216862Y2604380D1*
X3214961Y2598632D1*
Y2589037D1*
X3216862Y2583333D1*
X3218807Y2579486D1*
X3222610Y2575684D1*
X3226457Y2573738D1*
X3234106D1*
X3237908Y2575684D1*
X3241755Y2579486D1*
X3243656Y2583333D1*
Y2589037D1*
X3234106D1*
X3282803Y2613930D2*
Y2573738D1*
X3256008Y2613930D1*
Y2573738D1*
X3295154Y2613930D2*
Y2573738D1*
X3308551D1*
X3314299Y2575684D1*
X3318146Y2579486D1*
X3320047Y2583333D1*
X3321949Y2589037D1*
Y2598632D1*
X3320047Y2604380D1*
X3318146Y2608182D1*
X3314299Y2612029D1*
X3308551Y2613930D1*
X3295154D1*
X3243656Y2328789D2*
X3241755Y2332592D1*
X3237908Y2336439D1*
X3234106Y2338340D1*
X3226457D1*
X3222610Y2336439D1*
X3218807Y2332592D1*
X3216862Y2328789D1*
X3214961Y2323041D1*
Y2313446D1*
X3216862Y2307743D1*
X3218807Y2303896D1*
X3222610Y2300093D1*
X3226457Y2298148D1*
X3234106D1*
X3237908Y2300093D1*
X3241755Y2303896D1*
X3243656Y2307743D1*
Y2313446D1*
X3234106D1*
X3282803Y2338340D2*
Y2298148D1*
X3256008Y2338340D1*
Y2298148D1*
X3295154Y2338340D2*
Y2298148D1*
X3308551D1*
X3314299Y2300093D1*
X3318146Y2303896D1*
X3320047Y2307743D1*
X3321949Y2313446D1*
Y2323041D1*
X3320047Y2328789D1*
X3318146Y2332592D1*
X3314299Y2336439D1*
X3308551Y2338340D1*
X3295154D1*
X3046806Y3116191D2*
X3044905Y3119993D1*
X3041058Y3123840D1*
X3037256Y3125741D1*
X3029606D1*
X3025759Y3123840D1*
X3021957Y3119993D1*
X3020011Y3116191D1*
X3018110Y3110443D1*
Y3100848D1*
X3020011Y3095144D1*
X3021957Y3091297D1*
X3025759Y3087495D1*
X3029606Y3085549D1*
X3037256D1*
X3041058Y3087495D1*
X3044905Y3091297D1*
X3046806Y3095144D1*
Y3100848D1*
X3037256D1*
X3085952Y3125741D2*
Y3085549D1*
X3059157Y3125741D1*
Y3085549D1*
X3098304Y3125741D2*
Y3085549D1*
X3111701D1*
X3117449Y3087495D1*
X3121296Y3091297D1*
X3123197Y3095144D1*
X3125098Y3100848D1*
Y3110443D1*
X3123197Y3116191D1*
X3121296Y3119993D1*
X3117449Y3123840D1*
X3111701Y3125741D1*
X3098304D1*
X960192Y2761860D2*
X958291Y2765663D1*
X954444Y2769509D1*
X950641Y2771411D1*
X942992D1*
X939145Y2769509D1*
X935343Y2765663D1*
X933397Y2761860D1*
X931496Y2756112D1*
Y2746517D1*
X933397Y2740814D1*
X935343Y2736967D1*
X939145Y2733164D1*
X942992Y2731219D1*
X950641D1*
X954444Y2733164D1*
X958291Y2736967D1*
X960192Y2740814D1*
Y2746517D1*
X950641D1*
X999338Y2771411D2*
Y2731219D1*
X972543Y2771411D1*
Y2731219D1*
X1011689Y2771411D2*
Y2731219D1*
X1025087D1*
X1030835Y2733164D1*
X1034682Y2736967D1*
X1036583Y2740814D1*
X1038484Y2746517D1*
Y2756112D1*
X1036583Y2761860D1*
X1034682Y2765663D1*
X1030835Y2769509D1*
X1025087Y2771411D1*
X1011689D1*
X951784Y2650404D2*
Y2615960D1*
X934584Y2633160D2*
X969028D1*
M02*
